<?xml version="1.0" encoding="utf-8" standalone="no"?>
<!DOCTYPE svg PUBLIC "-//W3C//DTD SVG 1.1//EN"
  "http://www.w3.org/Graphics/SVG/1.1/DTD/svg11.dtd">
<svg xmlns:xlink="http://www.w3.org/1999/xlink" width="1072.7325pt" height="368.008875pt" viewBox="0 0 1072.7325 368.008875" xmlns="http://www.w3.org/2000/svg" version="1.1">
 <metadata>
  <rdf:RDF xmlns:dc="http://purl.org/dc/elements/1.1/" xmlns:cc="http://creativecommons.org/ns#" xmlns:rdf="http://www.w3.org/1999/02/22-rdf-syntax-ns#">
   <cc:Work>
    <dc:type rdf:resource="http://purl.org/dc/dcmitype/StillImage"/>
    <dc:date>2025-11-26T13:41:21.935669</dc:date>
    <dc:format>image/svg+xml</dc:format>
    <dc:creator>
     <cc:Agent>
      <dc:title>Matplotlib v3.10.7, https://matplotlib.org/</dc:title>
     </cc:Agent>
    </dc:creator>
   </cc:Work>
  </rdf:RDF>
 </metadata>
 <defs>
  <style type="text/css">*{stroke-linejoin: round; stroke-linecap: butt}</style>
 </defs>
 <g id="figure_1">
  <g id="patch_1">
   <path d="M 0 368.008875 
L 1072.7325 368.008875 
L 1072.7325 0 
L 0 0 
z
" style="fill: #ffffff"/>
  </g>
  <g id="axes_1">
   <g id="patch_2">
    <path d="M 47.6525 328.664 
L 352.7325 328.664 
L 352.7325 79.8 
L 47.6525 79.8 
z
" style="fill: #ffffff"/>
   </g>
   <g id="matplotlib.axis_1">
    <g id="xtick_1">
     <g id="line2d_1">
      <defs>
       <path id="m4cb2322afb" d="M 0 0 
L 0 3.5 
" style="stroke: #000000; stroke-width: 0.8"/>
      </defs>
      <g>
       <use xlink:href="#m4cb2322afb" x="113.522045" y="328.664" style="stroke: #000000; stroke-width: 0.8"/>
      </g>
     </g>
     <g id="text_1">
      <!-- Proline -->
      <g transform="translate(89.588608 344.782125) scale(0.12 -0.12)">
       <defs>
        <path id="DejaVuSans-Bold-50" d="M 588 4666 
L 2584 4666 
Q 3475 4666 3951 4270 
Q 4428 3875 4428 3144 
Q 4428 2409 3951 2014 
Q 3475 1619 2584 1619 
L 1791 1619 
L 1791 0 
L 588 0 
L 588 4666 
z
M 1791 3794 
L 1791 2491 
L 2456 2491 
Q 2806 2491 2997 2661 
Q 3188 2831 3188 3144 
Q 3188 3456 2997 3625 
Q 2806 3794 2456 3794 
L 1791 3794 
z
" transform="scale(0.015625)"/>
        <path id="DejaVuSans-Bold-72" d="M 3138 2547 
Q 2991 2616 2845 2648 
Q 2700 2681 2553 2681 
Q 2122 2681 1889 2404 
Q 1656 2128 1656 1613 
L 1656 0 
L 538 0 
L 538 3500 
L 1656 3500 
L 1656 2925 
Q 1872 3269 2151 3426 
Q 2431 3584 2822 3584 
Q 2878 3584 2943 3579 
Q 3009 3575 3134 3559 
L 3138 2547 
z
" transform="scale(0.015625)"/>
        <path id="DejaVuSans-Bold-6f" d="M 2203 2784 
Q 1831 2784 1636 2517 
Q 1441 2250 1441 1747 
Q 1441 1244 1636 976 
Q 1831 709 2203 709 
Q 2569 709 2762 976 
Q 2956 1244 2956 1747 
Q 2956 2250 2762 2517 
Q 2569 2784 2203 2784 
z
M 2203 3584 
Q 3106 3584 3614 3096 
Q 4122 2609 4122 1747 
Q 4122 884 3614 396 
Q 3106 -91 2203 -91 
Q 1297 -91 786 396 
Q 275 884 275 1747 
Q 275 2609 786 3096 
Q 1297 3584 2203 3584 
z
" transform="scale(0.015625)"/>
        <path id="DejaVuSans-Bold-6c" d="M 538 4863 
L 1656 4863 
L 1656 0 
L 538 0 
L 538 4863 
z
" transform="scale(0.015625)"/>
        <path id="DejaVuSans-Bold-69" d="M 538 3500 
L 1656 3500 
L 1656 0 
L 538 0 
L 538 3500 
z
M 538 4863 
L 1656 4863 
L 1656 3950 
L 538 3950 
L 538 4863 
z
" transform="scale(0.015625)"/>
        <path id="DejaVuSans-Bold-6e" d="M 4056 2131 
L 4056 0 
L 2931 0 
L 2931 347 
L 2931 1631 
Q 2931 2084 2911 2256 
Q 2891 2428 2841 2509 
Q 2775 2619 2662 2680 
Q 2550 2741 2406 2741 
Q 2056 2741 1856 2470 
Q 1656 2200 1656 1722 
L 1656 0 
L 538 0 
L 538 3500 
L 1656 3500 
L 1656 2988 
Q 1909 3294 2193 3439 
Q 2478 3584 2822 3584 
Q 3428 3584 3742 3212 
Q 4056 2841 4056 2131 
z
" transform="scale(0.015625)"/>
        <path id="DejaVuSans-Bold-65" d="M 4031 1759 
L 4031 1441 
L 1416 1441 
Q 1456 1047 1700 850 
Q 1944 653 2381 653 
Q 2734 653 3104 758 
Q 3475 863 3866 1075 
L 3866 213 
Q 3469 63 3072 -14 
Q 2675 -91 2278 -91 
Q 1328 -91 801 392 
Q 275 875 275 1747 
Q 275 2603 792 3093 
Q 1309 3584 2216 3584 
Q 3041 3584 3536 3087 
Q 4031 2591 4031 1759 
z
M 2881 2131 
Q 2881 2450 2695 2645 
Q 2509 2841 2209 2841 
Q 1884 2841 1681 2658 
Q 1478 2475 1428 2131 
L 2881 2131 
z
" transform="scale(0.015625)"/>
       </defs>
       <use xlink:href="#DejaVuSans-Bold-50"/>
       <use xlink:href="#DejaVuSans-Bold-72" transform="translate(73.291016 0)"/>
       <use xlink:href="#DejaVuSans-Bold-6f" transform="translate(122.607422 0)"/>
       <use xlink:href="#DejaVuSans-Bold-6c" transform="translate(191.308594 0)"/>
       <use xlink:href="#DejaVuSans-Bold-69" transform="translate(225.585938 0)"/>
       <use xlink:href="#DejaVuSans-Bold-6e" transform="translate(259.863281 0)"/>
       <use xlink:href="#DejaVuSans-Bold-65" transform="translate(331.054688 0)"/>
      </g>
      <!-- (Cognate) -->
      <g transform="translate(79.959545 358.2195) scale(0.12 -0.12)">
       <defs>
        <path id="DejaVuSans-Bold-28" d="M 2413 -844 
L 1484 -844 
Q 1006 -72 778 623 
Q 550 1319 550 2003 
Q 550 2688 779 3389 
Q 1009 4091 1484 4856 
L 2413 4856 
Q 2013 4116 1813 3408 
Q 1613 2700 1613 2009 
Q 1613 1319 1811 609 
Q 2009 -100 2413 -844 
z
" transform="scale(0.015625)"/>
        <path id="DejaVuSans-Bold-43" d="M 4288 256 
Q 3956 84 3597 -3 
Q 3238 -91 2847 -91 
Q 1681 -91 1000 561 
Q 319 1213 319 2328 
Q 319 3447 1000 4098 
Q 1681 4750 2847 4750 
Q 3238 4750 3597 4662 
Q 3956 4575 4288 4403 
L 4288 3438 
Q 3953 3666 3628 3772 
Q 3303 3878 2944 3878 
Q 2300 3878 1931 3465 
Q 1563 3053 1563 2328 
Q 1563 1606 1931 1193 
Q 2300 781 2944 781 
Q 3303 781 3628 887 
Q 3953 994 4288 1222 
L 4288 256 
z
" transform="scale(0.015625)"/>
        <path id="DejaVuSans-Bold-67" d="M 2919 594 
Q 2688 288 2409 144 
Q 2131 0 1766 0 
Q 1125 0 706 504 
Q 288 1009 288 1791 
Q 288 2575 706 3076 
Q 1125 3578 1766 3578 
Q 2131 3578 2409 3434 
Q 2688 3291 2919 2981 
L 2919 3500 
L 4044 3500 
L 4044 353 
Q 4044 -491 3511 -936 
Q 2978 -1381 1966 -1381 
Q 1638 -1381 1331 -1331 
Q 1025 -1281 716 -1178 
L 716 -306 
Q 1009 -475 1290 -558 
Q 1572 -641 1856 -641 
Q 2406 -641 2662 -400 
Q 2919 -159 2919 353 
L 2919 594 
z
M 2181 2772 
Q 1834 2772 1640 2515 
Q 1447 2259 1447 1791 
Q 1447 1309 1634 1061 
Q 1822 813 2181 813 
Q 2531 813 2725 1069 
Q 2919 1325 2919 1791 
Q 2919 2259 2725 2515 
Q 2531 2772 2181 2772 
z
" transform="scale(0.015625)"/>
        <path id="DejaVuSans-Bold-61" d="M 2106 1575 
Q 1756 1575 1579 1456 
Q 1403 1338 1403 1106 
Q 1403 894 1545 773 
Q 1688 653 1941 653 
Q 2256 653 2472 879 
Q 2688 1106 2688 1447 
L 2688 1575 
L 2106 1575 
z
M 3816 1997 
L 3816 0 
L 2688 0 
L 2688 519 
Q 2463 200 2181 54 
Q 1900 -91 1497 -91 
Q 953 -91 614 226 
Q 275 544 275 1050 
Q 275 1666 698 1953 
Q 1122 2241 2028 2241 
L 2688 2241 
L 2688 2328 
Q 2688 2594 2478 2717 
Q 2269 2841 1825 2841 
Q 1466 2841 1156 2769 
Q 847 2697 581 2553 
L 581 3406 
Q 941 3494 1303 3539 
Q 1666 3584 2028 3584 
Q 2975 3584 3395 3211 
Q 3816 2838 3816 1997 
z
" transform="scale(0.015625)"/>
        <path id="DejaVuSans-Bold-74" d="M 1759 4494 
L 1759 3500 
L 2913 3500 
L 2913 2700 
L 1759 2700 
L 1759 1216 
Q 1759 972 1856 886 
Q 1953 800 2241 800 
L 2816 800 
L 2816 0 
L 1856 0 
Q 1194 0 917 276 
Q 641 553 641 1216 
L 641 2700 
L 84 2700 
L 84 3500 
L 641 3500 
L 641 4494 
L 1759 4494 
z
" transform="scale(0.015625)"/>
        <path id="DejaVuSans-Bold-29" d="M 513 -844 
Q 913 -100 1113 609 
Q 1313 1319 1313 2009 
Q 1313 2700 1113 3408 
Q 913 4116 513 4856 
L 1441 4856 
Q 1916 4091 2145 3389 
Q 2375 2688 2375 2003 
Q 2375 1319 2147 623 
Q 1919 -72 1441 -844 
L 513 -844 
z
" transform="scale(0.015625)"/>
       </defs>
       <use xlink:href="#DejaVuSans-Bold-28"/>
       <use xlink:href="#DejaVuSans-Bold-43" transform="translate(45.703125 0)"/>
       <use xlink:href="#DejaVuSans-Bold-6f" transform="translate(119.091797 0)"/>
       <use xlink:href="#DejaVuSans-Bold-67" transform="translate(187.792969 0)"/>
       <use xlink:href="#DejaVuSans-Bold-6e" transform="translate(259.375 0)"/>
       <use xlink:href="#DejaVuSans-Bold-61" transform="translate(330.566406 0)"/>
       <use xlink:href="#DejaVuSans-Bold-74" transform="translate(398.046875 0)"/>
       <use xlink:href="#DejaVuSans-Bold-65" transform="translate(445.849609 0)"/>
       <use xlink:href="#DejaVuSans-Bold-29" transform="translate(513.671875 0)"/>
      </g>
     </g>
    </g>
    <g id="xtick_2">
     <g id="line2d_2">
      <g>
       <use xlink:href="#m4cb2322afb" x="286.862955" y="328.664" style="stroke: #000000; stroke-width: 0.8"/>
      </g>
     </g>
     <g id="text_2">
      <!-- Threonine -->
      <g transform="translate(252.678892 344.782125) scale(0.12 -0.12)">
       <defs>
        <path id="DejaVuSans-Bold-54" d="M 31 4666 
L 4331 4666 
L 4331 3756 
L 2784 3756 
L 2784 0 
L 1581 0 
L 1581 3756 
L 31 3756 
L 31 4666 
z
" transform="scale(0.015625)"/>
        <path id="DejaVuSans-Bold-68" d="M 4056 2131 
L 4056 0 
L 2931 0 
L 2931 347 
L 2931 1625 
Q 2931 2084 2911 2256 
Q 2891 2428 2841 2509 
Q 2775 2619 2662 2680 
Q 2550 2741 2406 2741 
Q 2056 2741 1856 2470 
Q 1656 2200 1656 1722 
L 1656 0 
L 538 0 
L 538 4863 
L 1656 4863 
L 1656 2988 
Q 1909 3294 2193 3439 
Q 2478 3584 2822 3584 
Q 3428 3584 3742 3212 
Q 4056 2841 4056 2131 
z
" transform="scale(0.015625)"/>
       </defs>
       <use xlink:href="#DejaVuSans-Bold-54"/>
       <use xlink:href="#DejaVuSans-Bold-68" transform="translate(68.212891 0)"/>
       <use xlink:href="#DejaVuSans-Bold-72" transform="translate(139.404297 0)"/>
       <use xlink:href="#DejaVuSans-Bold-65" transform="translate(188.720703 0)"/>
       <use xlink:href="#DejaVuSans-Bold-6f" transform="translate(256.542969 0)"/>
       <use xlink:href="#DejaVuSans-Bold-6e" transform="translate(325.244141 0)"/>
       <use xlink:href="#DejaVuSans-Bold-69" transform="translate(396.435547 0)"/>
       <use xlink:href="#DejaVuSans-Bold-6e" transform="translate(430.712891 0)"/>
       <use xlink:href="#DejaVuSans-Bold-65" transform="translate(501.904297 0)"/>
      </g>
      <!-- (Non-cognate) -->
      <g transform="translate(238.24233 358.2195) scale(0.12 -0.12)">
       <defs>
        <path id="DejaVuSans-Bold-4e" d="M 588 4666 
L 1931 4666 
L 3628 1466 
L 3628 4666 
L 4769 4666 
L 4769 0 
L 3425 0 
L 1728 3200 
L 1728 0 
L 588 0 
L 588 4666 
z
" transform="scale(0.015625)"/>
        <path id="DejaVuSans-Bold-2d" d="M 347 2297 
L 2309 2297 
L 2309 1388 
L 347 1388 
L 347 2297 
z
" transform="scale(0.015625)"/>
        <path id="DejaVuSans-Bold-63" d="M 3366 3391 
L 3366 2478 
Q 3138 2634 2908 2709 
Q 2678 2784 2431 2784 
Q 1963 2784 1702 2511 
Q 1441 2238 1441 1747 
Q 1441 1256 1702 982 
Q 1963 709 2431 709 
Q 2694 709 2930 787 
Q 3166 866 3366 1019 
L 3366 103 
Q 3103 6 2833 -42 
Q 2563 -91 2291 -91 
Q 1344 -91 809 395 
Q 275 881 275 1747 
Q 275 2613 809 3098 
Q 1344 3584 2291 3584 
Q 2566 3584 2833 3536 
Q 3100 3488 3366 3391 
z
" transform="scale(0.015625)"/>
       </defs>
       <use xlink:href="#DejaVuSans-Bold-28"/>
       <use xlink:href="#DejaVuSans-Bold-4e" transform="translate(45.703125 0)"/>
       <use xlink:href="#DejaVuSans-Bold-6f" transform="translate(129.394531 0)"/>
       <use xlink:href="#DejaVuSans-Bold-6e" transform="translate(198.095703 0)"/>
       <use xlink:href="#DejaVuSans-Bold-2d" transform="translate(269.287109 0)"/>
       <use xlink:href="#DejaVuSans-Bold-63" transform="translate(310.791016 0)"/>
       <use xlink:href="#DejaVuSans-Bold-6f" transform="translate(370.068359 0)"/>
       <use xlink:href="#DejaVuSans-Bold-67" transform="translate(438.769531 0)"/>
       <use xlink:href="#DejaVuSans-Bold-6e" transform="translate(510.351562 0)"/>
       <use xlink:href="#DejaVuSans-Bold-61" transform="translate(581.542969 0)"/>
       <use xlink:href="#DejaVuSans-Bold-74" transform="translate(649.023438 0)"/>
       <use xlink:href="#DejaVuSans-Bold-65" transform="translate(696.826172 0)"/>
       <use xlink:href="#DejaVuSans-Bold-29" transform="translate(764.648438 0)"/>
      </g>
     </g>
    </g>
   </g>
   <g id="matplotlib.axis_2">
    <g id="ytick_1">
     <g id="line2d_3">
      <path d="M 47.6525 328.664 
L 352.7325 328.664 
" clip-path="url(#p03907c220f)" style="fill: none; stroke-dasharray: 2.96,1.28; stroke-dashoffset: 0; stroke: #b0b0b0; stroke-opacity: 0.3; stroke-width: 0.8"/>
     </g>
     <g id="line2d_4">
      <defs>
       <path id="mf9a414edfe" d="M 0 0 
L -3.5 0 
" style="stroke: #000000; stroke-width: 0.8"/>
      </defs>
      <g>
       <use xlink:href="#mf9a414edfe" x="47.6525" y="328.664" style="stroke: #000000; stroke-width: 0.8"/>
      </g>
     </g>
     <g id="text_3">
      <!-- 0.0 -->
      <g transform="translate(24.749375 332.463219) scale(0.1 -0.1)">
       <defs>
        <path id="DejaVuSans-30" d="M 2034 4250 
Q 1547 4250 1301 3770 
Q 1056 3291 1056 2328 
Q 1056 1369 1301 889 
Q 1547 409 2034 409 
Q 2525 409 2770 889 
Q 3016 1369 3016 2328 
Q 3016 3291 2770 3770 
Q 2525 4250 2034 4250 
z
M 2034 4750 
Q 2819 4750 3233 4129 
Q 3647 3509 3647 2328 
Q 3647 1150 3233 529 
Q 2819 -91 2034 -91 
Q 1250 -91 836 529 
Q 422 1150 422 2328 
Q 422 3509 836 4129 
Q 1250 4750 2034 4750 
z
" transform="scale(0.015625)"/>
        <path id="DejaVuSans-2e" d="M 684 794 
L 1344 794 
L 1344 0 
L 684 0 
L 684 794 
z
" transform="scale(0.015625)"/>
       </defs>
       <use xlink:href="#DejaVuSans-30"/>
       <use xlink:href="#DejaVuSans-2e" transform="translate(63.623047 0)"/>
       <use xlink:href="#DejaVuSans-30" transform="translate(95.410156 0)"/>
      </g>
     </g>
    </g>
    <g id="ytick_2">
     <g id="line2d_5">
      <path d="M 47.6525 278.8912 
L 352.7325 278.8912 
" clip-path="url(#p03907c220f)" style="fill: none; stroke-dasharray: 2.96,1.28; stroke-dashoffset: 0; stroke: #b0b0b0; stroke-opacity: 0.3; stroke-width: 0.8"/>
     </g>
     <g id="line2d_6">
      <g>
       <use xlink:href="#mf9a414edfe" x="47.6525" y="278.8912" style="stroke: #000000; stroke-width: 0.8"/>
      </g>
     </g>
     <g id="text_4">
      <!-- 0.2 -->
      <g transform="translate(24.749375 282.690419) scale(0.1 -0.1)">
       <defs>
        <path id="DejaVuSans-32" d="M 1228 531 
L 3431 531 
L 3431 0 
L 469 0 
L 469 531 
Q 828 903 1448 1529 
Q 2069 2156 2228 2338 
Q 2531 2678 2651 2914 
Q 2772 3150 2772 3378 
Q 2772 3750 2511 3984 
Q 2250 4219 1831 4219 
Q 1534 4219 1204 4116 
Q 875 4013 500 3803 
L 500 4441 
Q 881 4594 1212 4672 
Q 1544 4750 1819 4750 
Q 2544 4750 2975 4387 
Q 3406 4025 3406 3419 
Q 3406 3131 3298 2873 
Q 3191 2616 2906 2266 
Q 2828 2175 2409 1742 
Q 1991 1309 1228 531 
z
" transform="scale(0.015625)"/>
       </defs>
       <use xlink:href="#DejaVuSans-30"/>
       <use xlink:href="#DejaVuSans-2e" transform="translate(63.623047 0)"/>
       <use xlink:href="#DejaVuSans-32" transform="translate(95.410156 0)"/>
      </g>
     </g>
    </g>
    <g id="ytick_3">
     <g id="line2d_7">
      <path d="M 47.6525 229.1184 
L 352.7325 229.1184 
" clip-path="url(#p03907c220f)" style="fill: none; stroke-dasharray: 2.96,1.28; stroke-dashoffset: 0; stroke: #b0b0b0; stroke-opacity: 0.3; stroke-width: 0.8"/>
     </g>
     <g id="line2d_8">
      <g>
       <use xlink:href="#mf9a414edfe" x="47.6525" y="229.1184" style="stroke: #000000; stroke-width: 0.8"/>
      </g>
     </g>
     <g id="text_5">
      <!-- 0.4 -->
      <g transform="translate(24.749375 232.917619) scale(0.1 -0.1)">
       <defs>
        <path id="DejaVuSans-34" d="M 2419 4116 
L 825 1625 
L 2419 1625 
L 2419 4116 
z
M 2253 4666 
L 3047 4666 
L 3047 1625 
L 3713 1625 
L 3713 1100 
L 3047 1100 
L 3047 0 
L 2419 0 
L 2419 1100 
L 313 1100 
L 313 1709 
L 2253 4666 
z
" transform="scale(0.015625)"/>
       </defs>
       <use xlink:href="#DejaVuSans-30"/>
       <use xlink:href="#DejaVuSans-2e" transform="translate(63.623047 0)"/>
       <use xlink:href="#DejaVuSans-34" transform="translate(95.410156 0)"/>
      </g>
     </g>
    </g>
    <g id="ytick_4">
     <g id="line2d_9">
      <path d="M 47.6525 179.3456 
L 352.7325 179.3456 
" clip-path="url(#p03907c220f)" style="fill: none; stroke-dasharray: 2.96,1.28; stroke-dashoffset: 0; stroke: #b0b0b0; stroke-opacity: 0.3; stroke-width: 0.8"/>
     </g>
     <g id="line2d_10">
      <g>
       <use xlink:href="#mf9a414edfe" x="47.6525" y="179.3456" style="stroke: #000000; stroke-width: 0.8"/>
      </g>
     </g>
     <g id="text_6">
      <!-- 0.6 -->
      <g transform="translate(24.749375 183.144819) scale(0.1 -0.1)">
       <defs>
        <path id="DejaVuSans-36" d="M 2113 2584 
Q 1688 2584 1439 2293 
Q 1191 2003 1191 1497 
Q 1191 994 1439 701 
Q 1688 409 2113 409 
Q 2538 409 2786 701 
Q 3034 994 3034 1497 
Q 3034 2003 2786 2293 
Q 2538 2584 2113 2584 
z
M 3366 4563 
L 3366 3988 
Q 3128 4100 2886 4159 
Q 2644 4219 2406 4219 
Q 1781 4219 1451 3797 
Q 1122 3375 1075 2522 
Q 1259 2794 1537 2939 
Q 1816 3084 2150 3084 
Q 2853 3084 3261 2657 
Q 3669 2231 3669 1497 
Q 3669 778 3244 343 
Q 2819 -91 2113 -91 
Q 1303 -91 875 529 
Q 447 1150 447 2328 
Q 447 3434 972 4092 
Q 1497 4750 2381 4750 
Q 2619 4750 2861 4703 
Q 3103 4656 3366 4563 
z
" transform="scale(0.015625)"/>
       </defs>
       <use xlink:href="#DejaVuSans-30"/>
       <use xlink:href="#DejaVuSans-2e" transform="translate(63.623047 0)"/>
       <use xlink:href="#DejaVuSans-36" transform="translate(95.410156 0)"/>
      </g>
     </g>
    </g>
    <g id="ytick_5">
     <g id="line2d_11">
      <path d="M 47.6525 129.5728 
L 352.7325 129.5728 
" clip-path="url(#p03907c220f)" style="fill: none; stroke-dasharray: 2.96,1.28; stroke-dashoffset: 0; stroke: #b0b0b0; stroke-opacity: 0.3; stroke-width: 0.8"/>
     </g>
     <g id="line2d_12">
      <g>
       <use xlink:href="#mf9a414edfe" x="47.6525" y="129.5728" style="stroke: #000000; stroke-width: 0.8"/>
      </g>
     </g>
     <g id="text_7">
      <!-- 0.8 -->
      <g transform="translate(24.749375 133.372019) scale(0.1 -0.1)">
       <defs>
        <path id="DejaVuSans-38" d="M 2034 2216 
Q 1584 2216 1326 1975 
Q 1069 1734 1069 1313 
Q 1069 891 1326 650 
Q 1584 409 2034 409 
Q 2484 409 2743 651 
Q 3003 894 3003 1313 
Q 3003 1734 2745 1975 
Q 2488 2216 2034 2216 
z
M 1403 2484 
Q 997 2584 770 2862 
Q 544 3141 544 3541 
Q 544 4100 942 4425 
Q 1341 4750 2034 4750 
Q 2731 4750 3128 4425 
Q 3525 4100 3525 3541 
Q 3525 3141 3298 2862 
Q 3072 2584 2669 2484 
Q 3125 2378 3379 2068 
Q 3634 1759 3634 1313 
Q 3634 634 3220 271 
Q 2806 -91 2034 -91 
Q 1263 -91 848 271 
Q 434 634 434 1313 
Q 434 1759 690 2068 
Q 947 2378 1403 2484 
z
M 1172 3481 
Q 1172 3119 1398 2916 
Q 1625 2713 2034 2713 
Q 2441 2713 2670 2916 
Q 2900 3119 2900 3481 
Q 2900 3844 2670 4047 
Q 2441 4250 2034 4250 
Q 1625 4250 1398 4047 
Q 1172 3844 1172 3481 
z
" transform="scale(0.015625)"/>
       </defs>
       <use xlink:href="#DejaVuSans-30"/>
       <use xlink:href="#DejaVuSans-2e" transform="translate(63.623047 0)"/>
       <use xlink:href="#DejaVuSans-38" transform="translate(95.410156 0)"/>
      </g>
     </g>
    </g>
    <g id="ytick_6">
     <g id="line2d_13">
      <path d="M 47.6525 79.8 
L 352.7325 79.8 
" clip-path="url(#p03907c220f)" style="fill: none; stroke-dasharray: 2.96,1.28; stroke-dashoffset: 0; stroke: #b0b0b0; stroke-opacity: 0.3; stroke-width: 0.8"/>
     </g>
     <g id="line2d_14">
      <g>
       <use xlink:href="#mf9a414edfe" x="47.6525" y="79.8" style="stroke: #000000; stroke-width: 0.8"/>
      </g>
     </g>
     <g id="text_8">
      <!-- 1.0 -->
      <g transform="translate(24.749375 83.599219) scale(0.1 -0.1)">
       <defs>
        <path id="DejaVuSans-31" d="M 794 531 
L 1825 531 
L 1825 4091 
L 703 3866 
L 703 4441 
L 1819 4666 
L 2450 4666 
L 2450 531 
L 3481 531 
L 3481 0 
L 794 0 
L 794 531 
z
" transform="scale(0.015625)"/>
       </defs>
       <use xlink:href="#DejaVuSans-31"/>
       <use xlink:href="#DejaVuSans-2e" transform="translate(63.623047 0)"/>
       <use xlink:href="#DejaVuSans-30" transform="translate(95.410156 0)"/>
      </g>
     </g>
    </g>
    <g id="text_9">
     <!-- ipTM Score -->
     <g transform="translate(17.837813 248.020281) rotate(-90) scale(0.14 -0.14)">
      <defs>
       <path id="DejaVuSans-Bold-70" d="M 1656 506 
L 1656 -1331 
L 538 -1331 
L 538 3500 
L 1656 3500 
L 1656 2988 
Q 1888 3294 2169 3439 
Q 2450 3584 2816 3584 
Q 3463 3584 3878 3070 
Q 4294 2556 4294 1747 
Q 4294 938 3878 423 
Q 3463 -91 2816 -91 
Q 2450 -91 2169 54 
Q 1888 200 1656 506 
z
M 2400 2772 
Q 2041 2772 1848 2508 
Q 1656 2244 1656 1747 
Q 1656 1250 1848 986 
Q 2041 722 2400 722 
Q 2759 722 2948 984 
Q 3138 1247 3138 1747 
Q 3138 2247 2948 2509 
Q 2759 2772 2400 2772 
z
" transform="scale(0.015625)"/>
       <path id="DejaVuSans-Bold-4d" d="M 588 4666 
L 2119 4666 
L 3181 2169 
L 4250 4666 
L 5778 4666 
L 5778 0 
L 4641 0 
L 4641 3413 
L 3566 897 
L 2803 897 
L 1728 3413 
L 1728 0 
L 588 0 
L 588 4666 
z
" transform="scale(0.015625)"/>
       <path id="DejaVuSans-Bold-20" transform="scale(0.015625)"/>
       <path id="DejaVuSans-Bold-53" d="M 3834 4519 
L 3834 3531 
Q 3450 3703 3084 3790 
Q 2719 3878 2394 3878 
Q 1963 3878 1756 3759 
Q 1550 3641 1550 3391 
Q 1550 3203 1689 3098 
Q 1828 2994 2194 2919 
L 2706 2816 
Q 3484 2659 3812 2340 
Q 4141 2022 4141 1434 
Q 4141 663 3683 286 
Q 3225 -91 2284 -91 
Q 1841 -91 1394 -6 
Q 947 78 500 244 
L 500 1259 
Q 947 1022 1364 901 
Q 1781 781 2169 781 
Q 2563 781 2772 912 
Q 2981 1044 2981 1288 
Q 2981 1506 2839 1625 
Q 2697 1744 2272 1838 
L 1806 1941 
Q 1106 2091 782 2419 
Q 459 2747 459 3303 
Q 459 4000 909 4375 
Q 1359 4750 2203 4750 
Q 2588 4750 2994 4692 
Q 3400 4634 3834 4519 
z
" transform="scale(0.015625)"/>
      </defs>
      <use xlink:href="#DejaVuSans-Bold-69"/>
      <use xlink:href="#DejaVuSans-Bold-70" transform="translate(34.277344 0)"/>
      <use xlink:href="#DejaVuSans-Bold-54" transform="translate(105.859375 0)"/>
      <use xlink:href="#DejaVuSans-Bold-4d" transform="translate(174.072266 0)"/>
      <use xlink:href="#DejaVuSans-Bold-20" transform="translate(273.583984 0)"/>
      <use xlink:href="#DejaVuSans-Bold-53" transform="translate(308.398438 0)"/>
      <use xlink:href="#DejaVuSans-Bold-63" transform="translate(380.419922 0)"/>
      <use xlink:href="#DejaVuSans-Bold-6f" transform="translate(439.697266 0)"/>
      <use xlink:href="#DejaVuSans-Bold-72" transform="translate(508.398438 0)"/>
      <use xlink:href="#DejaVuSans-Bold-65" transform="translate(557.714844 0)"/>
     </g>
    </g>
   </g>
   <g id="patch_3">
    <path d="M 61.519773 328.664 
L 165.524318 328.664 
L 165.524318 142.016 
L 61.519773 142.016 
z
" clip-path="url(#p03907c220f)" style="fill: #2e86ab; stroke: #000000; stroke-width: 1.5; stroke-linejoin: miter"/>
   </g>
   <g id="patch_4">
    <path d="M 234.860682 328.664 
L 338.865227 328.664 
L 338.865227 174.36832 
L 234.860682 174.36832 
z
" clip-path="url(#p03907c220f)" style="fill: #a23b72; stroke: #000000; stroke-width: 1.5; stroke-linejoin: miter"/>
   </g>
   <g id="line2d_15">
    <path d="M 47.6525 204.232 
L 352.7325 204.232 
" clip-path="url(#p03907c220f)" style="fill: none; stroke-dasharray: 5.55,2.4; stroke-dashoffset: 0; stroke: #808080; stroke-opacity: 0.5; stroke-width: 1.5"/>
   </g>
   <g id="patch_5">
    <path d="M 47.6525 328.664 
L 47.6525 79.8 
" style="fill: none; stroke: #000000; stroke-width: 2; stroke-linejoin: miter; stroke-linecap: square"/>
   </g>
   <g id="patch_6">
    <path d="M 47.6525 328.664 
L 352.7325 328.664 
" style="fill: none; stroke: #000000; stroke-width: 2; stroke-linejoin: miter; stroke-linecap: square"/>
   </g>
   <g id="text_10">
    <!-- 0.75 -->
    <g transform="translate(97.485327 131.846486) scale(0.13 -0.13)">
     <defs>
      <path id="DejaVuSans-Bold-30" d="M 2944 2338 
Q 2944 3213 2780 3570 
Q 2616 3928 2228 3928 
Q 1841 3928 1675 3570 
Q 1509 3213 1509 2338 
Q 1509 1453 1675 1090 
Q 1841 728 2228 728 
Q 2613 728 2778 1090 
Q 2944 1453 2944 2338 
z
M 4147 2328 
Q 4147 1169 3647 539 
Q 3147 -91 2228 -91 
Q 1306 -91 806 539 
Q 306 1169 306 2328 
Q 306 3491 806 4120 
Q 1306 4750 2228 4750 
Q 3147 4750 3647 4120 
Q 4147 3491 4147 2328 
z
" transform="scale(0.015625)"/>
      <path id="DejaVuSans-Bold-2e" d="M 653 1209 
L 1778 1209 
L 1778 0 
L 653 0 
L 653 1209 
z
" transform="scale(0.015625)"/>
      <path id="DejaVuSans-Bold-37" d="M 428 4666 
L 3944 4666 
L 3944 3988 
L 2125 0 
L 953 0 
L 2675 3781 
L 428 3781 
L 428 4666 
z
" transform="scale(0.015625)"/>
      <path id="DejaVuSans-Bold-35" d="M 678 4666 
L 3669 4666 
L 3669 3781 
L 1638 3781 
L 1638 3059 
Q 1775 3097 1914 3117 
Q 2053 3138 2203 3138 
Q 3056 3138 3531 2711 
Q 4006 2284 4006 1522 
Q 4006 766 3489 337 
Q 2972 -91 2053 -91 
Q 1656 -91 1267 -14 
Q 878 63 494 219 
L 494 1166 
Q 875 947 1217 837 
Q 1559 728 1863 728 
Q 2300 728 2551 942 
Q 2803 1156 2803 1522 
Q 2803 1891 2551 2103 
Q 2300 2316 1863 2316 
Q 1603 2316 1309 2248 
Q 1016 2181 678 2041 
L 678 4666 
z
" transform="scale(0.015625)"/>
     </defs>
     <use xlink:href="#DejaVuSans-Bold-30"/>
     <use xlink:href="#DejaVuSans-Bold-2e" transform="translate(69.580078 0)"/>
     <use xlink:href="#DejaVuSans-Bold-37" transform="translate(107.568359 0)"/>
     <use xlink:href="#DejaVuSans-Bold-35" transform="translate(177.148438 0)"/>
    </g>
   </g>
   <g id="text_11">
    <!-- 0.62 -->
    <g transform="translate(270.826236 164.198806) scale(0.13 -0.13)">
     <defs>
      <path id="DejaVuSans-Bold-36" d="M 2316 2303 
Q 2000 2303 1842 2098 
Q 1684 1894 1684 1484 
Q 1684 1075 1842 870 
Q 2000 666 2316 666 
Q 2634 666 2792 870 
Q 2950 1075 2950 1484 
Q 2950 1894 2792 2098 
Q 2634 2303 2316 2303 
z
M 3803 4544 
L 3803 3681 
Q 3506 3822 3243 3889 
Q 2981 3956 2731 3956 
Q 2194 3956 1894 3657 
Q 1594 3359 1544 2772 
Q 1750 2925 1990 3001 
Q 2231 3078 2516 3078 
Q 3231 3078 3670 2659 
Q 4109 2241 4109 1563 
Q 4109 813 3618 361 
Q 3128 -91 2303 -91 
Q 1394 -91 895 523 
Q 397 1138 397 2266 
Q 397 3422 980 4083 
Q 1563 4744 2578 4744 
Q 2900 4744 3203 4694 
Q 3506 4644 3803 4544 
z
" transform="scale(0.015625)"/>
      <path id="DejaVuSans-Bold-32" d="M 1844 884 
L 3897 884 
L 3897 0 
L 506 0 
L 506 884 
L 2209 2388 
Q 2438 2594 2547 2791 
Q 2656 2988 2656 3200 
Q 2656 3528 2436 3728 
Q 2216 3928 1850 3928 
Q 1569 3928 1234 3808 
Q 900 3688 519 3450 
L 519 4475 
Q 925 4609 1322 4679 
Q 1719 4750 2100 4750 
Q 2938 4750 3402 4381 
Q 3866 4013 3866 3353 
Q 3866 2972 3669 2642 
Q 3472 2313 2841 1759 
L 1844 884 
z
" transform="scale(0.015625)"/>
     </defs>
     <use xlink:href="#DejaVuSans-Bold-30"/>
     <use xlink:href="#DejaVuSans-Bold-2e" transform="translate(69.580078 0)"/>
     <use xlink:href="#DejaVuSans-Bold-36" transform="translate(107.568359 0)"/>
     <use xlink:href="#DejaVuSans-Bold-32" transform="translate(177.148438 0)"/>
    </g>
   </g>
   <g id="text_12">
    <g id="patch_7">
     <path d="M 151.997891 112.559994 
L 248.387109 112.559994 
Q 253.887109 112.559994 253.887109 107.059994 
L 253.887109 84.096462 
Q 253.887109 78.596462 248.387109 78.596462 
L 151.997891 78.596462 
Q 146.497891 78.596462 146.497891 84.096462 
L 146.497891 107.059994 
Q 146.497891 112.559994 151.997891 112.559994 
z
" style="fill: #f5deb3; opacity: 0.7; stroke: #000000; stroke-width: 1.5; stroke-linejoin: miter"/>
    </g>
    <!-- 82.7% -->
    <g transform="translate(181.111797 92.368806) scale(0.11 -0.11)">
     <defs>
      <path id="DejaVuSans-Bold-38" d="M 2228 2088 
Q 1891 2088 1709 1903 
Q 1528 1719 1528 1375 
Q 1528 1031 1709 848 
Q 1891 666 2228 666 
Q 2563 666 2741 848 
Q 2919 1031 2919 1375 
Q 2919 1722 2741 1905 
Q 2563 2088 2228 2088 
z
M 1350 2484 
Q 925 2613 709 2878 
Q 494 3144 494 3541 
Q 494 4131 934 4440 
Q 1375 4750 2228 4750 
Q 3075 4750 3515 4442 
Q 3956 4134 3956 3541 
Q 3956 3144 3739 2878 
Q 3522 2613 3097 2484 
Q 3572 2353 3814 2058 
Q 4056 1763 4056 1313 
Q 4056 619 3595 264 
Q 3134 -91 2228 -91 
Q 1319 -91 855 264 
Q 391 619 391 1313 
Q 391 1763 633 2058 
Q 875 2353 1350 2484 
z
M 1631 3419 
Q 1631 3141 1786 2991 
Q 1941 2841 2228 2841 
Q 2509 2841 2662 2991 
Q 2816 3141 2816 3419 
Q 2816 3697 2662 3845 
Q 2509 3994 2228 3994 
Q 1941 3994 1786 3844 
Q 1631 3694 1631 3419 
z
" transform="scale(0.015625)"/>
      <path id="DejaVuSans-Bold-25" d="M 4959 1925 
Q 4738 1925 4616 1733 
Q 4494 1541 4494 1184 
Q 4494 825 4614 633 
Q 4734 441 4959 441 
Q 5184 441 5303 633 
Q 5422 825 5422 1184 
Q 5422 1541 5301 1733 
Q 5181 1925 4959 1925 
z
M 4959 2450 
Q 5541 2450 5875 2112 
Q 6209 1775 6209 1184 
Q 6209 594 5875 251 
Q 5541 -91 4959 -91 
Q 4378 -91 4042 251 
Q 3706 594 3706 1184 
Q 3706 1772 4042 2111 
Q 4378 2450 4959 2450 
z
M 2094 -91 
L 1403 -91 
L 4319 4750 
L 5013 4750 
L 2094 -91 
z
M 1453 4750 
Q 2034 4750 2367 4411 
Q 2700 4072 2700 3481 
Q 2700 2891 2367 2550 
Q 2034 2209 1453 2209 
Q 872 2209 539 2550 
Q 206 2891 206 3481 
Q 206 4072 539 4411 
Q 872 4750 1453 4750 
z
M 1453 4225 
Q 1228 4225 1106 4031 
Q 984 3838 984 3481 
Q 984 3122 1106 2926 
Q 1228 2731 1453 2731 
Q 1678 2731 1798 2926 
Q 1919 3122 1919 3481 
Q 1919 3838 1797 4031 
Q 1675 4225 1453 4225 
z
" transform="scale(0.015625)"/>
     </defs>
     <use xlink:href="#DejaVuSans-Bold-38"/>
     <use xlink:href="#DejaVuSans-Bold-32" transform="translate(69.580078 0)"/>
     <use xlink:href="#DejaVuSans-Bold-2e" transform="translate(139.160156 0)"/>
     <use xlink:href="#DejaVuSans-Bold-37" transform="translate(177.148438 0)"/>
     <use xlink:href="#DejaVuSans-Bold-25" transform="translate(246.728516 0)"/>
    </g>
    <!-- cross-reactivity -->
    <g transform="translate(151.997891 104.6864) scale(0.11 -0.11)">
     <defs>
      <path id="DejaVuSans-Bold-73" d="M 3272 3391 
L 3272 2541 
Q 2913 2691 2578 2766 
Q 2244 2841 1947 2841 
Q 1628 2841 1473 2761 
Q 1319 2681 1319 2516 
Q 1319 2381 1436 2309 
Q 1553 2238 1856 2203 
L 2053 2175 
Q 2913 2066 3209 1816 
Q 3506 1566 3506 1031 
Q 3506 472 3093 190 
Q 2681 -91 1863 -91 
Q 1516 -91 1145 -36 
Q 775 19 384 128 
L 384 978 
Q 719 816 1070 734 
Q 1422 653 1784 653 
Q 2113 653 2278 743 
Q 2444 834 2444 1013 
Q 2444 1163 2330 1236 
Q 2216 1309 1875 1350 
L 1678 1375 
Q 931 1469 631 1722 
Q 331 1975 331 2491 
Q 331 3047 712 3315 
Q 1094 3584 1881 3584 
Q 2191 3584 2531 3537 
Q 2872 3491 3272 3391 
z
" transform="scale(0.015625)"/>
      <path id="DejaVuSans-Bold-76" d="M 97 3500 
L 1216 3500 
L 2088 1081 
L 2956 3500 
L 4078 3500 
L 2700 0 
L 1472 0 
L 97 3500 
z
" transform="scale(0.015625)"/>
      <path id="DejaVuSans-Bold-79" d="M 78 3500 
L 1197 3500 
L 2138 1125 
L 2938 3500 
L 4056 3500 
L 2584 -331 
Q 2363 -916 2067 -1148 
Q 1772 -1381 1288 -1381 
L 641 -1381 
L 641 -647 
L 991 -647 
Q 1275 -647 1404 -556 
Q 1534 -466 1606 -231 
L 1638 -134 
L 78 3500 
z
" transform="scale(0.015625)"/>
     </defs>
     <use xlink:href="#DejaVuSans-Bold-63"/>
     <use xlink:href="#DejaVuSans-Bold-72" transform="translate(59.277344 0)"/>
     <use xlink:href="#DejaVuSans-Bold-6f" transform="translate(108.59375 0)"/>
     <use xlink:href="#DejaVuSans-Bold-73" transform="translate(177.294922 0)"/>
     <use xlink:href="#DejaVuSans-Bold-73" transform="translate(236.816406 0)"/>
     <use xlink:href="#DejaVuSans-Bold-2d" transform="translate(296.337891 0)"/>
     <use xlink:href="#DejaVuSans-Bold-72" transform="translate(337.841797 0)"/>
     <use xlink:href="#DejaVuSans-Bold-65" transform="translate(387.158203 0)"/>
     <use xlink:href="#DejaVuSans-Bold-61" transform="translate(454.980469 0)"/>
     <use xlink:href="#DejaVuSans-Bold-63" transform="translate(522.460938 0)"/>
     <use xlink:href="#DejaVuSans-Bold-74" transform="translate(581.738281 0)"/>
     <use xlink:href="#DejaVuSans-Bold-69" transform="translate(629.541016 0)"/>
     <use xlink:href="#DejaVuSans-Bold-76" transform="translate(663.818359 0)"/>
     <use xlink:href="#DejaVuSans-Bold-69" transform="translate(729.003906 0)"/>
     <use xlink:href="#DejaVuSans-Bold-74" transform="translate(763.28125 0)"/>
     <use xlink:href="#DejaVuSans-Bold-79" transform="translate(811.083984 0)"/>
    </g>
   </g>
   <g id="text_13">
    <!-- LUCA ProRS -->
    <g transform="translate(146.815 64.8) scale(0.16 -0.16)">
     <defs>
      <path id="DejaVuSans-Bold-4c" d="M 588 4666 
L 1791 4666 
L 1791 909 
L 3903 909 
L 3903 0 
L 588 0 
L 588 4666 
z
" transform="scale(0.015625)"/>
      <path id="DejaVuSans-Bold-55" d="M 588 4666 
L 1791 4666 
L 1791 1869 
Q 1791 1291 1980 1042 
Q 2169 794 2597 794 
Q 3028 794 3217 1042 
Q 3406 1291 3406 1869 
L 3406 4666 
L 4609 4666 
L 4609 1869 
Q 4609 878 4112 393 
Q 3616 -91 2597 -91 
Q 1581 -91 1084 393 
Q 588 878 588 1869 
L 588 4666 
z
" transform="scale(0.015625)"/>
      <path id="DejaVuSans-Bold-41" d="M 3419 850 
L 1538 850 
L 1241 0 
L 31 0 
L 1759 4666 
L 3194 4666 
L 4922 0 
L 3713 0 
L 3419 850 
z
M 1838 1716 
L 3116 1716 
L 2478 3572 
L 1838 1716 
z
" transform="scale(0.015625)"/>
      <path id="DejaVuSans-Bold-52" d="M 2297 2597 
Q 2675 2597 2839 2737 
Q 3003 2878 3003 3200 
Q 3003 3519 2839 3656 
Q 2675 3794 2297 3794 
L 1791 3794 
L 1791 2597 
L 2297 2597 
z
M 1791 1766 
L 1791 0 
L 588 0 
L 588 4666 
L 2425 4666 
Q 3347 4666 3776 4356 
Q 4206 4047 4206 3378 
Q 4206 2916 3982 2619 
Q 3759 2322 3309 2181 
Q 3556 2125 3751 1926 
Q 3947 1728 4147 1325 
L 4800 0 
L 3519 0 
L 2950 1159 
Q 2778 1509 2601 1637 
Q 2425 1766 2131 1766 
L 1791 1766 
z
" transform="scale(0.015625)"/>
     </defs>
     <use xlink:href="#DejaVuSans-Bold-4c"/>
     <use xlink:href="#DejaVuSans-Bold-55" transform="translate(60.095703 0)"/>
     <use xlink:href="#DejaVuSans-Bold-43" transform="translate(141.296875 0)"/>
     <use xlink:href="#DejaVuSans-Bold-41" transform="translate(214.685547 0)"/>
     <use xlink:href="#DejaVuSans-Bold-20" transform="translate(292.078125 0)"/>
     <use xlink:href="#DejaVuSans-Bold-50" transform="translate(326.892578 0)"/>
     <use xlink:href="#DejaVuSans-Bold-72" transform="translate(400.183594 0)"/>
     <use xlink:href="#DejaVuSans-Bold-6f" transform="translate(449.5 0)"/>
     <use xlink:href="#DejaVuSans-Bold-52" transform="translate(518.201172 0)"/>
     <use xlink:href="#DejaVuSans-Bold-53" transform="translate(595.203125 0)"/>
    </g>
   </g>
  </g>
  <g id="axes_2">
   <g id="patch_8">
    <path d="M 404.0525 328.664 
L 709.1325 328.664 
L 709.1325 79.8 
L 404.0525 79.8 
z
" style="fill: #ffffff"/>
   </g>
   <g id="matplotlib.axis_3">
    <g id="xtick_3">
     <g id="line2d_16">
      <g>
       <use xlink:href="#m4cb2322afb" x="469.922045" y="328.664" style="stroke: #000000; stroke-width: 0.8"/>
      </g>
     </g>
     <g id="text_14">
      <!-- Proline -->
      <g transform="translate(445.988608 344.782125) scale(0.12 -0.12)">
       <use xlink:href="#DejaVuSans-Bold-50"/>
       <use xlink:href="#DejaVuSans-Bold-72" transform="translate(73.291016 0)"/>
       <use xlink:href="#DejaVuSans-Bold-6f" transform="translate(122.607422 0)"/>
       <use xlink:href="#DejaVuSans-Bold-6c" transform="translate(191.308594 0)"/>
       <use xlink:href="#DejaVuSans-Bold-69" transform="translate(225.585938 0)"/>
       <use xlink:href="#DejaVuSans-Bold-6e" transform="translate(259.863281 0)"/>
       <use xlink:href="#DejaVuSans-Bold-65" transform="translate(331.054688 0)"/>
      </g>
      <!-- (Cognate) -->
      <g transform="translate(436.359545 358.2195) scale(0.12 -0.12)">
       <use xlink:href="#DejaVuSans-Bold-28"/>
       <use xlink:href="#DejaVuSans-Bold-43" transform="translate(45.703125 0)"/>
       <use xlink:href="#DejaVuSans-Bold-6f" transform="translate(119.091797 0)"/>
       <use xlink:href="#DejaVuSans-Bold-67" transform="translate(187.792969 0)"/>
       <use xlink:href="#DejaVuSans-Bold-6e" transform="translate(259.375 0)"/>
       <use xlink:href="#DejaVuSans-Bold-61" transform="translate(330.566406 0)"/>
       <use xlink:href="#DejaVuSans-Bold-74" transform="translate(398.046875 0)"/>
       <use xlink:href="#DejaVuSans-Bold-65" transform="translate(445.849609 0)"/>
       <use xlink:href="#DejaVuSans-Bold-29" transform="translate(513.671875 0)"/>
      </g>
     </g>
    </g>
    <g id="xtick_4">
     <g id="line2d_17">
      <g>
       <use xlink:href="#m4cb2322afb" x="643.262955" y="328.664" style="stroke: #000000; stroke-width: 0.8"/>
      </g>
     </g>
     <g id="text_15">
      <!-- Threonine -->
      <g transform="translate(609.078892 344.782125) scale(0.12 -0.12)">
       <use xlink:href="#DejaVuSans-Bold-54"/>
       <use xlink:href="#DejaVuSans-Bold-68" transform="translate(68.212891 0)"/>
       <use xlink:href="#DejaVuSans-Bold-72" transform="translate(139.404297 0)"/>
       <use xlink:href="#DejaVuSans-Bold-65" transform="translate(188.720703 0)"/>
       <use xlink:href="#DejaVuSans-Bold-6f" transform="translate(256.542969 0)"/>
       <use xlink:href="#DejaVuSans-Bold-6e" transform="translate(325.244141 0)"/>
       <use xlink:href="#DejaVuSans-Bold-69" transform="translate(396.435547 0)"/>
       <use xlink:href="#DejaVuSans-Bold-6e" transform="translate(430.712891 0)"/>
       <use xlink:href="#DejaVuSans-Bold-65" transform="translate(501.904297 0)"/>
      </g>
      <!-- (Non-cognate) -->
      <g transform="translate(594.64233 358.2195) scale(0.12 -0.12)">
       <use xlink:href="#DejaVuSans-Bold-28"/>
       <use xlink:href="#DejaVuSans-Bold-4e" transform="translate(45.703125 0)"/>
       <use xlink:href="#DejaVuSans-Bold-6f" transform="translate(129.394531 0)"/>
       <use xlink:href="#DejaVuSans-Bold-6e" transform="translate(198.095703 0)"/>
       <use xlink:href="#DejaVuSans-Bold-2d" transform="translate(269.287109 0)"/>
       <use xlink:href="#DejaVuSans-Bold-63" transform="translate(310.791016 0)"/>
       <use xlink:href="#DejaVuSans-Bold-6f" transform="translate(370.068359 0)"/>
       <use xlink:href="#DejaVuSans-Bold-67" transform="translate(438.769531 0)"/>
       <use xlink:href="#DejaVuSans-Bold-6e" transform="translate(510.351562 0)"/>
       <use xlink:href="#DejaVuSans-Bold-61" transform="translate(581.542969 0)"/>
       <use xlink:href="#DejaVuSans-Bold-74" transform="translate(649.023438 0)"/>
       <use xlink:href="#DejaVuSans-Bold-65" transform="translate(696.826172 0)"/>
       <use xlink:href="#DejaVuSans-Bold-29" transform="translate(764.648438 0)"/>
      </g>
     </g>
    </g>
   </g>
   <g id="matplotlib.axis_4">
    <g id="ytick_7">
     <g id="line2d_18">
      <path d="M 404.0525 328.664 
L 709.1325 328.664 
" clip-path="url(#p26c08062a4)" style="fill: none; stroke-dasharray: 2.96,1.28; stroke-dashoffset: 0; stroke: #b0b0b0; stroke-opacity: 0.3; stroke-width: 0.8"/>
     </g>
     <g id="line2d_19">
      <g>
       <use xlink:href="#mf9a414edfe" x="404.0525" y="328.664" style="stroke: #000000; stroke-width: 0.8"/>
      </g>
     </g>
     <g id="text_16">
      <!-- 0.0 -->
      <g transform="translate(381.149375 332.463219) scale(0.1 -0.1)">
       <use xlink:href="#DejaVuSans-30"/>
       <use xlink:href="#DejaVuSans-2e" transform="translate(63.623047 0)"/>
       <use xlink:href="#DejaVuSans-30" transform="translate(95.410156 0)"/>
      </g>
     </g>
    </g>
    <g id="ytick_8">
     <g id="line2d_20">
      <path d="M 404.0525 278.8912 
L 709.1325 278.8912 
" clip-path="url(#p26c08062a4)" style="fill: none; stroke-dasharray: 2.96,1.28; stroke-dashoffset: 0; stroke: #b0b0b0; stroke-opacity: 0.3; stroke-width: 0.8"/>
     </g>
     <g id="line2d_21">
      <g>
       <use xlink:href="#mf9a414edfe" x="404.0525" y="278.8912" style="stroke: #000000; stroke-width: 0.8"/>
      </g>
     </g>
     <g id="text_17">
      <!-- 0.2 -->
      <g transform="translate(381.149375 282.690419) scale(0.1 -0.1)">
       <use xlink:href="#DejaVuSans-30"/>
       <use xlink:href="#DejaVuSans-2e" transform="translate(63.623047 0)"/>
       <use xlink:href="#DejaVuSans-32" transform="translate(95.410156 0)"/>
      </g>
     </g>
    </g>
    <g id="ytick_9">
     <g id="line2d_22">
      <path d="M 404.0525 229.1184 
L 709.1325 229.1184 
" clip-path="url(#p26c08062a4)" style="fill: none; stroke-dasharray: 2.96,1.28; stroke-dashoffset: 0; stroke: #b0b0b0; stroke-opacity: 0.3; stroke-width: 0.8"/>
     </g>
     <g id="line2d_23">
      <g>
       <use xlink:href="#mf9a414edfe" x="404.0525" y="229.1184" style="stroke: #000000; stroke-width: 0.8"/>
      </g>
     </g>
     <g id="text_18">
      <!-- 0.4 -->
      <g transform="translate(381.149375 232.917619) scale(0.1 -0.1)">
       <use xlink:href="#DejaVuSans-30"/>
       <use xlink:href="#DejaVuSans-2e" transform="translate(63.623047 0)"/>
       <use xlink:href="#DejaVuSans-34" transform="translate(95.410156 0)"/>
      </g>
     </g>
    </g>
    <g id="ytick_10">
     <g id="line2d_24">
      <path d="M 404.0525 179.3456 
L 709.1325 179.3456 
" clip-path="url(#p26c08062a4)" style="fill: none; stroke-dasharray: 2.96,1.28; stroke-dashoffset: 0; stroke: #b0b0b0; stroke-opacity: 0.3; stroke-width: 0.8"/>
     </g>
     <g id="line2d_25">
      <g>
       <use xlink:href="#mf9a414edfe" x="404.0525" y="179.3456" style="stroke: #000000; stroke-width: 0.8"/>
      </g>
     </g>
     <g id="text_19">
      <!-- 0.6 -->
      <g transform="translate(381.149375 183.144819) scale(0.1 -0.1)">
       <use xlink:href="#DejaVuSans-30"/>
       <use xlink:href="#DejaVuSans-2e" transform="translate(63.623047 0)"/>
       <use xlink:href="#DejaVuSans-36" transform="translate(95.410156 0)"/>
      </g>
     </g>
    </g>
    <g id="ytick_11">
     <g id="line2d_26">
      <path d="M 404.0525 129.5728 
L 709.1325 129.5728 
" clip-path="url(#p26c08062a4)" style="fill: none; stroke-dasharray: 2.96,1.28; stroke-dashoffset: 0; stroke: #b0b0b0; stroke-opacity: 0.3; stroke-width: 0.8"/>
     </g>
     <g id="line2d_27">
      <g>
       <use xlink:href="#mf9a414edfe" x="404.0525" y="129.5728" style="stroke: #000000; stroke-width: 0.8"/>
      </g>
     </g>
     <g id="text_20">
      <!-- 0.8 -->
      <g transform="translate(381.149375 133.372019) scale(0.1 -0.1)">
       <use xlink:href="#DejaVuSans-30"/>
       <use xlink:href="#DejaVuSans-2e" transform="translate(63.623047 0)"/>
       <use xlink:href="#DejaVuSans-38" transform="translate(95.410156 0)"/>
      </g>
     </g>
    </g>
    <g id="ytick_12">
     <g id="line2d_28">
      <path d="M 404.0525 79.8 
L 709.1325 79.8 
" clip-path="url(#p26c08062a4)" style="fill: none; stroke-dasharray: 2.96,1.28; stroke-dashoffset: 0; stroke: #b0b0b0; stroke-opacity: 0.3; stroke-width: 0.8"/>
     </g>
     <g id="line2d_29">
      <g>
       <use xlink:href="#mf9a414edfe" x="404.0525" y="79.8" style="stroke: #000000; stroke-width: 0.8"/>
      </g>
     </g>
     <g id="text_21">
      <!-- 1.0 -->
      <g transform="translate(381.149375 83.599219) scale(0.1 -0.1)">
       <use xlink:href="#DejaVuSans-31"/>
       <use xlink:href="#DejaVuSans-2e" transform="translate(63.623047 0)"/>
       <use xlink:href="#DejaVuSans-30" transform="translate(95.410156 0)"/>
      </g>
     </g>
    </g>
    <g id="text_22">
     <!-- ipTM Score -->
     <g transform="translate(374.237813 248.020281) rotate(-90) scale(0.14 -0.14)">
      <use xlink:href="#DejaVuSans-Bold-69"/>
      <use xlink:href="#DejaVuSans-Bold-70" transform="translate(34.277344 0)"/>
      <use xlink:href="#DejaVuSans-Bold-54" transform="translate(105.859375 0)"/>
      <use xlink:href="#DejaVuSans-Bold-4d" transform="translate(174.072266 0)"/>
      <use xlink:href="#DejaVuSans-Bold-20" transform="translate(273.583984 0)"/>
      <use xlink:href="#DejaVuSans-Bold-53" transform="translate(308.398438 0)"/>
      <use xlink:href="#DejaVuSans-Bold-63" transform="translate(380.419922 0)"/>
      <use xlink:href="#DejaVuSans-Bold-6f" transform="translate(439.697266 0)"/>
      <use xlink:href="#DejaVuSans-Bold-72" transform="translate(508.398438 0)"/>
      <use xlink:href="#DejaVuSans-Bold-65" transform="translate(557.714844 0)"/>
     </g>
    </g>
   </g>
   <g id="patch_9">
    <path d="M 417.919773 328.664 
L 521.924318 328.664 
L 521.924318 122.10688 
L 417.919773 122.10688 
z
" clip-path="url(#p26c08062a4)" style="fill: #2e86ab; stroke: #000000; stroke-width: 1.5; stroke-linejoin: miter"/>
   </g>
   <g id="patch_10">
    <path d="M 591.260682 328.664 
L 695.265227 328.664 
L 695.265227 144.50464 
L 591.260682 144.50464 
z
" clip-path="url(#p26c08062a4)" style="fill: #a23b72; stroke: #000000; stroke-width: 1.5; stroke-linejoin: miter"/>
   </g>
   <g id="line2d_30">
    <path d="M 404.0525 204.232 
L 709.1325 204.232 
" clip-path="url(#p26c08062a4)" style="fill: none; stroke-dasharray: 5.55,2.4; stroke-dashoffset: 0; stroke: #808080; stroke-opacity: 0.5; stroke-width: 1.5"/>
   </g>
   <g id="patch_11">
    <path d="M 404.0525 328.664 
L 404.0525 79.8 
" style="fill: none; stroke: #000000; stroke-width: 2; stroke-linejoin: miter; stroke-linecap: square"/>
   </g>
   <g id="patch_12">
    <path d="M 404.0525 328.664 
L 709.1325 328.664 
" style="fill: none; stroke: #000000; stroke-width: 2; stroke-linejoin: miter; stroke-linecap: square"/>
   </g>
   <g id="text_23">
    <!-- 0.83 -->
    <g transform="translate(453.885327 111.937366) scale(0.13 -0.13)">
     <defs>
      <path id="DejaVuSans-Bold-33" d="M 2981 2516 
Q 3453 2394 3698 2092 
Q 3944 1791 3944 1325 
Q 3944 631 3412 270 
Q 2881 -91 1863 -91 
Q 1503 -91 1142 -33 
Q 781 25 428 141 
L 428 1069 
Q 766 900 1098 814 
Q 1431 728 1753 728 
Q 2231 728 2486 893 
Q 2741 1059 2741 1369 
Q 2741 1688 2480 1852 
Q 2219 2016 1709 2016 
L 1228 2016 
L 1228 2791 
L 1734 2791 
Q 2188 2791 2409 2933 
Q 2631 3075 2631 3366 
Q 2631 3634 2415 3781 
Q 2200 3928 1806 3928 
Q 1516 3928 1219 3862 
Q 922 3797 628 3669 
L 628 4550 
Q 984 4650 1334 4700 
Q 1684 4750 2022 4750 
Q 2931 4750 3382 4451 
Q 3834 4153 3834 3553 
Q 3834 3144 3618 2883 
Q 3403 2622 2981 2516 
z
" transform="scale(0.015625)"/>
     </defs>
     <use xlink:href="#DejaVuSans-Bold-30"/>
     <use xlink:href="#DejaVuSans-Bold-2e" transform="translate(69.580078 0)"/>
     <use xlink:href="#DejaVuSans-Bold-38" transform="translate(107.568359 0)"/>
     <use xlink:href="#DejaVuSans-Bold-33" transform="translate(177.148438 0)"/>
    </g>
   </g>
   <g id="text_24">
    <!-- 0.74 -->
    <g transform="translate(627.226236 134.335126) scale(0.13 -0.13)">
     <defs>
      <path id="DejaVuSans-Bold-34" d="M 2356 3675 
L 1038 1722 
L 2356 1722 
L 2356 3675 
z
M 2156 4666 
L 3494 4666 
L 3494 1722 
L 4159 1722 
L 4159 850 
L 3494 850 
L 3494 0 
L 2356 0 
L 2356 850 
L 288 850 
L 288 1881 
L 2156 4666 
z
" transform="scale(0.015625)"/>
     </defs>
     <use xlink:href="#DejaVuSans-Bold-30"/>
     <use xlink:href="#DejaVuSans-Bold-2e" transform="translate(69.580078 0)"/>
     <use xlink:href="#DejaVuSans-Bold-37" transform="translate(107.568359 0)"/>
     <use xlink:href="#DejaVuSans-Bold-34" transform="translate(177.148438 0)"/>
    </g>
   </g>
   <g id="text_25">
    <g id="patch_13">
     <path d="M 508.397891 112.559994 
L 604.787109 112.559994 
Q 610.287109 112.559994 610.287109 107.059994 
L 610.287109 84.096462 
Q 610.287109 78.596462 604.787109 78.596462 
L 508.397891 78.596462 
Q 502.897891 78.596462 502.897891 84.096462 
L 502.897891 107.059994 
Q 502.897891 112.559994 508.397891 112.559994 
z
" style="fill: #f5deb3; opacity: 0.7; stroke: #000000; stroke-width: 1.5; stroke-linejoin: miter"/>
    </g>
    <!-- 89.2% -->
    <g transform="translate(537.511797 92.368806) scale(0.11 -0.11)">
     <defs>
      <path id="DejaVuSans-Bold-39" d="M 641 103 
L 641 966 
Q 928 831 1190 764 
Q 1453 697 1709 697 
Q 2247 697 2547 995 
Q 2847 1294 2900 1881 
Q 2688 1725 2447 1647 
Q 2206 1569 1925 1569 
Q 1209 1569 770 1986 
Q 331 2403 331 3084 
Q 331 3838 820 4291 
Q 1309 4744 2131 4744 
Q 3044 4744 3544 4128 
Q 4044 3513 4044 2388 
Q 4044 1231 3459 570 
Q 2875 -91 1856 -91 
Q 1528 -91 1228 -42 
Q 928 6 641 103 
z
M 2125 2350 
Q 2441 2350 2600 2554 
Q 2759 2759 2759 3169 
Q 2759 3575 2600 3781 
Q 2441 3988 2125 3988 
Q 1809 3988 1650 3781 
Q 1491 3575 1491 3169 
Q 1491 2759 1650 2554 
Q 1809 2350 2125 2350 
z
" transform="scale(0.015625)"/>
     </defs>
     <use xlink:href="#DejaVuSans-Bold-38"/>
     <use xlink:href="#DejaVuSans-Bold-39" transform="translate(69.580078 0)"/>
     <use xlink:href="#DejaVuSans-Bold-2e" transform="translate(139.160156 0)"/>
     <use xlink:href="#DejaVuSans-Bold-32" transform="translate(177.148438 0)"/>
     <use xlink:href="#DejaVuSans-Bold-25" transform="translate(246.728516 0)"/>
    </g>
    <!-- cross-reactivity -->
    <g transform="translate(508.397891 104.6864) scale(0.11 -0.11)">
     <use xlink:href="#DejaVuSans-Bold-63"/>
     <use xlink:href="#DejaVuSans-Bold-72" transform="translate(59.277344 0)"/>
     <use xlink:href="#DejaVuSans-Bold-6f" transform="translate(108.59375 0)"/>
     <use xlink:href="#DejaVuSans-Bold-73" transform="translate(177.294922 0)"/>
     <use xlink:href="#DejaVuSans-Bold-73" transform="translate(236.816406 0)"/>
     <use xlink:href="#DejaVuSans-Bold-2d" transform="translate(296.337891 0)"/>
     <use xlink:href="#DejaVuSans-Bold-72" transform="translate(337.841797 0)"/>
     <use xlink:href="#DejaVuSans-Bold-65" transform="translate(387.158203 0)"/>
     <use xlink:href="#DejaVuSans-Bold-61" transform="translate(454.980469 0)"/>
     <use xlink:href="#DejaVuSans-Bold-63" transform="translate(522.460938 0)"/>
     <use xlink:href="#DejaVuSans-Bold-74" transform="translate(581.738281 0)"/>
     <use xlink:href="#DejaVuSans-Bold-69" transform="translate(629.541016 0)"/>
     <use xlink:href="#DejaVuSans-Bold-76" transform="translate(663.818359 0)"/>
     <use xlink:href="#DejaVuSans-Bold-69" transform="translate(729.003906 0)"/>
     <use xlink:href="#DejaVuSans-Bold-74" transform="translate(763.28125 0)"/>
     <use xlink:href="#DejaVuSans-Bold-79" transform="translate(811.083984 0)"/>
    </g>
   </g>
   <g id="text_26">
    <!-- Modern ProRS -->
    <g transform="translate(492.33125 64.8) scale(0.16 -0.16)">
     <defs>
      <path id="DejaVuSans-Bold-64" d="M 2919 2988 
L 2919 4863 
L 4044 4863 
L 4044 0 
L 2919 0 
L 2919 506 
Q 2688 197 2409 53 
Q 2131 -91 1766 -91 
Q 1119 -91 703 423 
Q 288 938 288 1747 
Q 288 2556 703 3070 
Q 1119 3584 1766 3584 
Q 2128 3584 2408 3439 
Q 2688 3294 2919 2988 
z
M 2181 722 
Q 2541 722 2730 984 
Q 2919 1247 2919 1747 
Q 2919 2247 2730 2509 
Q 2541 2772 2181 2772 
Q 1825 2772 1636 2509 
Q 1447 2247 1447 1747 
Q 1447 1247 1636 984 
Q 1825 722 2181 722 
z
" transform="scale(0.015625)"/>
     </defs>
     <use xlink:href="#DejaVuSans-Bold-4d"/>
     <use xlink:href="#DejaVuSans-Bold-6f" transform="translate(99.511719 0)"/>
     <use xlink:href="#DejaVuSans-Bold-64" transform="translate(168.212891 0)"/>
     <use xlink:href="#DejaVuSans-Bold-65" transform="translate(239.794922 0)"/>
     <use xlink:href="#DejaVuSans-Bold-72" transform="translate(307.617188 0)"/>
     <use xlink:href="#DejaVuSans-Bold-6e" transform="translate(356.933594 0)"/>
     <use xlink:href="#DejaVuSans-Bold-20" transform="translate(428.125 0)"/>
     <use xlink:href="#DejaVuSans-Bold-50" transform="translate(462.939453 0)"/>
     <use xlink:href="#DejaVuSans-Bold-72" transform="translate(536.230469 0)"/>
     <use xlink:href="#DejaVuSans-Bold-6f" transform="translate(585.546875 0)"/>
     <use xlink:href="#DejaVuSans-Bold-52" transform="translate(654.248047 0)"/>
     <use xlink:href="#DejaVuSans-Bold-53" transform="translate(731.25 0)"/>
    </g>
   </g>
  </g>
  <g id="axes_3">
   <g id="patch_14">
    <path d="M 760.4525 328.664 
L 1065.5325 328.664 
L 1065.5325 79.8 
L 760.4525 79.8 
z
" style="fill: #ffffff"/>
   </g>
   <g id="matplotlib.axis_5">
    <g id="xtick_5">
     <g id="line2d_31">
      <g>
       <use xlink:href="#m4cb2322afb" x="826.322045" y="328.664" style="stroke: #000000; stroke-width: 0.8"/>
      </g>
     </g>
     <g id="text_27">
      <!-- Proline -->
      <g transform="translate(802.388608 344.782125) scale(0.12 -0.12)">
       <use xlink:href="#DejaVuSans-Bold-50"/>
       <use xlink:href="#DejaVuSans-Bold-72" transform="translate(73.291016 0)"/>
       <use xlink:href="#DejaVuSans-Bold-6f" transform="translate(122.607422 0)"/>
       <use xlink:href="#DejaVuSans-Bold-6c" transform="translate(191.308594 0)"/>
       <use xlink:href="#DejaVuSans-Bold-69" transform="translate(225.585938 0)"/>
       <use xlink:href="#DejaVuSans-Bold-6e" transform="translate(259.863281 0)"/>
       <use xlink:href="#DejaVuSans-Bold-65" transform="translate(331.054688 0)"/>
      </g>
      <!-- (Cognate) -->
      <g transform="translate(792.759545 358.2195) scale(0.12 -0.12)">
       <use xlink:href="#DejaVuSans-Bold-28"/>
       <use xlink:href="#DejaVuSans-Bold-43" transform="translate(45.703125 0)"/>
       <use xlink:href="#DejaVuSans-Bold-6f" transform="translate(119.091797 0)"/>
       <use xlink:href="#DejaVuSans-Bold-67" transform="translate(187.792969 0)"/>
       <use xlink:href="#DejaVuSans-Bold-6e" transform="translate(259.375 0)"/>
       <use xlink:href="#DejaVuSans-Bold-61" transform="translate(330.566406 0)"/>
       <use xlink:href="#DejaVuSans-Bold-74" transform="translate(398.046875 0)"/>
       <use xlink:href="#DejaVuSans-Bold-65" transform="translate(445.849609 0)"/>
       <use xlink:href="#DejaVuSans-Bold-29" transform="translate(513.671875 0)"/>
      </g>
     </g>
    </g>
    <g id="xtick_6">
     <g id="line2d_32">
      <g>
       <use xlink:href="#m4cb2322afb" x="999.662955" y="328.664" style="stroke: #000000; stroke-width: 0.8"/>
      </g>
     </g>
     <g id="text_28">
      <!-- Threonine -->
      <g transform="translate(965.478892 344.782125) scale(0.12 -0.12)">
       <use xlink:href="#DejaVuSans-Bold-54"/>
       <use xlink:href="#DejaVuSans-Bold-68" transform="translate(68.212891 0)"/>
       <use xlink:href="#DejaVuSans-Bold-72" transform="translate(139.404297 0)"/>
       <use xlink:href="#DejaVuSans-Bold-65" transform="translate(188.720703 0)"/>
       <use xlink:href="#DejaVuSans-Bold-6f" transform="translate(256.542969 0)"/>
       <use xlink:href="#DejaVuSans-Bold-6e" transform="translate(325.244141 0)"/>
       <use xlink:href="#DejaVuSans-Bold-69" transform="translate(396.435547 0)"/>
       <use xlink:href="#DejaVuSans-Bold-6e" transform="translate(430.712891 0)"/>
       <use xlink:href="#DejaVuSans-Bold-65" transform="translate(501.904297 0)"/>
      </g>
      <!-- (Non-cognate) -->
      <g transform="translate(951.04233 358.2195) scale(0.12 -0.12)">
       <use xlink:href="#DejaVuSans-Bold-28"/>
       <use xlink:href="#DejaVuSans-Bold-4e" transform="translate(45.703125 0)"/>
       <use xlink:href="#DejaVuSans-Bold-6f" transform="translate(129.394531 0)"/>
       <use xlink:href="#DejaVuSans-Bold-6e" transform="translate(198.095703 0)"/>
       <use xlink:href="#DejaVuSans-Bold-2d" transform="translate(269.287109 0)"/>
       <use xlink:href="#DejaVuSans-Bold-63" transform="translate(310.791016 0)"/>
       <use xlink:href="#DejaVuSans-Bold-6f" transform="translate(370.068359 0)"/>
       <use xlink:href="#DejaVuSans-Bold-67" transform="translate(438.769531 0)"/>
       <use xlink:href="#DejaVuSans-Bold-6e" transform="translate(510.351562 0)"/>
       <use xlink:href="#DejaVuSans-Bold-61" transform="translate(581.542969 0)"/>
       <use xlink:href="#DejaVuSans-Bold-74" transform="translate(649.023438 0)"/>
       <use xlink:href="#DejaVuSans-Bold-65" transform="translate(696.826172 0)"/>
       <use xlink:href="#DejaVuSans-Bold-29" transform="translate(764.648438 0)"/>
      </g>
     </g>
    </g>
   </g>
   <g id="matplotlib.axis_6">
    <g id="ytick_13">
     <g id="line2d_33">
      <path d="M 760.4525 328.664 
L 1065.5325 328.664 
" clip-path="url(#pf6467a5b5f)" style="fill: none; stroke-dasharray: 2.96,1.28; stroke-dashoffset: 0; stroke: #b0b0b0; stroke-opacity: 0.3; stroke-width: 0.8"/>
     </g>
     <g id="line2d_34">
      <g>
       <use xlink:href="#mf9a414edfe" x="760.4525" y="328.664" style="stroke: #000000; stroke-width: 0.8"/>
      </g>
     </g>
     <g id="text_29">
      <!-- 0.0 -->
      <g transform="translate(737.549375 332.463219) scale(0.1 -0.1)">
       <use xlink:href="#DejaVuSans-30"/>
       <use xlink:href="#DejaVuSans-2e" transform="translate(63.623047 0)"/>
       <use xlink:href="#DejaVuSans-30" transform="translate(95.410156 0)"/>
      </g>
     </g>
    </g>
    <g id="ytick_14">
     <g id="line2d_35">
      <path d="M 760.4525 278.8912 
L 1065.5325 278.8912 
" clip-path="url(#pf6467a5b5f)" style="fill: none; stroke-dasharray: 2.96,1.28; stroke-dashoffset: 0; stroke: #b0b0b0; stroke-opacity: 0.3; stroke-width: 0.8"/>
     </g>
     <g id="line2d_36">
      <g>
       <use xlink:href="#mf9a414edfe" x="760.4525" y="278.8912" style="stroke: #000000; stroke-width: 0.8"/>
      </g>
     </g>
     <g id="text_30">
      <!-- 0.2 -->
      <g transform="translate(737.549375 282.690419) scale(0.1 -0.1)">
       <use xlink:href="#DejaVuSans-30"/>
       <use xlink:href="#DejaVuSans-2e" transform="translate(63.623047 0)"/>
       <use xlink:href="#DejaVuSans-32" transform="translate(95.410156 0)"/>
      </g>
     </g>
    </g>
    <g id="ytick_15">
     <g id="line2d_37">
      <path d="M 760.4525 229.1184 
L 1065.5325 229.1184 
" clip-path="url(#pf6467a5b5f)" style="fill: none; stroke-dasharray: 2.96,1.28; stroke-dashoffset: 0; stroke: #b0b0b0; stroke-opacity: 0.3; stroke-width: 0.8"/>
     </g>
     <g id="line2d_38">
      <g>
       <use xlink:href="#mf9a414edfe" x="760.4525" y="229.1184" style="stroke: #000000; stroke-width: 0.8"/>
      </g>
     </g>
     <g id="text_31">
      <!-- 0.4 -->
      <g transform="translate(737.549375 232.917619) scale(0.1 -0.1)">
       <use xlink:href="#DejaVuSans-30"/>
       <use xlink:href="#DejaVuSans-2e" transform="translate(63.623047 0)"/>
       <use xlink:href="#DejaVuSans-34" transform="translate(95.410156 0)"/>
      </g>
     </g>
    </g>
    <g id="ytick_16">
     <g id="line2d_39">
      <path d="M 760.4525 179.3456 
L 1065.5325 179.3456 
" clip-path="url(#pf6467a5b5f)" style="fill: none; stroke-dasharray: 2.96,1.28; stroke-dashoffset: 0; stroke: #b0b0b0; stroke-opacity: 0.3; stroke-width: 0.8"/>
     </g>
     <g id="line2d_40">
      <g>
       <use xlink:href="#mf9a414edfe" x="760.4525" y="179.3456" style="stroke: #000000; stroke-width: 0.8"/>
      </g>
     </g>
     <g id="text_32">
      <!-- 0.6 -->
      <g transform="translate(737.549375 183.144819) scale(0.1 -0.1)">
       <use xlink:href="#DejaVuSans-30"/>
       <use xlink:href="#DejaVuSans-2e" transform="translate(63.623047 0)"/>
       <use xlink:href="#DejaVuSans-36" transform="translate(95.410156 0)"/>
      </g>
     </g>
    </g>
    <g id="ytick_17">
     <g id="line2d_41">
      <path d="M 760.4525 129.5728 
L 1065.5325 129.5728 
" clip-path="url(#pf6467a5b5f)" style="fill: none; stroke-dasharray: 2.96,1.28; stroke-dashoffset: 0; stroke: #b0b0b0; stroke-opacity: 0.3; stroke-width: 0.8"/>
     </g>
     <g id="line2d_42">
      <g>
       <use xlink:href="#mf9a414edfe" x="760.4525" y="129.5728" style="stroke: #000000; stroke-width: 0.8"/>
      </g>
     </g>
     <g id="text_33">
      <!-- 0.8 -->
      <g transform="translate(737.549375 133.372019) scale(0.1 -0.1)">
       <use xlink:href="#DejaVuSans-30"/>
       <use xlink:href="#DejaVuSans-2e" transform="translate(63.623047 0)"/>
       <use xlink:href="#DejaVuSans-38" transform="translate(95.410156 0)"/>
      </g>
     </g>
    </g>
    <g id="ytick_18">
     <g id="line2d_43">
      <path d="M 760.4525 79.8 
L 1065.5325 79.8 
" clip-path="url(#pf6467a5b5f)" style="fill: none; stroke-dasharray: 2.96,1.28; stroke-dashoffset: 0; stroke: #b0b0b0; stroke-opacity: 0.3; stroke-width: 0.8"/>
     </g>
     <g id="line2d_44">
      <g>
       <use xlink:href="#mf9a414edfe" x="760.4525" y="79.8" style="stroke: #000000; stroke-width: 0.8"/>
      </g>
     </g>
     <g id="text_34">
      <!-- 1.0 -->
      <g transform="translate(737.549375 83.599219) scale(0.1 -0.1)">
       <use xlink:href="#DejaVuSans-31"/>
       <use xlink:href="#DejaVuSans-2e" transform="translate(63.623047 0)"/>
       <use xlink:href="#DejaVuSans-30" transform="translate(95.410156 0)"/>
      </g>
     </g>
    </g>
    <g id="text_35">
     <!-- ipTM Score -->
     <g transform="translate(730.637812 248.020281) rotate(-90) scale(0.14 -0.14)">
      <use xlink:href="#DejaVuSans-Bold-69"/>
      <use xlink:href="#DejaVuSans-Bold-70" transform="translate(34.277344 0)"/>
      <use xlink:href="#DejaVuSans-Bold-54" transform="translate(105.859375 0)"/>
      <use xlink:href="#DejaVuSans-Bold-4d" transform="translate(174.072266 0)"/>
      <use xlink:href="#DejaVuSans-Bold-20" transform="translate(273.583984 0)"/>
      <use xlink:href="#DejaVuSans-Bold-53" transform="translate(308.398438 0)"/>
      <use xlink:href="#DejaVuSans-Bold-63" transform="translate(380.419922 0)"/>
      <use xlink:href="#DejaVuSans-Bold-6f" transform="translate(439.697266 0)"/>
      <use xlink:href="#DejaVuSans-Bold-72" transform="translate(508.398438 0)"/>
      <use xlink:href="#DejaVuSans-Bold-65" transform="translate(557.714844 0)"/>
     </g>
    </g>
   </g>
   <g id="patch_15">
    <path d="M 774.319773 328.664 
L 878.324318 328.664 
L 878.324318 293.82304 
L 774.319773 293.82304 
z
" clip-path="url(#pf6467a5b5f)" style="fill: #2e86ab; stroke: #000000; stroke-width: 1.5; stroke-linejoin: miter"/>
   </g>
   <g id="patch_16">
    <path d="M 947.660682 328.664 
L 1051.665227 328.664 
L 1051.665227 216.6752 
L 947.660682 216.6752 
z
" clip-path="url(#pf6467a5b5f)" style="fill: #a23b72; stroke: #000000; stroke-width: 1.5; stroke-linejoin: miter"/>
   </g>
   <g id="line2d_45">
    <path d="M 760.4525 204.232 
L 1065.5325 204.232 
" clip-path="url(#pf6467a5b5f)" style="fill: none; stroke-dasharray: 5.55,2.4; stroke-dashoffset: 0; stroke: #808080; stroke-opacity: 0.5; stroke-width: 1.5"/>
   </g>
   <g id="patch_17">
    <path d="M 760.4525 328.664 
L 760.4525 79.8 
" style="fill: none; stroke: #000000; stroke-width: 2; stroke-linejoin: miter; stroke-linecap: square"/>
   </g>
   <g id="patch_18">
    <path d="M 760.4525 328.664 
L 1065.5325 328.664 
" style="fill: none; stroke: #000000; stroke-width: 2; stroke-linejoin: miter; stroke-linecap: square"/>
   </g>
   <g id="text_36">
    <!-- 0.14 -->
    <g transform="translate(810.285327 283.653526) scale(0.13 -0.13)">
     <defs>
      <path id="DejaVuSans-Bold-31" d="M 750 831 
L 1813 831 
L 1813 3847 
L 722 3622 
L 722 4441 
L 1806 4666 
L 2950 4666 
L 2950 831 
L 4013 831 
L 4013 0 
L 750 0 
L 750 831 
z
" transform="scale(0.015625)"/>
     </defs>
     <use xlink:href="#DejaVuSans-Bold-30"/>
     <use xlink:href="#DejaVuSans-Bold-2e" transform="translate(69.580078 0)"/>
     <use xlink:href="#DejaVuSans-Bold-31" transform="translate(107.568359 0)"/>
     <use xlink:href="#DejaVuSans-Bold-34" transform="translate(177.148438 0)"/>
    </g>
   </g>
   <g id="text_37">
    <!-- 0.45 -->
    <g transform="translate(983.626236 206.505686) scale(0.13 -0.13)">
     <use xlink:href="#DejaVuSans-Bold-30"/>
     <use xlink:href="#DejaVuSans-Bold-2e" transform="translate(69.580078 0)"/>
     <use xlink:href="#DejaVuSans-Bold-34" transform="translate(107.568359 0)"/>
     <use xlink:href="#DejaVuSans-Bold-35" transform="translate(177.148438 0)"/>
    </g>
   </g>
   <g id="text_38">
    <g id="patch_19">
     <path d="M 862.633984 124.917256 
L 963.351016 124.917256 
Q 968.851016 124.917256 968.851016 119.417256 
L 968.851016 96.453725 
Q 968.851016 90.953725 963.351016 90.953725 
L 862.633984 90.953725 
Q 857.133984 90.953725 857.133984 96.453725 
L 857.133984 119.417256 
Q 857.133984 124.917256 862.633984 124.917256 
z
" style="fill: #f08080; opacity: 0.7; stroke: #000000; stroke-width: 1.5; stroke-linejoin: miter"/>
    </g>
    <!-- THR binds 321% -->
    <g transform="translate(862.633984 104.812006) scale(0.11 -0.11)">
     <defs>
      <path id="DejaVuSans-Bold-48" d="M 588 4666 
L 1791 4666 
L 1791 2888 
L 3566 2888 
L 3566 4666 
L 4769 4666 
L 4769 0 
L 3566 0 
L 3566 1978 
L 1791 1978 
L 1791 0 
L 588 0 
L 588 4666 
z
" transform="scale(0.015625)"/>
      <path id="DejaVuSans-Bold-62" d="M 2400 722 
Q 2759 722 2948 984 
Q 3138 1247 3138 1747 
Q 3138 2247 2948 2509 
Q 2759 2772 2400 2772 
Q 2041 2772 1848 2508 
Q 1656 2244 1656 1747 
Q 1656 1250 1848 986 
Q 2041 722 2400 722 
z
M 1656 2988 
Q 1888 3294 2169 3439 
Q 2450 3584 2816 3584 
Q 3463 3584 3878 3070 
Q 4294 2556 4294 1747 
Q 4294 938 3878 423 
Q 3463 -91 2816 -91 
Q 2450 -91 2169 54 
Q 1888 200 1656 506 
L 1656 0 
L 538 0 
L 538 4863 
L 1656 4863 
L 1656 2988 
z
" transform="scale(0.015625)"/>
     </defs>
     <use xlink:href="#DejaVuSans-Bold-54"/>
     <use xlink:href="#DejaVuSans-Bold-48" transform="translate(68.212891 0)"/>
     <use xlink:href="#DejaVuSans-Bold-52" transform="translate(151.904297 0)"/>
     <use xlink:href="#DejaVuSans-Bold-20" transform="translate(228.90625 0)"/>
     <use xlink:href="#DejaVuSans-Bold-62" transform="translate(263.720703 0)"/>
     <use xlink:href="#DejaVuSans-Bold-69" transform="translate(335.302734 0)"/>
     <use xlink:href="#DejaVuSans-Bold-6e" transform="translate(369.580078 0)"/>
     <use xlink:href="#DejaVuSans-Bold-64" transform="translate(440.771484 0)"/>
     <use xlink:href="#DejaVuSans-Bold-73" transform="translate(512.353516 0)"/>
     <use xlink:href="#DejaVuSans-Bold-20" transform="translate(571.875 0)"/>
     <use xlink:href="#DejaVuSans-Bold-33" transform="translate(606.689453 0)"/>
     <use xlink:href="#DejaVuSans-Bold-32" transform="translate(676.269531 0)"/>
     <use xlink:href="#DejaVuSans-Bold-31" transform="translate(745.849609 0)"/>
     <use xlink:href="#DejaVuSans-Bold-25" transform="translate(815.429688 0)"/>
    </g>
    <!-- better than PRO -->
    <g transform="translate(862.682109 117.1296) scale(0.11 -0.11)">
     <defs>
      <path id="DejaVuSans-Bold-4f" d="M 2719 3878 
Q 2169 3878 1866 3472 
Q 1563 3066 1563 2328 
Q 1563 1594 1866 1187 
Q 2169 781 2719 781 
Q 3272 781 3575 1187 
Q 3878 1594 3878 2328 
Q 3878 3066 3575 3472 
Q 3272 3878 2719 3878 
z
M 2719 4750 
Q 3844 4750 4481 4106 
Q 5119 3463 5119 2328 
Q 5119 1197 4481 553 
Q 3844 -91 2719 -91 
Q 1597 -91 958 553 
Q 319 1197 319 2328 
Q 319 3463 958 4106 
Q 1597 4750 2719 4750 
z
" transform="scale(0.015625)"/>
     </defs>
     <use xlink:href="#DejaVuSans-Bold-62"/>
     <use xlink:href="#DejaVuSans-Bold-65" transform="translate(71.582031 0)"/>
     <use xlink:href="#DejaVuSans-Bold-74" transform="translate(139.404297 0)"/>
     <use xlink:href="#DejaVuSans-Bold-74" transform="translate(187.207031 0)"/>
     <use xlink:href="#DejaVuSans-Bold-65" transform="translate(235.009766 0)"/>
     <use xlink:href="#DejaVuSans-Bold-72" transform="translate(302.832031 0)"/>
     <use xlink:href="#DejaVuSans-Bold-20" transform="translate(352.148438 0)"/>
     <use xlink:href="#DejaVuSans-Bold-74" transform="translate(386.962891 0)"/>
     <use xlink:href="#DejaVuSans-Bold-68" transform="translate(434.765625 0)"/>
     <use xlink:href="#DejaVuSans-Bold-61" transform="translate(505.957031 0)"/>
     <use xlink:href="#DejaVuSans-Bold-6e" transform="translate(573.4375 0)"/>
     <use xlink:href="#DejaVuSans-Bold-20" transform="translate(644.628906 0)"/>
     <use xlink:href="#DejaVuSans-Bold-50" transform="translate(679.443359 0)"/>
     <use xlink:href="#DejaVuSans-Bold-52" transform="translate(752.734375 0)"/>
     <use xlink:href="#DejaVuSans-Bold-4f" transform="translate(829.736328 0)"/>
    </g>
   </g>
   <g id="text_39">
    <!-- LUCA Editing -->
    <g transform="translate(854.92 64.8) scale(0.16 -0.16)">
     <defs>
      <path id="DejaVuSans-Bold-45" d="M 588 4666 
L 3834 4666 
L 3834 3756 
L 1791 3756 
L 1791 2888 
L 3713 2888 
L 3713 1978 
L 1791 1978 
L 1791 909 
L 3903 909 
L 3903 0 
L 588 0 
L 588 4666 
z
" transform="scale(0.015625)"/>
     </defs>
     <use xlink:href="#DejaVuSans-Bold-4c"/>
     <use xlink:href="#DejaVuSans-Bold-55" transform="translate(60.095703 0)"/>
     <use xlink:href="#DejaVuSans-Bold-43" transform="translate(141.296875 0)"/>
     <use xlink:href="#DejaVuSans-Bold-41" transform="translate(214.685547 0)"/>
     <use xlink:href="#DejaVuSans-Bold-20" transform="translate(292.078125 0)"/>
     <use xlink:href="#DejaVuSans-Bold-45" transform="translate(326.892578 0)"/>
     <use xlink:href="#DejaVuSans-Bold-64" transform="translate(395.203125 0)"/>
     <use xlink:href="#DejaVuSans-Bold-69" transform="translate(466.785156 0)"/>
     <use xlink:href="#DejaVuSans-Bold-74" transform="translate(501.0625 0)"/>
     <use xlink:href="#DejaVuSans-Bold-69" transform="translate(548.865234 0)"/>
     <use xlink:href="#DejaVuSans-Bold-6e" transform="translate(583.142578 0)"/>
     <use xlink:href="#DejaVuSans-Bold-67" transform="translate(654.333984 0)"/>
    </g>
   </g>
  </g>
  <g id="text_40">
   <!-- Substrate Binding Specificity in Ancestral vs Modern ProRS -->
   <g transform="translate(234.784688 20.877187) scale(0.18 -0.18)">
    <defs>
     <path id="DejaVuSans-Bold-75" d="M 500 1363 
L 500 3500 
L 1625 3500 
L 1625 3150 
Q 1625 2866 1622 2436 
Q 1619 2006 1619 1863 
Q 1619 1441 1641 1255 
Q 1663 1069 1716 984 
Q 1784 875 1895 815 
Q 2006 756 2150 756 
Q 2500 756 2700 1025 
Q 2900 1294 2900 1772 
L 2900 3500 
L 4019 3500 
L 4019 0 
L 2900 0 
L 2900 506 
Q 2647 200 2364 54 
Q 2081 -91 1741 -91 
Q 1134 -91 817 281 
Q 500 653 500 1363 
z
" transform="scale(0.015625)"/>
     <path id="DejaVuSans-Bold-42" d="M 2456 2859 
Q 2741 2859 2887 2984 
Q 3034 3109 3034 3353 
Q 3034 3594 2887 3720 
Q 2741 3847 2456 3847 
L 1791 3847 
L 1791 2859 
L 2456 2859 
z
M 2497 819 
Q 2859 819 3042 972 
Q 3225 1125 3225 1434 
Q 3225 1738 3044 1889 
Q 2863 2041 2497 2041 
L 1791 2041 
L 1791 819 
L 2497 819 
z
M 3616 2497 
Q 4003 2384 4215 2081 
Q 4428 1778 4428 1338 
Q 4428 663 3972 331 
Q 3516 0 2584 0 
L 588 0 
L 588 4666 
L 2394 4666 
Q 3366 4666 3802 4372 
Q 4238 4078 4238 3431 
Q 4238 3091 4078 2852 
Q 3919 2613 3616 2497 
z
" transform="scale(0.015625)"/>
     <path id="DejaVuSans-Bold-66" d="M 2841 4863 
L 2841 4128 
L 2222 4128 
Q 1984 4128 1890 4042 
Q 1797 3956 1797 3744 
L 1797 3500 
L 2753 3500 
L 2753 2700 
L 1797 2700 
L 1797 0 
L 678 0 
L 678 2700 
L 122 2700 
L 122 3500 
L 678 3500 
L 678 3744 
Q 678 4316 997 4589 
Q 1316 4863 1984 4863 
L 2841 4863 
z
" transform="scale(0.015625)"/>
    </defs>
    <use xlink:href="#DejaVuSans-Bold-53"/>
    <use xlink:href="#DejaVuSans-Bold-75" transform="translate(72.021484 0)"/>
    <use xlink:href="#DejaVuSans-Bold-62" transform="translate(143.212891 0)"/>
    <use xlink:href="#DejaVuSans-Bold-73" transform="translate(214.794922 0)"/>
    <use xlink:href="#DejaVuSans-Bold-74" transform="translate(274.316406 0)"/>
    <use xlink:href="#DejaVuSans-Bold-72" transform="translate(322.119141 0)"/>
    <use xlink:href="#DejaVuSans-Bold-61" transform="translate(371.435547 0)"/>
    <use xlink:href="#DejaVuSans-Bold-74" transform="translate(438.916016 0)"/>
    <use xlink:href="#DejaVuSans-Bold-65" transform="translate(486.71875 0)"/>
    <use xlink:href="#DejaVuSans-Bold-20" transform="translate(554.541016 0)"/>
    <use xlink:href="#DejaVuSans-Bold-42" transform="translate(589.355469 0)"/>
    <use xlink:href="#DejaVuSans-Bold-69" transform="translate(665.576172 0)"/>
    <use xlink:href="#DejaVuSans-Bold-6e" transform="translate(699.853516 0)"/>
    <use xlink:href="#DejaVuSans-Bold-64" transform="translate(771.044922 0)"/>
    <use xlink:href="#DejaVuSans-Bold-69" transform="translate(842.626953 0)"/>
    <use xlink:href="#DejaVuSans-Bold-6e" transform="translate(876.904297 0)"/>
    <use xlink:href="#DejaVuSans-Bold-67" transform="translate(948.095703 0)"/>
    <use xlink:href="#DejaVuSans-Bold-20" transform="translate(1019.677734 0)"/>
    <use xlink:href="#DejaVuSans-Bold-53" transform="translate(1054.492188 0)"/>
    <use xlink:href="#DejaVuSans-Bold-70" transform="translate(1126.513672 0)"/>
    <use xlink:href="#DejaVuSans-Bold-65" transform="translate(1198.095703 0)"/>
    <use xlink:href="#DejaVuSans-Bold-63" transform="translate(1265.917969 0)"/>
    <use xlink:href="#DejaVuSans-Bold-69" transform="translate(1325.195312 0)"/>
    <use xlink:href="#DejaVuSans-Bold-66" transform="translate(1359.472656 0)"/>
    <use xlink:href="#DejaVuSans-Bold-69" transform="translate(1402.978516 0)"/>
    <use xlink:href="#DejaVuSans-Bold-63" transform="translate(1437.255859 0)"/>
    <use xlink:href="#DejaVuSans-Bold-69" transform="translate(1496.533203 0)"/>
    <use xlink:href="#DejaVuSans-Bold-74" transform="translate(1530.810547 0)"/>
    <use xlink:href="#DejaVuSans-Bold-79" transform="translate(1578.613281 0)"/>
    <use xlink:href="#DejaVuSans-Bold-20" transform="translate(1643.798828 0)"/>
    <use xlink:href="#DejaVuSans-Bold-69" transform="translate(1678.613281 0)"/>
    <use xlink:href="#DejaVuSans-Bold-6e" transform="translate(1712.890625 0)"/>
    <use xlink:href="#DejaVuSans-Bold-20" transform="translate(1784.082031 0)"/>
    <use xlink:href="#DejaVuSans-Bold-41" transform="translate(1818.896484 0)"/>
    <use xlink:href="#DejaVuSans-Bold-6e" transform="translate(1896.289062 0)"/>
    <use xlink:href="#DejaVuSans-Bold-63" transform="translate(1967.480469 0)"/>
    <use xlink:href="#DejaVuSans-Bold-65" transform="translate(2026.757812 0)"/>
    <use xlink:href="#DejaVuSans-Bold-73" transform="translate(2094.580078 0)"/>
    <use xlink:href="#DejaVuSans-Bold-74" transform="translate(2154.101562 0)"/>
    <use xlink:href="#DejaVuSans-Bold-72" transform="translate(2201.904297 0)"/>
    <use xlink:href="#DejaVuSans-Bold-61" transform="translate(2251.220703 0)"/>
    <use xlink:href="#DejaVuSans-Bold-6c" transform="translate(2318.701172 0)"/>
    <use xlink:href="#DejaVuSans-Bold-20" transform="translate(2352.978516 0)"/>
    <use xlink:href="#DejaVuSans-Bold-76" transform="translate(2387.792969 0)"/>
    <use xlink:href="#DejaVuSans-Bold-73" transform="translate(2452.978516 0)"/>
    <use xlink:href="#DejaVuSans-Bold-20" transform="translate(2512.5 0)"/>
    <use xlink:href="#DejaVuSans-Bold-4d" transform="translate(2547.314453 0)"/>
    <use xlink:href="#DejaVuSans-Bold-6f" transform="translate(2646.826172 0)"/>
    <use xlink:href="#DejaVuSans-Bold-64" transform="translate(2715.527344 0)"/>
    <use xlink:href="#DejaVuSans-Bold-65" transform="translate(2787.109375 0)"/>
    <use xlink:href="#DejaVuSans-Bold-72" transform="translate(2854.931641 0)"/>
    <use xlink:href="#DejaVuSans-Bold-6e" transform="translate(2904.248047 0)"/>
    <use xlink:href="#DejaVuSans-Bold-20" transform="translate(2975.439453 0)"/>
    <use xlink:href="#DejaVuSans-Bold-50" transform="translate(3010.253906 0)"/>
    <use xlink:href="#DejaVuSans-Bold-72" transform="translate(3083.544922 0)"/>
    <use xlink:href="#DejaVuSans-Bold-6f" transform="translate(3132.861328 0)"/>
    <use xlink:href="#DejaVuSans-Bold-52" transform="translate(3201.5625 0)"/>
    <use xlink:href="#DejaVuSans-Bold-53" transform="translate(3278.564453 0)"/>
   </g>
  </g>
 </g>
 <defs>
  <clipPath id="p03907c220f">
   <rect x="47.6525" y="79.8" width="305.08" height="248.864"/>
  </clipPath>
  <clipPath id="p26c08062a4">
   <rect x="404.0525" y="79.8" width="305.08" height="248.864"/>
  </clipPath>
  <clipPath id="pf6467a5b5f">
   <rect x="760.4525" y="79.8" width="305.08" height="248.864"/>
  </clipPath>
 </defs>
</svg>
