<?xml version="1.0" encoding="utf-8" standalone="no"?>
<!DOCTYPE svg PUBLIC "-//W3C//DTD SVG 1.1//EN"
  "http://www.w3.org/Graphics/SVG/1.1/DTD/svg11.dtd">
<svg xmlns:xlink="http://www.w3.org/1999/xlink" width="720pt" height="360pt" viewBox="0 0 720 360" xmlns="http://www.w3.org/2000/svg" version="1.1">
 <metadata>
  <rdf:RDF xmlns:dc="http://purl.org/dc/elements/1.1/" xmlns:cc="http://creativecommons.org/ns#" xmlns:rdf="http://www.w3.org/1999/02/22-rdf-syntax-ns#">
   <cc:Work>
    <dc:type rdf:resource="http://purl.org/dc/dcmitype/StillImage"/>
    <dc:date>2025-12-06T18:43:49.860337</dc:date>
    <dc:format>image/svg+xml</dc:format>
    <dc:creator>
     <cc:Agent>
      <dc:title>Matplotlib v3.10.6, https://matplotlib.org/</dc:title>
     </cc:Agent>
    </dc:creator>
   </cc:Work>
  </rdf:RDF>
 </metadata>
 <defs>
  <style type="text/css">*{stroke-linejoin: round; stroke-linecap: butt}</style>
 </defs>
 <g id="figure_1">
  <g id="patch_1">
   <path d="M 0 360 
L 720 360 
L 720 0 
L 0 0 
z
" style="fill: #ffffff"/>
  </g>
  <g id="axes_1">
   <g id="patch_2">
    <path d="M 35.136 153 
L 102.816 153 
L 102.816 94.5 
L 35.136 94.5 
z
" clip-path="url(#p7fe32bcb32)" style="fill: #d4a017; stroke: #000000; stroke-linejoin: miter"/>
   </g>
   <g id="patch_3">
    <path d="M 102.816 147.15 
L 156.96 147.15 
L 156.96 100.35 
L 102.816 100.35 
z
" clip-path="url(#p7fe32bcb32)" style="fill: #dddddd; stroke: #000000; stroke-linejoin: miter"/>
   </g>
   <g id="patch_4">
    <path d="M 108.2304 132.525 
C 112.717636 132.525 117.021691 130.984018 120.194647 128.241437 
C 123.367602 125.498856 125.1504 121.778595 125.1504 117.9 
C 125.1504 114.021405 123.367602 110.301144 120.194647 107.558563 
C 117.021691 104.815982 112.717636 103.275 108.2304 103.275 
C 103.743164 103.275 99.439109 104.815982 96.266153 107.558563 
C 93.093198 110.301144 91.3104 114.021405 91.3104 117.9 
C 91.3104 121.778595 93.093198 125.498856 96.266153 128.241437 
C 99.439109 130.984018 103.743164 132.525 108.2304 132.525 
L 108.2304 132.525 
z
" clip-path="url(#p7fe32bcb32)" style="fill: none; opacity: 0.8; stroke: #000000; stroke-linejoin: miter"/>
   </g>
   <g id="patch_5">
    <path d="M 82.512 196.875 
C 85.204342 196.875 87.786775 195.950411 89.690548 194.304862 
C 91.594321 192.659313 92.664 190.427157 92.664 188.1 
C 92.664 185.772843 91.594321 183.540687 89.690548 181.895138 
C 87.786775 180.249589 85.204342 179.325 82.512 179.325 
C 79.819658 179.325 77.237225 180.249589 75.333452 181.895138 
C 73.429679 183.540687 72.36 185.772843 72.36 188.1 
C 72.36 190.427157 73.429679 192.659313 75.333452 194.304862 
C 77.237225 195.950411 79.819658 196.875 82.512 196.875 
z
" clip-path="url(#p7fe32bcb32)" style="fill: #aaaaaa; stroke: #000000; stroke-linejoin: miter"/>
   </g>
   <g id="patch_6">
    <path d="M 97.4016 193.95 
C 100.093942 193.95 102.676375 193.025411 104.580148 191.379862 
C 106.483921 189.734313 107.5536 187.502157 107.5536 185.175 
C 107.5536 182.847843 106.483921 180.615687 104.580148 178.970138 
C 102.676375 177.324589 100.093942 176.4 97.4016 176.4 
C 94.709258 176.4 92.126825 177.324589 90.223052 178.970138 
C 88.319279 180.615687 87.2496 182.847843 87.2496 185.175 
C 87.2496 187.502157 88.319279 189.734313 90.223052 191.379862 
C 92.126825 193.025411 94.709258 193.95 97.4016 193.95 
z
" clip-path="url(#p7fe32bcb32)" style="fill: #88aadd; stroke: #000000; stroke-linejoin: miter"/>
   </g>
   <g id="patch_7">
    <path d="M 251.712 153 
L 319.392 153 
L 319.392 94.5 
L 251.712 94.5 
z
" clip-path="url(#p7fe32bcb32)" style="fill: #c06060; stroke: #000000; stroke-linejoin: miter"/>
   </g>
   <g id="patch_8">
    <path d="M 319.392 153 
L 373.536 153 
L 373.536 100.35 
L 319.392 100.35 
z
" clip-path="url(#p7fe32bcb32)" style="fill: #dddddd; stroke: #000000; stroke-linejoin: miter"/>
   </g>
   <g id="patch_9">
    <path d="M 373.536 147.15 
L 414.144 147.15 
L 414.144 100.35 
L 373.536 100.35 
z
" clip-path="url(#p7fe32bcb32)" style="fill: #dddddd; stroke: #000000; stroke-linejoin: miter"/>
   </g>
   <g id="patch_10">
    <path d="M 349.1712 132.525 
C 353.658436 132.525 357.962491 130.984018 361.135447 128.241437 
C 364.308402 125.498856 366.0912 121.778595 366.0912 117.9 
C 366.0912 114.021405 364.308402 110.301144 361.135447 107.558563 
C 357.962491 104.815982 353.658436 103.275 349.1712 103.275 
C 344.683964 103.275 340.379909 104.815982 337.206953 107.558563 
C 334.033998 110.301144 332.2512 114.021405 332.2512 117.9 
C 332.2512 121.778595 334.033998 125.498856 337.206953 128.241437 
C 340.379909 130.984018 344.683964 132.525 349.1712 132.525 
L 349.1712 132.525 
z
" clip-path="url(#p7fe32bcb32)" style="fill: none; opacity: 0.8; stroke: #000000; stroke-linejoin: miter"/>
   </g>
   <g id="patch_11">
    <path d="M 312.624 196.875 
C 315.316342 196.875 317.898775 195.950411 319.802548 194.304862 
C 321.706321 192.659313 322.776 190.427157 322.776 188.1 
C 322.776 185.772843 321.706321 183.540687 319.802548 181.895138 
C 317.898775 180.249589 315.316342 179.325 312.624 179.325 
C 309.931658 179.325 307.349225 180.249589 305.445452 181.895138 
C 303.541679 183.540687 302.472 185.772843 302.472 188.1 
C 302.472 190.427157 303.541679 192.659313 305.445452 194.304862 
C 307.349225 195.950411 309.931658 196.875 312.624 196.875 
z
" clip-path="url(#p7fe32bcb32)" style="fill: #aaaaaa; stroke: #000000; stroke-linejoin: miter"/>
   </g>
   <g id="patch_12">
    <path d="M 327.5136 193.95 
C 330.205942 193.95 332.788375 193.025411 334.692148 191.379862 
C 336.595921 189.734313 337.6656 187.502157 337.6656 185.175 
C 337.6656 182.847843 336.595921 180.615687 334.692148 178.970138 
C 332.788375 177.324589 330.205942 176.4 327.5136 176.4 
C 324.821258 176.4 322.238825 177.324589 320.335052 178.970138 
C 318.431279 180.615687 317.3616 182.847843 317.3616 185.175 
C 317.3616 187.502157 318.431279 189.734313 320.335052 191.379862 
C 322.238825 193.025411 324.821258 193.95 327.5136 193.95 
z
" clip-path="url(#p7fe32bcb32)" style="fill: #88aadd; stroke: #000000; stroke-linejoin: miter"/>
   </g>
   <g id="patch_13">
    <path d="M 468.288 153 
L 535.968 153 
L 535.968 94.5 
L 468.288 94.5 
z
" clip-path="url(#p7fe32bcb32)" style="fill: #4a6fa5; stroke: #000000; stroke-linejoin: miter"/>
   </g>
   <g id="patch_14">
    <path d="M 535.968 155.925 
L 590.112 155.925 
L 590.112 91.575 
L 535.968 91.575 
z
" clip-path="url(#p7fe32bcb32)" style="fill: #dddddd; stroke: #000000; stroke-linejoin: miter"/>
   </g>
   <g id="patch_15">
    <path d="M 590.112 150.075 
L 644.256 150.075 
L 644.256 97.425 
L 590.112 97.425 
z
" clip-path="url(#p7fe32bcb32)" style="fill: #dddddd; stroke: #000000; stroke-linejoin: miter"/>
   </g>
   <g id="patch_16">
    <path d="M 573.8688 132.525 
C 578.356036 132.525 582.660091 130.984018 585.833047 128.241437 
C 589.006002 125.498856 590.7888 121.778595 590.7888 117.9 
C 590.7888 114.021405 589.006002 110.301144 585.833047 107.558563 
C 582.660091 104.815982 578.356036 103.275 573.8688 103.275 
C 569.381564 103.275 565.077509 104.815982 561.904553 107.558563 
C 558.731598 110.301144 556.9488 114.021405 556.9488 117.9 
C 556.9488 121.778595 558.731598 125.498856 561.904553 128.241437 
C 565.077509 130.984018 569.381564 132.525 573.8688 132.525 
L 573.8688 132.525 
z
" clip-path="url(#p7fe32bcb32)" style="fill: none; opacity: 0.8; stroke: #000000; stroke-linejoin: miter"/>
   </g>
   <g id="patch_17">
    <path d="M 529.2 196.875 
C 531.892342 196.875 534.474775 195.950411 536.378548 194.304862 
C 538.282321 192.659313 539.352 190.427157 539.352 188.1 
C 539.352 185.772843 538.282321 183.540687 536.378548 181.895138 
C 534.474775 180.249589 531.892342 179.325 529.2 179.325 
C 526.507658 179.325 523.925225 180.249589 522.021452 181.895138 
C 520.117679 183.540687 519.048 185.772843 519.048 188.1 
C 519.048 190.427157 520.117679 192.659313 522.021452 194.304862 
C 523.925225 195.950411 526.507658 196.875 529.2 196.875 
z
" clip-path="url(#p7fe32bcb32)" style="fill: #aaaaaa; stroke: #000000; stroke-linejoin: miter"/>
   </g>
   <g id="patch_18">
    <path d="M 544.0896 193.95 
C 546.781942 193.95 549.364375 193.025411 551.268148 191.379862 
C 553.171921 189.734313 554.2416 187.502157 554.2416 185.175 
C 554.2416 182.847843 553.171921 180.615687 551.268148 178.970138 
C 549.364375 177.324589 546.781942 176.4 544.0896 176.4 
C 541.397258 176.4 538.814825 177.324589 536.911052 178.970138 
C 535.007279 180.615687 533.9376 182.847843 533.9376 185.175 
C 533.9376 187.502157 535.007279 189.734313 536.911052 191.379862 
C 538.814825 193.025411 541.397258 193.95 544.0896 193.95 
z
" clip-path="url(#p7fe32bcb32)" style="fill: #88aadd; stroke: #000000; stroke-linejoin: miter"/>
   </g>
   <g id="patch_19">
    <path d="M 145.420444 76.95 
Q 387.068685 76.95 627.039874 76.95 
" clip-path="url(#p7fe32bcb32)" style="fill: none; stroke: #000000; stroke-width: 1.5; stroke-linecap: round"/>
    <path d="M 619.039874 72.95 
L 627.039874 76.95 
L 619.039874 80.95 
z
" clip-path="url(#p7fe32bcb32)" style="fill: #1f77b4; stroke: #000000; stroke-width: 1.5; stroke-linecap: round"/>
   </g>
   <g id="patch_20">
    <path d="M 461.52 234.9 
C 465.109789 234.9 468.553033 233.667214 471.091397 231.473149 
C 473.629762 229.279084 475.056 226.302876 475.056 223.2 
C 475.056 220.097124 473.629762 217.120916 471.091397 214.926851 
C 468.553033 212.732786 465.109789 211.5 461.52 211.5 
C 457.930211 211.5 454.486967 212.732786 451.948603 214.926851 
C 449.410238 217.120916 447.984 220.097124 447.984 223.2 
C 447.984 226.302876 449.410238 229.279084 451.948603 231.473149 
C 454.486967 233.667214 457.930211 234.9 461.52 234.9 
z
" clip-path="url(#p7fe32bcb32)" style="fill: #aaaaaa; stroke: #000000; stroke-linejoin: miter"/>
   </g>
   <g id="patch_21">
    <path d="M 515.664 234.9 
C 519.253789 234.9 522.697033 233.667214 525.235397 231.473149 
C 527.773762 229.279084 529.2 226.302876 529.2 223.2 
C 529.2 220.097124 527.773762 217.120916 525.235397 214.926851 
C 522.697033 212.732786 519.253789 211.5 515.664 211.5 
C 512.074211 211.5 508.630967 212.732786 506.092603 214.926851 
C 503.554238 217.120916 502.128 220.097124 502.128 223.2 
C 502.128 226.302876 503.554238 229.279084 506.092603 231.473149 
C 508.630967 233.667214 512.074211 234.9 515.664 234.9 
z
" clip-path="url(#p7fe32bcb32)" style="fill: #88aadd; stroke: #000000; stroke-linejoin: miter"/>
   </g>
   <g id="patch_22">
    <path d="M 535.968 213.255 
C 537.403916 213.255 538.781213 212.761886 539.796559 211.88426 
C 540.811905 211.006634 541.3824 209.816151 541.3824 208.575 
C 541.3824 207.333849 540.811905 206.143366 539.796559 205.26574 
C 538.781213 204.388114 537.403916 203.895 535.968 203.895 
C 534.532084 203.895 533.154787 204.388114 532.139441 205.26574 
C 531.124095 206.143366 530.5536 207.333849 530.5536 208.575 
C 530.5536 209.816151 531.124095 211.006634 532.139441 211.88426 
C 533.154787 212.761886 534.532084 213.255 535.968 213.255 
z
" clip-path="url(#p7fe32bcb32)" style="fill: #ff7777; stroke: #000000; stroke-linejoin: miter"/>
   </g>
   <g id="patch_23">
    <path d="M 517.656727 211.327756 
Q 522.432136 210.914988 526.093665 210.5985 
" clip-path="url(#p7fe32bcb32)" style="fill: none; stroke: #000000; stroke-linecap: round"/>
    <path d="M 521.936294 208.95039 
L 526.093665 210.5985 
L 522.280754 212.93553 
z
" clip-path="url(#p7fe32bcb32)" style="fill: #1f77b4; stroke: #000000; stroke-linecap: round"/>
   </g>
   <g id="patch_24">
    <path d="M 516.876407 233.307103 
Q 524.125254 223.783352 530.696958 215.149251 
" clip-path="url(#p7fe32bcb32)" style="fill: none; stroke: #000000; stroke-linecap: round"/>
    <path d="M 526.682884 217.120851 
L 530.696958 215.149251 
L 529.865794 219.543471 
z
" clip-path="url(#p7fe32bcb32)" style="fill: #1f77b4; stroke: #000000; stroke-linecap: round"/>
   </g>
   <g id="text_1">
    <!-- LUCA ProRS -->
    <g transform="translate(18.742969 47.7) scale(0.11 -0.11)">
     <defs>
      <path id="DejaVuSans-Bold-4c" d="M 588 4666 
L 1791 4666 
L 1791 909 
L 3903 909 
L 3903 0 
L 588 0 
L 588 4666 
z
" transform="scale(0.015625)"/>
      <path id="DejaVuSans-Bold-55" d="M 588 4666 
L 1791 4666 
L 1791 1869 
Q 1791 1291 1980 1042 
Q 2169 794 2597 794 
Q 3028 794 3217 1042 
Q 3406 1291 3406 1869 
L 3406 4666 
L 4609 4666 
L 4609 1869 
Q 4609 878 4112 393 
Q 3616 -91 2597 -91 
Q 1581 -91 1084 393 
Q 588 878 588 1869 
L 588 4666 
z
" transform="scale(0.015625)"/>
      <path id="DejaVuSans-Bold-43" d="M 4288 256 
Q 3956 84 3597 -3 
Q 3238 -91 2847 -91 
Q 1681 -91 1000 561 
Q 319 1213 319 2328 
Q 319 3447 1000 4098 
Q 1681 4750 2847 4750 
Q 3238 4750 3597 4662 
Q 3956 4575 4288 4403 
L 4288 3438 
Q 3953 3666 3628 3772 
Q 3303 3878 2944 3878 
Q 2300 3878 1931 3465 
Q 1563 3053 1563 2328 
Q 1563 1606 1931 1193 
Q 2300 781 2944 781 
Q 3303 781 3628 887 
Q 3953 994 4288 1222 
L 4288 256 
z
" transform="scale(0.015625)"/>
      <path id="DejaVuSans-Bold-41" d="M 3419 850 
L 1538 850 
L 1241 0 
L 31 0 
L 1759 4666 
L 3194 4666 
L 4922 0 
L 3713 0 
L 3419 850 
z
M 1838 1716 
L 3116 1716 
L 2478 3572 
L 1838 1716 
z
" transform="scale(0.015625)"/>
      <path id="DejaVuSans-Bold-20" transform="scale(0.015625)"/>
      <path id="DejaVuSans-Bold-50" d="M 588 4666 
L 2584 4666 
Q 3475 4666 3951 4270 
Q 4428 3875 4428 3144 
Q 4428 2409 3951 2014 
Q 3475 1619 2584 1619 
L 1791 1619 
L 1791 0 
L 588 0 
L 588 4666 
z
M 1791 3794 
L 1791 2491 
L 2456 2491 
Q 2806 2491 2997 2661 
Q 3188 2831 3188 3144 
Q 3188 3456 2997 3625 
Q 2806 3794 2456 3794 
L 1791 3794 
z
" transform="scale(0.015625)"/>
      <path id="DejaVuSans-Bold-72" d="M 3138 2547 
Q 2991 2616 2845 2648 
Q 2700 2681 2553 2681 
Q 2122 2681 1889 2404 
Q 1656 2128 1656 1613 
L 1656 0 
L 538 0 
L 538 3500 
L 1656 3500 
L 1656 2925 
Q 1872 3269 2151 3426 
Q 2431 3584 2822 3584 
Q 2878 3584 2943 3579 
Q 3009 3575 3134 3559 
L 3138 2547 
z
" transform="scale(0.015625)"/>
      <path id="DejaVuSans-Bold-6f" d="M 2203 2784 
Q 1831 2784 1636 2517 
Q 1441 2250 1441 1747 
Q 1441 1244 1636 976 
Q 1831 709 2203 709 
Q 2569 709 2762 976 
Q 2956 1244 2956 1747 
Q 2956 2250 2762 2517 
Q 2569 2784 2203 2784 
z
M 2203 3584 
Q 3106 3584 3614 3096 
Q 4122 2609 4122 1747 
Q 4122 884 3614 396 
Q 3106 -91 2203 -91 
Q 1297 -91 786 396 
Q 275 884 275 1747 
Q 275 2609 786 3096 
Q 1297 3584 2203 3584 
z
" transform="scale(0.015625)"/>
      <path id="DejaVuSans-Bold-52" d="M 2297 2597 
Q 2675 2597 2839 2737 
Q 3003 2878 3003 3200 
Q 3003 3519 2839 3656 
Q 2675 3794 2297 3794 
L 1791 3794 
L 1791 2597 
L 2297 2597 
z
M 1791 1766 
L 1791 0 
L 588 0 
L 588 4666 
L 2425 4666 
Q 3347 4666 3776 4356 
Q 4206 4047 4206 3378 
Q 4206 2916 3982 2619 
Q 3759 2322 3309 2181 
Q 3556 2125 3751 1926 
Q 3947 1728 4147 1325 
L 4800 0 
L 3519 0 
L 2950 1159 
Q 2778 1509 2601 1637 
Q 2425 1766 2131 1766 
L 1791 1766 
z
" transform="scale(0.015625)"/>
      <path id="DejaVuSans-Bold-53" d="M 3834 4519 
L 3834 3531 
Q 3450 3703 3084 3790 
Q 2719 3878 2394 3878 
Q 1963 3878 1756 3759 
Q 1550 3641 1550 3391 
Q 1550 3203 1689 3098 
Q 1828 2994 2194 2919 
L 2706 2816 
Q 3484 2659 3812 2340 
Q 4141 2022 4141 1434 
Q 4141 663 3683 286 
Q 3225 -91 2284 -91 
Q 1841 -91 1394 -6 
Q 947 78 500 244 
L 500 1259 
Q 947 1022 1364 901 
Q 1781 781 2169 781 
Q 2563 781 2772 912 
Q 2981 1044 2981 1288 
Q 2981 1506 2839 1625 
Q 2697 1744 2272 1838 
L 1806 1941 
Q 1106 2091 782 2419 
Q 459 2747 459 3303 
Q 459 4000 909 4375 
Q 1359 4750 2203 4750 
Q 2588 4750 2994 4692 
Q 3400 4634 3834 4519 
z
" transform="scale(0.015625)"/>
     </defs>
     <use xlink:href="#DejaVuSans-Bold-4c"/>
     <use xlink:href="#DejaVuSans-Bold-55" transform="translate(60.095703 0)"/>
     <use xlink:href="#DejaVuSans-Bold-43" transform="translate(141.296875 0)"/>
     <use xlink:href="#DejaVuSans-Bold-41" transform="translate(214.685547 0)"/>
     <use xlink:href="#DejaVuSans-Bold-20" transform="translate(292.078125 0)"/>
     <use xlink:href="#DejaVuSans-Bold-50" transform="translate(326.892578 0)"/>
     <use xlink:href="#DejaVuSans-Bold-72" transform="translate(400.183594 0)"/>
     <use xlink:href="#DejaVuSans-Bold-6f" transform="translate(449.5 0)"/>
     <use xlink:href="#DejaVuSans-Bold-52" transform="translate(518.201172 0)"/>
     <use xlink:href="#DejaVuSans-Bold-53" transform="translate(595.203125 0)"/>
    </g>
   </g>
   <g id="text_2">
    <!-- Ancestral editing-lineage -->
    <g transform="translate(214.033516 47.7) scale(0.11 -0.11)">
     <defs>
      <path id="DejaVuSans-Bold-6e" d="M 4056 2131 
L 4056 0 
L 2931 0 
L 2931 347 
L 2931 1631 
Q 2931 2084 2911 2256 
Q 2891 2428 2841 2509 
Q 2775 2619 2662 2680 
Q 2550 2741 2406 2741 
Q 2056 2741 1856 2470 
Q 1656 2200 1656 1722 
L 1656 0 
L 538 0 
L 538 3500 
L 1656 3500 
L 1656 2988 
Q 1909 3294 2193 3439 
Q 2478 3584 2822 3584 
Q 3428 3584 3742 3212 
Q 4056 2841 4056 2131 
z
" transform="scale(0.015625)"/>
      <path id="DejaVuSans-Bold-63" d="M 3366 3391 
L 3366 2478 
Q 3138 2634 2908 2709 
Q 2678 2784 2431 2784 
Q 1963 2784 1702 2511 
Q 1441 2238 1441 1747 
Q 1441 1256 1702 982 
Q 1963 709 2431 709 
Q 2694 709 2930 787 
Q 3166 866 3366 1019 
L 3366 103 
Q 3103 6 2833 -42 
Q 2563 -91 2291 -91 
Q 1344 -91 809 395 
Q 275 881 275 1747 
Q 275 2613 809 3098 
Q 1344 3584 2291 3584 
Q 2566 3584 2833 3536 
Q 3100 3488 3366 3391 
z
" transform="scale(0.015625)"/>
      <path id="DejaVuSans-Bold-65" d="M 4031 1759 
L 4031 1441 
L 1416 1441 
Q 1456 1047 1700 850 
Q 1944 653 2381 653 
Q 2734 653 3104 758 
Q 3475 863 3866 1075 
L 3866 213 
Q 3469 63 3072 -14 
Q 2675 -91 2278 -91 
Q 1328 -91 801 392 
Q 275 875 275 1747 
Q 275 2603 792 3093 
Q 1309 3584 2216 3584 
Q 3041 3584 3536 3087 
Q 4031 2591 4031 1759 
z
M 2881 2131 
Q 2881 2450 2695 2645 
Q 2509 2841 2209 2841 
Q 1884 2841 1681 2658 
Q 1478 2475 1428 2131 
L 2881 2131 
z
" transform="scale(0.015625)"/>
      <path id="DejaVuSans-Bold-73" d="M 3272 3391 
L 3272 2541 
Q 2913 2691 2578 2766 
Q 2244 2841 1947 2841 
Q 1628 2841 1473 2761 
Q 1319 2681 1319 2516 
Q 1319 2381 1436 2309 
Q 1553 2238 1856 2203 
L 2053 2175 
Q 2913 2066 3209 1816 
Q 3506 1566 3506 1031 
Q 3506 472 3093 190 
Q 2681 -91 1863 -91 
Q 1516 -91 1145 -36 
Q 775 19 384 128 
L 384 978 
Q 719 816 1070 734 
Q 1422 653 1784 653 
Q 2113 653 2278 743 
Q 2444 834 2444 1013 
Q 2444 1163 2330 1236 
Q 2216 1309 1875 1350 
L 1678 1375 
Q 931 1469 631 1722 
Q 331 1975 331 2491 
Q 331 3047 712 3315 
Q 1094 3584 1881 3584 
Q 2191 3584 2531 3537 
Q 2872 3491 3272 3391 
z
" transform="scale(0.015625)"/>
      <path id="DejaVuSans-Bold-74" d="M 1759 4494 
L 1759 3500 
L 2913 3500 
L 2913 2700 
L 1759 2700 
L 1759 1216 
Q 1759 972 1856 886 
Q 1953 800 2241 800 
L 2816 800 
L 2816 0 
L 1856 0 
Q 1194 0 917 276 
Q 641 553 641 1216 
L 641 2700 
L 84 2700 
L 84 3500 
L 641 3500 
L 641 4494 
L 1759 4494 
z
" transform="scale(0.015625)"/>
      <path id="DejaVuSans-Bold-61" d="M 2106 1575 
Q 1756 1575 1579 1456 
Q 1403 1338 1403 1106 
Q 1403 894 1545 773 
Q 1688 653 1941 653 
Q 2256 653 2472 879 
Q 2688 1106 2688 1447 
L 2688 1575 
L 2106 1575 
z
M 3816 1997 
L 3816 0 
L 2688 0 
L 2688 519 
Q 2463 200 2181 54 
Q 1900 -91 1497 -91 
Q 953 -91 614 226 
Q 275 544 275 1050 
Q 275 1666 698 1953 
Q 1122 2241 2028 2241 
L 2688 2241 
L 2688 2328 
Q 2688 2594 2478 2717 
Q 2269 2841 1825 2841 
Q 1466 2841 1156 2769 
Q 847 2697 581 2553 
L 581 3406 
Q 941 3494 1303 3539 
Q 1666 3584 2028 3584 
Q 2975 3584 3395 3211 
Q 3816 2838 3816 1997 
z
" transform="scale(0.015625)"/>
      <path id="DejaVuSans-Bold-6c" d="M 538 4863 
L 1656 4863 
L 1656 0 
L 538 0 
L 538 4863 
z
" transform="scale(0.015625)"/>
      <path id="DejaVuSans-Bold-64" d="M 2919 2988 
L 2919 4863 
L 4044 4863 
L 4044 0 
L 2919 0 
L 2919 506 
Q 2688 197 2409 53 
Q 2131 -91 1766 -91 
Q 1119 -91 703 423 
Q 288 938 288 1747 
Q 288 2556 703 3070 
Q 1119 3584 1766 3584 
Q 2128 3584 2408 3439 
Q 2688 3294 2919 2988 
z
M 2181 722 
Q 2541 722 2730 984 
Q 2919 1247 2919 1747 
Q 2919 2247 2730 2509 
Q 2541 2772 2181 2772 
Q 1825 2772 1636 2509 
Q 1447 2247 1447 1747 
Q 1447 1247 1636 984 
Q 1825 722 2181 722 
z
" transform="scale(0.015625)"/>
      <path id="DejaVuSans-Bold-69" d="M 538 3500 
L 1656 3500 
L 1656 0 
L 538 0 
L 538 3500 
z
M 538 4863 
L 1656 4863 
L 1656 3950 
L 538 3950 
L 538 4863 
z
" transform="scale(0.015625)"/>
      <path id="DejaVuSans-Bold-67" d="M 2919 594 
Q 2688 288 2409 144 
Q 2131 0 1766 0 
Q 1125 0 706 504 
Q 288 1009 288 1791 
Q 288 2575 706 3076 
Q 1125 3578 1766 3578 
Q 2131 3578 2409 3434 
Q 2688 3291 2919 2981 
L 2919 3500 
L 4044 3500 
L 4044 353 
Q 4044 -491 3511 -936 
Q 2978 -1381 1966 -1381 
Q 1638 -1381 1331 -1331 
Q 1025 -1281 716 -1178 
L 716 -306 
Q 1009 -475 1290 -558 
Q 1572 -641 1856 -641 
Q 2406 -641 2662 -400 
Q 2919 -159 2919 353 
L 2919 594 
z
M 2181 2772 
Q 1834 2772 1640 2515 
Q 1447 2259 1447 1791 
Q 1447 1309 1634 1061 
Q 1822 813 2181 813 
Q 2531 813 2725 1069 
Q 2919 1325 2919 1791 
Q 2919 2259 2725 2515 
Q 2531 2772 2181 2772 
z
" transform="scale(0.015625)"/>
      <path id="DejaVuSans-Bold-2d" d="M 347 2297 
L 2309 2297 
L 2309 1388 
L 347 1388 
L 347 2297 
z
" transform="scale(0.015625)"/>
     </defs>
     <use xlink:href="#DejaVuSans-Bold-41"/>
     <use xlink:href="#DejaVuSans-Bold-6e" transform="translate(77.392578 0)"/>
     <use xlink:href="#DejaVuSans-Bold-63" transform="translate(148.583984 0)"/>
     <use xlink:href="#DejaVuSans-Bold-65" transform="translate(207.861328 0)"/>
     <use xlink:href="#DejaVuSans-Bold-73" transform="translate(275.683594 0)"/>
     <use xlink:href="#DejaVuSans-Bold-74" transform="translate(335.205078 0)"/>
     <use xlink:href="#DejaVuSans-Bold-72" transform="translate(383.007812 0)"/>
     <use xlink:href="#DejaVuSans-Bold-61" transform="translate(432.324219 0)"/>
     <use xlink:href="#DejaVuSans-Bold-6c" transform="translate(499.804688 0)"/>
     <use xlink:href="#DejaVuSans-Bold-20" transform="translate(534.082031 0)"/>
     <use xlink:href="#DejaVuSans-Bold-65" transform="translate(568.896484 0)"/>
     <use xlink:href="#DejaVuSans-Bold-64" transform="translate(636.71875 0)"/>
     <use xlink:href="#DejaVuSans-Bold-69" transform="translate(708.300781 0)"/>
     <use xlink:href="#DejaVuSans-Bold-74" transform="translate(742.578125 0)"/>
     <use xlink:href="#DejaVuSans-Bold-69" transform="translate(790.380859 0)"/>
     <use xlink:href="#DejaVuSans-Bold-6e" transform="translate(824.658203 0)"/>
     <use xlink:href="#DejaVuSans-Bold-67" transform="translate(895.849609 0)"/>
     <use xlink:href="#DejaVuSans-Bold-2d" transform="translate(967.431641 0)"/>
     <use xlink:href="#DejaVuSans-Bold-6c" transform="translate(1008.935547 0)"/>
     <use xlink:href="#DejaVuSans-Bold-69" transform="translate(1043.212891 0)"/>
     <use xlink:href="#DejaVuSans-Bold-6e" transform="translate(1077.490234 0)"/>
     <use xlink:href="#DejaVuSans-Bold-65" transform="translate(1148.681641 0)"/>
     <use xlink:href="#DejaVuSans-Bold-61" transform="translate(1216.503906 0)"/>
     <use xlink:href="#DejaVuSans-Bold-67" transform="translate(1283.984375 0)"/>
     <use xlink:href="#DejaVuSans-Bold-65" transform="translate(1355.566406 0)"/>
    </g>
   </g>
   <g id="text_3">
    <!-- Modern ProRS -->
    <g transform="translate(485.020391 47.7) scale(0.11 -0.11)">
     <defs>
      <path id="DejaVuSans-Bold-4d" d="M 588 4666 
L 2119 4666 
L 3181 2169 
L 4250 4666 
L 5778 4666 
L 5778 0 
L 4641 0 
L 4641 3413 
L 3566 897 
L 2803 897 
L 1728 3413 
L 1728 0 
L 588 0 
L 588 4666 
z
" transform="scale(0.015625)"/>
     </defs>
     <use xlink:href="#DejaVuSans-Bold-4d"/>
     <use xlink:href="#DejaVuSans-Bold-6f" transform="translate(99.511719 0)"/>
     <use xlink:href="#DejaVuSans-Bold-64" transform="translate(168.212891 0)"/>
     <use xlink:href="#DejaVuSans-Bold-65" transform="translate(239.794922 0)"/>
     <use xlink:href="#DejaVuSans-Bold-72" transform="translate(307.617188 0)"/>
     <use xlink:href="#DejaVuSans-Bold-6e" transform="translate(356.933594 0)"/>
     <use xlink:href="#DejaVuSans-Bold-20" transform="translate(428.125 0)"/>
     <use xlink:href="#DejaVuSans-Bold-50" transform="translate(462.939453 0)"/>
     <use xlink:href="#DejaVuSans-Bold-72" transform="translate(536.230469 0)"/>
     <use xlink:href="#DejaVuSans-Bold-6f" transform="translate(585.546875 0)"/>
     <use xlink:href="#DejaVuSans-Bold-52" transform="translate(654.248047 0)"/>
     <use xlink:href="#DejaVuSans-Bold-53" transform="translate(731.25 0)"/>
    </g>
   </g>
   <g id="text_4">
    <!-- Compact, promiscuous -->
    <g transform="translate(44.443547 171.538594) scale(0.09 -0.09)">
     <defs>
      <path id="DejaVuSans-43" d="M 4122 4306 
L 4122 3641 
Q 3803 3938 3442 4084 
Q 3081 4231 2675 4231 
Q 1875 4231 1450 3742 
Q 1025 3253 1025 2328 
Q 1025 1406 1450 917 
Q 1875 428 2675 428 
Q 3081 428 3442 575 
Q 3803 722 4122 1019 
L 4122 359 
Q 3791 134 3420 21 
Q 3050 -91 2638 -91 
Q 1578 -91 968 557 
Q 359 1206 359 2328 
Q 359 3453 968 4101 
Q 1578 4750 2638 4750 
Q 3056 4750 3426 4639 
Q 3797 4528 4122 4306 
z
" transform="scale(0.015625)"/>
      <path id="DejaVuSans-6f" d="M 1959 3097 
Q 1497 3097 1228 2736 
Q 959 2375 959 1747 
Q 959 1119 1226 758 
Q 1494 397 1959 397 
Q 2419 397 2687 759 
Q 2956 1122 2956 1747 
Q 2956 2369 2687 2733 
Q 2419 3097 1959 3097 
z
M 1959 3584 
Q 2709 3584 3137 3096 
Q 3566 2609 3566 1747 
Q 3566 888 3137 398 
Q 2709 -91 1959 -91 
Q 1206 -91 779 398 
Q 353 888 353 1747 
Q 353 2609 779 3096 
Q 1206 3584 1959 3584 
z
" transform="scale(0.015625)"/>
      <path id="DejaVuSans-6d" d="M 3328 2828 
Q 3544 3216 3844 3400 
Q 4144 3584 4550 3584 
Q 5097 3584 5394 3201 
Q 5691 2819 5691 2113 
L 5691 0 
L 5113 0 
L 5113 2094 
Q 5113 2597 4934 2840 
Q 4756 3084 4391 3084 
Q 3944 3084 3684 2787 
Q 3425 2491 3425 1978 
L 3425 0 
L 2847 0 
L 2847 2094 
Q 2847 2600 2669 2842 
Q 2491 3084 2119 3084 
Q 1678 3084 1418 2786 
Q 1159 2488 1159 1978 
L 1159 0 
L 581 0 
L 581 3500 
L 1159 3500 
L 1159 2956 
Q 1356 3278 1631 3431 
Q 1906 3584 2284 3584 
Q 2666 3584 2933 3390 
Q 3200 3197 3328 2828 
z
" transform="scale(0.015625)"/>
      <path id="DejaVuSans-70" d="M 1159 525 
L 1159 -1331 
L 581 -1331 
L 581 3500 
L 1159 3500 
L 1159 2969 
Q 1341 3281 1617 3432 
Q 1894 3584 2278 3584 
Q 2916 3584 3314 3078 
Q 3713 2572 3713 1747 
Q 3713 922 3314 415 
Q 2916 -91 2278 -91 
Q 1894 -91 1617 61 
Q 1341 213 1159 525 
z
M 3116 1747 
Q 3116 2381 2855 2742 
Q 2594 3103 2138 3103 
Q 1681 3103 1420 2742 
Q 1159 2381 1159 1747 
Q 1159 1113 1420 752 
Q 1681 391 2138 391 
Q 2594 391 2855 752 
Q 3116 1113 3116 1747 
z
" transform="scale(0.015625)"/>
      <path id="DejaVuSans-61" d="M 2194 1759 
Q 1497 1759 1228 1600 
Q 959 1441 959 1056 
Q 959 750 1161 570 
Q 1363 391 1709 391 
Q 2188 391 2477 730 
Q 2766 1069 2766 1631 
L 2766 1759 
L 2194 1759 
z
M 3341 1997 
L 3341 0 
L 2766 0 
L 2766 531 
Q 2569 213 2275 61 
Q 1981 -91 1556 -91 
Q 1019 -91 701 211 
Q 384 513 384 1019 
Q 384 1609 779 1909 
Q 1175 2209 1959 2209 
L 2766 2209 
L 2766 2266 
Q 2766 2663 2505 2880 
Q 2244 3097 1772 3097 
Q 1472 3097 1187 3025 
Q 903 2953 641 2809 
L 641 3341 
Q 956 3463 1253 3523 
Q 1550 3584 1831 3584 
Q 2591 3584 2966 3190 
Q 3341 2797 3341 1997 
z
" transform="scale(0.015625)"/>
      <path id="DejaVuSans-63" d="M 3122 3366 
L 3122 2828 
Q 2878 2963 2633 3030 
Q 2388 3097 2138 3097 
Q 1578 3097 1268 2742 
Q 959 2388 959 1747 
Q 959 1106 1268 751 
Q 1578 397 2138 397 
Q 2388 397 2633 464 
Q 2878 531 3122 666 
L 3122 134 
Q 2881 22 2623 -34 
Q 2366 -91 2075 -91 
Q 1284 -91 818 406 
Q 353 903 353 1747 
Q 353 2603 823 3093 
Q 1294 3584 2113 3584 
Q 2378 3584 2631 3529 
Q 2884 3475 3122 3366 
z
" transform="scale(0.015625)"/>
      <path id="DejaVuSans-74" d="M 1172 4494 
L 1172 3500 
L 2356 3500 
L 2356 3053 
L 1172 3053 
L 1172 1153 
Q 1172 725 1289 603 
Q 1406 481 1766 481 
L 2356 481 
L 2356 0 
L 1766 0 
Q 1100 0 847 248 
Q 594 497 594 1153 
L 594 3053 
L 172 3053 
L 172 3500 
L 594 3500 
L 594 4494 
L 1172 4494 
z
" transform="scale(0.015625)"/>
      <path id="DejaVuSans-2c" d="M 750 794 
L 1409 794 
L 1409 256 
L 897 -744 
L 494 -744 
L 750 256 
L 750 794 
z
" transform="scale(0.015625)"/>
      <path id="DejaVuSans-20" transform="scale(0.015625)"/>
      <path id="DejaVuSans-72" d="M 2631 2963 
Q 2534 3019 2420 3045 
Q 2306 3072 2169 3072 
Q 1681 3072 1420 2755 
Q 1159 2438 1159 1844 
L 1159 0 
L 581 0 
L 581 3500 
L 1159 3500 
L 1159 2956 
Q 1341 3275 1631 3429 
Q 1922 3584 2338 3584 
Q 2397 3584 2469 3576 
Q 2541 3569 2628 3553 
L 2631 2963 
z
" transform="scale(0.015625)"/>
      <path id="DejaVuSans-69" d="M 603 3500 
L 1178 3500 
L 1178 0 
L 603 0 
L 603 3500 
z
M 603 4863 
L 1178 4863 
L 1178 4134 
L 603 4134 
L 603 4863 
z
" transform="scale(0.015625)"/>
      <path id="DejaVuSans-73" d="M 2834 3397 
L 2834 2853 
Q 2591 2978 2328 3040 
Q 2066 3103 1784 3103 
Q 1356 3103 1142 2972 
Q 928 2841 928 2578 
Q 928 2378 1081 2264 
Q 1234 2150 1697 2047 
L 1894 2003 
Q 2506 1872 2764 1633 
Q 3022 1394 3022 966 
Q 3022 478 2636 193 
Q 2250 -91 1575 -91 
Q 1294 -91 989 -36 
Q 684 19 347 128 
L 347 722 
Q 666 556 975 473 
Q 1284 391 1588 391 
Q 1994 391 2212 530 
Q 2431 669 2431 922 
Q 2431 1156 2273 1281 
Q 2116 1406 1581 1522 
L 1381 1569 
Q 847 1681 609 1914 
Q 372 2147 372 2553 
Q 372 3047 722 3315 
Q 1072 3584 1716 3584 
Q 2034 3584 2315 3537 
Q 2597 3491 2834 3397 
z
" transform="scale(0.015625)"/>
      <path id="DejaVuSans-75" d="M 544 1381 
L 544 3500 
L 1119 3500 
L 1119 1403 
Q 1119 906 1312 657 
Q 1506 409 1894 409 
Q 2359 409 2629 706 
Q 2900 1003 2900 1516 
L 2900 3500 
L 3475 3500 
L 3475 0 
L 2900 0 
L 2900 538 
Q 2691 219 2414 64 
Q 2138 -91 1772 -91 
Q 1169 -91 856 284 
Q 544 659 544 1381 
z
M 1991 3584 
L 1991 3584 
z
" transform="scale(0.015625)"/>
     </defs>
     <use xlink:href="#DejaVuSans-43"/>
     <use xlink:href="#DejaVuSans-6f" transform="translate(69.824219 0)"/>
     <use xlink:href="#DejaVuSans-6d" transform="translate(131.005859 0)"/>
     <use xlink:href="#DejaVuSans-70" transform="translate(228.417969 0)"/>
     <use xlink:href="#DejaVuSans-61" transform="translate(291.894531 0)"/>
     <use xlink:href="#DejaVuSans-63" transform="translate(353.173828 0)"/>
     <use xlink:href="#DejaVuSans-74" transform="translate(408.154297 0)"/>
     <use xlink:href="#DejaVuSans-2c" transform="translate(447.363281 0)"/>
     <use xlink:href="#DejaVuSans-20" transform="translate(479.150391 0)"/>
     <use xlink:href="#DejaVuSans-70" transform="translate(510.9375 0)"/>
     <use xlink:href="#DejaVuSans-72" transform="translate(574.414062 0)"/>
     <use xlink:href="#DejaVuSans-6f" transform="translate(613.277344 0)"/>
     <use xlink:href="#DejaVuSans-6d" transform="translate(674.458984 0)"/>
     <use xlink:href="#DejaVuSans-69" transform="translate(771.871094 0)"/>
     <use xlink:href="#DejaVuSans-73" transform="translate(799.654297 0)"/>
     <use xlink:href="#DejaVuSans-63" transform="translate(851.753906 0)"/>
     <use xlink:href="#DejaVuSans-75" transform="translate(906.734375 0)"/>
     <use xlink:href="#DejaVuSans-6f" transform="translate(970.113281 0)"/>
     <use xlink:href="#DejaVuSans-75" transform="translate(1031.294922 0)"/>
     <use xlink:href="#DejaVuSans-73" transform="translate(1094.673828 0)"/>
    </g>
   </g>
   <g id="text_5">
    <!-- Small active site -->
    <g transform="translate(79.324775 93.044219) scale(0.07 -0.07)">
     <defs>
      <path id="DejaVuSans-53" d="M 3425 4513 
L 3425 3897 
Q 3066 4069 2747 4153 
Q 2428 4238 2131 4238 
Q 1616 4238 1336 4038 
Q 1056 3838 1056 3469 
Q 1056 3159 1242 3001 
Q 1428 2844 1947 2747 
L 2328 2669 
Q 3034 2534 3370 2195 
Q 3706 1856 3706 1288 
Q 3706 609 3251 259 
Q 2797 -91 1919 -91 
Q 1588 -91 1214 -16 
Q 841 59 441 206 
L 441 856 
Q 825 641 1194 531 
Q 1563 422 1919 422 
Q 2459 422 2753 634 
Q 3047 847 3047 1241 
Q 3047 1584 2836 1778 
Q 2625 1972 2144 2069 
L 1759 2144 
Q 1053 2284 737 2584 
Q 422 2884 422 3419 
Q 422 4038 858 4394 
Q 1294 4750 2059 4750 
Q 2388 4750 2728 4690 
Q 3069 4631 3425 4513 
z
" transform="scale(0.015625)"/>
      <path id="DejaVuSans-6c" d="M 603 4863 
L 1178 4863 
L 1178 0 
L 603 0 
L 603 4863 
z
" transform="scale(0.015625)"/>
      <path id="DejaVuSans-76" d="M 191 3500 
L 800 3500 
L 1894 563 
L 2988 3500 
L 3597 3500 
L 2284 0 
L 1503 0 
L 191 3500 
z
" transform="scale(0.015625)"/>
      <path id="DejaVuSans-65" d="M 3597 1894 
L 3597 1613 
L 953 1613 
Q 991 1019 1311 708 
Q 1631 397 2203 397 
Q 2534 397 2845 478 
Q 3156 559 3463 722 
L 3463 178 
Q 3153 47 2828 -22 
Q 2503 -91 2169 -91 
Q 1331 -91 842 396 
Q 353 884 353 1716 
Q 353 2575 817 3079 
Q 1281 3584 2069 3584 
Q 2775 3584 3186 3129 
Q 3597 2675 3597 1894 
z
M 3022 2063 
Q 3016 2534 2758 2815 
Q 2500 3097 2075 3097 
Q 1594 3097 1305 2825 
Q 1016 2553 972 2059 
L 3022 2063 
z
" transform="scale(0.015625)"/>
     </defs>
     <use xlink:href="#DejaVuSans-53"/>
     <use xlink:href="#DejaVuSans-6d" transform="translate(63.476562 0)"/>
     <use xlink:href="#DejaVuSans-61" transform="translate(160.888672 0)"/>
     <use xlink:href="#DejaVuSans-6c" transform="translate(222.167969 0)"/>
     <use xlink:href="#DejaVuSans-6c" transform="translate(249.951172 0)"/>
     <use xlink:href="#DejaVuSans-20" transform="translate(277.734375 0)"/>
     <use xlink:href="#DejaVuSans-61" transform="translate(309.521484 0)"/>
     <use xlink:href="#DejaVuSans-63" transform="translate(370.800781 0)"/>
     <use xlink:href="#DejaVuSans-74" transform="translate(425.78125 0)"/>
     <use xlink:href="#DejaVuSans-69" transform="translate(464.990234 0)"/>
     <use xlink:href="#DejaVuSans-76" transform="translate(492.773438 0)"/>
     <use xlink:href="#DejaVuSans-65" transform="translate(551.953125 0)"/>
     <use xlink:href="#DejaVuSans-20" transform="translate(613.476562 0)"/>
     <use xlink:href="#DejaVuSans-73" transform="translate(645.263672 0)"/>
     <use xlink:href="#DejaVuSans-69" transform="translate(697.363281 0)"/>
     <use xlink:href="#DejaVuSans-74" transform="translate(725.146484 0)"/>
     <use xlink:href="#DejaVuSans-65" transform="translate(764.355469 0)"/>
    </g>
   </g>
   <g id="text_6">
    <!-- Pro -->
    <g transform="translate(76.961219 190.031563) scale(0.07 -0.07)">
     <defs>
      <path id="DejaVuSans-50" d="M 1259 4147 
L 1259 2394 
L 2053 2394 
Q 2494 2394 2734 2622 
Q 2975 2850 2975 3272 
Q 2975 3691 2734 3919 
Q 2494 4147 2053 4147 
L 1259 4147 
z
M 628 4666 
L 2053 4666 
Q 2838 4666 3239 4311 
Q 3641 3956 3641 3272 
Q 3641 2581 3239 2228 
Q 2838 1875 2053 1875 
L 1259 1875 
L 1259 0 
L 628 0 
L 628 4666 
z
" transform="scale(0.015625)"/>
     </defs>
     <use xlink:href="#DejaVuSans-50"/>
     <use xlink:href="#DejaVuSans-72" transform="translate(58.552734 0)"/>
     <use xlink:href="#DejaVuSans-6f" transform="translate(97.416016 0)"/>
    </g>
   </g>
   <g id="text_7">
    <!-- Thr -->
    <g transform="translate(91.606912 187.106563) scale(0.07 -0.07)">
     <defs>
      <path id="DejaVuSans-54" d="M -19 4666 
L 3928 4666 
L 3928 4134 
L 2272 4134 
L 2272 0 
L 1638 0 
L 1638 4134 
L -19 4134 
L -19 4666 
z
" transform="scale(0.015625)"/>
      <path id="DejaVuSans-68" d="M 3513 2113 
L 3513 0 
L 2938 0 
L 2938 2094 
Q 2938 2591 2744 2837 
Q 2550 3084 2163 3084 
Q 1697 3084 1428 2787 
Q 1159 2491 1159 1978 
L 1159 0 
L 581 0 
L 581 4863 
L 1159 4863 
L 1159 2956 
Q 1366 3272 1645 3428 
Q 1925 3584 2291 3584 
Q 2894 3584 3203 3211 
Q 3513 2838 3513 2113 
z
" transform="scale(0.015625)"/>
     </defs>
     <use xlink:href="#DejaVuSans-54"/>
     <use xlink:href="#DejaVuSans-68" transform="translate(61.083984 0)"/>
     <use xlink:href="#DejaVuSans-72" transform="translate(124.462891 0)"/>
    </g>
   </g>
   <g id="text_8">
    <!-- Pro/Thr -->
    <g transform="translate(77.432269 208.043906) scale(0.07 -0.07)">
     <defs>
      <path id="DejaVuSans-2f" d="M 1625 4666 
L 2156 4666 
L 531 -594 
L 0 -594 
L 1625 4666 
z
" transform="scale(0.015625)"/>
     </defs>
     <use xlink:href="#DejaVuSans-50"/>
     <use xlink:href="#DejaVuSans-72" transform="translate(58.552734 0)"/>
     <use xlink:href="#DejaVuSans-6f" transform="translate(97.416016 0)"/>
     <use xlink:href="#DejaVuSans-2f" transform="translate(158.597656 0)"/>
     <use xlink:href="#DejaVuSans-54" transform="translate(192.289062 0)"/>
     <use xlink:href="#DejaVuSans-68" transform="translate(253.373047 0)"/>
     <use xlink:href="#DejaVuSans-72" transform="translate(316.751953 0)"/>
    </g>
    <!-- confusion -->
    <g transform="translate(73.067112 215.882375) scale(0.07 -0.07)">
     <defs>
      <path id="DejaVuSans-6e" d="M 3513 2113 
L 3513 0 
L 2938 0 
L 2938 2094 
Q 2938 2591 2744 2837 
Q 2550 3084 2163 3084 
Q 1697 3084 1428 2787 
Q 1159 2491 1159 1978 
L 1159 0 
L 581 0 
L 581 3500 
L 1159 3500 
L 1159 2956 
Q 1366 3272 1645 3428 
Q 1925 3584 2291 3584 
Q 2894 3584 3203 3211 
Q 3513 2838 3513 2113 
z
" transform="scale(0.015625)"/>
      <path id="DejaVuSans-66" d="M 2375 4863 
L 2375 4384 
L 1825 4384 
Q 1516 4384 1395 4259 
Q 1275 4134 1275 3809 
L 1275 3500 
L 2222 3500 
L 2222 3053 
L 1275 3053 
L 1275 0 
L 697 0 
L 697 3053 
L 147 3053 
L 147 3500 
L 697 3500 
L 697 3744 
Q 697 4328 969 4595 
Q 1241 4863 1831 4863 
L 2375 4863 
z
" transform="scale(0.015625)"/>
     </defs>
     <use xlink:href="#DejaVuSans-63"/>
     <use xlink:href="#DejaVuSans-6f" transform="translate(54.980469 0)"/>
     <use xlink:href="#DejaVuSans-6e" transform="translate(116.162109 0)"/>
     <use xlink:href="#DejaVuSans-66" transform="translate(179.541016 0)"/>
     <use xlink:href="#DejaVuSans-75" transform="translate(214.746094 0)"/>
     <use xlink:href="#DejaVuSans-73" transform="translate(278.125 0)"/>
     <use xlink:href="#DejaVuSans-69" transform="translate(330.224609 0)"/>
     <use xlink:href="#DejaVuSans-6f" transform="translate(358.007812 0)"/>
     <use xlink:href="#DejaVuSans-6e" transform="translate(419.189453 0)"/>
    </g>
   </g>
   <g id="text_9">
    <!-- Domain accretion -->
    <g transform="translate(293.193 171.538594) scale(0.09 -0.09)">
     <defs>
      <path id="DejaVuSans-44" d="M 1259 4147 
L 1259 519 
L 2022 519 
Q 2988 519 3436 956 
Q 3884 1394 3884 2338 
Q 3884 3275 3436 3711 
Q 2988 4147 2022 4147 
L 1259 4147 
z
M 628 4666 
L 1925 4666 
Q 3281 4666 3915 4102 
Q 4550 3538 4550 2338 
Q 4550 1131 3912 565 
Q 3275 0 1925 0 
L 628 0 
L 628 4666 
z
" transform="scale(0.015625)"/>
     </defs>
     <use xlink:href="#DejaVuSans-44"/>
     <use xlink:href="#DejaVuSans-6f" transform="translate(77.001953 0)"/>
     <use xlink:href="#DejaVuSans-6d" transform="translate(138.183594 0)"/>
     <use xlink:href="#DejaVuSans-61" transform="translate(235.595703 0)"/>
     <use xlink:href="#DejaVuSans-69" transform="translate(296.875 0)"/>
     <use xlink:href="#DejaVuSans-6e" transform="translate(324.658203 0)"/>
     <use xlink:href="#DejaVuSans-20" transform="translate(388.037109 0)"/>
     <use xlink:href="#DejaVuSans-61" transform="translate(419.824219 0)"/>
     <use xlink:href="#DejaVuSans-63" transform="translate(481.103516 0)"/>
     <use xlink:href="#DejaVuSans-63" transform="translate(536.083984 0)"/>
     <use xlink:href="#DejaVuSans-72" transform="translate(591.064453 0)"/>
     <use xlink:href="#DejaVuSans-65" transform="translate(629.927734 0)"/>
     <use xlink:href="#DejaVuSans-74" transform="translate(691.451172 0)"/>
     <use xlink:href="#DejaVuSans-69" transform="translate(730.660156 0)"/>
     <use xlink:href="#DejaVuSans-6f" transform="translate(758.443359 0)"/>
     <use xlink:href="#DejaVuSans-6e" transform="translate(819.625 0)"/>
    </g>
    <!-- + editing module -->
    <g transform="translate(293.833547 181.616625) scale(0.09 -0.09)">
     <defs>
      <path id="DejaVuSans-2b" d="M 2944 4013 
L 2944 2272 
L 4684 2272 
L 4684 1741 
L 2944 1741 
L 2944 0 
L 2419 0 
L 2419 1741 
L 678 1741 
L 678 2272 
L 2419 2272 
L 2419 4013 
L 2944 4013 
z
" transform="scale(0.015625)"/>
      <path id="DejaVuSans-64" d="M 2906 2969 
L 2906 4863 
L 3481 4863 
L 3481 0 
L 2906 0 
L 2906 525 
Q 2725 213 2448 61 
Q 2172 -91 1784 -91 
Q 1150 -91 751 415 
Q 353 922 353 1747 
Q 353 2572 751 3078 
Q 1150 3584 1784 3584 
Q 2172 3584 2448 3432 
Q 2725 3281 2906 2969 
z
M 947 1747 
Q 947 1113 1208 752 
Q 1469 391 1925 391 
Q 2381 391 2643 752 
Q 2906 1113 2906 1747 
Q 2906 2381 2643 2742 
Q 2381 3103 1925 3103 
Q 1469 3103 1208 2742 
Q 947 2381 947 1747 
z
" transform="scale(0.015625)"/>
      <path id="DejaVuSans-67" d="M 2906 1791 
Q 2906 2416 2648 2759 
Q 2391 3103 1925 3103 
Q 1463 3103 1205 2759 
Q 947 2416 947 1791 
Q 947 1169 1205 825 
Q 1463 481 1925 481 
Q 2391 481 2648 825 
Q 2906 1169 2906 1791 
z
M 3481 434 
Q 3481 -459 3084 -895 
Q 2688 -1331 1869 -1331 
Q 1566 -1331 1297 -1286 
Q 1028 -1241 775 -1147 
L 775 -588 
Q 1028 -725 1275 -790 
Q 1522 -856 1778 -856 
Q 2344 -856 2625 -561 
Q 2906 -266 2906 331 
L 2906 616 
Q 2728 306 2450 153 
Q 2172 0 1784 0 
Q 1141 0 747 490 
Q 353 981 353 1791 
Q 353 2603 747 3093 
Q 1141 3584 1784 3584 
Q 2172 3584 2450 3431 
Q 2728 3278 2906 2969 
L 2906 3500 
L 3481 3500 
L 3481 434 
z
" transform="scale(0.015625)"/>
     </defs>
     <use xlink:href="#DejaVuSans-2b"/>
     <use xlink:href="#DejaVuSans-20" transform="translate(83.789062 0)"/>
     <use xlink:href="#DejaVuSans-65" transform="translate(115.576172 0)"/>
     <use xlink:href="#DejaVuSans-64" transform="translate(177.099609 0)"/>
     <use xlink:href="#DejaVuSans-69" transform="translate(240.576172 0)"/>
     <use xlink:href="#DejaVuSans-74" transform="translate(268.359375 0)"/>
     <use xlink:href="#DejaVuSans-69" transform="translate(307.568359 0)"/>
     <use xlink:href="#DejaVuSans-6e" transform="translate(335.351562 0)"/>
     <use xlink:href="#DejaVuSans-67" transform="translate(398.730469 0)"/>
     <use xlink:href="#DejaVuSans-20" transform="translate(462.207031 0)"/>
     <use xlink:href="#DejaVuSans-6d" transform="translate(493.994141 0)"/>
     <use xlink:href="#DejaVuSans-6f" transform="translate(591.40625 0)"/>
     <use xlink:href="#DejaVuSans-64" transform="translate(652.587891 0)"/>
     <use xlink:href="#DejaVuSans-75" transform="translate(716.064453 0)"/>
     <use xlink:href="#DejaVuSans-6c" transform="translate(779.443359 0)"/>
     <use xlink:href="#DejaVuSans-65" transform="translate(807.226562 0)"/>
    </g>
   </g>
   <g id="text_10">
    <!-- Elaborated pocket -->
    <g transform="translate(317.321747 93.044219) scale(0.07 -0.07)">
     <defs>
      <path id="DejaVuSans-45" d="M 628 4666 
L 3578 4666 
L 3578 4134 
L 1259 4134 
L 1259 2753 
L 3481 2753 
L 3481 2222 
L 1259 2222 
L 1259 531 
L 3634 531 
L 3634 0 
L 628 0 
L 628 4666 
z
" transform="scale(0.015625)"/>
      <path id="DejaVuSans-62" d="M 3116 1747 
Q 3116 2381 2855 2742 
Q 2594 3103 2138 3103 
Q 1681 3103 1420 2742 
Q 1159 2381 1159 1747 
Q 1159 1113 1420 752 
Q 1681 391 2138 391 
Q 2594 391 2855 752 
Q 3116 1113 3116 1747 
z
M 1159 2969 
Q 1341 3281 1617 3432 
Q 1894 3584 2278 3584 
Q 2916 3584 3314 3078 
Q 3713 2572 3713 1747 
Q 3713 922 3314 415 
Q 2916 -91 2278 -91 
Q 1894 -91 1617 61 
Q 1341 213 1159 525 
L 1159 0 
L 581 0 
L 581 4863 
L 1159 4863 
L 1159 2969 
z
" transform="scale(0.015625)"/>
      <path id="DejaVuSans-6b" d="M 581 4863 
L 1159 4863 
L 1159 1991 
L 2875 3500 
L 3609 3500 
L 1753 1863 
L 3688 0 
L 2938 0 
L 1159 1709 
L 1159 0 
L 581 0 
L 581 4863 
z
" transform="scale(0.015625)"/>
     </defs>
     <use xlink:href="#DejaVuSans-45"/>
     <use xlink:href="#DejaVuSans-6c" transform="translate(63.183594 0)"/>
     <use xlink:href="#DejaVuSans-61" transform="translate(90.966797 0)"/>
     <use xlink:href="#DejaVuSans-62" transform="translate(152.246094 0)"/>
     <use xlink:href="#DejaVuSans-6f" transform="translate(215.722656 0)"/>
     <use xlink:href="#DejaVuSans-72" transform="translate(276.904297 0)"/>
     <use xlink:href="#DejaVuSans-61" transform="translate(318.017578 0)"/>
     <use xlink:href="#DejaVuSans-74" transform="translate(379.296875 0)"/>
     <use xlink:href="#DejaVuSans-65" transform="translate(418.505859 0)"/>
     <use xlink:href="#DejaVuSans-64" transform="translate(480.029297 0)"/>
     <use xlink:href="#DejaVuSans-20" transform="translate(543.505859 0)"/>
     <use xlink:href="#DejaVuSans-70" transform="translate(575.292969 0)"/>
     <use xlink:href="#DejaVuSans-6f" transform="translate(638.769531 0)"/>
     <use xlink:href="#DejaVuSans-63" transform="translate(699.951172 0)"/>
     <use xlink:href="#DejaVuSans-6b" transform="translate(754.931641 0)"/>
     <use xlink:href="#DejaVuSans-65" transform="translate(809.216797 0)"/>
     <use xlink:href="#DejaVuSans-74" transform="translate(870.740234 0)"/>
    </g>
   </g>
   <g id="text_11">
    <!-- Pro -->
    <g transform="translate(307.073219 190.031563) scale(0.07 -0.07)">
     <use xlink:href="#DejaVuSans-50"/>
     <use xlink:href="#DejaVuSans-72" transform="translate(58.552734 0)"/>
     <use xlink:href="#DejaVuSans-6f" transform="translate(97.416016 0)"/>
    </g>
   </g>
   <g id="text_12">
    <!-- Thr -->
    <g transform="translate(321.718912 187.106563) scale(0.07 -0.07)">
     <use xlink:href="#DejaVuSans-54"/>
     <use xlink:href="#DejaVuSans-68" transform="translate(61.083984 0)"/>
     <use xlink:href="#DejaVuSans-72" transform="translate(124.462891 0)"/>
    </g>
   </g>
   <g id="text_13">
    <!-- Pro/Thr -->
    <g transform="translate(307.544269 208.043906) scale(0.07 -0.07)">
     <use xlink:href="#DejaVuSans-50"/>
     <use xlink:href="#DejaVuSans-72" transform="translate(58.552734 0)"/>
     <use xlink:href="#DejaVuSans-6f" transform="translate(97.416016 0)"/>
     <use xlink:href="#DejaVuSans-2f" transform="translate(158.597656 0)"/>
     <use xlink:href="#DejaVuSans-54" transform="translate(192.289062 0)"/>
     <use xlink:href="#DejaVuSans-68" transform="translate(253.373047 0)"/>
     <use xlink:href="#DejaVuSans-72" transform="translate(316.751953 0)"/>
    </g>
    <!-- confusion -->
    <g transform="translate(303.179113 215.882375) scale(0.07 -0.07)">
     <use xlink:href="#DejaVuSans-63"/>
     <use xlink:href="#DejaVuSans-6f" transform="translate(54.980469 0)"/>
     <use xlink:href="#DejaVuSans-6e" transform="translate(116.162109 0)"/>
     <use xlink:href="#DejaVuSans-66" transform="translate(179.541016 0)"/>
     <use xlink:href="#DejaVuSans-75" transform="translate(214.746094 0)"/>
     <use xlink:href="#DejaVuSans-73" transform="translate(278.125 0)"/>
     <use xlink:href="#DejaVuSans-69" transform="translate(330.224609 0)"/>
     <use xlink:href="#DejaVuSans-6f" transform="translate(358.007812 0)"/>
     <use xlink:href="#DejaVuSans-6e" transform="translate(419.189453 0)"/>
    </g>
   </g>
   <g id="text_14">
    <!-- More domains, -->
    <g transform="translate(523.060594 171.538594) scale(0.09 -0.09)">
     <defs>
      <path id="DejaVuSans-4d" d="M 628 4666 
L 1569 4666 
L 2759 1491 
L 3956 4666 
L 4897 4666 
L 4897 0 
L 4281 0 
L 4281 4097 
L 3078 897 
L 2444 897 
L 1241 4097 
L 1241 0 
L 628 0 
L 628 4666 
z
" transform="scale(0.015625)"/>
     </defs>
     <use xlink:href="#DejaVuSans-4d"/>
     <use xlink:href="#DejaVuSans-6f" transform="translate(86.279297 0)"/>
     <use xlink:href="#DejaVuSans-72" transform="translate(147.460938 0)"/>
     <use xlink:href="#DejaVuSans-65" transform="translate(186.324219 0)"/>
     <use xlink:href="#DejaVuSans-20" transform="translate(247.847656 0)"/>
     <use xlink:href="#DejaVuSans-64" transform="translate(279.634766 0)"/>
     <use xlink:href="#DejaVuSans-6f" transform="translate(343.111328 0)"/>
     <use xlink:href="#DejaVuSans-6d" transform="translate(404.292969 0)"/>
     <use xlink:href="#DejaVuSans-61" transform="translate(501.705078 0)"/>
     <use xlink:href="#DejaVuSans-69" transform="translate(562.984375 0)"/>
     <use xlink:href="#DejaVuSans-6e" transform="translate(590.767578 0)"/>
     <use xlink:href="#DejaVuSans-73" transform="translate(654.146484 0)"/>
     <use xlink:href="#DejaVuSans-2c" transform="translate(706.246094 0)"/>
    </g>
    <!-- more PUs, -->
    <g transform="translate(533.406375 181.616625) scale(0.09 -0.09)">
     <defs>
      <path id="DejaVuSans-55" d="M 556 4666 
L 1191 4666 
L 1191 1831 
Q 1191 1081 1462 751 
Q 1734 422 2344 422 
Q 2950 422 3222 751 
Q 3494 1081 3494 1831 
L 3494 4666 
L 4128 4666 
L 4128 1753 
Q 4128 841 3676 375 
Q 3225 -91 2344 -91 
Q 1459 -91 1007 375 
Q 556 841 556 1753 
L 556 4666 
z
" transform="scale(0.015625)"/>
     </defs>
     <use xlink:href="#DejaVuSans-6d"/>
     <use xlink:href="#DejaVuSans-6f" transform="translate(97.412109 0)"/>
     <use xlink:href="#DejaVuSans-72" transform="translate(158.59375 0)"/>
     <use xlink:href="#DejaVuSans-65" transform="translate(197.457031 0)"/>
     <use xlink:href="#DejaVuSans-20" transform="translate(258.980469 0)"/>
     <use xlink:href="#DejaVuSans-50" transform="translate(290.767578 0)"/>
     <use xlink:href="#DejaVuSans-55" transform="translate(351.070312 0)"/>
     <use xlink:href="#DejaVuSans-73" transform="translate(424.263672 0)"/>
     <use xlink:href="#DejaVuSans-2c" transform="translate(476.363281 0)"/>
    </g>
    <!-- higher ambiguity -->
    <g transform="translate(517.778016 191.694656) scale(0.09 -0.09)">
     <defs>
      <path id="DejaVuSans-79" d="M 2059 -325 
Q 1816 -950 1584 -1140 
Q 1353 -1331 966 -1331 
L 506 -1331 
L 506 -850 
L 844 -850 
Q 1081 -850 1212 -737 
Q 1344 -625 1503 -206 
L 1606 56 
L 191 3500 
L 800 3500 
L 1894 763 
L 2988 3500 
L 3597 3500 
L 2059 -325 
z
" transform="scale(0.015625)"/>
     </defs>
     <use xlink:href="#DejaVuSans-68"/>
     <use xlink:href="#DejaVuSans-69" transform="translate(63.378906 0)"/>
     <use xlink:href="#DejaVuSans-67" transform="translate(91.162109 0)"/>
     <use xlink:href="#DejaVuSans-68" transform="translate(154.638672 0)"/>
     <use xlink:href="#DejaVuSans-65" transform="translate(218.017578 0)"/>
     <use xlink:href="#DejaVuSans-72" transform="translate(279.541016 0)"/>
     <use xlink:href="#DejaVuSans-20" transform="translate(320.654297 0)"/>
     <use xlink:href="#DejaVuSans-61" transform="translate(352.441406 0)"/>
     <use xlink:href="#DejaVuSans-6d" transform="translate(413.720703 0)"/>
     <use xlink:href="#DejaVuSans-62" transform="translate(511.132812 0)"/>
     <use xlink:href="#DejaVuSans-69" transform="translate(574.609375 0)"/>
     <use xlink:href="#DejaVuSans-67" transform="translate(602.392578 0)"/>
     <use xlink:href="#DejaVuSans-75" transform="translate(665.869141 0)"/>
     <use xlink:href="#DejaVuSans-69" transform="translate(729.248047 0)"/>
     <use xlink:href="#DejaVuSans-74" transform="translate(757.03125 0)"/>
     <use xlink:href="#DejaVuSans-79" transform="translate(796.240234 0)"/>
    </g>
   </g>
   <g id="text_15">
    <!-- Crowded pocket, -->
    <g transform="translate(544.525128 85.20575) scale(0.07 -0.07)">
     <defs>
      <path id="DejaVuSans-77" d="M 269 3500 
L 844 3500 
L 1563 769 
L 2278 3500 
L 2956 3500 
L 3675 769 
L 4391 3500 
L 4966 3500 
L 4050 0 
L 3372 0 
L 2619 2869 
L 1863 0 
L 1184 0 
L 269 3500 
z
" transform="scale(0.015625)"/>
     </defs>
     <use xlink:href="#DejaVuSans-43"/>
     <use xlink:href="#DejaVuSans-72" transform="translate(69.824219 0)"/>
     <use xlink:href="#DejaVuSans-6f" transform="translate(108.6875 0)"/>
     <use xlink:href="#DejaVuSans-77" transform="translate(169.869141 0)"/>
     <use xlink:href="#DejaVuSans-64" transform="translate(251.65625 0)"/>
     <use xlink:href="#DejaVuSans-65" transform="translate(315.132812 0)"/>
     <use xlink:href="#DejaVuSans-64" transform="translate(376.65625 0)"/>
     <use xlink:href="#DejaVuSans-20" transform="translate(440.132812 0)"/>
     <use xlink:href="#DejaVuSans-70" transform="translate(471.919922 0)"/>
     <use xlink:href="#DejaVuSans-6f" transform="translate(535.396484 0)"/>
     <use xlink:href="#DejaVuSans-63" transform="translate(596.578125 0)"/>
     <use xlink:href="#DejaVuSans-6b" transform="translate(651.558594 0)"/>
     <use xlink:href="#DejaVuSans-65" transform="translate(705.84375 0)"/>
     <use xlink:href="#DejaVuSans-74" transform="translate(767.367188 0)"/>
     <use xlink:href="#DejaVuSans-2c" transform="translate(806.576172 0)"/>
    </g>
    <!-- more contacts -->
    <g transform="translate(548.771066 93.044219) scale(0.07 -0.07)">
     <use xlink:href="#DejaVuSans-6d"/>
     <use xlink:href="#DejaVuSans-6f" transform="translate(97.412109 0)"/>
     <use xlink:href="#DejaVuSans-72" transform="translate(158.59375 0)"/>
     <use xlink:href="#DejaVuSans-65" transform="translate(197.457031 0)"/>
     <use xlink:href="#DejaVuSans-20" transform="translate(258.980469 0)"/>
     <use xlink:href="#DejaVuSans-63" transform="translate(290.767578 0)"/>
     <use xlink:href="#DejaVuSans-6f" transform="translate(345.748047 0)"/>
     <use xlink:href="#DejaVuSans-6e" transform="translate(406.929688 0)"/>
     <use xlink:href="#DejaVuSans-74" transform="translate(470.308594 0)"/>
     <use xlink:href="#DejaVuSans-61" transform="translate(509.517578 0)"/>
     <use xlink:href="#DejaVuSans-63" transform="translate(570.796875 0)"/>
     <use xlink:href="#DejaVuSans-74" transform="translate(625.777344 0)"/>
     <use xlink:href="#DejaVuSans-73" transform="translate(664.986328 0)"/>
    </g>
   </g>
   <g id="text_16">
    <!-- Pro -->
    <g transform="translate(523.649219 190.031563) scale(0.07 -0.07)">
     <use xlink:href="#DejaVuSans-50"/>
     <use xlink:href="#DejaVuSans-72" transform="translate(58.552734 0)"/>
     <use xlink:href="#DejaVuSans-6f" transform="translate(97.416016 0)"/>
    </g>
   </g>
   <g id="text_17">
    <!-- Thr -->
    <g transform="translate(538.294912 187.106563) scale(0.07 -0.07)">
     <use xlink:href="#DejaVuSans-54"/>
     <use xlink:href="#DejaVuSans-68" transform="translate(61.083984 0)"/>
     <use xlink:href="#DejaVuSans-72" transform="translate(124.462891 0)"/>
    </g>
   </g>
   <g id="text_18">
    <!-- Pro/Thr -->
    <g transform="translate(524.120269 208.043906) scale(0.07 -0.07)">
     <use xlink:href="#DejaVuSans-50"/>
     <use xlink:href="#DejaVuSans-72" transform="translate(58.552734 0)"/>
     <use xlink:href="#DejaVuSans-6f" transform="translate(97.416016 0)"/>
     <use xlink:href="#DejaVuSans-2f" transform="translate(158.597656 0)"/>
     <use xlink:href="#DejaVuSans-54" transform="translate(192.289062 0)"/>
     <use xlink:href="#DejaVuSans-68" transform="translate(253.373047 0)"/>
     <use xlink:href="#DejaVuSans-72" transform="translate(316.751953 0)"/>
    </g>
    <!-- confusion -->
    <g transform="translate(519.755112 215.882375) scale(0.07 -0.07)">
     <use xlink:href="#DejaVuSans-63"/>
     <use xlink:href="#DejaVuSans-6f" transform="translate(54.980469 0)"/>
     <use xlink:href="#DejaVuSans-6e" transform="translate(116.162109 0)"/>
     <use xlink:href="#DejaVuSans-66" transform="translate(179.541016 0)"/>
     <use xlink:href="#DejaVuSans-75" transform="translate(214.746094 0)"/>
     <use xlink:href="#DejaVuSans-73" transform="translate(278.125 0)"/>
     <use xlink:href="#DejaVuSans-69" transform="translate(330.224609 0)"/>
     <use xlink:href="#DejaVuSans-6f" transform="translate(358.007812 0)"/>
     <use xlink:href="#DejaVuSans-6e" transform="translate(419.189453 0)"/>
    </g>
   </g>
   <g id="text_19">
    <!-- Evolutionary time  -->
    <g transform="translate(342.021375 66.303281) scale(0.09 -0.09)">
     <defs>
      <path id="DejaVuSans-2192" d="M 5050 2147 
L 5050 1866 
L 3822 638 
L 3447 1013 
L 4175 1741 
L 366 1741 
L 366 2272 
L 4175 2272 
L 3447 3000 
L 3822 3375 
L 5050 2147 
z
" transform="scale(0.015625)"/>
     </defs>
     <use xlink:href="#DejaVuSans-45"/>
     <use xlink:href="#DejaVuSans-76" transform="translate(63.183594 0)"/>
     <use xlink:href="#DejaVuSans-6f" transform="translate(122.363281 0)"/>
     <use xlink:href="#DejaVuSans-6c" transform="translate(183.544922 0)"/>
     <use xlink:href="#DejaVuSans-75" transform="translate(211.328125 0)"/>
     <use xlink:href="#DejaVuSans-74" transform="translate(274.707031 0)"/>
     <use xlink:href="#DejaVuSans-69" transform="translate(313.916016 0)"/>
     <use xlink:href="#DejaVuSans-6f" transform="translate(341.699219 0)"/>
     <use xlink:href="#DejaVuSans-6e" transform="translate(402.880859 0)"/>
     <use xlink:href="#DejaVuSans-61" transform="translate(466.259766 0)"/>
     <use xlink:href="#DejaVuSans-72" transform="translate(527.539062 0)"/>
     <use xlink:href="#DejaVuSans-79" transform="translate(568.652344 0)"/>
     <use xlink:href="#DejaVuSans-20" transform="translate(627.832031 0)"/>
     <use xlink:href="#DejaVuSans-74" transform="translate(659.619141 0)"/>
     <use xlink:href="#DejaVuSans-69" transform="translate(698.828125 0)"/>
     <use xlink:href="#DejaVuSans-6d" transform="translate(726.611328 0)"/>
     <use xlink:href="#DejaVuSans-65" transform="translate(824.023438 0)"/>
     <use xlink:href="#DejaVuSans-20" transform="translate(885.546875 0)"/>
     <use xlink:href="#DejaVuSans-2192" transform="translate(917.333984 0)"/>
    </g>
   </g>
   <g id="text_20">
    <!-- Pro -->
    <g transform="translate(455.17625 225.4075) scale(0.08 -0.08)">
     <use xlink:href="#DejaVuSans-50"/>
     <use xlink:href="#DejaVuSans-72" transform="translate(58.552734 0)"/>
     <use xlink:href="#DejaVuSans-6f" transform="translate(97.416016 0)"/>
    </g>
   </g>
   <g id="text_21">
    <!-- Thr -->
    <g transform="translate(509.0415 225.4075) scale(0.08 -0.08)">
     <use xlink:href="#DejaVuSans-54"/>
     <use xlink:href="#DejaVuSans-68" transform="translate(61.083984 0)"/>
     <use xlink:href="#DejaVuSans-72" transform="translate(124.462891 0)"/>
    </g>
   </g>
   <g id="text_22">
    <!-- OH -->
    <g transform="translate(531.350344 210.230625) scale(0.06 -0.06)">
     <defs>
      <path id="DejaVuSans-4f" d="M 2522 4238 
Q 1834 4238 1429 3725 
Q 1025 3213 1025 2328 
Q 1025 1447 1429 934 
Q 1834 422 2522 422 
Q 3209 422 3611 934 
Q 4013 1447 4013 2328 
Q 4013 3213 3611 3725 
Q 3209 4238 2522 4238 
z
M 2522 4750 
Q 3503 4750 4090 4092 
Q 4678 3434 4678 2328 
Q 4678 1225 4090 567 
Q 3503 -91 2522 -91 
Q 1538 -91 948 565 
Q 359 1222 359 2328 
Q 359 3434 948 4092 
Q 1538 4750 2522 4750 
z
" transform="scale(0.015625)"/>
      <path id="DejaVuSans-48" d="M 628 4666 
L 1259 4666 
L 1259 2753 
L 3553 2753 
L 3553 4666 
L 4184 4666 
L 4184 0 
L 3553 0 
L 3553 2222 
L 1259 2222 
L 1259 0 
L 628 0 
L 628 4666 
z
" transform="scale(0.015625)"/>
     </defs>
     <use xlink:href="#DejaVuSans-4f"/>
     <use xlink:href="#DejaVuSans-48" transform="translate(78.710938 0)"/>
    </g>
   </g>
   <g id="text_23">
    <!-- Thr OH forms -->
    <g transform="translate(488.592 263.618906) scale(0.07 -0.07)">
     <use xlink:href="#DejaVuSans-54"/>
     <use xlink:href="#DejaVuSans-68" transform="translate(61.083984 0)"/>
     <use xlink:href="#DejaVuSans-72" transform="translate(124.462891 0)"/>
     <use xlink:href="#DejaVuSans-20" transform="translate(165.576172 0)"/>
     <use xlink:href="#DejaVuSans-4f" transform="translate(197.363281 0)"/>
     <use xlink:href="#DejaVuSans-48" transform="translate(276.074219 0)"/>
     <use xlink:href="#DejaVuSans-20" transform="translate(351.269531 0)"/>
     <use xlink:href="#DejaVuSans-66" transform="translate(383.056641 0)"/>
     <use xlink:href="#DejaVuSans-6f" transform="translate(418.261719 0)"/>
     <use xlink:href="#DejaVuSans-72" transform="translate(479.443359 0)"/>
     <use xlink:href="#DejaVuSans-6d" transform="translate(518.806641 0)"/>
     <use xlink:href="#DejaVuSans-73" transform="translate(616.21875 0)"/>
    </g>
    <!-- compensatory H-bonds -->
    <g transform="translate(488.592 271.457375) scale(0.07 -0.07)">
     <defs>
      <path id="DejaVuSans-2d" d="M 313 2009 
L 1997 2009 
L 1997 1497 
L 313 1497 
L 313 2009 
z
" transform="scale(0.015625)"/>
     </defs>
     <use xlink:href="#DejaVuSans-63"/>
     <use xlink:href="#DejaVuSans-6f" transform="translate(54.980469 0)"/>
     <use xlink:href="#DejaVuSans-6d" transform="translate(116.162109 0)"/>
     <use xlink:href="#DejaVuSans-70" transform="translate(213.574219 0)"/>
     <use xlink:href="#DejaVuSans-65" transform="translate(277.050781 0)"/>
     <use xlink:href="#DejaVuSans-6e" transform="translate(338.574219 0)"/>
     <use xlink:href="#DejaVuSans-73" transform="translate(401.953125 0)"/>
     <use xlink:href="#DejaVuSans-61" transform="translate(454.052734 0)"/>
     <use xlink:href="#DejaVuSans-74" transform="translate(515.332031 0)"/>
     <use xlink:href="#DejaVuSans-6f" transform="translate(554.541016 0)"/>
     <use xlink:href="#DejaVuSans-72" transform="translate(615.722656 0)"/>
     <use xlink:href="#DejaVuSans-79" transform="translate(656.835938 0)"/>
     <use xlink:href="#DejaVuSans-20" transform="translate(716.015625 0)"/>
     <use xlink:href="#DejaVuSans-48" transform="translate(747.802734 0)"/>
     <use xlink:href="#DejaVuSans-2d" transform="translate(822.998047 0)"/>
     <use xlink:href="#DejaVuSans-62" transform="translate(859.082031 0)"/>
     <use xlink:href="#DejaVuSans-6f" transform="translate(922.558594 0)"/>
     <use xlink:href="#DejaVuSans-6e" transform="translate(983.740234 0)"/>
     <use xlink:href="#DejaVuSans-64" transform="translate(1047.119141 0)"/>
     <use xlink:href="#DejaVuSans-73" transform="translate(1110.595703 0)"/>
    </g>
    <!--  intrinsic limit -->
    <g transform="translate(488.592 279.295844) scale(0.07 -0.07)">
     <use xlink:href="#DejaVuSans-2192"/>
     <use xlink:href="#DejaVuSans-20" transform="translate(83.789062 0)"/>
     <use xlink:href="#DejaVuSans-69" transform="translate(115.576172 0)"/>
     <use xlink:href="#DejaVuSans-6e" transform="translate(143.359375 0)"/>
     <use xlink:href="#DejaVuSans-74" transform="translate(206.738281 0)"/>
     <use xlink:href="#DejaVuSans-72" transform="translate(245.947266 0)"/>
     <use xlink:href="#DejaVuSans-69" transform="translate(287.060547 0)"/>
     <use xlink:href="#DejaVuSans-6e" transform="translate(314.84375 0)"/>
     <use xlink:href="#DejaVuSans-73" transform="translate(378.222656 0)"/>
     <use xlink:href="#DejaVuSans-69" transform="translate(430.322266 0)"/>
     <use xlink:href="#DejaVuSans-63" transform="translate(458.105469 0)"/>
     <use xlink:href="#DejaVuSans-20" transform="translate(513.085938 0)"/>
     <use xlink:href="#DejaVuSans-6c" transform="translate(544.873047 0)"/>
     <use xlink:href="#DejaVuSans-69" transform="translate(572.65625 0)"/>
     <use xlink:href="#DejaVuSans-6d" transform="translate(600.439453 0)"/>
     <use xlink:href="#DejaVuSans-69" transform="translate(697.851562 0)"/>
     <use xlink:href="#DejaVuSans-74" transform="translate(725.634766 0)"/>
    </g>
   </g>
   <g id="text_24">
    <!-- Chemical limit -->
    <g transform="translate(461.52 176.4) scale(0.09 -0.09)">
     <defs>
      <path id="DejaVuSans-Bold-68" d="M 4056 2131 
L 4056 0 
L 2931 0 
L 2931 347 
L 2931 1625 
Q 2931 2084 2911 2256 
Q 2891 2428 2841 2509 
Q 2775 2619 2662 2680 
Q 2550 2741 2406 2741 
Q 2056 2741 1856 2470 
Q 1656 2200 1656 1722 
L 1656 0 
L 538 0 
L 538 4863 
L 1656 4863 
L 1656 2988 
Q 1909 3294 2193 3439 
Q 2478 3584 2822 3584 
Q 3428 3584 3742 3212 
Q 4056 2841 4056 2131 
z
" transform="scale(0.015625)"/>
      <path id="DejaVuSans-Bold-6d" d="M 3781 2919 
Q 3994 3244 4286 3414 
Q 4578 3584 4928 3584 
Q 5531 3584 5847 3212 
Q 6163 2841 6163 2131 
L 6163 0 
L 5038 0 
L 5038 1825 
Q 5041 1866 5042 1909 
Q 5044 1953 5044 2034 
Q 5044 2406 4934 2573 
Q 4825 2741 4581 2741 
Q 4263 2741 4089 2478 
Q 3916 2216 3909 1719 
L 3909 0 
L 2784 0 
L 2784 1825 
Q 2784 2406 2684 2573 
Q 2584 2741 2328 2741 
Q 2006 2741 1831 2477 
Q 1656 2213 1656 1722 
L 1656 0 
L 531 0 
L 531 3500 
L 1656 3500 
L 1656 2988 
Q 1863 3284 2130 3434 
Q 2397 3584 2719 3584 
Q 3081 3584 3359 3409 
Q 3638 3234 3781 2919 
z
" transform="scale(0.015625)"/>
     </defs>
     <use xlink:href="#DejaVuSans-Bold-43"/>
     <use xlink:href="#DejaVuSans-Bold-68" transform="translate(73.388672 0)"/>
     <use xlink:href="#DejaVuSans-Bold-65" transform="translate(144.580078 0)"/>
     <use xlink:href="#DejaVuSans-Bold-6d" transform="translate(212.402344 0)"/>
     <use xlink:href="#DejaVuSans-Bold-69" transform="translate(316.601562 0)"/>
     <use xlink:href="#DejaVuSans-Bold-63" transform="translate(350.878906 0)"/>
     <use xlink:href="#DejaVuSans-Bold-61" transform="translate(410.15625 0)"/>
     <use xlink:href="#DejaVuSans-Bold-6c" transform="translate(477.636719 0)"/>
     <use xlink:href="#DejaVuSans-Bold-20" transform="translate(511.914062 0)"/>
     <use xlink:href="#DejaVuSans-Bold-6c" transform="translate(546.728516 0)"/>
     <use xlink:href="#DejaVuSans-Bold-69" transform="translate(581.005859 0)"/>
     <use xlink:href="#DejaVuSans-Bold-6d" transform="translate(615.283203 0)"/>
     <use xlink:href="#DejaVuSans-Bold-69" transform="translate(719.482422 0)"/>
     <use xlink:href="#DejaVuSans-Bold-74" transform="translate(753.759766 0)"/>
    </g>
   </g>
  </g>
  <g id="axes_2">
   <g id="patch_25">
    <path d="M 21.6 342 
L 698.4 342 
L 698.4 295.2 
L 21.6 295.2 
z
" clip-path="url(#pb9807422f1)" style="fill: #f5f5f5"/>
   </g>
   <g id="text_25">
    <!-- ProRS evolution adds domains, Protein Units, and structural ambiguity, -->
    <g transform="translate(182.325781 315.760469) scale(0.1 -0.1)">
     <defs>
      <path id="DejaVuSans-52" d="M 2841 2188 
Q 3044 2119 3236 1894 
Q 3428 1669 3622 1275 
L 4263 0 
L 3584 0 
L 2988 1197 
Q 2756 1666 2539 1819 
Q 2322 1972 1947 1972 
L 1259 1972 
L 1259 0 
L 628 0 
L 628 4666 
L 2053 4666 
Q 2853 4666 3247 4331 
Q 3641 3997 3641 3322 
Q 3641 2881 3436 2590 
Q 3231 2300 2841 2188 
z
M 1259 4147 
L 1259 2491 
L 2053 2491 
Q 2509 2491 2742 2702 
Q 2975 2913 2975 3322 
Q 2975 3731 2742 3939 
Q 2509 4147 2053 4147 
L 1259 4147 
z
" transform="scale(0.015625)"/>
     </defs>
     <use xlink:href="#DejaVuSans-50"/>
     <use xlink:href="#DejaVuSans-72" transform="translate(58.552734 0)"/>
     <use xlink:href="#DejaVuSans-6f" transform="translate(97.416016 0)"/>
     <use xlink:href="#DejaVuSans-52" transform="translate(158.597656 0)"/>
     <use xlink:href="#DejaVuSans-53" transform="translate(228.080078 0)"/>
     <use xlink:href="#DejaVuSans-20" transform="translate(291.556641 0)"/>
     <use xlink:href="#DejaVuSans-65" transform="translate(323.34375 0)"/>
     <use xlink:href="#DejaVuSans-76" transform="translate(384.867188 0)"/>
     <use xlink:href="#DejaVuSans-6f" transform="translate(444.046875 0)"/>
     <use xlink:href="#DejaVuSans-6c" transform="translate(505.228516 0)"/>
     <use xlink:href="#DejaVuSans-75" transform="translate(533.011719 0)"/>
     <use xlink:href="#DejaVuSans-74" transform="translate(596.390625 0)"/>
     <use xlink:href="#DejaVuSans-69" transform="translate(635.599609 0)"/>
     <use xlink:href="#DejaVuSans-6f" transform="translate(663.382812 0)"/>
     <use xlink:href="#DejaVuSans-6e" transform="translate(724.564453 0)"/>
     <use xlink:href="#DejaVuSans-20" transform="translate(787.943359 0)"/>
     <use xlink:href="#DejaVuSans-61" transform="translate(819.730469 0)"/>
     <use xlink:href="#DejaVuSans-64" transform="translate(881.009766 0)"/>
     <use xlink:href="#DejaVuSans-64" transform="translate(944.486328 0)"/>
     <use xlink:href="#DejaVuSans-73" transform="translate(1007.962891 0)"/>
     <use xlink:href="#DejaVuSans-20" transform="translate(1060.0625 0)"/>
     <use xlink:href="#DejaVuSans-64" transform="translate(1091.849609 0)"/>
     <use xlink:href="#DejaVuSans-6f" transform="translate(1155.326172 0)"/>
     <use xlink:href="#DejaVuSans-6d" transform="translate(1216.507812 0)"/>
     <use xlink:href="#DejaVuSans-61" transform="translate(1313.919922 0)"/>
     <use xlink:href="#DejaVuSans-69" transform="translate(1375.199219 0)"/>
     <use xlink:href="#DejaVuSans-6e" transform="translate(1402.982422 0)"/>
     <use xlink:href="#DejaVuSans-73" transform="translate(1466.361328 0)"/>
     <use xlink:href="#DejaVuSans-2c" transform="translate(1518.460938 0)"/>
     <use xlink:href="#DejaVuSans-20" transform="translate(1550.248047 0)"/>
     <use xlink:href="#DejaVuSans-50" transform="translate(1582.035156 0)"/>
     <use xlink:href="#DejaVuSans-72" transform="translate(1640.587891 0)"/>
     <use xlink:href="#DejaVuSans-6f" transform="translate(1679.451172 0)"/>
     <use xlink:href="#DejaVuSans-74" transform="translate(1740.632812 0)"/>
     <use xlink:href="#DejaVuSans-65" transform="translate(1779.841797 0)"/>
     <use xlink:href="#DejaVuSans-69" transform="translate(1841.365234 0)"/>
     <use xlink:href="#DejaVuSans-6e" transform="translate(1869.148438 0)"/>
     <use xlink:href="#DejaVuSans-20" transform="translate(1932.527344 0)"/>
     <use xlink:href="#DejaVuSans-55" transform="translate(1964.314453 0)"/>
     <use xlink:href="#DejaVuSans-6e" transform="translate(2037.507812 0)"/>
     <use xlink:href="#DejaVuSans-69" transform="translate(2100.886719 0)"/>
     <use xlink:href="#DejaVuSans-74" transform="translate(2128.669922 0)"/>
     <use xlink:href="#DejaVuSans-73" transform="translate(2167.878906 0)"/>
     <use xlink:href="#DejaVuSans-2c" transform="translate(2219.978516 0)"/>
     <use xlink:href="#DejaVuSans-20" transform="translate(2251.765625 0)"/>
     <use xlink:href="#DejaVuSans-61" transform="translate(2283.552734 0)"/>
     <use xlink:href="#DejaVuSans-6e" transform="translate(2344.832031 0)"/>
     <use xlink:href="#DejaVuSans-64" transform="translate(2408.210938 0)"/>
     <use xlink:href="#DejaVuSans-20" transform="translate(2471.6875 0)"/>
     <use xlink:href="#DejaVuSans-73" transform="translate(2503.474609 0)"/>
     <use xlink:href="#DejaVuSans-74" transform="translate(2555.574219 0)"/>
     <use xlink:href="#DejaVuSans-72" transform="translate(2594.783203 0)"/>
     <use xlink:href="#DejaVuSans-75" transform="translate(2635.896484 0)"/>
     <use xlink:href="#DejaVuSans-63" transform="translate(2699.275391 0)"/>
     <use xlink:href="#DejaVuSans-74" transform="translate(2754.255859 0)"/>
     <use xlink:href="#DejaVuSans-75" transform="translate(2793.464844 0)"/>
     <use xlink:href="#DejaVuSans-72" transform="translate(2856.84375 0)"/>
     <use xlink:href="#DejaVuSans-61" transform="translate(2897.957031 0)"/>
     <use xlink:href="#DejaVuSans-6c" transform="translate(2959.236328 0)"/>
     <use xlink:href="#DejaVuSans-20" transform="translate(2987.019531 0)"/>
     <use xlink:href="#DejaVuSans-61" transform="translate(3018.806641 0)"/>
     <use xlink:href="#DejaVuSans-6d" transform="translate(3080.085938 0)"/>
     <use xlink:href="#DejaVuSans-62" transform="translate(3177.498047 0)"/>
     <use xlink:href="#DejaVuSans-69" transform="translate(3240.974609 0)"/>
     <use xlink:href="#DejaVuSans-67" transform="translate(3268.757812 0)"/>
     <use xlink:href="#DejaVuSans-75" transform="translate(3332.234375 0)"/>
     <use xlink:href="#DejaVuSans-69" transform="translate(3395.613281 0)"/>
     <use xlink:href="#DejaVuSans-74" transform="translate(3423.396484 0)"/>
     <use xlink:href="#DejaVuSans-79" transform="translate(3462.605469 0)"/>
     <use xlink:href="#DejaVuSans-2c" transform="translate(3521.785156 0)"/>
    </g>
    <!-- but fails to overcome the intrinsic Pro/Thr specificity limit. -->
    <g transform="translate(215.204688 326.958281) scale(0.1 -0.1)">
     <defs>
      <path id="DejaVuSans-2e" d="M 684 794 
L 1344 794 
L 1344 0 
L 684 0 
L 684 794 
z
" transform="scale(0.015625)"/>
     </defs>
     <use xlink:href="#DejaVuSans-62"/>
     <use xlink:href="#DejaVuSans-75" transform="translate(63.476562 0)"/>
     <use xlink:href="#DejaVuSans-74" transform="translate(126.855469 0)"/>
     <use xlink:href="#DejaVuSans-20" transform="translate(166.064453 0)"/>
     <use xlink:href="#DejaVuSans-66" transform="translate(197.851562 0)"/>
     <use xlink:href="#DejaVuSans-61" transform="translate(233.056641 0)"/>
     <use xlink:href="#DejaVuSans-69" transform="translate(294.335938 0)"/>
     <use xlink:href="#DejaVuSans-6c" transform="translate(322.119141 0)"/>
     <use xlink:href="#DejaVuSans-73" transform="translate(349.902344 0)"/>
     <use xlink:href="#DejaVuSans-20" transform="translate(402.001953 0)"/>
     <use xlink:href="#DejaVuSans-74" transform="translate(433.789062 0)"/>
     <use xlink:href="#DejaVuSans-6f" transform="translate(472.998047 0)"/>
     <use xlink:href="#DejaVuSans-20" transform="translate(534.179688 0)"/>
     <use xlink:href="#DejaVuSans-6f" transform="translate(565.966797 0)"/>
     <use xlink:href="#DejaVuSans-76" transform="translate(627.148438 0)"/>
     <use xlink:href="#DejaVuSans-65" transform="translate(686.328125 0)"/>
     <use xlink:href="#DejaVuSans-72" transform="translate(747.851562 0)"/>
     <use xlink:href="#DejaVuSans-63" transform="translate(786.714844 0)"/>
     <use xlink:href="#DejaVuSans-6f" transform="translate(841.695312 0)"/>
     <use xlink:href="#DejaVuSans-6d" transform="translate(902.876953 0)"/>
     <use xlink:href="#DejaVuSans-65" transform="translate(1000.289062 0)"/>
     <use xlink:href="#DejaVuSans-20" transform="translate(1061.8125 0)"/>
     <use xlink:href="#DejaVuSans-74" transform="translate(1093.599609 0)"/>
     <use xlink:href="#DejaVuSans-68" transform="translate(1132.808594 0)"/>
     <use xlink:href="#DejaVuSans-65" transform="translate(1196.1875 0)"/>
     <use xlink:href="#DejaVuSans-20" transform="translate(1257.710938 0)"/>
     <use xlink:href="#DejaVuSans-69" transform="translate(1289.498047 0)"/>
     <use xlink:href="#DejaVuSans-6e" transform="translate(1317.28125 0)"/>
     <use xlink:href="#DejaVuSans-74" transform="translate(1380.660156 0)"/>
     <use xlink:href="#DejaVuSans-72" transform="translate(1419.869141 0)"/>
     <use xlink:href="#DejaVuSans-69" transform="translate(1460.982422 0)"/>
     <use xlink:href="#DejaVuSans-6e" transform="translate(1488.765625 0)"/>
     <use xlink:href="#DejaVuSans-73" transform="translate(1552.144531 0)"/>
     <use xlink:href="#DejaVuSans-69" transform="translate(1604.244141 0)"/>
     <use xlink:href="#DejaVuSans-63" transform="translate(1632.027344 0)"/>
     <use xlink:href="#DejaVuSans-20" transform="translate(1687.007812 0)"/>
     <use xlink:href="#DejaVuSans-50" transform="translate(1718.794922 0)"/>
     <use xlink:href="#DejaVuSans-72" transform="translate(1777.347656 0)"/>
     <use xlink:href="#DejaVuSans-6f" transform="translate(1816.210938 0)"/>
     <use xlink:href="#DejaVuSans-2f" transform="translate(1877.392578 0)"/>
     <use xlink:href="#DejaVuSans-54" transform="translate(1911.083984 0)"/>
     <use xlink:href="#DejaVuSans-68" transform="translate(1972.167969 0)"/>
     <use xlink:href="#DejaVuSans-72" transform="translate(2035.546875 0)"/>
     <use xlink:href="#DejaVuSans-20" transform="translate(2076.660156 0)"/>
     <use xlink:href="#DejaVuSans-73" transform="translate(2108.447266 0)"/>
     <use xlink:href="#DejaVuSans-70" transform="translate(2160.546875 0)"/>
     <use xlink:href="#DejaVuSans-65" transform="translate(2224.023438 0)"/>
     <use xlink:href="#DejaVuSans-63" transform="translate(2285.546875 0)"/>
     <use xlink:href="#DejaVuSans-69" transform="translate(2340.527344 0)"/>
     <use xlink:href="#DejaVuSans-66" transform="translate(2368.310547 0)"/>
     <use xlink:href="#DejaVuSans-69" transform="translate(2403.515625 0)"/>
     <use xlink:href="#DejaVuSans-63" transform="translate(2431.298828 0)"/>
     <use xlink:href="#DejaVuSans-69" transform="translate(2486.279297 0)"/>
     <use xlink:href="#DejaVuSans-74" transform="translate(2514.0625 0)"/>
     <use xlink:href="#DejaVuSans-79" transform="translate(2553.271484 0)"/>
     <use xlink:href="#DejaVuSans-20" transform="translate(2612.451172 0)"/>
     <use xlink:href="#DejaVuSans-6c" transform="translate(2644.238281 0)"/>
     <use xlink:href="#DejaVuSans-69" transform="translate(2672.021484 0)"/>
     <use xlink:href="#DejaVuSans-6d" transform="translate(2699.804688 0)"/>
     <use xlink:href="#DejaVuSans-69" transform="translate(2797.216797 0)"/>
     <use xlink:href="#DejaVuSans-74" transform="translate(2825 0)"/>
     <use xlink:href="#DejaVuSans-2e" transform="translate(2864.208984 0)"/>
    </g>
   </g>
  </g>
  <g id="text_26">
   <!-- Structural elaboration without improved Pro/Thr specificity in ProRS evolution -->
   <g transform="translate(94.131563 16.318125) scale(0.12 -0.12)">
    <defs>
     <path id="DejaVuSans-Bold-75" d="M 500 1363 
L 500 3500 
L 1625 3500 
L 1625 3150 
Q 1625 2866 1622 2436 
Q 1619 2006 1619 1863 
Q 1619 1441 1641 1255 
Q 1663 1069 1716 984 
Q 1784 875 1895 815 
Q 2006 756 2150 756 
Q 2500 756 2700 1025 
Q 2900 1294 2900 1772 
L 2900 3500 
L 4019 3500 
L 4019 0 
L 2900 0 
L 2900 506 
Q 2647 200 2364 54 
Q 2081 -91 1741 -91 
Q 1134 -91 817 281 
Q 500 653 500 1363 
z
" transform="scale(0.015625)"/>
     <path id="DejaVuSans-Bold-62" d="M 2400 722 
Q 2759 722 2948 984 
Q 3138 1247 3138 1747 
Q 3138 2247 2948 2509 
Q 2759 2772 2400 2772 
Q 2041 2772 1848 2508 
Q 1656 2244 1656 1747 
Q 1656 1250 1848 986 
Q 2041 722 2400 722 
z
M 1656 2988 
Q 1888 3294 2169 3439 
Q 2450 3584 2816 3584 
Q 3463 3584 3878 3070 
Q 4294 2556 4294 1747 
Q 4294 938 3878 423 
Q 3463 -91 2816 -91 
Q 2450 -91 2169 54 
Q 1888 200 1656 506 
L 1656 0 
L 538 0 
L 538 4863 
L 1656 4863 
L 1656 2988 
z
" transform="scale(0.015625)"/>
     <path id="DejaVuSans-Bold-77" d="M 225 3500 
L 1313 3500 
L 1900 1088 
L 2491 3500 
L 3425 3500 
L 4013 1113 
L 4603 3500 
L 5691 3500 
L 4769 0 
L 3547 0 
L 2956 2406 
L 2369 0 
L 1147 0 
L 225 3500 
z
" transform="scale(0.015625)"/>
     <path id="DejaVuSans-Bold-70" d="M 1656 506 
L 1656 -1331 
L 538 -1331 
L 538 3500 
L 1656 3500 
L 1656 2988 
Q 1888 3294 2169 3439 
Q 2450 3584 2816 3584 
Q 3463 3584 3878 3070 
Q 4294 2556 4294 1747 
Q 4294 938 3878 423 
Q 3463 -91 2816 -91 
Q 2450 -91 2169 54 
Q 1888 200 1656 506 
z
M 2400 2772 
Q 2041 2772 1848 2508 
Q 1656 2244 1656 1747 
Q 1656 1250 1848 986 
Q 2041 722 2400 722 
Q 2759 722 2948 984 
Q 3138 1247 3138 1747 
Q 3138 2247 2948 2509 
Q 2759 2772 2400 2772 
z
" transform="scale(0.015625)"/>
     <path id="DejaVuSans-Bold-76" d="M 97 3500 
L 1216 3500 
L 2088 1081 
L 2956 3500 
L 4078 3500 
L 2700 0 
L 1472 0 
L 97 3500 
z
" transform="scale(0.015625)"/>
     <path id="DejaVuSans-Bold-2f" d="M 1644 4666 
L 2338 4666 
L 691 -594 
L 0 -594 
L 1644 4666 
z
" transform="scale(0.015625)"/>
     <path id="DejaVuSans-Bold-54" d="M 31 4666 
L 4331 4666 
L 4331 3756 
L 2784 3756 
L 2784 0 
L 1581 0 
L 1581 3756 
L 31 3756 
L 31 4666 
z
" transform="scale(0.015625)"/>
     <path id="DejaVuSans-Bold-66" d="M 2841 4863 
L 2841 4128 
L 2222 4128 
Q 1984 4128 1890 4042 
Q 1797 3956 1797 3744 
L 1797 3500 
L 2753 3500 
L 2753 2700 
L 1797 2700 
L 1797 0 
L 678 0 
L 678 2700 
L 122 2700 
L 122 3500 
L 678 3500 
L 678 3744 
Q 678 4316 997 4589 
Q 1316 4863 1984 4863 
L 2841 4863 
z
" transform="scale(0.015625)"/>
     <path id="DejaVuSans-Bold-79" d="M 78 3500 
L 1197 3500 
L 2138 1125 
L 2938 3500 
L 4056 3500 
L 2584 -331 
Q 2363 -916 2067 -1148 
Q 1772 -1381 1288 -1381 
L 641 -1381 
L 641 -647 
L 991 -647 
Q 1275 -647 1404 -556 
Q 1534 -466 1606 -231 
L 1638 -134 
L 78 3500 
z
" transform="scale(0.015625)"/>
    </defs>
    <use xlink:href="#DejaVuSans-Bold-53"/>
    <use xlink:href="#DejaVuSans-Bold-74" transform="translate(72.021484 0)"/>
    <use xlink:href="#DejaVuSans-Bold-72" transform="translate(119.824219 0)"/>
    <use xlink:href="#DejaVuSans-Bold-75" transform="translate(169.140625 0)"/>
    <use xlink:href="#DejaVuSans-Bold-63" transform="translate(240.332031 0)"/>
    <use xlink:href="#DejaVuSans-Bold-74" transform="translate(299.609375 0)"/>
    <use xlink:href="#DejaVuSans-Bold-75" transform="translate(347.412109 0)"/>
    <use xlink:href="#DejaVuSans-Bold-72" transform="translate(418.603516 0)"/>
    <use xlink:href="#DejaVuSans-Bold-61" transform="translate(467.919922 0)"/>
    <use xlink:href="#DejaVuSans-Bold-6c" transform="translate(535.400391 0)"/>
    <use xlink:href="#DejaVuSans-Bold-20" transform="translate(569.677734 0)"/>
    <use xlink:href="#DejaVuSans-Bold-65" transform="translate(604.492188 0)"/>
    <use xlink:href="#DejaVuSans-Bold-6c" transform="translate(672.314453 0)"/>
    <use xlink:href="#DejaVuSans-Bold-61" transform="translate(706.591797 0)"/>
    <use xlink:href="#DejaVuSans-Bold-62" transform="translate(774.072266 0)"/>
    <use xlink:href="#DejaVuSans-Bold-6f" transform="translate(845.654297 0)"/>
    <use xlink:href="#DejaVuSans-Bold-72" transform="translate(914.355469 0)"/>
    <use xlink:href="#DejaVuSans-Bold-61" transform="translate(963.671875 0)"/>
    <use xlink:href="#DejaVuSans-Bold-74" transform="translate(1031.152344 0)"/>
    <use xlink:href="#DejaVuSans-Bold-69" transform="translate(1078.955078 0)"/>
    <use xlink:href="#DejaVuSans-Bold-6f" transform="translate(1113.232422 0)"/>
    <use xlink:href="#DejaVuSans-Bold-6e" transform="translate(1181.933594 0)"/>
    <use xlink:href="#DejaVuSans-Bold-20" transform="translate(1253.125 0)"/>
    <use xlink:href="#DejaVuSans-Bold-77" transform="translate(1287.939453 0)"/>
    <use xlink:href="#DejaVuSans-Bold-69" transform="translate(1380.322266 0)"/>
    <use xlink:href="#DejaVuSans-Bold-74" transform="translate(1414.599609 0)"/>
    <use xlink:href="#DejaVuSans-Bold-68" transform="translate(1462.402344 0)"/>
    <use xlink:href="#DejaVuSans-Bold-6f" transform="translate(1533.59375 0)"/>
    <use xlink:href="#DejaVuSans-Bold-75" transform="translate(1602.294922 0)"/>
    <use xlink:href="#DejaVuSans-Bold-74" transform="translate(1673.486328 0)"/>
    <use xlink:href="#DejaVuSans-Bold-20" transform="translate(1721.289062 0)"/>
    <use xlink:href="#DejaVuSans-Bold-69" transform="translate(1756.103516 0)"/>
    <use xlink:href="#DejaVuSans-Bold-6d" transform="translate(1790.380859 0)"/>
    <use xlink:href="#DejaVuSans-Bold-70" transform="translate(1894.580078 0)"/>
    <use xlink:href="#DejaVuSans-Bold-72" transform="translate(1966.162109 0)"/>
    <use xlink:href="#DejaVuSans-Bold-6f" transform="translate(2015.478516 0)"/>
    <use xlink:href="#DejaVuSans-Bold-76" transform="translate(2084.179688 0)"/>
    <use xlink:href="#DejaVuSans-Bold-65" transform="translate(2149.365234 0)"/>
    <use xlink:href="#DejaVuSans-Bold-64" transform="translate(2217.1875 0)"/>
    <use xlink:href="#DejaVuSans-Bold-20" transform="translate(2288.769531 0)"/>
    <use xlink:href="#DejaVuSans-Bold-50" transform="translate(2323.583984 0)"/>
    <use xlink:href="#DejaVuSans-Bold-72" transform="translate(2396.875 0)"/>
    <use xlink:href="#DejaVuSans-Bold-6f" transform="translate(2446.191406 0)"/>
    <use xlink:href="#DejaVuSans-Bold-2f" transform="translate(2514.892578 0)"/>
    <use xlink:href="#DejaVuSans-Bold-54" transform="translate(2551.416016 0)"/>
    <use xlink:href="#DejaVuSans-Bold-68" transform="translate(2619.628906 0)"/>
    <use xlink:href="#DejaVuSans-Bold-72" transform="translate(2690.820312 0)"/>
    <use xlink:href="#DejaVuSans-Bold-20" transform="translate(2740.136719 0)"/>
    <use xlink:href="#DejaVuSans-Bold-73" transform="translate(2774.951172 0)"/>
    <use xlink:href="#DejaVuSans-Bold-70" transform="translate(2834.472656 0)"/>
    <use xlink:href="#DejaVuSans-Bold-65" transform="translate(2906.054688 0)"/>
    <use xlink:href="#DejaVuSans-Bold-63" transform="translate(2973.876953 0)"/>
    <use xlink:href="#DejaVuSans-Bold-69" transform="translate(3033.154297 0)"/>
    <use xlink:href="#DejaVuSans-Bold-66" transform="translate(3067.431641 0)"/>
    <use xlink:href="#DejaVuSans-Bold-69" transform="translate(3110.9375 0)"/>
    <use xlink:href="#DejaVuSans-Bold-63" transform="translate(3145.214844 0)"/>
    <use xlink:href="#DejaVuSans-Bold-69" transform="translate(3204.492188 0)"/>
    <use xlink:href="#DejaVuSans-Bold-74" transform="translate(3238.769531 0)"/>
    <use xlink:href="#DejaVuSans-Bold-79" transform="translate(3286.572266 0)"/>
    <use xlink:href="#DejaVuSans-Bold-20" transform="translate(3351.757812 0)"/>
    <use xlink:href="#DejaVuSans-Bold-69" transform="translate(3386.572266 0)"/>
    <use xlink:href="#DejaVuSans-Bold-6e" transform="translate(3420.849609 0)"/>
    <use xlink:href="#DejaVuSans-Bold-20" transform="translate(3492.041016 0)"/>
    <use xlink:href="#DejaVuSans-Bold-50" transform="translate(3526.855469 0)"/>
    <use xlink:href="#DejaVuSans-Bold-72" transform="translate(3600.146484 0)"/>
    <use xlink:href="#DejaVuSans-Bold-6f" transform="translate(3649.462891 0)"/>
    <use xlink:href="#DejaVuSans-Bold-52" transform="translate(3718.164062 0)"/>
    <use xlink:href="#DejaVuSans-Bold-53" transform="translate(3795.166016 0)"/>
    <use xlink:href="#DejaVuSans-Bold-20" transform="translate(3867.1875 0)"/>
    <use xlink:href="#DejaVuSans-Bold-65" transform="translate(3902.001953 0)"/>
    <use xlink:href="#DejaVuSans-Bold-76" transform="translate(3969.824219 0)"/>
    <use xlink:href="#DejaVuSans-Bold-6f" transform="translate(4035.009766 0)"/>
    <use xlink:href="#DejaVuSans-Bold-6c" transform="translate(4103.710938 0)"/>
    <use xlink:href="#DejaVuSans-Bold-75" transform="translate(4137.988281 0)"/>
    <use xlink:href="#DejaVuSans-Bold-74" transform="translate(4209.179688 0)"/>
    <use xlink:href="#DejaVuSans-Bold-69" transform="translate(4256.982422 0)"/>
    <use xlink:href="#DejaVuSans-Bold-6f" transform="translate(4291.259766 0)"/>
    <use xlink:href="#DejaVuSans-Bold-6e" transform="translate(4359.960938 0)"/>
   </g>
  </g>
 </g>
 <defs>
  <clipPath id="p7fe32bcb32">
   <rect x="21.6" y="36" width="676.8" height="234"/>
  </clipPath>
  <clipPath id="pb9807422f1">
   <rect x="21.6" y="295.2" width="676.8" height="46.8"/>
  </clipPath>
 </defs>
</svg>
