<?xml version="1.0" encoding="utf-8" standalone="no"?>
<!DOCTYPE svg PUBLIC "-//W3C//DTD SVG 1.1//EN"
  "http://www.w3.org/Graphics/SVG/1.1/DTD/svg11.dtd">
<svg xmlns:xlink="http://www.w3.org/1999/xlink" width="409.464pt" height="250.227094pt" viewBox="0 0 409.464 250.227094" xmlns="http://www.w3.org/2000/svg" version="1.1">
 <metadata>
  <rdf:RDF xmlns:dc="http://purl.org/dc/elements/1.1/" xmlns:cc="http://creativecommons.org/ns#" xmlns:rdf="http://www.w3.org/1999/02/22-rdf-syntax-ns#">
   <cc:Work>
    <dc:type rdf:resource="http://purl.org/dc/dcmitype/StillImage"/>
    <dc:date>2025-11-24T23:12:06.262671</dc:date>
    <dc:format>image/svg+xml</dc:format>
    <dc:creator>
     <cc:Agent>
      <dc:title>Matplotlib v3.10.7, https://matplotlib.org/</dc:title>
     </cc:Agent>
    </dc:creator>
   </cc:Work>
  </rdf:RDF>
 </metadata>
 <defs>
  <style type="text/css">*{stroke-linejoin: round; stroke-linecap: butt}</style>
 </defs>
 <g id="figure_1">
  <g id="patch_1">
   <path d="M 0 250.227094 
L 409.464 250.227094 
L 409.464 -0 
L 0 -0 
z
" style="fill: #ffffff"/>
  </g>
  <g id="axes_1">
   <g id="patch_2">
    <path d="M 25.157455 109.273394 
L 88.008545 109.273394 
L 88.008545 88.575794 
L 25.157455 88.575794 
z
" clip-path="url(#pdd3bdac214)" style="fill: #1976d2; opacity: 0.6; stroke: #000000; stroke-width: 0.5; stroke-linejoin: miter"/>
   </g>
   <g id="patch_3">
    <path d="M 88.008545 109.273394 
L 132.902182 109.273394 
L 132.902182 88.575794 
L 88.008545 88.575794 
z
" clip-path="url(#pdd3bdac214)" style="fill: #f5f5f5; stroke: #000000; stroke-width: 0.5; stroke-linejoin: miter"/>
   </g>
   <g id="patch_4">
    <path d="M 132.902182 109.273394 
L 168.817091 109.273394 
L 168.817091 88.575794 
L 132.902182 88.575794 
z
" clip-path="url(#pdd3bdac214)" style="fill: #f57c00; opacity: 0.6; stroke: #000000; stroke-width: 0.5; stroke-linejoin: miter"/>
   </g>
   <g id="patch_5">
    <path d="M 25.157455 186.889394 
L 159.838364 186.889394 
L 159.838364 166.191794 
L 25.157455 166.191794 
z
" clip-path="url(#pdd3bdac214)" style="fill: #1976d2; opacity: 0.6; stroke: #000000; stroke-width: 0.5; stroke-linejoin: miter"/>
   </g>
   <g id="patch_6">
    <path d="M 159.838364 186.889394 
L 168.817091 186.889394 
L 168.817091 166.191794 
L 159.838364 166.191794 
z
" clip-path="url(#pdd3bdac214)" style="fill: #f5f5f5; stroke: #000000; stroke-width: 0.5; stroke-linejoin: miter"/>
   </g>
   <g id="text_1">
    <!-- A -->
    <g transform="translate(10.791491 47.243519) scale(0.12 -0.12)">
     <defs>
      <path id="DejaVuSerif-Bold-41" d="M -50 0 
L -50 378 
L 331 378 
L 2088 4666 
L 2834 4666 
L 4594 378 
L 5038 378 
L 5038 0 
L 2853 0 
L 2853 378 
L 3309 378 
L 2925 1331 
L 1172 1331 
L 781 378 
L 1338 378 
L 1338 0 
L -50 0 
z
M 1325 1709 
L 2772 1709 
L 2053 3494 
L 1325 1709 
z
" transform="scale(0.015625)"/>
     </defs>
     <use xlink:href="#DejaVuSerif-Bold-41"/>
    </g>
   </g>
   <g id="text_2">
    <!-- LUCA ProRS (2037 aa) -->
    <g transform="translate(16.178727 60.116594) scale(0.08 -0.08)">
     <defs>
      <path id="DejaVuSerif-Bold-4c" d="M 300 0 
L 300 378 
L 897 378 
L 897 4288 
L 300 4288 
L 300 4666 
L 2700 4666 
L 2700 4288 
L 2100 4288 
L 2100 428 
L 3938 428 
L 3938 1166 
L 4359 1166 
L 4359 0 
L 300 0 
z
" transform="scale(0.015625)"/>
      <path id="DejaVuSerif-Bold-55" d="M 813 4288 
L 219 4288 
L 219 4666 
L 2619 4666 
L 2619 4288 
L 2022 4288 
L 2022 1953 
Q 2022 1081 2294 732 
Q 2566 384 3225 384 
Q 3869 384 4139 736 
Q 4409 1088 4409 1953 
L 4409 4288 
L 3816 4288 
L 3816 4666 
L 5441 4666 
L 5441 4288 
L 4844 4288 
L 4844 1888 
Q 4844 819 4381 364 
Q 3919 -91 2828 -91 
Q 1744 -91 1278 368 
Q 813 828 813 1894 
L 813 4288 
z
" transform="scale(0.015625)"/>
      <path id="DejaVuSerif-Bold-43" d="M 4769 1331 
Q 4584 609 4106 259 
Q 3628 -91 2822 -91 
Q 1641 -91 955 561 
Q 269 1213 269 2328 
Q 269 3447 955 4098 
Q 1641 4750 2822 4750 
Q 3238 4750 3688 4650 
Q 4138 4550 4641 4347 
L 4641 3200 
L 4244 3200 
Q 4122 3788 3800 4080 
Q 3478 4372 2950 4372 
Q 2269 4372 1937 3870 
Q 1606 3369 1606 2328 
Q 1606 1288 1937 788 
Q 2269 288 2956 288 
Q 3422 288 3717 547 
Q 4013 806 4147 1331 
L 4769 1331 
z
" transform="scale(0.015625)"/>
      <path id="DejaVuSerif-Bold-20" transform="scale(0.015625)"/>
      <path id="DejaVuSerif-Bold-50" d="M 300 0 
L 300 378 
L 897 378 
L 897 4288 
L 300 4288 
L 300 4666 
L 2956 4666 
Q 3734 4666 4193 4295 
Q 4653 3925 4653 3303 
Q 4653 2678 4192 2304 
Q 3731 1931 2956 1931 
L 2100 1931 
L 2100 378 
L 2853 378 
L 2853 0 
L 300 0 
z
M 2100 2309 
L 2450 2309 
Q 2856 2309 3098 2579 
Q 3341 2850 3341 3303 
Q 3341 3753 3100 4020 
Q 2859 4288 2450 4288 
L 2100 4288 
L 2100 2309 
z
" transform="scale(0.015625)"/>
      <path id="DejaVuSerif-Bold-72" d="M 3438 3359 
L 3438 2369 
L 3084 2369 
Q 3066 2634 2941 2764 
Q 2816 2894 2578 2894 
Q 2216 2894 2006 2575 
Q 1797 2256 1797 1691 
L 1797 378 
L 2400 378 
L 2400 0 
L 219 0 
L 219 378 
L 691 378 
L 691 2944 
L 184 2944 
L 184 3322 
L 1797 3322 
L 1797 2731 
Q 1959 3078 2226 3245 
Q 2494 3413 2881 3413 
Q 2978 3413 3117 3398 
Q 3256 3384 3438 3359 
z
" transform="scale(0.015625)"/>
      <path id="DejaVuSerif-Bold-6f" d="M 2138 263 
Q 2488 263 2630 563 
Q 2772 863 2772 1663 
Q 2772 2463 2631 2761 
Q 2491 3059 2138 3059 
Q 1784 3059 1640 2757 
Q 1497 2456 1497 1663 
Q 1497 869 1640 566 
Q 1784 263 2138 263 
z
M 2138 -91 
Q 1259 -91 761 376 
Q 263 844 263 1663 
Q 263 2484 761 2948 
Q 1259 3413 2138 3413 
Q 3019 3413 3516 2948 
Q 4013 2484 4013 1663 
Q 4013 844 3514 376 
Q 3016 -91 2138 -91 
z
" transform="scale(0.015625)"/>
      <path id="DejaVuSerif-Bold-52" d="M 3397 2278 
Q 3675 2238 3865 2094 
Q 4056 1950 4197 1678 
L 4878 378 
L 5356 378 
L 5356 0 
L 3822 0 
L 3078 1409 
Q 2863 1847 2711 1967 
Q 2559 2088 2291 2088 
L 2100 2088 
L 2100 378 
L 2700 378 
L 2700 0 
L 300 0 
L 300 378 
L 897 378 
L 897 4288 
L 300 4288 
L 300 4666 
L 2963 4666 
Q 3775 4666 4217 4339 
Q 4659 4013 4659 3413 
Q 4659 2925 4345 2642 
Q 4031 2359 3397 2278 
z
M 2100 2463 
L 2509 2463 
Q 2947 2463 3183 2700 
Q 3419 2938 3419 3378 
Q 3419 3819 3183 4053 
Q 2947 4288 2509 4288 
L 2100 4288 
L 2100 2463 
z
" transform="scale(0.015625)"/>
      <path id="DejaVuSerif-Bold-53" d="M 494 225 
L 494 1331 
L 891 1331 
Q 981 806 1318 547 
Q 1656 288 2253 288 
Q 2738 288 2991 472 
Q 3244 656 3244 1013 
Q 3244 1294 3072 1450 
Q 2900 1606 2363 1741 
L 1663 1913 
Q 978 2088 700 2398 
Q 422 2709 422 3284 
Q 422 3978 883 4364 
Q 1344 4750 2175 4750 
Q 2584 4750 3026 4681 
Q 3469 4613 3944 4475 
L 3944 3444 
L 3547 3444 
Q 3456 3925 3150 4148 
Q 2844 4372 2278 4372 
Q 1816 4372 1580 4211 
Q 1344 4050 1344 3731 
Q 1344 3441 1506 3289 
Q 1669 3138 2303 2975 
L 3003 2803 
Q 3653 2641 3945 2297 
Q 4238 1953 4238 1350 
Q 4238 644 3750 276 
Q 3263 -91 2316 -91 
Q 1859 -91 1409 -12 
Q 959 66 494 225 
z
" transform="scale(0.015625)"/>
      <path id="DejaVuSerif-Bold-28" d="M 2694 -997 
Q 1641 -606 1122 122 
Q 603 850 603 1931 
Q 603 3013 1115 3731 
Q 1628 4450 2694 4863 
L 2694 4488 
Q 2200 4188 1983 3598 
Q 1766 3009 1766 1931 
Q 1766 856 1983 267 
Q 2200 -322 2694 -622 
L 2694 -997 
z
" transform="scale(0.015625)"/>
      <path id="DejaVuSerif-Bold-32" d="M 844 3513 
L 469 3513 
L 469 4519 
Q 850 4634 1223 4692 
Q 1597 4750 1978 4750 
Q 2869 4750 3367 4386 
Q 3866 4022 3866 3372 
Q 3866 2909 3591 2542 
Q 3316 2175 2541 1672 
L 1241 819 
L 3450 819 
L 3450 1369 
L 3878 1369 
L 3878 0 
L 428 0 
L 428 763 
L 1119 1241 
Q 2003 1850 2297 2278 
Q 2591 2706 2591 3278 
Q 2591 3819 2367 4101 
Q 2144 4384 1716 4384 
Q 1347 4384 1125 4161 
Q 903 3938 844 3513 
z
" transform="scale(0.015625)"/>
      <path id="DejaVuSerif-Bold-30" d="M 2228 275 
Q 2603 275 2742 615 
Q 2881 956 2881 2328 
Q 2881 3691 2742 4037 
Q 2603 4384 2228 4384 
Q 1853 4384 1714 4043 
Q 1575 3703 1575 2328 
Q 1575 956 1714 615 
Q 1853 275 2228 275 
z
M 2228 -91 
Q 1294 -91 797 532 
Q 300 1156 300 2328 
Q 300 3500 797 4125 
Q 1294 4750 2228 4750 
Q 3159 4750 3656 4125 
Q 4153 3500 4153 2328 
Q 4153 1156 3656 532 
Q 3159 -91 2228 -91 
z
" transform="scale(0.015625)"/>
      <path id="DejaVuSerif-Bold-33" d="M 550 4531 
Q 963 4641 1350 4695 
Q 1738 4750 2106 4750 
Q 2950 4750 3401 4448 
Q 3853 4147 3853 3584 
Q 3853 3163 3593 2900 
Q 3334 2638 2834 2547 
Q 3444 2450 3744 2131 
Q 4044 1813 4044 1259 
Q 4044 606 3526 257 
Q 3009 -91 2028 -91 
Q 1659 -91 1267 -28 
Q 875 34 447 159 
L 447 1184 
L 825 1184 
Q 859 741 1103 508 
Q 1347 275 1778 275 
Q 2253 275 2512 539 
Q 2772 803 2772 1288 
Q 2772 1794 2501 2069 
Q 2231 2344 1734 2344 
L 1528 2344 
L 1528 2719 
L 1691 2719 
Q 2150 2719 2381 2931 
Q 2613 3144 2613 3566 
Q 2613 3963 2395 4173 
Q 2178 4384 1772 4384 
Q 1403 4384 1187 4182 
Q 972 3981 928 3597 
L 550 3597 
L 550 4531 
z
" transform="scale(0.015625)"/>
      <path id="DejaVuSerif-Bold-37" d="M 3922 3872 
L 1997 0 
L 1363 0 
L 3238 3781 
L 934 3781 
L 934 3150 
L 506 3150 
L 506 4666 
L 3922 4666 
L 3922 3872 
z
" transform="scale(0.015625)"/>
      <path id="DejaVuSerif-Bold-61" d="M 3525 2041 
L 3525 378 
L 4000 378 
L 4000 0 
L 2419 0 
L 2419 422 
Q 2200 159 1931 34 
Q 1663 -91 1319 -91 
Q 809 -91 536 182 
Q 263 456 263 966 
Q 263 1525 655 1803 
Q 1047 2081 1838 2081 
L 2419 2081 
L 2419 2278 
Q 2419 2681 2228 2873 
Q 2038 3066 1638 3066 
Q 1306 3066 1126 2930 
Q 947 2794 872 2484 
L 519 2484 
L 519 3200 
Q 816 3306 1134 3359 
Q 1453 3413 1806 3413 
Q 2697 3413 3111 3081 
Q 3525 2750 3525 2041 
z
M 2419 1044 
L 2419 1709 
L 2003 1709 
Q 1694 1709 1528 1540 
Q 1363 1372 1363 1056 
Q 1363 741 1483 584 
Q 1603 428 1850 428 
Q 2106 428 2262 597 
Q 2419 766 2419 1044 
z
" transform="scale(0.015625)"/>
      <path id="DejaVuSerif-Bold-29" d="M 325 -997 
L 325 -622 
Q 819 -322 1036 267 
Q 1253 856 1253 1931 
Q 1253 3009 1036 3598 
Q 819 4188 325 4488 
L 325 4863 
Q 1391 4450 1905 3731 
Q 2419 3013 2419 1931 
Q 2419 850 1898 122 
Q 1378 -606 325 -997 
z
" transform="scale(0.015625)"/>
     </defs>
     <use xlink:href="#DejaVuSerif-Bold-4c"/>
     <use xlink:href="#DejaVuSerif-Bold-55" transform="translate(64.8125 0)"/>
     <use xlink:href="#DejaVuSerif-Bold-43" transform="translate(152.019531 0)"/>
     <use xlink:href="#DejaVuSerif-Bold-41" transform="translate(231.609375 0)"/>
     <use xlink:href="#DejaVuSerif-Bold-20" transform="translate(309.197266 0)"/>
     <use xlink:href="#DejaVuSerif-Bold-50" transform="translate(344.011719 0)"/>
     <use xlink:href="#DejaVuSerif-Bold-72" transform="translate(419.207031 0)"/>
     <use xlink:href="#DejaVuSerif-Bold-6f" transform="translate(471.892578 0)"/>
     <use xlink:href="#DejaVuSerif-Bold-52" transform="translate(538.591797 0)"/>
     <use xlink:href="#DejaVuSerif-Bold-53" transform="translate(621.697266 0)"/>
     <use xlink:href="#DejaVuSerif-Bold-20" transform="translate(693.914062 0)"/>
     <use xlink:href="#DejaVuSerif-Bold-28" transform="translate(728.728516 0)"/>
     <use xlink:href="#DejaVuSerif-Bold-32" transform="translate(776.042969 0)"/>
     <use xlink:href="#DejaVuSerif-Bold-30" transform="translate(845.623047 0)"/>
     <use xlink:href="#DejaVuSerif-Bold-33" transform="translate(915.203125 0)"/>
     <use xlink:href="#DejaVuSerif-Bold-37" transform="translate(984.783203 0)"/>
     <use xlink:href="#DejaVuSerif-Bold-20" transform="translate(1054.363281 0)"/>
     <use xlink:href="#DejaVuSerif-Bold-61" transform="translate(1089.177734 0)"/>
     <use xlink:href="#DejaVuSerif-Bold-61" transform="translate(1153.972656 0)"/>
     <use xlink:href="#DejaVuSerif-Bold-29" transform="translate(1218.767578 0)"/>
    </g>
   </g>
   <g id="text_3">
    <!-- Catalytic -->
    <g style="fill: #ffffff" transform="translate(41.687063 97.178219) scale(0.06 -0.06)">
     <defs>
      <path id="DejaVuSerif-Bold-74" d="M 634 2944 
L 153 2944 
L 153 3322 
L 634 3322 
L 634 4353 
L 1741 4353 
L 1741 3322 
L 2663 3322 
L 2663 2944 
L 1741 2944 
L 1741 909 
Q 1741 475 1809 369 
Q 1878 263 2059 263 
Q 2259 263 2356 397 
Q 2453 531 2459 813 
L 2925 813 
Q 2897 313 2651 111 
Q 2406 -91 1806 -91 
Q 1122 -91 878 123 
Q 634 338 634 909 
L 634 2944 
z
" transform="scale(0.015625)"/>
      <path id="DejaVuSerif-Bold-6c" d="M 1797 378 
L 2272 378 
L 2272 0 
L 219 0 
L 219 378 
L 691 378 
L 691 4488 
L 219 4488 
L 219 4863 
L 1797 4863 
L 1797 378 
z
" transform="scale(0.015625)"/>
      <path id="DejaVuSerif-Bold-79" d="M 1997 -750 
Q 1847 -1116 1634 -1269 
Q 1422 -1422 1063 -1422 
Q 909 -1422 721 -1387 
Q 534 -1353 313 -1288 
L 313 -594 
L 666 -597 
Q 675 -838 779 -953 
Q 884 -1069 1094 -1069 
Q 1297 -1069 1422 -958 
Q 1547 -847 1672 -538 
L 1722 -422 
L 275 2944 
L -84 2944 
L -84 3322 
L 1831 3322 
L 1831 2944 
L 1434 2944 
L 2278 978 
L 3066 2944 
L 2625 2944 
L 2625 3322 
L 3872 3322 
L 3872 2944 
L 3469 2944 
L 1997 -750 
z
" transform="scale(0.015625)"/>
      <path id="DejaVuSerif-Bold-69" d="M 588 4263 
Q 588 4516 763 4689 
Q 938 4863 1191 4863 
Q 1438 4863 1611 4689 
Q 1784 4516 1784 4263 
Q 1784 4016 1611 3842 
Q 1438 3669 1191 3669 
Q 938 3669 763 3841 
Q 588 4013 588 4263 
z
M 1797 378 
L 2272 378 
L 2272 0 
L 219 0 
L 219 378 
L 691 378 
L 691 2944 
L 219 2944 
L 219 3322 
L 1797 3322 
L 1797 378 
z
" transform="scale(0.015625)"/>
      <path id="DejaVuSerif-Bold-63" d="M 3609 1038 
Q 3491 469 3123 189 
Q 2756 -91 2125 -91 
Q 1238 -91 750 368 
Q 263 828 263 1663 
Q 263 2488 744 2950 
Q 1225 3413 2081 3413 
Q 2428 3413 2781 3347 
Q 3134 3281 3500 3150 
L 3500 2228 
L 3150 2228 
Q 3100 2650 2903 2854 
Q 2706 3059 2350 3059 
Q 1888 3059 1692 2746 
Q 1497 2434 1497 1663 
Q 1497 909 1687 586 
Q 1878 263 2309 263 
Q 2644 263 2845 463 
Q 3047 663 3091 1038 
L 3609 1038 
z
" transform="scale(0.015625)"/>
     </defs>
     <use xlink:href="#DejaVuSerif-Bold-43"/>
     <use xlink:href="#DejaVuSerif-Bold-61" transform="translate(79.589844 0)"/>
     <use xlink:href="#DejaVuSerif-Bold-74" transform="translate(144.384766 0)"/>
     <use xlink:href="#DejaVuSerif-Bold-61" transform="translate(190.576172 0)"/>
     <use xlink:href="#DejaVuSerif-Bold-6c" transform="translate(255.371094 0)"/>
     <use xlink:href="#DejaVuSerif-Bold-79" transform="translate(293.359375 0)"/>
     <use xlink:href="#DejaVuSerif-Bold-74" transform="translate(351.464844 0)"/>
     <use xlink:href="#DejaVuSerif-Bold-69" transform="translate(397.65625 0)"/>
     <use xlink:href="#DejaVuSerif-Bold-63" transform="translate(435.644531 0)"/>
    </g>
    <!-- (200-700) -->
    <g style="fill: #ffffff" transform="translate(39.975188 103.982219) scale(0.06 -0.06)">
     <defs>
      <path id="DejaVuSerif-Bold-2d" d="M 347 2138 
L 2309 2138 
L 2309 1294 
L 347 1294 
L 347 2138 
z
" transform="scale(0.015625)"/>
     </defs>
     <use xlink:href="#DejaVuSerif-Bold-28"/>
     <use xlink:href="#DejaVuSerif-Bold-32" transform="translate(47.314453 0)"/>
     <use xlink:href="#DejaVuSerif-Bold-30" transform="translate(116.894531 0)"/>
     <use xlink:href="#DejaVuSerif-Bold-30" transform="translate(186.474609 0)"/>
     <use xlink:href="#DejaVuSerif-Bold-2d" transform="translate(256.054688 0)"/>
     <use xlink:href="#DejaVuSerif-Bold-37" transform="translate(297.558594 0)"/>
     <use xlink:href="#DejaVuSerif-Bold-30" transform="translate(367.138672 0)"/>
     <use xlink:href="#DejaVuSerif-Bold-30" transform="translate(436.71875 0)"/>
     <use xlink:href="#DejaVuSerif-Bold-29" transform="translate(506.298828 0)"/>
    </g>
   </g>
   <g id="text_4">
    <!-- Linker -->
    <g transform="translate(102.195989 100.304281) scale(0.05 -0.05)">
     <defs>
      <path id="DejaVuSerif-4c" d="M 353 0 
L 353 331 
L 947 331 
L 947 4331 
L 353 4331 
L 353 4666 
L 2175 4666 
L 2175 4331 
L 1581 4331 
L 1581 384 
L 3713 384 
L 3713 1166 
L 4097 1166 
L 4097 0 
L 353 0 
z
" transform="scale(0.015625)"/>
      <path id="DejaVuSerif-69" d="M 622 4353 
Q 622 4497 726 4603 
Q 831 4709 978 4709 
Q 1122 4709 1226 4603 
Q 1331 4497 1331 4353 
Q 1331 4206 1228 4103 
Q 1125 4000 978 4000 
Q 831 4000 726 4103 
Q 622 4206 622 4353 
z
M 1356 331 
L 1900 331 
L 1900 0 
L 231 0 
L 231 331 
L 781 331 
L 781 2988 
L 231 2988 
L 231 3322 
L 1356 3322 
L 1356 331 
z
" transform="scale(0.015625)"/>
      <path id="DejaVuSerif-6e" d="M 263 0 
L 263 331 
L 781 331 
L 781 2988 
L 231 2988 
L 231 3322 
L 1356 3322 
L 1356 2731 
Q 1516 3069 1770 3241 
Q 2025 3413 2363 3413 
Q 2913 3413 3172 3097 
Q 3431 2781 3431 2113 
L 3431 331 
L 3944 331 
L 3944 0 
L 2356 0 
L 2356 331 
L 2853 331 
L 2853 1931 
Q 2853 2541 2703 2767 
Q 2553 2994 2175 2994 
Q 1775 2994 1565 2701 
Q 1356 2409 1356 1850 
L 1356 331 
L 1856 331 
L 1856 0 
L 263 0 
z
" transform="scale(0.015625)"/>
      <path id="DejaVuSerif-6b" d="M 1831 0 
L 219 0 
L 219 331 
L 738 331 
L 738 4531 
L 184 4531 
L 184 4863 
L 1313 4863 
L 1313 1697 
L 2713 2988 
L 2234 2988 
L 2234 3322 
L 3738 3322 
L 3738 2988 
L 3169 2988 
L 2181 2075 
L 3444 331 
L 3922 331 
L 3922 0 
L 2284 0 
L 2284 331 
L 2759 331 
L 1766 1697 
L 1313 1275 
L 1313 331 
L 1831 331 
L 1831 0 
z
" transform="scale(0.015625)"/>
      <path id="DejaVuSerif-65" d="M 3469 1600 
L 991 1600 
L 991 1575 
Q 991 903 1244 561 
Q 1497 219 1991 219 
Q 2369 219 2611 417 
Q 2853 616 2950 1006 
L 3413 1006 
Q 3275 459 2904 184 
Q 2534 -91 1931 -91 
Q 1203 -91 761 389 
Q 319 869 319 1663 
Q 319 2450 753 2931 
Q 1188 3413 1894 3413 
Q 2647 3413 3050 2948 
Q 3453 2484 3469 1600 
z
M 2791 1931 
Q 2772 2513 2545 2808 
Q 2319 3103 1894 3103 
Q 1497 3103 1269 2806 
Q 1041 2509 991 1931 
L 2791 1931 
z
" transform="scale(0.015625)"/>
      <path id="DejaVuSerif-72" d="M 3059 3328 
L 3059 2497 
L 2728 2497 
Q 2713 2744 2591 2866 
Q 2469 2988 2234 2988 
Q 1809 2988 1582 2694 
Q 1356 2400 1356 1850 
L 1356 331 
L 2022 331 
L 2022 0 
L 263 0 
L 263 331 
L 781 331 
L 781 2994 
L 231 2994 
L 231 3322 
L 1356 3322 
L 1356 2731 
Q 1525 3078 1790 3245 
Q 2056 3413 2438 3413 
Q 2578 3413 2733 3391 
Q 2888 3369 3059 3328 
z
" transform="scale(0.015625)"/>
     </defs>
     <use xlink:href="#DejaVuSerif-4c"/>
     <use xlink:href="#DejaVuSerif-69" transform="translate(66.40625 0)"/>
     <use xlink:href="#DejaVuSerif-6e" transform="translate(98.388672 0)"/>
     <use xlink:href="#DejaVuSerif-6b" transform="translate(162.792969 0)"/>
     <use xlink:href="#DejaVuSerif-65" transform="translate(223.388672 0)"/>
     <use xlink:href="#DejaVuSerif-72" transform="translate(282.568359 0)"/>
    </g>
   </g>
   <g id="text_5">
    <!-- Editing -->
    <g style="fill: #ffffff" transform="translate(138.53198 97.178219) scale(0.06 -0.06)">
     <defs>
      <path id="DejaVuSerif-Bold-45" d="M 300 0 
L 300 378 
L 897 378 
L 897 4288 
L 300 4288 
L 300 4666 
L 4494 4666 
L 4494 3566 
L 4063 3566 
L 4063 4238 
L 2100 4238 
L 2100 2741 
L 3322 2741 
L 3322 3334 
L 3750 3334 
L 3750 1722 
L 3322 1722 
L 3322 2316 
L 2100 2316 
L 2100 428 
L 4122 428 
L 4122 1100 
L 4550 1100 
L 4550 0 
L 300 0 
z
" transform="scale(0.015625)"/>
      <path id="DejaVuSerif-Bold-64" d="M 2747 1497 
L 2747 1825 
Q 2747 2406 2597 2665 
Q 2447 2925 2119 2925 
Q 1775 2925 1636 2651 
Q 1497 2378 1497 1663 
Q 1497 947 1637 672 
Q 1778 397 2119 397 
Q 2447 397 2597 656 
Q 2747 916 2747 1497 
z
M 3853 378 
L 4325 378 
L 4325 0 
L 2747 0 
L 2747 422 
Q 2606 163 2367 36 
Q 2128 -91 1778 -91 
Q 1072 -91 667 378 
Q 263 847 263 1663 
Q 263 2481 667 2947 
Q 1072 3413 1778 3413 
Q 2128 3413 2367 3286 
Q 2606 3159 2747 2900 
L 2747 4488 
L 2272 4488 
L 2272 4863 
L 3853 4863 
L 3853 378 
z
" transform="scale(0.015625)"/>
      <path id="DejaVuSerif-Bold-6e" d="M 219 0 
L 219 378 
L 691 378 
L 691 2944 
L 219 2944 
L 219 3322 
L 1797 3322 
L 1797 2853 
Q 1997 3150 2253 3281 
Q 2509 3413 2900 3413 
Q 3459 3413 3745 3083 
Q 4031 2753 4031 2113 
L 4031 378 
L 4506 378 
L 4506 0 
L 2522 0 
L 2522 378 
L 2925 378 
L 2925 2144 
Q 2925 2566 2817 2730 
Q 2709 2894 2444 2894 
Q 2109 2894 1953 2648 
Q 1797 2403 1797 1869 
L 1797 378 
L 2203 378 
L 2203 0 
L 219 0 
z
" transform="scale(0.015625)"/>
      <path id="DejaVuSerif-Bold-67" d="M 3853 2944 
L 3853 44 
Q 3853 -656 3354 -1039 
Q 2856 -1422 1947 -1422 
Q 1616 -1422 1275 -1370 
Q 934 -1319 575 -1216 
L 575 -422 
L 928 -422 
Q 975 -750 1192 -909 
Q 1409 -1069 1813 -1069 
Q 2325 -1069 2536 -823 
Q 2747 -578 2747 44 
L 2747 422 
Q 2606 163 2367 36 
Q 2128 -91 1778 -91 
Q 1072 -91 667 378 
Q 263 847 263 1663 
Q 263 2481 667 2947 
Q 1072 3413 1778 3413 
Q 2128 3413 2367 3286 
Q 2606 3159 2747 2900 
L 2747 3322 
L 4325 3322 
L 4325 2944 
L 3853 2944 
z
M 2747 1825 
Q 2747 2406 2597 2665 
Q 2447 2925 2119 2925 
Q 1775 2925 1636 2651 
Q 1497 2378 1497 1663 
Q 1497 947 1637 672 
Q 1778 397 2119 397 
Q 2447 397 2597 656 
Q 2747 916 2747 1497 
L 2747 1825 
z
" transform="scale(0.015625)"/>
     </defs>
     <use xlink:href="#DejaVuSerif-Bold-45"/>
     <use xlink:href="#DejaVuSerif-Bold-64" transform="translate(76.220703 0)"/>
     <use xlink:href="#DejaVuSerif-Bold-69" transform="translate(146.142578 0)"/>
     <use xlink:href="#DejaVuSerif-Bold-74" transform="translate(184.130859 0)"/>
     <use xlink:href="#DejaVuSerif-Bold-69" transform="translate(230.322266 0)"/>
     <use xlink:href="#DejaVuSerif-Bold-6e" transform="translate(268.310547 0)"/>
     <use xlink:href="#DejaVuSerif-Bold-67" transform="translate(341.015625 0)"/>
    </g>
    <!-- (1504-1652) -->
    <g style="fill: #ffffff" transform="translate(130.077136 103.982219) scale(0.06 -0.06)">
     <defs>
      <path id="DejaVuSerif-Bold-31" d="M 878 0 
L 878 378 
L 1753 378 
L 1753 4153 
L 781 3578 
L 781 4044 
L 1953 4750 
L 2938 4750 
L 2938 378 
L 3816 378 
L 3816 0 
L 878 0 
z
" transform="scale(0.015625)"/>
      <path id="DejaVuSerif-Bold-35" d="M 3609 4666 
L 3609 3847 
L 1113 3847 
L 1113 2822 
Q 1319 2981 1572 3062 
Q 1825 3144 2106 3144 
Q 2969 3144 3469 2708 
Q 3969 2272 3969 1522 
Q 3969 759 3469 334 
Q 2969 -91 2069 -91 
Q 1688 -91 1311 -28 
Q 934 34 525 166 
L 525 1184 
L 900 1184 
Q 919 725 1139 500 
Q 1359 275 1791 275 
Q 2250 275 2472 583 
Q 2694 891 2694 1522 
Q 2694 2144 2476 2451 
Q 2259 2759 1819 2759 
Q 1581 2759 1395 2661 
Q 1209 2563 1050 2356 
L 738 2356 
L 738 4666 
L 3609 4666 
z
" transform="scale(0.015625)"/>
      <path id="DejaVuSerif-Bold-34" d="M 4084 0 
L 1516 0 
L 1516 378 
L 2209 378 
L 2209 1228 
L 263 1228 
L 263 1588 
L 2216 4750 
L 3391 4750 
L 3391 1631 
L 4191 1631 
L 4191 1228 
L 3391 1228 
L 3391 378 
L 4084 378 
L 4084 0 
z
M 2209 1631 
L 2209 3897 
L 819 1631 
L 2209 1631 
z
" transform="scale(0.015625)"/>
      <path id="DejaVuSerif-Bold-36" d="M 1575 2766 
Q 1778 2928 2029 3009 
Q 2281 3091 2578 3091 
Q 3294 3091 3701 2672 
Q 4109 2253 4109 1522 
Q 4109 750 3650 329 
Q 3191 -91 2344 -91 
Q 1388 -91 895 486 
Q 403 1063 403 2181 
Q 403 3453 950 4101 
Q 1497 4750 2572 4750 
Q 2853 4750 3175 4703 
Q 3497 4656 3866 4563 
L 3866 3738 
L 3488 3738 
Q 3409 4056 3192 4220 
Q 2975 4384 2631 4384 
Q 2075 4384 1826 4003 
Q 1578 3622 1575 2766 
z
M 2272 275 
Q 2594 275 2731 548 
Q 2869 822 2869 1497 
Q 2869 2172 2731 2445 
Q 2594 2719 2272 2719 
Q 1950 2719 1814 2445 
Q 1678 2172 1678 1497 
Q 1678 822 1814 548 
Q 1950 275 2272 275 
z
" transform="scale(0.015625)"/>
     </defs>
     <use xlink:href="#DejaVuSerif-Bold-28"/>
     <use xlink:href="#DejaVuSerif-Bold-31" transform="translate(47.314453 0)"/>
     <use xlink:href="#DejaVuSerif-Bold-35" transform="translate(116.894531 0)"/>
     <use xlink:href="#DejaVuSerif-Bold-30" transform="translate(186.474609 0)"/>
     <use xlink:href="#DejaVuSerif-Bold-34" transform="translate(256.054688 0)"/>
     <use xlink:href="#DejaVuSerif-Bold-2d" transform="translate(325.634766 0)"/>
     <use xlink:href="#DejaVuSerif-Bold-31" transform="translate(367.138672 0)"/>
     <use xlink:href="#DejaVuSerif-Bold-36" transform="translate(436.71875 0)"/>
     <use xlink:href="#DejaVuSerif-Bold-35" transform="translate(506.298828 0)"/>
     <use xlink:href="#DejaVuSerif-Bold-32" transform="translate(575.878906 0)"/>
     <use xlink:href="#DejaVuSerif-Bold-29" transform="translate(645.458984 0)"/>
    </g>
   </g>
   <g id="text_6">
    <!-- LUCA ThrRS (1017 aa) -->
    <g transform="translate(16.178727 137.732594) scale(0.08 -0.08)">
     <defs>
      <path id="DejaVuSerif-Bold-54" d="M 1159 0 
L 1159 378 
L 1778 378 
L 1778 4238 
L 500 4238 
L 500 3500 
L 72 3500 
L 72 4666 
L 4697 4666 
L 4697 3500 
L 4275 3500 
L 4275 4238 
L 2988 4238 
L 2988 378 
L 3609 378 
L 3609 0 
L 1159 0 
z
" transform="scale(0.015625)"/>
      <path id="DejaVuSerif-Bold-68" d="M 219 0 
L 219 378 
L 691 378 
L 691 4488 
L 197 4488 
L 197 4863 
L 1797 4863 
L 1797 2853 
Q 1997 3150 2253 3281 
Q 2509 3413 2900 3413 
Q 3459 3413 3745 3083 
Q 4031 2753 4031 2113 
L 4031 378 
L 4506 378 
L 4506 0 
L 2522 0 
L 2522 378 
L 2925 378 
L 2925 2144 
Q 2925 2566 2817 2730 
Q 2709 2894 2444 2894 
Q 2109 2894 1953 2648 
Q 1797 2403 1797 1869 
L 1797 378 
L 2203 378 
L 2203 0 
L 219 0 
z
" transform="scale(0.015625)"/>
     </defs>
     <use xlink:href="#DejaVuSerif-Bold-4c"/>
     <use xlink:href="#DejaVuSerif-Bold-55" transform="translate(64.8125 0)"/>
     <use xlink:href="#DejaVuSerif-Bold-43" transform="translate(152.019531 0)"/>
     <use xlink:href="#DejaVuSerif-Bold-41" transform="translate(231.609375 0)"/>
     <use xlink:href="#DejaVuSerif-Bold-20" transform="translate(309.197266 0)"/>
     <use xlink:href="#DejaVuSerif-Bold-54" transform="translate(344.011719 0)"/>
     <use xlink:href="#DejaVuSerif-Bold-68" transform="translate(418.425781 0)"/>
     <use xlink:href="#DejaVuSerif-Bold-72" transform="translate(491.130859 0)"/>
     <use xlink:href="#DejaVuSerif-Bold-52" transform="translate(543.816406 0)"/>
     <use xlink:href="#DejaVuSerif-Bold-53" transform="translate(626.921875 0)"/>
     <use xlink:href="#DejaVuSerif-Bold-20" transform="translate(699.138672 0)"/>
     <use xlink:href="#DejaVuSerif-Bold-28" transform="translate(733.953125 0)"/>
     <use xlink:href="#DejaVuSerif-Bold-31" transform="translate(781.267578 0)"/>
     <use xlink:href="#DejaVuSerif-Bold-30" transform="translate(850.847656 0)"/>
     <use xlink:href="#DejaVuSerif-Bold-31" transform="translate(920.427734 0)"/>
     <use xlink:href="#DejaVuSerif-Bold-37" transform="translate(990.007812 0)"/>
     <use xlink:href="#DejaVuSerif-Bold-20" transform="translate(1059.587891 0)"/>
     <use xlink:href="#DejaVuSerif-Bold-61" transform="translate(1094.402344 0)"/>
     <use xlink:href="#DejaVuSerif-Bold-61" transform="translate(1159.197266 0)"/>
     <use xlink:href="#DejaVuSerif-Bold-29" transform="translate(1223.992188 0)"/>
    </g>
   </g>
   <g id="text_7">
    <!-- Catalytic domain only -->
    <g style="fill: #ffffff" transform="translate(49.812675 178.422391) scale(0.07 -0.07)">
     <defs>
      <path id="DejaVuSerif-Bold-6d" d="M 3884 2778 
Q 4116 3109 4384 3261 
Q 4653 3413 5013 3413 
Q 5584 3413 5867 3089 
Q 6150 2766 6150 2113 
L 6150 378 
L 6625 378 
L 6625 0 
L 4647 0 
L 4647 378 
L 5044 378 
L 5044 1947 
Q 5044 2569 4948 2731 
Q 4853 2894 4594 2894 
Q 4300 2894 4137 2667 
Q 3975 2441 3975 2022 
L 3975 378 
L 4372 378 
L 4372 0 
L 2472 0 
L 2472 378 
L 2869 378 
L 2869 1947 
Q 2869 2569 2772 2731 
Q 2675 2894 2419 2894 
Q 2122 2894 1959 2667 
Q 1797 2441 1797 2022 
L 1797 378 
L 2194 378 
L 2194 0 
L 219 0 
L 219 378 
L 691 378 
L 691 2944 
L 219 2944 
L 219 3322 
L 1797 3322 
L 1797 2853 
Q 1991 3144 2241 3278 
Q 2491 3413 2834 3413 
Q 3241 3413 3494 3258 
Q 3747 3103 3884 2778 
z
" transform="scale(0.015625)"/>
     </defs>
     <use xlink:href="#DejaVuSerif-Bold-43"/>
     <use xlink:href="#DejaVuSerif-Bold-61" transform="translate(79.589844 0)"/>
     <use xlink:href="#DejaVuSerif-Bold-74" transform="translate(144.384766 0)"/>
     <use xlink:href="#DejaVuSerif-Bold-61" transform="translate(190.576172 0)"/>
     <use xlink:href="#DejaVuSerif-Bold-6c" transform="translate(255.371094 0)"/>
     <use xlink:href="#DejaVuSerif-Bold-79" transform="translate(293.359375 0)"/>
     <use xlink:href="#DejaVuSerif-Bold-74" transform="translate(351.464844 0)"/>
     <use xlink:href="#DejaVuSerif-Bold-69" transform="translate(397.65625 0)"/>
     <use xlink:href="#DejaVuSerif-Bold-63" transform="translate(435.644531 0)"/>
     <use xlink:href="#DejaVuSerif-Bold-20" transform="translate(496.533203 0)"/>
     <use xlink:href="#DejaVuSerif-Bold-64" transform="translate(531.347656 0)"/>
     <use xlink:href="#DejaVuSerif-Bold-6f" transform="translate(601.269531 0)"/>
     <use xlink:href="#DejaVuSerif-Bold-6d" transform="translate(667.96875 0)"/>
     <use xlink:href="#DejaVuSerif-Bold-61" transform="translate(773.779297 0)"/>
     <use xlink:href="#DejaVuSerif-Bold-69" transform="translate(838.574219 0)"/>
     <use xlink:href="#DejaVuSerif-Bold-6e" transform="translate(876.5625 0)"/>
     <use xlink:href="#DejaVuSerif-Bold-20" transform="translate(949.267578 0)"/>
     <use xlink:href="#DejaVuSerif-Bold-6f" transform="translate(984.082031 0)"/>
     <use xlink:href="#DejaVuSerif-Bold-6e" transform="translate(1050.78125 0)"/>
     <use xlink:href="#DejaVuSerif-Bold-6c" transform="translate(1123.486328 0)"/>
     <use xlink:href="#DejaVuSerif-Bold-79" transform="translate(1161.474609 0)"/>
    </g>
   </g>
   <g id="text_8">
    <!-- C -->
    <g transform="translate(162.414837 177.920281) scale(0.05 -0.05)">
     <defs>
      <path id="DejaVuSerif-43" d="M 4513 1234 
Q 4306 581 3820 245 
Q 3334 -91 2591 -91 
Q 2134 -91 1743 65 
Q 1353 222 1050 525 
Q 700 875 529 1320 
Q 359 1766 359 2328 
Q 359 3416 987 4083 
Q 1616 4750 2644 4750 
Q 3025 4750 3456 4650 
Q 3888 4550 4384 4347 
L 4384 3272 
L 4031 3272 
Q 3916 3859 3567 4137 
Q 3219 4416 2591 4416 
Q 1844 4416 1459 3886 
Q 1075 3356 1075 2328 
Q 1075 1303 1459 773 
Q 1844 244 2591 244 
Q 3113 244 3450 492 
Q 3788 741 3938 1234 
L 4513 1234 
z
" transform="scale(0.015625)"/>
     </defs>
     <use xlink:href="#DejaVuSerif-43"/>
    </g>
   </g>
   <g id="patch_7">
    <path d="M 150.859636 199.293049 
Q 150.859636 170.07223 150.859636 140.851412 
" style="fill: none; stroke: #ff0000; stroke-linecap: round"/>
    <path d="M 152.459636 196.093049 
L 150.859636 199.293049 
L 149.259636 196.093049 
" style="fill: none; stroke: #ff0000; stroke-linecap: round"/>
    <path d="M 149.259636 144.051412 
L 150.859636 140.851412 
L 152.459636 144.051412 
" style="fill: none; stroke: #ff0000; stroke-linecap: round"/>
   </g>
   <g id="text_9">
    <!-- Editing domain -->
    <g style="fill: #ff0000" transform="translate(154.451127 164.066156) scale(0.07 -0.07)">
     <use xlink:href="#DejaVuSerif-Bold-45"/>
     <use xlink:href="#DejaVuSerif-Bold-64" transform="translate(76.220703 0)"/>
     <use xlink:href="#DejaVuSerif-Bold-69" transform="translate(146.142578 0)"/>
     <use xlink:href="#DejaVuSerif-Bold-74" transform="translate(184.130859 0)"/>
     <use xlink:href="#DejaVuSerif-Bold-69" transform="translate(230.322266 0)"/>
     <use xlink:href="#DejaVuSerif-Bold-6e" transform="translate(268.310547 0)"/>
     <use xlink:href="#DejaVuSerif-Bold-67" transform="translate(341.015625 0)"/>
     <use xlink:href="#DejaVuSerif-Bold-20" transform="translate(410.9375 0)"/>
     <use xlink:href="#DejaVuSerif-Bold-64" transform="translate(445.751953 0)"/>
     <use xlink:href="#DejaVuSerif-Bold-6f" transform="translate(515.673828 0)"/>
     <use xlink:href="#DejaVuSerif-Bold-6d" transform="translate(582.373047 0)"/>
     <use xlink:href="#DejaVuSerif-Bold-61" transform="translate(688.183594 0)"/>
     <use xlink:href="#DejaVuSerif-Bold-69" transform="translate(752.978516 0)"/>
     <use xlink:href="#DejaVuSerif-Bold-6e" transform="translate(790.966797 0)"/>
    </g>
    <!-- present only -->
    <g style="fill: #ff0000" transform="translate(154.451127 172.004156) scale(0.07 -0.07)">
     <defs>
      <path id="DejaVuSerif-Bold-70" d="M 1728 1825 
L 1728 1497 
Q 1728 916 1876 656 
Q 2025 397 2356 397 
Q 2697 397 2836 672 
Q 2975 947 2975 1663 
Q 2975 2378 2836 2651 
Q 2697 2925 2356 2925 
Q 2025 2925 1876 2665 
Q 1728 2406 1728 1825 
z
M 622 2944 
L 147 2944 
L 147 3322 
L 1728 3322 
L 1728 2900 
Q 1869 3159 2106 3286 
Q 2344 3413 2694 3413 
Q 3403 3413 3811 2945 
Q 4219 2478 4219 1663 
Q 4219 847 3811 378 
Q 3403 -91 2694 -91 
Q 2344 -91 2106 36 
Q 1869 163 1728 422 
L 1728 -953 
L 2241 -953 
L 2241 -1331 
L 147 -1331 
L 147 -953 
L 622 -953 
L 622 2944 
z
" transform="scale(0.015625)"/>
      <path id="DejaVuSerif-Bold-65" d="M 2566 1875 
Q 2566 2531 2444 2795 
Q 2322 3059 2028 3059 
Q 1744 3059 1620 2800 
Q 1497 2541 1497 1931 
L 1497 1875 
L 2566 1875 
z
M 3781 1503 
L 1497 1503 
L 1497 1478 
Q 1497 834 1690 548 
Q 1884 263 2316 263 
Q 2675 263 2897 453 
Q 3119 644 3181 1006 
L 3700 1006 
Q 3566 441 3166 175 
Q 2766 -91 2047 -91 
Q 1184 -91 723 364 
Q 263 819 263 1663 
Q 263 2488 734 2950 
Q 1206 3413 2047 3413 
Q 2872 3413 3312 2927 
Q 3753 2441 3781 1503 
z
" transform="scale(0.015625)"/>
      <path id="DejaVuSerif-Bold-73" d="M 300 97 
L 300 1025 
L 653 1025 
Q 697 653 931 458 
Q 1166 263 1569 263 
Q 1906 263 2086 380 
Q 2266 497 2266 716 
Q 2266 916 2152 1025 
Q 2038 1134 1709 1216 
L 1253 1331 
Q 738 1459 506 1698 
Q 275 1938 275 2344 
Q 275 2884 650 3148 
Q 1025 3413 1806 3413 
Q 2100 3413 2433 3364 
Q 2766 3316 3169 3213 
L 3169 2375 
L 2816 2375 
Q 2788 2716 2573 2887 
Q 2359 3059 1959 3059 
Q 1622 3059 1448 2951 
Q 1275 2844 1275 2638 
Q 1275 2469 1375 2372 
Q 1475 2275 1734 2209 
L 2188 2094 
Q 2841 1928 3091 1684 
Q 3341 1441 3341 1006 
Q 3341 444 2939 176 
Q 2538 -91 1691 -91 
Q 1381 -91 1034 -44 
Q 688 3 300 97 
z
" transform="scale(0.015625)"/>
     </defs>
     <use xlink:href="#DejaVuSerif-Bold-70"/>
     <use xlink:href="#DejaVuSerif-Bold-72" transform="translate(69.921875 0)"/>
     <use xlink:href="#DejaVuSerif-Bold-65" transform="translate(122.607422 0)"/>
     <use xlink:href="#DejaVuSerif-Bold-73" transform="translate(186.230469 0)"/>
     <use xlink:href="#DejaVuSerif-Bold-65" transform="translate(242.529297 0)"/>
     <use xlink:href="#DejaVuSerif-Bold-6e" transform="translate(306.152344 0)"/>
     <use xlink:href="#DejaVuSerif-Bold-74" transform="translate(378.857422 0)"/>
     <use xlink:href="#DejaVuSerif-Bold-20" transform="translate(425.048828 0)"/>
     <use xlink:href="#DejaVuSerif-Bold-6f" transform="translate(459.863281 0)"/>
     <use xlink:href="#DejaVuSerif-Bold-6e" transform="translate(526.5625 0)"/>
     <use xlink:href="#DejaVuSerif-Bold-6c" transform="translate(599.267578 0)"/>
     <use xlink:href="#DejaVuSerif-Bold-79" transform="translate(637.255859 0)"/>
    </g>
    <!-- in ProRS -->
    <g style="fill: #ff0000" transform="translate(154.451127 179.942156) scale(0.07 -0.07)">
     <use xlink:href="#DejaVuSerif-Bold-69"/>
     <use xlink:href="#DejaVuSerif-Bold-6e" transform="translate(37.988281 0)"/>
     <use xlink:href="#DejaVuSerif-Bold-20" transform="translate(110.693359 0)"/>
     <use xlink:href="#DejaVuSerif-Bold-50" transform="translate(145.507812 0)"/>
     <use xlink:href="#DejaVuSerif-Bold-72" transform="translate(220.703125 0)"/>
     <use xlink:href="#DejaVuSerif-Bold-6f" transform="translate(273.388672 0)"/>
     <use xlink:href="#DejaVuSerif-Bold-52" transform="translate(340.087891 0)"/>
     <use xlink:href="#DejaVuSerif-Bold-53" transform="translate(423.193359 0)"/>
    </g>
   </g>
   <g id="text_10">
    <!-- Domain Architecture Comparison -->
    <g transform="translate(12.14821 24.244594) scale(0.09 -0.09)">
     <defs>
      <path id="DejaVuSerif-Bold-44" d="M 2100 378 
L 2534 378 
Q 3266 378 3605 847 
Q 3944 1316 3944 2338 
Q 3944 3353 3606 3820 
Q 3269 4288 2534 4288 
L 2100 4288 
L 2100 378 
z
M 300 0 
L 300 378 
L 897 378 
L 897 4288 
L 300 4288 
L 300 4666 
L 2694 4666 
Q 3950 4666 4615 4066 
Q 5281 3466 5281 2338 
Q 5281 1203 4614 601 
Q 3947 0 2694 0 
L 300 0 
z
" transform="scale(0.015625)"/>
      <path id="DejaVuSerif-Bold-75" d="M 3963 3322 
L 3963 378 
L 4434 378 
L 4434 0 
L 2853 0 
L 2853 469 
Q 2656 172 2400 40 
Q 2144 -91 1753 -91 
Q 1194 -91 908 239 
Q 622 569 622 1209 
L 622 2944 
L 147 2944 
L 147 3322 
L 1728 3322 
L 1728 1381 
Q 1728 763 1831 595 
Q 1934 428 2209 428 
Q 2544 428 2698 675 
Q 2853 922 2853 1459 
L 2853 2944 
L 2450 2944 
L 2450 3322 
L 3963 3322 
z
" transform="scale(0.015625)"/>
     </defs>
     <use xlink:href="#DejaVuSerif-Bold-44"/>
     <use xlink:href="#DejaVuSerif-Bold-6f" transform="translate(86.71875 0)"/>
     <use xlink:href="#DejaVuSerif-Bold-6d" transform="translate(153.417969 0)"/>
     <use xlink:href="#DejaVuSerif-Bold-61" transform="translate(259.228516 0)"/>
     <use xlink:href="#DejaVuSerif-Bold-69" transform="translate(324.023438 0)"/>
     <use xlink:href="#DejaVuSerif-Bold-6e" transform="translate(362.011719 0)"/>
     <use xlink:href="#DejaVuSerif-Bold-20" transform="translate(434.716797 0)"/>
     <use xlink:href="#DejaVuSerif-Bold-41" transform="translate(469.53125 0)"/>
     <use xlink:href="#DejaVuSerif-Bold-72" transform="translate(547.119141 0)"/>
     <use xlink:href="#DejaVuSerif-Bold-63" transform="translate(599.804688 0)"/>
     <use xlink:href="#DejaVuSerif-Bold-68" transform="translate(660.693359 0)"/>
     <use xlink:href="#DejaVuSerif-Bold-69" transform="translate(733.398438 0)"/>
     <use xlink:href="#DejaVuSerif-Bold-74" transform="translate(771.386719 0)"/>
     <use xlink:href="#DejaVuSerif-Bold-65" transform="translate(817.578125 0)"/>
     <use xlink:href="#DejaVuSerif-Bold-63" transform="translate(881.201172 0)"/>
     <use xlink:href="#DejaVuSerif-Bold-74" transform="translate(942.089844 0)"/>
     <use xlink:href="#DejaVuSerif-Bold-75" transform="translate(988.28125 0)"/>
     <use xlink:href="#DejaVuSerif-Bold-72" transform="translate(1060.986328 0)"/>
     <use xlink:href="#DejaVuSerif-Bold-65" transform="translate(1113.671875 0)"/>
     <use xlink:href="#DejaVuSerif-Bold-20" transform="translate(1177.294922 0)"/>
     <use xlink:href="#DejaVuSerif-Bold-43" transform="translate(1212.109375 0)"/>
     <use xlink:href="#DejaVuSerif-Bold-6f" transform="translate(1291.699219 0)"/>
     <use xlink:href="#DejaVuSerif-Bold-6d" transform="translate(1358.398438 0)"/>
     <use xlink:href="#DejaVuSerif-Bold-70" transform="translate(1464.208984 0)"/>
     <use xlink:href="#DejaVuSerif-Bold-61" transform="translate(1534.130859 0)"/>
     <use xlink:href="#DejaVuSerif-Bold-72" transform="translate(1598.925781 0)"/>
     <use xlink:href="#DejaVuSerif-Bold-69" transform="translate(1651.611328 0)"/>
     <use xlink:href="#DejaVuSerif-Bold-73" transform="translate(1689.599609 0)"/>
     <use xlink:href="#DejaVuSerif-Bold-6f" transform="translate(1745.898438 0)"/>
     <use xlink:href="#DejaVuSerif-Bold-6e" transform="translate(1812.597656 0)"/>
    </g>
   </g>
  </g>
  <g id="axes_2">
   <g id="patch_8">
    <path d="M 252.618545 228.284594 
L 402.264 228.284594 
L 402.264 34.244594 
L 252.618545 34.244594 
z
" style="fill: #ffffff"/>
   </g>
   <g id="matplotlib.axis_1">
    <g id="xtick_1">
     <g id="line2d_1">
      <defs>
       <path id="m16dbde183a" d="M 0 0 
L 0 3.5 
" style="stroke: #000000; stroke-width: 0.5"/>
      </defs>
      <g>
       <use xlink:href="#m16dbde183a" x="289.652017" y="228.284594" style="stroke: #000000; stroke-width: 0.5"/>
      </g>
     </g>
     <g id="text_11">
      <!-- PRO -->
      <g transform="translate(280.669517 241.363344) scale(0.08 -0.08)">
       <defs>
        <path id="DejaVuSerif-50" d="M 1581 2375 
L 2406 2375 
Q 2872 2375 3115 2626 
Q 3359 2878 3359 3353 
Q 3359 3831 3115 4081 
Q 2872 4331 2406 4331 
L 1581 4331 
L 1581 2375 
z
M 353 0 
L 353 331 
L 947 331 
L 947 4331 
L 353 4331 
L 353 4666 
L 2559 4666 
Q 3259 4666 3668 4311 
Q 4078 3956 4078 3353 
Q 4078 2753 3668 2397 
Q 3259 2041 2559 2041 
L 1581 2041 
L 1581 331 
L 2303 331 
L 2303 0 
L 353 0 
z
" transform="scale(0.015625)"/>
        <path id="DejaVuSerif-52" d="M 3066 2316 
Q 3284 2256 3442 2114 
Q 3600 1972 3725 1716 
L 4403 331 
L 4972 331 
L 4972 0 
L 3872 0 
L 3144 1484 
Q 2934 1916 2759 2042 
Q 2584 2169 2278 2169 
L 1581 2169 
L 1581 331 
L 2241 331 
L 2241 0 
L 353 0 
L 353 331 
L 947 331 
L 947 4331 
L 353 4331 
L 353 4666 
L 2719 4666 
Q 3400 4666 3770 4341 
Q 4141 4016 4141 3419 
Q 4141 2938 3870 2661 
Q 3600 2384 3066 2316 
z
M 1581 2503 
L 2503 2503 
Q 2975 2503 3200 2726 
Q 3425 2950 3425 3419 
Q 3425 3888 3200 4109 
Q 2975 4331 2503 4331 
L 1581 4331 
L 1581 2503 
z
" transform="scale(0.015625)"/>
        <path id="DejaVuSerif-4f" d="M 2625 244 
Q 3391 244 3781 770 
Q 4172 1297 4172 2328 
Q 4172 3363 3781 3889 
Q 3391 4416 2625 4416 
Q 1856 4416 1465 3889 
Q 1075 3363 1075 2328 
Q 1075 1297 1465 770 
Q 1856 244 2625 244 
z
M 2625 -91 
Q 2150 -91 1751 65 
Q 1353 222 1050 525 
Q 700 875 529 1319 
Q 359 1763 359 2328 
Q 359 2894 529 3339 
Q 700 3784 1050 4134 
Q 1356 4441 1750 4595 
Q 2144 4750 2625 4750 
Q 3641 4750 4266 4084 
Q 4891 3419 4891 2328 
Q 4891 1769 4719 1320 
Q 4547 872 4197 525 
Q 3891 219 3497 64 
Q 3103 -91 2625 -91 
z
" transform="scale(0.015625)"/>
       </defs>
       <use xlink:href="#DejaVuSerif-50"/>
       <use xlink:href="#DejaVuSerif-52" transform="translate(67.285156 0)"/>
       <use xlink:href="#DejaVuSerif-4f" transform="translate(142.578125 0)"/>
      </g>
     </g>
    </g>
    <g id="xtick_2">
     <g id="line2d_2">
      <g>
       <use xlink:href="#m16dbde183a" x="365.230529" y="228.284594" style="stroke: #000000; stroke-width: 0.5"/>
      </g>
     </g>
     <g id="text_12">
      <!-- THR -->
      <g transform="translate(356.062404 241.363344) scale(0.08 -0.08)">
       <defs>
        <path id="DejaVuSerif-54" d="M 1222 0 
L 1222 331 
L 1819 331 
L 1819 4294 
L 447 4294 
L 447 3566 
L 63 3566 
L 63 4666 
L 4206 4666 
L 4206 3566 
L 3822 3566 
L 3822 4294 
L 2450 4294 
L 2450 331 
L 3047 331 
L 3047 0 
L 1222 0 
z
" transform="scale(0.015625)"/>
        <path id="DejaVuSerif-48" d="M 353 0 
L 353 331 
L 947 331 
L 947 4331 
L 353 4331 
L 353 4666 
L 2175 4666 
L 2175 4331 
L 1581 4331 
L 1581 2719 
L 4000 2719 
L 4000 4331 
L 3406 4331 
L 3406 4666 
L 5228 4666 
L 5228 4331 
L 4634 4331 
L 4634 331 
L 5228 331 
L 5228 0 
L 3406 0 
L 3406 331 
L 4000 331 
L 4000 2338 
L 1581 2338 
L 1581 331 
L 2175 331 
L 2175 0 
L 353 0 
z
" transform="scale(0.015625)"/>
       </defs>
       <use xlink:href="#DejaVuSerif-54"/>
       <use xlink:href="#DejaVuSerif-48" transform="translate(66.699219 0)"/>
       <use xlink:href="#DejaVuSerif-52" transform="translate(153.90625 0)"/>
      </g>
     </g>
    </g>
   </g>
   <g id="matplotlib.axis_2">
    <g id="ytick_1">
     <g id="line2d_3">
      <path d="M 252.618545 228.284594 
L 402.264 228.284594 
" clip-path="url(#pb0353127dd)" style="fill: none; stroke-dasharray: 1.85,0.8; stroke-dashoffset: 0; stroke: #b0b0b0; stroke-opacity: 0.3; stroke-width: 0.5"/>
     </g>
     <g id="line2d_4">
      <defs>
       <path id="mc7a7d5466c" d="M 0 0 
L -3.5 0 
" style="stroke: #000000; stroke-width: 0.5"/>
      </defs>
      <g>
       <use xlink:href="#mc7a7d5466c" x="252.618545" y="228.284594" style="stroke: #000000; stroke-width: 0.5"/>
      </g>
     </g>
     <g id="text_13">
      <!-- 0.0 -->
      <g transform="translate(232.896045 231.323969) scale(0.08 -0.08)">
       <defs>
        <path id="DejaVuSerif-30" d="M 2034 219 
Q 2513 219 2750 744 
Q 2988 1269 2988 2328 
Q 2988 3391 2750 3916 
Q 2513 4441 2034 4441 
Q 1556 4441 1318 3916 
Q 1081 3391 1081 2328 
Q 1081 1269 1318 744 
Q 1556 219 2034 219 
z
M 2034 -91 
Q 1275 -91 848 546 
Q 422 1184 422 2328 
Q 422 3475 848 4112 
Q 1275 4750 2034 4750 
Q 2797 4750 3222 4112 
Q 3647 3475 3647 2328 
Q 3647 1184 3222 546 
Q 2797 -91 2034 -91 
z
" transform="scale(0.015625)"/>
        <path id="DejaVuSerif-2e" d="M 603 325 
Q 603 500 722 622 
Q 841 744 1019 744 
Q 1191 744 1312 622 
Q 1434 500 1434 325 
Q 1434 153 1312 31 
Q 1191 -91 1019 -91 
Q 841 -91 722 29 
Q 603 150 603 325 
z
" transform="scale(0.015625)"/>
       </defs>
       <use xlink:href="#DejaVuSerif-30"/>
       <use xlink:href="#DejaVuSerif-2e" transform="translate(63.623047 0)"/>
       <use xlink:href="#DejaVuSerif-30" transform="translate(95.410156 0)"/>
      </g>
     </g>
    </g>
    <g id="ytick_2">
     <g id="line2d_5">
      <path d="M 252.618545 195.944594 
L 402.264 195.944594 
" clip-path="url(#pb0353127dd)" style="fill: none; stroke-dasharray: 1.85,0.8; stroke-dashoffset: 0; stroke: #b0b0b0; stroke-opacity: 0.3; stroke-width: 0.5"/>
     </g>
     <g id="line2d_6">
      <g>
       <use xlink:href="#mc7a7d5466c" x="252.618545" y="195.944594" style="stroke: #000000; stroke-width: 0.5"/>
      </g>
     </g>
     <g id="text_14">
      <!-- 0.1 -->
      <g transform="translate(232.896045 198.983969) scale(0.08 -0.08)">
       <defs>
        <path id="DejaVuSerif-31" d="M 909 0 
L 909 331 
L 1722 331 
L 1722 4213 
L 781 3603 
L 781 4013 
L 1919 4750 
L 2350 4750 
L 2350 331 
L 3163 331 
L 3163 0 
L 909 0 
z
" transform="scale(0.015625)"/>
       </defs>
       <use xlink:href="#DejaVuSerif-30"/>
       <use xlink:href="#DejaVuSerif-2e" transform="translate(63.623047 0)"/>
       <use xlink:href="#DejaVuSerif-31" transform="translate(95.410156 0)"/>
      </g>
     </g>
    </g>
    <g id="ytick_3">
     <g id="line2d_7">
      <path d="M 252.618545 163.604594 
L 402.264 163.604594 
" clip-path="url(#pb0353127dd)" style="fill: none; stroke-dasharray: 1.85,0.8; stroke-dashoffset: 0; stroke: #b0b0b0; stroke-opacity: 0.3; stroke-width: 0.5"/>
     </g>
     <g id="line2d_8">
      <g>
       <use xlink:href="#mc7a7d5466c" x="252.618545" y="163.604594" style="stroke: #000000; stroke-width: 0.5"/>
      </g>
     </g>
     <g id="text_15">
      <!-- 0.2 -->
      <g transform="translate(232.896045 166.643969) scale(0.08 -0.08)">
       <defs>
        <path id="DejaVuSerif-32" d="M 819 3553 
L 469 3553 
L 469 4384 
Q 803 4563 1142 4656 
Q 1481 4750 1806 4750 
Q 2534 4750 2956 4397 
Q 3378 4044 3378 3438 
Q 3378 2753 2422 1800 
Q 2347 1728 2309 1691 
L 1131 513 
L 3078 513 
L 3078 1088 
L 3444 1088 
L 3444 0 
L 434 0 
L 434 341 
L 1850 1753 
Q 2319 2222 2519 2614 
Q 2719 3006 2719 3438 
Q 2719 3909 2473 4175 
Q 2228 4441 1797 4441 
Q 1350 4441 1106 4219 
Q 863 3997 819 3553 
z
" transform="scale(0.015625)"/>
       </defs>
       <use xlink:href="#DejaVuSerif-30"/>
       <use xlink:href="#DejaVuSerif-2e" transform="translate(63.623047 0)"/>
       <use xlink:href="#DejaVuSerif-32" transform="translate(95.410156 0)"/>
      </g>
     </g>
    </g>
    <g id="ytick_4">
     <g id="line2d_9">
      <path d="M 252.618545 131.264594 
L 402.264 131.264594 
" clip-path="url(#pb0353127dd)" style="fill: none; stroke-dasharray: 1.85,0.8; stroke-dashoffset: 0; stroke: #b0b0b0; stroke-opacity: 0.3; stroke-width: 0.5"/>
     </g>
     <g id="line2d_10">
      <g>
       <use xlink:href="#mc7a7d5466c" x="252.618545" y="131.264594" style="stroke: #000000; stroke-width: 0.5"/>
      </g>
     </g>
     <g id="text_16">
      <!-- 0.3 -->
      <g transform="translate(232.896045 134.303969) scale(0.08 -0.08)">
       <defs>
        <path id="DejaVuSerif-33" d="M 622 4469 
Q 988 4606 1323 4678 
Q 1659 4750 1953 4750 
Q 2638 4750 3022 4454 
Q 3406 4159 3406 3634 
Q 3406 3213 3140 2930 
Q 2875 2647 2388 2547 
Q 2963 2466 3280 2130 
Q 3597 1794 3597 1259 
Q 3597 606 3158 257 
Q 2719 -91 1894 -91 
Q 1528 -91 1179 -12 
Q 831 66 488 225 
L 488 1131 
L 838 1131 
Q 869 681 1141 450 
Q 1413 219 1906 219 
Q 2384 219 2661 495 
Q 2938 772 2938 1253 
Q 2938 1803 2653 2086 
Q 2369 2369 1819 2369 
L 1522 2369 
L 1522 2688 
L 1678 2688 
Q 2225 2688 2498 2914 
Q 2772 3141 2772 3597 
Q 2772 4006 2547 4223 
Q 2322 4441 1900 4441 
Q 1478 4441 1245 4241 
Q 1013 4041 972 3647 
L 622 3647 
L 622 4469 
z
" transform="scale(0.015625)"/>
       </defs>
       <use xlink:href="#DejaVuSerif-30"/>
       <use xlink:href="#DejaVuSerif-2e" transform="translate(63.623047 0)"/>
       <use xlink:href="#DejaVuSerif-33" transform="translate(95.410156 0)"/>
      </g>
     </g>
    </g>
    <g id="ytick_5">
     <g id="line2d_11">
      <path d="M 252.618545 98.924594 
L 402.264 98.924594 
" clip-path="url(#pb0353127dd)" style="fill: none; stroke-dasharray: 1.85,0.8; stroke-dashoffset: 0; stroke: #b0b0b0; stroke-opacity: 0.3; stroke-width: 0.5"/>
     </g>
     <g id="line2d_12">
      <g>
       <use xlink:href="#mc7a7d5466c" x="252.618545" y="98.924594" style="stroke: #000000; stroke-width: 0.5"/>
      </g>
     </g>
     <g id="text_17">
      <!-- 0.4 -->
      <g transform="translate(232.896045 101.963969) scale(0.08 -0.08)">
       <defs>
        <path id="DejaVuSerif-34" d="M 2234 1581 
L 2234 4063 
L 641 1581 
L 2234 1581 
z
M 3609 0 
L 1484 0 
L 1484 331 
L 2234 331 
L 2234 1247 
L 197 1247 
L 197 1588 
L 2241 4750 
L 2859 4750 
L 2859 1581 
L 3750 1581 
L 3750 1247 
L 2859 1247 
L 2859 331 
L 3609 331 
L 3609 0 
z
" transform="scale(0.015625)"/>
       </defs>
       <use xlink:href="#DejaVuSerif-30"/>
       <use xlink:href="#DejaVuSerif-2e" transform="translate(63.623047 0)"/>
       <use xlink:href="#DejaVuSerif-34" transform="translate(95.410156 0)"/>
      </g>
     </g>
    </g>
    <g id="ytick_6">
     <g id="line2d_13">
      <path d="M 252.618545 66.584594 
L 402.264 66.584594 
" clip-path="url(#pb0353127dd)" style="fill: none; stroke-dasharray: 1.85,0.8; stroke-dashoffset: 0; stroke: #b0b0b0; stroke-opacity: 0.3; stroke-width: 0.5"/>
     </g>
     <g id="line2d_14">
      <g>
       <use xlink:href="#mc7a7d5466c" x="252.618545" y="66.584594" style="stroke: #000000; stroke-width: 0.5"/>
      </g>
     </g>
     <g id="text_18">
      <!-- 0.5 -->
      <g transform="translate(232.896045 69.623969) scale(0.08 -0.08)">
       <defs>
        <path id="DejaVuSerif-35" d="M 3219 4666 
L 3219 4153 
L 1081 4153 
L 1081 2816 
Q 1244 2928 1461 2984 
Q 1678 3041 1947 3041 
Q 2703 3041 3140 2622 
Q 3578 2203 3578 1478 
Q 3578 738 3136 323 
Q 2694 -91 1894 -91 
Q 1572 -91 1234 -12 
Q 897 66 544 225 
L 544 1131 
L 897 1131 
Q 925 688 1179 453 
Q 1434 219 1894 219 
Q 2388 219 2653 544 
Q 2919 869 2919 1478 
Q 2919 2084 2655 2407 
Q 2391 2731 1894 2731 
Q 1613 2731 1398 2631 
Q 1184 2531 1019 2322 
L 750 2322 
L 750 4666 
L 3219 4666 
z
" transform="scale(0.015625)"/>
       </defs>
       <use xlink:href="#DejaVuSerif-30"/>
       <use xlink:href="#DejaVuSerif-2e" transform="translate(63.623047 0)"/>
       <use xlink:href="#DejaVuSerif-35" transform="translate(95.410156 0)"/>
      </g>
     </g>
    </g>
    <g id="ytick_7">
     <g id="line2d_15">
      <path d="M 252.618545 34.244594 
L 402.264 34.244594 
" clip-path="url(#pb0353127dd)" style="fill: none; stroke-dasharray: 1.85,0.8; stroke-dashoffset: 0; stroke: #b0b0b0; stroke-opacity: 0.3; stroke-width: 0.5"/>
     </g>
     <g id="line2d_16">
      <g>
       <use xlink:href="#mc7a7d5466c" x="252.618545" y="34.244594" style="stroke: #000000; stroke-width: 0.5"/>
      </g>
     </g>
     <g id="text_19">
      <!-- 0.6 -->
      <g transform="translate(232.896045 37.283969) scale(0.08 -0.08)">
       <defs>
        <path id="DejaVuSerif-36" d="M 2094 219 
Q 2534 219 2771 542 
Q 3009 866 3009 1472 
Q 3009 2078 2771 2401 
Q 2534 2725 2094 2725 
Q 1647 2725 1412 2412 
Q 1178 2100 1178 1509 
Q 1178 888 1415 553 
Q 1653 219 2094 219 
z
M 1075 2569 
Q 1288 2803 1556 2918 
Q 1825 3034 2163 3034 
Q 2859 3034 3264 2615 
Q 3669 2197 3669 1472 
Q 3669 763 3233 336 
Q 2797 -91 2069 -91 
Q 1278 -91 853 498 
Q 428 1088 428 2181 
Q 428 3406 931 4078 
Q 1434 4750 2350 4750 
Q 2597 4750 2869 4703 
Q 3141 4656 3425 4563 
L 3425 3794 
L 3072 3794 
Q 3034 4109 2831 4275 
Q 2628 4441 2284 4441 
Q 1678 4441 1381 3981 
Q 1084 3522 1075 2569 
z
" transform="scale(0.015625)"/>
       </defs>
       <use xlink:href="#DejaVuSerif-30"/>
       <use xlink:href="#DejaVuSerif-2e" transform="translate(63.623047 0)"/>
       <use xlink:href="#DejaVuSerif-36" transform="translate(95.410156 0)"/>
      </g>
     </g>
    </g>
    <g id="text_20">
     <!-- ipTM score -->
     <g transform="translate(227.232295 154.119594) rotate(-90) scale(0.08 -0.08)">
      <defs>
       <path id="DejaVuSerif-70" d="M 1313 1825 
L 1313 1497 
Q 1313 897 1542 583 
Q 1772 269 2209 269 
Q 2650 269 2876 622 
Q 3103 975 3103 1663 
Q 3103 2353 2876 2703 
Q 2650 3053 2209 3053 
Q 1772 3053 1542 2737 
Q 1313 2422 1313 1825 
z
M 738 2988 
L 184 2988 
L 184 3322 
L 1313 3322 
L 1313 2803 
Q 1481 3116 1742 3264 
Q 2003 3413 2388 3413 
Q 3000 3413 3387 2928 
Q 3775 2444 3775 1663 
Q 3775 881 3387 395 
Q 3000 -91 2388 -91 
Q 2003 -91 1742 57 
Q 1481 206 1313 519 
L 1313 -997 
L 1856 -997 
L 1856 -1331 
L 184 -1331 
L 184 -997 
L 738 -997 
L 738 2988 
z
" transform="scale(0.015625)"/>
       <path id="DejaVuSerif-4d" d="M 353 0 
L 353 331 
L 947 331 
L 947 4331 
L 319 4331 
L 319 4666 
L 1678 4666 
L 3316 1344 
L 4953 4666 
L 6228 4666 
L 6228 4331 
L 5606 4331 
L 5606 331 
L 6203 331 
L 6203 0 
L 4378 0 
L 4378 331 
L 4972 331 
L 4972 3938 
L 3372 684 
L 2931 684 
L 1331 3938 
L 1331 331 
L 1925 331 
L 1925 0 
L 353 0 
z
" transform="scale(0.015625)"/>
       <path id="DejaVuSerif-20" transform="scale(0.015625)"/>
       <path id="DejaVuSerif-73" d="M 359 184 
L 359 959 
L 691 959 
Q 703 588 923 403 
Q 1144 219 1575 219 
Q 1963 219 2166 364 
Q 2369 509 2369 788 
Q 2369 1006 2220 1140 
Q 2072 1275 1594 1428 
L 1178 1569 
Q 750 1706 558 1912 
Q 366 2119 366 2438 
Q 366 2894 700 3153 
Q 1034 3413 1625 3413 
Q 1888 3413 2178 3344 
Q 2469 3275 2778 3144 
L 2778 2419 
L 2447 2419 
Q 2434 2741 2221 2922 
Q 2009 3103 1644 3103 
Q 1281 3103 1095 2975 
Q 909 2847 909 2591 
Q 909 2381 1050 2254 
Q 1191 2128 1613 1997 
L 2069 1856 
Q 2541 1709 2748 1489 
Q 2956 1269 2956 922 
Q 2956 450 2595 179 
Q 2234 -91 1600 -91 
Q 1278 -91 972 -22 
Q 666 47 359 184 
z
" transform="scale(0.015625)"/>
       <path id="DejaVuSerif-63" d="M 3291 997 
Q 3169 466 2822 187 
Q 2475 -91 1925 -91 
Q 1200 -91 759 389 
Q 319 869 319 1663 
Q 319 2459 759 2936 
Q 1200 3413 1925 3413 
Q 2241 3413 2553 3339 
Q 2866 3266 3181 3116 
L 3181 2266 
L 2847 2266 
Q 2781 2703 2561 2903 
Q 2341 3103 1931 3103 
Q 1466 3103 1228 2742 
Q 991 2381 991 1663 
Q 991 944 1227 581 
Q 1463 219 1931 219 
Q 2303 219 2525 412 
Q 2747 606 2828 997 
L 3291 997 
z
" transform="scale(0.015625)"/>
       <path id="DejaVuSerif-6f" d="M 1925 219 
Q 2388 219 2623 584 
Q 2859 950 2859 1663 
Q 2859 2375 2623 2739 
Q 2388 3103 1925 3103 
Q 1463 3103 1227 2739 
Q 991 2375 991 1663 
Q 991 950 1228 584 
Q 1466 219 1925 219 
z
M 1925 -91 
Q 1200 -91 759 389 
Q 319 869 319 1663 
Q 319 2456 758 2934 
Q 1197 3413 1925 3413 
Q 2653 3413 3092 2934 
Q 3531 2456 3531 1663 
Q 3531 869 3092 389 
Q 2653 -91 1925 -91 
z
" transform="scale(0.015625)"/>
      </defs>
      <use xlink:href="#DejaVuSerif-69"/>
      <use xlink:href="#DejaVuSerif-70" transform="translate(31.982422 0)"/>
      <use xlink:href="#DejaVuSerif-54" transform="translate(95.996094 0)"/>
      <use xlink:href="#DejaVuSerif-4d" transform="translate(162.695312 0)"/>
      <use xlink:href="#DejaVuSerif-20" transform="translate(265.087891 0)"/>
      <use xlink:href="#DejaVuSerif-73" transform="translate(296.875 0)"/>
      <use xlink:href="#DejaVuSerif-63" transform="translate(348.193359 0)"/>
      <use xlink:href="#DejaVuSerif-6f" transform="translate(404.199219 0)"/>
      <use xlink:href="#DejaVuSerif-72" transform="translate(464.404297 0)"/>
      <use xlink:href="#DejaVuSerif-65" transform="translate(512.207031 0)"/>
     </g>
    </g>
   </g>
   <g id="patch_9">
    <path d="M 259.420612 228.284594 
L 319.883421 228.284594 
L 319.883421 183.008594 
L 259.420612 183.008594 
z
" clip-path="url(#pb0353127dd)" style="fill: #2e5c8a; stroke: #000000; stroke-width: 0.5; stroke-linejoin: miter"/>
   </g>
   <g id="patch_10">
    <path d="M 334.999124 228.284594 
L 395.461934 228.284594 
L 395.461934 82.754594 
L 334.999124 82.754594 
z
" clip-path="url(#pb0353127dd)" style="fill: #8b8b8b; stroke: #000000; stroke-width: 0.5; stroke-linejoin: miter"/>
   </g>
   <g id="LineCollection_1">
    <path d="M 289.652017 189.476594 
L 289.652017 176.540594 
" clip-path="url(#pb0353127dd)" style="fill: none; stroke: #000000; stroke-width: 0.5"/>
    <path d="M 365.230529 92.456594 
L 365.230529 73.052594 
" clip-path="url(#pb0353127dd)" style="fill: none; stroke: #000000; stroke-width: 0.5"/>
   </g>
   <g id="line2d_17">
    <defs>
     <path id="m73e23d4163" d="M 3 0 
L -3 -0 
" style="stroke: #000000"/>
    </defs>
    <g clip-path="url(#pb0353127dd)">
     <use xlink:href="#m73e23d4163" x="289.652017" y="189.476594" style="fill: #1f77b4; stroke: #000000"/>
     <use xlink:href="#m73e23d4163" x="365.230529" y="92.456594" style="fill: #1f77b4; stroke: #000000"/>
    </g>
   </g>
   <g id="line2d_18">
    <g clip-path="url(#pb0353127dd)">
     <use xlink:href="#m73e23d4163" x="289.652017" y="176.540594" style="fill: #1f77b4; stroke: #000000"/>
     <use xlink:href="#m73e23d4163" x="365.230529" y="73.052594" style="fill: #1f77b4; stroke: #000000"/>
    </g>
   </g>
   <g id="patch_11">
    <path d="M 252.618545 228.284594 
L 252.618545 34.244594 
" style="fill: none; stroke: #000000; stroke-width: 0.5; stroke-linejoin: miter; stroke-linecap: square"/>
   </g>
   <g id="patch_12">
    <path d="M 402.264 228.284594 
L 402.264 34.244594 
" style="fill: none; stroke: #000000; stroke-width: 0.5; stroke-linejoin: miter; stroke-linecap: square"/>
   </g>
   <g id="patch_13">
    <path d="M 252.618545 228.284594 
L 402.264 228.284594 
" style="fill: none; stroke: #000000; stroke-width: 0.5; stroke-linejoin: miter; stroke-linecap: square"/>
   </g>
   <g id="patch_14">
    <path d="M 252.618545 34.244594 
L 402.264 34.244594 
" style="fill: none; stroke: #000000; stroke-width: 0.5; stroke-linejoin: miter; stroke-linecap: square"/>
   </g>
   <g id="text_21">
    <!-- B -->
    <g transform="translate(255.611455 47.243519) scale(0.12 -0.12)">
     <defs>
      <path id="DejaVuSerif-Bold-42" d="M 300 0 
L 300 378 
L 897 378 
L 897 4288 
L 300 4288 
L 300 4666 
L 3066 4666 
Q 3919 4666 4347 4378 
Q 4775 4091 4775 3513 
Q 4775 3097 4479 2853 
Q 4184 2609 3603 2547 
Q 4306 2481 4681 2172 
Q 5056 1863 5056 1350 
Q 5056 656 4532 328 
Q 4009 0 2894 0 
L 300 0 
z
M 2100 2719 
L 2509 2719 
Q 3047 2719 3306 2914 
Q 3566 3109 3566 3513 
Q 3566 3919 3314 4103 
Q 3063 4288 2509 4288 
L 2100 4288 
L 2100 2719 
z
M 2100 378 
L 2547 378 
Q 3144 378 3431 615 
Q 3719 853 3719 1350 
Q 3719 1850 3428 2097 
Q 3138 2344 2547 2344 
L 2100 2344 
L 2100 378 
z
" transform="scale(0.015625)"/>
     </defs>
     <use xlink:href="#DejaVuSerif-Bold-42"/>
    </g>
   </g>
   <g id="text_22">
    <g id="patch_15">
     <path d="M 288.05807 81.563281 
L 366.824476 81.563281 
Q 370.324476 81.563281 370.324476 78.063281 
L 370.324476 63.251062 
Q 370.324476 59.751062 366.824476 59.751062 
L 288.05807 59.751062 
Q 284.55807 59.751062 284.55807 63.251062 
L 284.55807 78.063281 
Q 284.55807 81.563281 288.05807 81.563281 
z
" style="fill: #ffff00; opacity: 0.3; stroke: #000000; stroke-width: 0.5; stroke-linejoin: miter"/>
    </g>
    <!-- Inverted specificity! -->
    <g style="fill: #ff0000" transform="translate(288.05807 68.6695) scale(0.07 -0.07)">
     <defs>
      <path id="DejaVuSerif-Bold-49" d="M 300 0 
L 300 378 
L 897 378 
L 897 4288 
L 300 4288 
L 300 4666 
L 2700 4666 
L 2700 4288 
L 2100 4288 
L 2100 378 
L 2700 378 
L 2700 0 
L 300 0 
z
" transform="scale(0.015625)"/>
      <path id="DejaVuSerif-Bold-76" d="M 1428 0 
L 250 2944 
L -116 2944 
L -116 3322 
L 1791 3322 
L 1791 2944 
L 1388 2944 
L 2228 844 
L 3066 2944 
L 2631 2944 
L 2631 3322 
L 3878 3322 
L 3878 2944 
L 3494 2944 
L 2316 0 
L 1428 0 
z
" transform="scale(0.015625)"/>
      <path id="DejaVuSerif-Bold-66" d="M 3097 4031 
L 2747 4031 
Q 2722 4275 2605 4394 
Q 2488 4513 2272 4513 
Q 2022 4513 1909 4333 
Q 1797 4153 1797 3750 
L 1797 3322 
L 2631 3322 
L 2631 2944 
L 1797 2944 
L 1797 378 
L 2438 378 
L 2438 0 
L 219 0 
L 219 378 
L 691 378 
L 691 2944 
L 197 2944 
L 197 3322 
L 691 3322 
L 691 3738 
Q 691 4291 1044 4577 
Q 1397 4863 2081 4863 
Q 2347 4863 2600 4833 
Q 2853 4803 3097 4744 
L 3097 4031 
z
" transform="scale(0.015625)"/>
      <path id="DejaVuSerif-Bold-21" d="M 813 506 
Q 813 750 986 925 
Q 1159 1100 1403 1100 
Q 1647 1100 1822 925 
Q 1997 750 1997 506 
Q 1997 259 1822 84 
Q 1647 -91 1403 -91 
Q 1159 -91 986 84 
Q 813 259 813 506 
z
M 819 4666 
L 1991 4666 
L 1619 2034 
L 1619 1441 
L 1184 1441 
L 1184 2034 
L 819 4666 
z
" transform="scale(0.015625)"/>
     </defs>
     <use xlink:href="#DejaVuSerif-Bold-49"/>
     <use xlink:href="#DejaVuSerif-Bold-6e" transform="translate(46.777344 0)"/>
     <use xlink:href="#DejaVuSerif-Bold-76" transform="translate(119.482422 0)"/>
     <use xlink:href="#DejaVuSerif-Bold-65" transform="translate(177.587891 0)"/>
     <use xlink:href="#DejaVuSerif-Bold-72" transform="translate(241.210938 0)"/>
     <use xlink:href="#DejaVuSerif-Bold-74" transform="translate(293.896484 0)"/>
     <use xlink:href="#DejaVuSerif-Bold-65" transform="translate(340.087891 0)"/>
     <use xlink:href="#DejaVuSerif-Bold-64" transform="translate(403.710938 0)"/>
     <use xlink:href="#DejaVuSerif-Bold-20" transform="translate(473.632812 0)"/>
     <use xlink:href="#DejaVuSerif-Bold-73" transform="translate(508.447266 0)"/>
     <use xlink:href="#DejaVuSerif-Bold-70" transform="translate(564.746094 0)"/>
     <use xlink:href="#DejaVuSerif-Bold-65" transform="translate(634.667969 0)"/>
     <use xlink:href="#DejaVuSerif-Bold-63" transform="translate(698.291016 0)"/>
     <use xlink:href="#DejaVuSerif-Bold-69" transform="translate(759.179688 0)"/>
     <use xlink:href="#DejaVuSerif-Bold-66" transform="translate(797.167969 0)"/>
     <use xlink:href="#DejaVuSerif-Bold-69" transform="translate(840.185547 0)"/>
     <use xlink:href="#DejaVuSerif-Bold-63" transform="translate(878.173828 0)"/>
     <use xlink:href="#DejaVuSerif-Bold-69" transform="translate(939.0625 0)"/>
     <use xlink:href="#DejaVuSerif-Bold-74" transform="translate(977.050781 0)"/>
     <use xlink:href="#DejaVuSerif-Bold-79" transform="translate(1023.242188 0)"/>
     <use xlink:href="#DejaVuSerif-Bold-21" transform="translate(1081.347656 0)"/>
    </g>
    <!-- THR &gt; PRO -->
    <g style="fill: #ff0000" transform="translate(304.661195 76.6075) scale(0.07 -0.07)">
     <defs>
      <path id="DejaVuSerif-Bold-48" d="M 300 0 
L 300 378 
L 897 378 
L 897 4288 
L 300 4288 
L 300 4666 
L 2700 4666 
L 2700 4288 
L 2100 4288 
L 2100 2719 
L 3956 2719 
L 3956 4288 
L 3359 4288 
L 3359 4666 
L 5759 4666 
L 5759 4288 
L 5159 4288 
L 5159 378 
L 5759 378 
L 5759 0 
L 3359 0 
L 3359 378 
L 3956 378 
L 3956 2291 
L 2100 2291 
L 2100 378 
L 2700 378 
L 2700 0 
L 300 0 
z
" transform="scale(0.015625)"/>
      <path id="DejaVuSerif-Bold-3e" d="M 678 3059 
L 678 3809 
L 4684 2363 
L 4684 1656 
L 678 206 
L 678 953 
L 3738 2003 
L 678 3059 
z
" transform="scale(0.015625)"/>
      <path id="DejaVuSerif-Bold-4f" d="M 2784 288 
Q 3381 288 3672 791 
Q 3963 1294 3963 2328 
Q 3963 3366 3672 3869 
Q 3381 4372 2784 4372 
Q 2191 4372 1898 3864 
Q 1606 3356 1606 2328 
Q 1606 1303 1898 795 
Q 2191 288 2784 288 
z
M 2784 -91 
Q 1606 -91 937 553 
Q 269 1197 269 2328 
Q 269 3459 939 4104 
Q 1609 4750 2784 4750 
Q 3963 4750 4631 4106 
Q 5300 3463 5300 2328 
Q 5300 1197 4629 553 
Q 3959 -91 2784 -91 
z
" transform="scale(0.015625)"/>
     </defs>
     <use xlink:href="#DejaVuSerif-Bold-54"/>
     <use xlink:href="#DejaVuSerif-Bold-48" transform="translate(74.414062 0)"/>
     <use xlink:href="#DejaVuSerif-Bold-52" transform="translate(168.896484 0)"/>
     <use xlink:href="#DejaVuSerif-Bold-20" transform="translate(252.001953 0)"/>
     <use xlink:href="#DejaVuSerif-Bold-3e" transform="translate(286.816406 0)"/>
     <use xlink:href="#DejaVuSerif-Bold-20" transform="translate(370.605469 0)"/>
     <use xlink:href="#DejaVuSerif-Bold-50" transform="translate(405.419922 0)"/>
     <use xlink:href="#DejaVuSerif-Bold-52" transform="translate(480.615234 0)"/>
     <use xlink:href="#DejaVuSerif-Bold-4f" transform="translate(563.720703 0)"/>
    </g>
   </g>
   <g id="text_23">
    <g id="patch_16">
     <path d="M 298.082835 111.033281 
L 356.79971 111.033281 
Q 358.89971 111.033281 358.89971 108.933281 
L 358.89971 102.158594 
Q 358.89971 100.058594 356.79971 100.058594 
L 298.082835 100.058594 
Q 295.982835 100.058594 295.982835 102.158594 
L 295.982835 108.933281 
Q 295.982835 111.033281 298.082835 111.033281 
z
" style="fill: #f5deb3; opacity: 0.3; stroke: #000000; stroke-width: 0.5; stroke-linejoin: miter"/>
    </g>
    <!-- THR/PRO: 321% -->
    <g transform="translate(298.082835 107.4775) scale(0.07 -0.07)">
     <defs>
      <path id="DejaVuSerif-2f" d="M 1656 4666 
L 2156 4666 
L 500 -594 
L 0 -594 
L 1656 4666 
z
" transform="scale(0.015625)"/>
      <path id="DejaVuSerif-3a" d="M 666 325 
Q 666 500 786 622 
Q 906 744 1081 744 
Q 1256 744 1376 622 
Q 1497 500 1497 325 
Q 1497 150 1378 29 
Q 1259 -91 1081 -91 
Q 903 -91 784 29 
Q 666 150 666 325 
z
M 666 2363 
Q 666 2538 786 2658 
Q 906 2778 1081 2778 
Q 1259 2778 1378 2659 
Q 1497 2541 1497 2363 
Q 1497 2184 1378 2065 
Q 1259 1947 1081 1947 
Q 906 1947 786 2067 
Q 666 2188 666 2363 
z
" transform="scale(0.015625)"/>
      <path id="DejaVuSerif-25" d="M 1434 4459 
Q 1159 4459 1004 4200 
Q 850 3941 850 3475 
Q 850 3016 1008 2753 
Q 1166 2491 1434 2491 
Q 1700 2491 1854 2752 
Q 2009 3013 2009 3475 
Q 2009 3938 1854 4198 
Q 1700 4459 1434 4459 
z
M 4653 2169 
Q 4381 2169 4226 1906 
Q 4072 1644 4072 1178 
Q 4072 719 4228 458 
Q 4384 197 4653 197 
Q 4922 197 5075 458 
Q 5228 719 5228 1178 
Q 5228 1641 5073 1905 
Q 4919 2169 4653 2169 
z
M 4653 2450 
Q 5147 2450 5437 2106 
Q 5728 1763 5728 1178 
Q 5728 594 5436 251 
Q 5144 -91 4653 -91 
Q 4153 -91 3862 251 
Q 3572 594 3572 1178 
Q 3572 1766 3864 2108 
Q 4156 2450 4653 2450 
z
M 4263 4750 
L 4738 4750 
L 1819 -91 
L 1344 -91 
L 4263 4750 
z
M 1428 4750 
Q 1922 4750 2215 4408 
Q 2509 4066 2509 3481 
Q 2509 2891 2217 2550 
Q 1925 2209 1428 2209 
Q 931 2209 642 2551 
Q 353 2894 353 3481 
Q 353 4063 643 4406 
Q 934 4750 1428 4750 
z
" transform="scale(0.015625)"/>
     </defs>
     <use xlink:href="#DejaVuSerif-54"/>
     <use xlink:href="#DejaVuSerif-48" transform="translate(66.699219 0)"/>
     <use xlink:href="#DejaVuSerif-52" transform="translate(153.90625 0)"/>
     <use xlink:href="#DejaVuSerif-2f" transform="translate(229.199219 0)"/>
     <use xlink:href="#DejaVuSerif-50" transform="translate(262.890625 0)"/>
     <use xlink:href="#DejaVuSerif-52" transform="translate(330.175781 0)"/>
     <use xlink:href="#DejaVuSerif-4f" transform="translate(405.46875 0)"/>
     <use xlink:href="#DejaVuSerif-3a" transform="translate(487.451172 0)"/>
     <use xlink:href="#DejaVuSerif-20" transform="translate(521.142578 0)"/>
     <use xlink:href="#DejaVuSerif-33" transform="translate(552.929688 0)"/>
     <use xlink:href="#DejaVuSerif-32" transform="translate(616.552734 0)"/>
     <use xlink:href="#DejaVuSerif-31" transform="translate(680.175781 0)"/>
     <use xlink:href="#DejaVuSerif-25" transform="translate(743.798828 0)"/>
    </g>
   </g>
   <g id="text_24">
    <!-- LUCA ProRS Editing Domain -->
    <g transform="translate(255.027132 14.038594) scale(0.09 -0.09)">
     <use xlink:href="#DejaVuSerif-Bold-4c"/>
     <use xlink:href="#DejaVuSerif-Bold-55" transform="translate(64.8125 0)"/>
     <use xlink:href="#DejaVuSerif-Bold-43" transform="translate(152.019531 0)"/>
     <use xlink:href="#DejaVuSerif-Bold-41" transform="translate(231.609375 0)"/>
     <use xlink:href="#DejaVuSerif-Bold-20" transform="translate(309.197266 0)"/>
     <use xlink:href="#DejaVuSerif-Bold-50" transform="translate(344.011719 0)"/>
     <use xlink:href="#DejaVuSerif-Bold-72" transform="translate(419.207031 0)"/>
     <use xlink:href="#DejaVuSerif-Bold-6f" transform="translate(471.892578 0)"/>
     <use xlink:href="#DejaVuSerif-Bold-52" transform="translate(538.591797 0)"/>
     <use xlink:href="#DejaVuSerif-Bold-53" transform="translate(621.697266 0)"/>
     <use xlink:href="#DejaVuSerif-Bold-20" transform="translate(693.914062 0)"/>
     <use xlink:href="#DejaVuSerif-Bold-45" transform="translate(728.728516 0)"/>
     <use xlink:href="#DejaVuSerif-Bold-64" transform="translate(804.949219 0)"/>
     <use xlink:href="#DejaVuSerif-Bold-69" transform="translate(874.871094 0)"/>
     <use xlink:href="#DejaVuSerif-Bold-74" transform="translate(912.859375 0)"/>
     <use xlink:href="#DejaVuSerif-Bold-69" transform="translate(959.050781 0)"/>
     <use xlink:href="#DejaVuSerif-Bold-6e" transform="translate(997.039062 0)"/>
     <use xlink:href="#DejaVuSerif-Bold-67" transform="translate(1069.744141 0)"/>
     <use xlink:href="#DejaVuSerif-Bold-20" transform="translate(1139.666016 0)"/>
     <use xlink:href="#DejaVuSerif-Bold-44" transform="translate(1174.480469 0)"/>
     <use xlink:href="#DejaVuSerif-Bold-6f" transform="translate(1261.199219 0)"/>
     <use xlink:href="#DejaVuSerif-Bold-6d" transform="translate(1327.898438 0)"/>
     <use xlink:href="#DejaVuSerif-Bold-61" transform="translate(1433.708984 0)"/>
     <use xlink:href="#DejaVuSerif-Bold-69" transform="translate(1498.503906 0)"/>
     <use xlink:href="#DejaVuSerif-Bold-6e" transform="translate(1536.492188 0)"/>
    </g>
    <!-- Substrate Binding -->
    <g transform="translate(281.308538 24.244594) scale(0.09 -0.09)">
     <defs>
      <path id="DejaVuSerif-Bold-62" d="M 622 378 
L 622 4488 
L 147 4488 
L 147 4863 
L 1728 4863 
L 1728 2900 
Q 1869 3159 2106 3286 
Q 2344 3413 2694 3413 
Q 3403 3413 3811 2945 
Q 4219 2478 4219 1663 
Q 4219 847 3811 378 
Q 3403 -91 2694 -91 
Q 2344 -91 2106 36 
Q 1869 163 1728 422 
L 1728 0 
L 147 0 
L 147 378 
L 622 378 
z
M 1728 1497 
Q 1728 916 1876 656 
Q 2025 397 2356 397 
Q 2697 397 2836 672 
Q 2975 947 2975 1663 
Q 2975 2378 2836 2651 
Q 2697 2925 2356 2925 
Q 2025 2925 1876 2665 
Q 1728 2406 1728 1825 
L 1728 1497 
z
" transform="scale(0.015625)"/>
     </defs>
     <use xlink:href="#DejaVuSerif-Bold-53"/>
     <use xlink:href="#DejaVuSerif-Bold-75" transform="translate(72.216797 0)"/>
     <use xlink:href="#DejaVuSerif-Bold-62" transform="translate(144.921875 0)"/>
     <use xlink:href="#DejaVuSerif-Bold-73" transform="translate(214.84375 0)"/>
     <use xlink:href="#DejaVuSerif-Bold-74" transform="translate(271.142578 0)"/>
     <use xlink:href="#DejaVuSerif-Bold-72" transform="translate(317.333984 0)"/>
     <use xlink:href="#DejaVuSerif-Bold-61" transform="translate(370.019531 0)"/>
     <use xlink:href="#DejaVuSerif-Bold-74" transform="translate(434.814453 0)"/>
     <use xlink:href="#DejaVuSerif-Bold-65" transform="translate(481.005859 0)"/>
     <use xlink:href="#DejaVuSerif-Bold-20" transform="translate(544.628906 0)"/>
     <use xlink:href="#DejaVuSerif-Bold-42" transform="translate(579.443359 0)"/>
     <use xlink:href="#DejaVuSerif-Bold-69" transform="translate(663.964844 0)"/>
     <use xlink:href="#DejaVuSerif-Bold-6e" transform="translate(701.953125 0)"/>
     <use xlink:href="#DejaVuSerif-Bold-64" transform="translate(774.658203 0)"/>
     <use xlink:href="#DejaVuSerif-Bold-69" transform="translate(844.580078 0)"/>
     <use xlink:href="#DejaVuSerif-Bold-6e" transform="translate(882.568359 0)"/>
     <use xlink:href="#DejaVuSerif-Bold-67" transform="translate(955.273438 0)"/>
    </g>
   </g>
  </g>
  <g id="text_25">
   <!-- Figure 3: Editing Domain Analysis -->
   <g transform="translate(102.306094 16.643031) scale(0.1 -0.1)">
    <defs>
     <path id="DejaVuSerif-Bold-46" d="M 300 0 
L 300 378 
L 897 378 
L 897 4288 
L 300 4288 
L 300 4666 
L 4459 4666 
L 4459 3566 
L 4031 3566 
L 4031 4238 
L 2106 4238 
L 2106 2741 
L 3291 2741 
L 3291 3334 
L 3719 3334 
L 3719 1722 
L 3291 1722 
L 3291 2316 
L 2106 2316 
L 2106 378 
L 2841 378 
L 2841 0 
L 300 0 
z
" transform="scale(0.015625)"/>
     <path id="DejaVuSerif-Bold-3a" d="M 588 2541 
Q 588 2788 761 2963 
Q 934 3138 1178 3138 
Q 1422 3138 1597 2961 
Q 1772 2784 1772 2541 
Q 1772 2297 1598 2125 
Q 1425 1953 1178 1953 
Q 931 1953 759 2125 
Q 588 2297 588 2541 
z
M 588 506 
Q 588 750 761 925 
Q 934 1100 1178 1100 
Q 1422 1100 1597 925 
Q 1772 750 1772 506 
Q 1772 259 1597 84 
Q 1422 -91 1178 -91 
Q 934 -91 761 84 
Q 588 259 588 506 
z
" transform="scale(0.015625)"/>
    </defs>
    <use xlink:href="#DejaVuSerif-Bold-46"/>
    <use xlink:href="#DejaVuSerif-Bold-69" transform="translate(70.996094 0)"/>
    <use xlink:href="#DejaVuSerif-Bold-67" transform="translate(108.984375 0)"/>
    <use xlink:href="#DejaVuSerif-Bold-75" transform="translate(178.90625 0)"/>
    <use xlink:href="#DejaVuSerif-Bold-72" transform="translate(251.611328 0)"/>
    <use xlink:href="#DejaVuSerif-Bold-65" transform="translate(304.296875 0)"/>
    <use xlink:href="#DejaVuSerif-Bold-20" transform="translate(367.919922 0)"/>
    <use xlink:href="#DejaVuSerif-Bold-33" transform="translate(402.734375 0)"/>
    <use xlink:href="#DejaVuSerif-Bold-3a" transform="translate(472.314453 0)"/>
    <use xlink:href="#DejaVuSerif-Bold-20" transform="translate(509.228516 0)"/>
    <use xlink:href="#DejaVuSerif-Bold-45" transform="translate(544.042969 0)"/>
    <use xlink:href="#DejaVuSerif-Bold-64" transform="translate(620.263672 0)"/>
    <use xlink:href="#DejaVuSerif-Bold-69" transform="translate(690.185547 0)"/>
    <use xlink:href="#DejaVuSerif-Bold-74" transform="translate(728.173828 0)"/>
    <use xlink:href="#DejaVuSerif-Bold-69" transform="translate(774.365234 0)"/>
    <use xlink:href="#DejaVuSerif-Bold-6e" transform="translate(812.353516 0)"/>
    <use xlink:href="#DejaVuSerif-Bold-67" transform="translate(885.058594 0)"/>
    <use xlink:href="#DejaVuSerif-Bold-20" transform="translate(954.980469 0)"/>
    <use xlink:href="#DejaVuSerif-Bold-44" transform="translate(989.794922 0)"/>
    <use xlink:href="#DejaVuSerif-Bold-6f" transform="translate(1076.513672 0)"/>
    <use xlink:href="#DejaVuSerif-Bold-6d" transform="translate(1143.212891 0)"/>
    <use xlink:href="#DejaVuSerif-Bold-61" transform="translate(1249.023438 0)"/>
    <use xlink:href="#DejaVuSerif-Bold-69" transform="translate(1313.818359 0)"/>
    <use xlink:href="#DejaVuSerif-Bold-6e" transform="translate(1351.806641 0)"/>
    <use xlink:href="#DejaVuSerif-Bold-20" transform="translate(1424.511719 0)"/>
    <use xlink:href="#DejaVuSerif-Bold-41" transform="translate(1459.326172 0)"/>
    <use xlink:href="#DejaVuSerif-Bold-6e" transform="translate(1536.914062 0)"/>
    <use xlink:href="#DejaVuSerif-Bold-61" transform="translate(1609.619141 0)"/>
    <use xlink:href="#DejaVuSerif-Bold-6c" transform="translate(1674.414062 0)"/>
    <use xlink:href="#DejaVuSerif-Bold-79" transform="translate(1712.402344 0)"/>
    <use xlink:href="#DejaVuSerif-Bold-73" transform="translate(1770.507812 0)"/>
    <use xlink:href="#DejaVuSerif-Bold-69" transform="translate(1826.806641 0)"/>
    <use xlink:href="#DejaVuSerif-Bold-73" transform="translate(1864.794922 0)"/>
   </g>
  </g>
 </g>
 <defs>
  <clipPath id="pdd3bdac214">
   <rect x="7.2" y="34.244594" width="179.574545" height="194.04"/>
  </clipPath>
  <clipPath id="pb0353127dd">
   <rect x="252.618545" y="34.244594" width="149.645455" height="194.04"/>
  </clipPath>
 </defs>
</svg>
