<?xml version="1.0" encoding="utf-8" standalone="no"?>
<!DOCTYPE svg PUBLIC "-//W3C//DTD SVG 1.1//EN"
  "http://www.w3.org/Graphics/SVG/1.1/DTD/svg11.dtd">
<svg xmlns:xlink="http://www.w3.org/1999/xlink" width="410.002058pt" height="358.92pt" viewBox="0 0 410.002058 358.92" xmlns="http://www.w3.org/2000/svg" version="1.1">
 <metadata>
  <rdf:RDF xmlns:dc="http://purl.org/dc/elements/1.1/" xmlns:cc="http://creativecommons.org/ns#" xmlns:rdf="http://www.w3.org/1999/02/22-rdf-syntax-ns#">
   <cc:Work>
    <dc:type rdf:resource="http://purl.org/dc/dcmitype/StillImage"/>
    <dc:date>2025-12-03T12:21:42.759156</dc:date>
    <dc:format>image/svg+xml</dc:format>
    <dc:creator>
     <cc:Agent>
      <dc:title>Matplotlib v3.10.7, https://matplotlib.org/</dc:title>
     </cc:Agent>
    </dc:creator>
   </cc:Work>
  </rdf:RDF>
 </metadata>
 <defs>
  <style type="text/css">*{stroke-linejoin: round; stroke-linecap: butt}</style>
 </defs>
 <g id="figure_1">
  <g id="patch_1">
   <path d="M 0 358.92 
L 410.002058 358.92 
L 410.002058 0 
L 0 0 
z
" style="fill: #ffffff"/>
  </g>
  <g id="axes_1">
   <g id="patch_2">
    <path d="M 80.898058 79.943478 
L 164.509487 86.572174 
L 164.509487 60.057391 
z
" clip-path="url(#p66be8bfe4f)" style="fill: #c85c5c; opacity: 0.3; stroke: #c85c5c; stroke-linejoin: miter"/>
   </g>
   <g id="patch_3">
    <path d="M 80.898058 119.715652 
L 164.509487 126.344348 
L 164.509487 99.829565 
z
" clip-path="url(#p66be8bfe4f)" style="fill: #5c8ac8; opacity: 0.3; stroke: #5c8ac8; stroke-linejoin: miter"/>
   </g>
   <g id="patch_4">
    <path d="M 80.898058 159.487826 
L 164.509487 166.116522 
L 164.509487 139.601739 
z
" clip-path="url(#p66be8bfe4f)" style="fill: #5c9e5c; opacity: 0.3; stroke: #5c9e5c; stroke-linejoin: miter"/>
   </g>
   <g id="line2d_1">
    <path d="M 18.189487 113.086957 
L 39.092344 113.086957 
" clip-path="url(#p66be8bfe4f)" style="fill: none; stroke: #000000; stroke-width: 0.5; stroke-linecap: square"/>
   </g>
   <g id="line2d_2">
    <path d="M 39.092344 152.85913 
L 39.092344 73.314783 
" clip-path="url(#p66be8bfe4f)" style="fill: none; stroke: #000000; stroke-width: 0.5; stroke-linecap: square"/>
   </g>
   <g id="line2d_3">
    <path d="M 39.092344 73.314783 
L 80.898058 73.314783 
" clip-path="url(#p66be8bfe4f)" style="fill: none; stroke: #000000; stroke-width: 0.5; stroke-linecap: square"/>
   </g>
   <g id="line2d_4">
    <path d="M 39.092344 113.086957 
L 80.898058 113.086957 
" clip-path="url(#p66be8bfe4f)" style="fill: none; stroke: #000000; stroke-width: 0.5; stroke-linecap: square"/>
   </g>
   <g id="line2d_5">
    <path d="M 39.092344 152.85913 
L 49.543772 152.85913 
" clip-path="url(#p66be8bfe4f)" style="fill: none; stroke: #000000; stroke-width: 0.5; stroke-linecap: square"/>
   </g>
   <g id="line2d_6">
    <path d="M 28.640915 172.745217 
L 49.543772 172.745217 
" clip-path="url(#p66be8bfe4f)" style="fill: none; stroke: #000000; stroke-linecap: square"/>
   </g>
   <g id="text_1">
    <!-- A -->
    <g transform="translate(12.127658 58.569603) scale(0.12 -0.12)">
     <defs>
      <path id="DejaVuSerif-Bold-41" d="M -50 0 
L -50 378 
L 331 378 
L 2088 4666 
L 2834 4666 
L 4594 378 
L 5038 378 
L 5038 0 
L 2853 0 
L 2853 378 
L 3309 378 
L 2925 1331 
L 1172 1331 
L 781 378 
L 1338 378 
L 1338 0 
L -50 0 
z
M 1325 1709 
L 2772 1709 
L 2053 3494 
L 1325 1709 
z
" transform="scale(0.015625)"/>
     </defs>
     <use xlink:href="#DejaVuSerif-Bold-41"/>
    </g>
   </g>
   <g id="text_2">
    <!-- Archaea -->
    <g transform="translate(174.960915 75.246345) scale(0.07 -0.07)">
     <defs>
      <path id="DejaVuSerif-41" d="M 1281 1691 
L 2994 1691 
L 2138 3909 
L 1281 1691 
z
M -38 0 
L -38 331 
L 372 331 
L 2034 4666 
L 2559 4666 
L 4225 331 
L 4684 331 
L 4684 0 
L 2988 0 
L 2988 331 
L 3506 331 
L 3116 1356 
L 1153 1356 
L 763 331 
L 1275 331 
L 1275 0 
L -38 0 
z
" transform="scale(0.015625)"/>
      <path id="DejaVuSerif-72" d="M 3059 3328 
L 3059 2497 
L 2728 2497 
Q 2713 2744 2591 2866 
Q 2469 2988 2234 2988 
Q 1809 2988 1582 2694 
Q 1356 2400 1356 1850 
L 1356 331 
L 2022 331 
L 2022 0 
L 263 0 
L 263 331 
L 781 331 
L 781 2994 
L 231 2994 
L 231 3322 
L 1356 3322 
L 1356 2731 
Q 1525 3078 1790 3245 
Q 2056 3413 2438 3413 
Q 2578 3413 2733 3391 
Q 2888 3369 3059 3328 
z
" transform="scale(0.015625)"/>
      <path id="DejaVuSerif-63" d="M 3291 997 
Q 3169 466 2822 187 
Q 2475 -91 1925 -91 
Q 1200 -91 759 389 
Q 319 869 319 1663 
Q 319 2459 759 2936 
Q 1200 3413 1925 3413 
Q 2241 3413 2553 3339 
Q 2866 3266 3181 3116 
L 3181 2266 
L 2847 2266 
Q 2781 2703 2561 2903 
Q 2341 3103 1931 3103 
Q 1466 3103 1228 2742 
Q 991 2381 991 1663 
Q 991 944 1227 581 
Q 1463 219 1931 219 
Q 2303 219 2525 412 
Q 2747 606 2828 997 
L 3291 997 
z
" transform="scale(0.015625)"/>
      <path id="DejaVuSerif-68" d="M 263 0 
L 263 331 
L 781 331 
L 781 4531 
L 231 4531 
L 231 4863 
L 1356 4863 
L 1356 2731 
Q 1516 3069 1770 3241 
Q 2025 3413 2363 3413 
Q 2913 3413 3172 3097 
Q 3431 2781 3431 2113 
L 3431 331 
L 3944 331 
L 3944 0 
L 2356 0 
L 2356 331 
L 2853 331 
L 2853 1931 
Q 2853 2541 2704 2764 
Q 2556 2988 2175 2988 
Q 1775 2988 1565 2697 
Q 1356 2406 1356 1850 
L 1356 331 
L 1856 331 
L 1856 0 
L 263 0 
z
" transform="scale(0.015625)"/>
      <path id="DejaVuSerif-61" d="M 2547 1044 
L 2547 1747 
L 1806 1747 
Q 1378 1747 1168 1562 
Q 959 1378 959 997 
Q 959 650 1171 447 
Q 1384 244 1747 244 
Q 2106 244 2326 466 
Q 2547 688 2547 1044 
z
M 3122 2075 
L 3122 331 
L 3634 331 
L 3634 0 
L 2547 0 
L 2547 359 
Q 2356 128 2106 18 
Q 1856 -91 1522 -91 
Q 969 -91 644 203 
Q 319 497 319 997 
Q 319 1513 691 1797 
Q 1063 2081 1741 2081 
L 2547 2081 
L 2547 2309 
Q 2547 2688 2317 2895 
Q 2088 3103 1672 3103 
Q 1328 3103 1125 2947 
Q 922 2791 872 2484 
L 575 2484 
L 575 3156 
Q 875 3284 1158 3348 
Q 1441 3413 1709 3413 
Q 2400 3413 2761 3070 
Q 3122 2728 3122 2075 
z
" transform="scale(0.015625)"/>
      <path id="DejaVuSerif-65" d="M 3469 1600 
L 991 1600 
L 991 1575 
Q 991 903 1244 561 
Q 1497 219 1991 219 
Q 2369 219 2611 417 
Q 2853 616 2950 1006 
L 3413 1006 
Q 3275 459 2904 184 
Q 2534 -91 1931 -91 
Q 1203 -91 761 389 
Q 319 869 319 1663 
Q 319 2450 753 2931 
Q 1188 3413 1894 3413 
Q 2647 3413 3050 2948 
Q 3453 2484 3469 1600 
z
M 2791 1931 
Q 2772 2513 2545 2808 
Q 2319 3103 1894 3103 
Q 1497 3103 1269 2806 
Q 1041 2509 991 1931 
L 2791 1931 
z
" transform="scale(0.015625)"/>
     </defs>
     <use xlink:href="#DejaVuSerif-41"/>
     <use xlink:href="#DejaVuSerif-72" transform="translate(72.216797 0)"/>
     <use xlink:href="#DejaVuSerif-63" transform="translate(120.019531 0)"/>
     <use xlink:href="#DejaVuSerif-68" transform="translate(176.025391 0)"/>
     <use xlink:href="#DejaVuSerif-61" transform="translate(240.429688 0)"/>
     <use xlink:href="#DejaVuSerif-65" transform="translate(300.048828 0)"/>
     <use xlink:href="#DejaVuSerif-61" transform="translate(359.228516 0)"/>
    </g>
   </g>
   <g id="text_3">
    <!-- Bacteria -->
    <g transform="translate(174.960915 115.018519) scale(0.07 -0.07)">
     <defs>
      <path id="DejaVuSerif-42" d="M 1581 331 
L 2516 331 
Q 3078 331 3337 575 
Q 3597 819 3597 1350 
Q 3597 1878 3339 2120 
Q 3081 2363 2516 2363 
L 1581 2363 
L 1581 331 
z
M 1581 2694 
L 2375 2694 
Q 2888 2694 3123 2891 
Q 3359 3088 3359 3513 
Q 3359 3941 3123 4136 
Q 2888 4331 2375 4331 
L 1581 4331 
L 1581 2694 
z
M 353 0 
L 353 331 
L 947 331 
L 947 4331 
L 353 4331 
L 353 4666 
L 2656 4666 
Q 3363 4666 3720 4377 
Q 4078 4088 4078 3513 
Q 4078 3097 3829 2850 
Q 3581 2603 3103 2547 
Q 3697 2472 4005 2167 
Q 4313 1863 4313 1350 
Q 4313 656 3875 328 
Q 3438 0 2509 0 
L 353 0 
z
" transform="scale(0.015625)"/>
      <path id="DejaVuSerif-74" d="M 691 2988 
L 184 2988 
L 184 3322 
L 691 3322 
L 691 4353 
L 1269 4353 
L 1269 3322 
L 2350 3322 
L 2350 2988 
L 1269 2988 
L 1269 878 
Q 1269 456 1350 337 
Q 1431 219 1650 219 
Q 1875 219 1978 351 
Q 2081 484 2088 781 
L 2522 781 
Q 2497 328 2275 118 
Q 2053 -91 1600 -91 
Q 1103 -91 897 129 
Q 691 350 691 878 
L 691 2988 
z
" transform="scale(0.015625)"/>
      <path id="DejaVuSerif-69" d="M 622 4353 
Q 622 4497 726 4603 
Q 831 4709 978 4709 
Q 1122 4709 1226 4603 
Q 1331 4497 1331 4353 
Q 1331 4206 1228 4103 
Q 1125 4000 978 4000 
Q 831 4000 726 4103 
Q 622 4206 622 4353 
z
M 1356 331 
L 1900 331 
L 1900 0 
L 231 0 
L 231 331 
L 781 331 
L 781 2988 
L 231 2988 
L 231 3322 
L 1356 3322 
L 1356 331 
z
" transform="scale(0.015625)"/>
     </defs>
     <use xlink:href="#DejaVuSerif-42"/>
     <use xlink:href="#DejaVuSerif-61" transform="translate(73.486328 0)"/>
     <use xlink:href="#DejaVuSerif-63" transform="translate(133.105469 0)"/>
     <use xlink:href="#DejaVuSerif-74" transform="translate(189.111328 0)"/>
     <use xlink:href="#DejaVuSerif-65" transform="translate(229.296875 0)"/>
     <use xlink:href="#DejaVuSerif-72" transform="translate(288.476562 0)"/>
     <use xlink:href="#DejaVuSerif-69" transform="translate(336.279297 0)"/>
     <use xlink:href="#DejaVuSerif-61" transform="translate(368.261719 0)"/>
    </g>
   </g>
   <g id="text_4">
    <!-- Eukaryota -->
    <g transform="translate(174.960915 154.740927) scale(0.07 -0.07)">
     <defs>
      <path id="DejaVuSerif-45" d="M 353 0 
L 353 331 
L 947 331 
L 947 4331 
L 353 4331 
L 353 4666 
L 4109 4666 
L 4109 3628 
L 3725 3628 
L 3725 4281 
L 1581 4281 
L 1581 2719 
L 3109 2719 
L 3109 3303 
L 3494 3303 
L 3494 1753 
L 3109 1753 
L 3109 2338 
L 1581 2338 
L 1581 384 
L 3775 384 
L 3775 1038 
L 4159 1038 
L 4159 0 
L 353 0 
z
" transform="scale(0.015625)"/>
      <path id="DejaVuSerif-75" d="M 2266 3322 
L 3341 3322 
L 3341 331 
L 3884 331 
L 3884 0 
L 2766 0 
L 2766 588 
Q 2606 256 2353 82 
Q 2100 -91 1766 -91 
Q 1213 -91 952 223 
Q 691 538 691 1209 
L 691 2988 
L 172 2988 
L 172 3322 
L 1269 3322 
L 1269 1388 
Q 1269 781 1417 556 
Q 1566 331 1947 331 
Q 2347 331 2556 625 
Q 2766 919 2766 1478 
L 2766 2988 
L 2266 2988 
L 2266 3322 
z
" transform="scale(0.015625)"/>
      <path id="DejaVuSerif-6b" d="M 1831 0 
L 219 0 
L 219 331 
L 738 331 
L 738 4531 
L 184 4531 
L 184 4863 
L 1313 4863 
L 1313 1697 
L 2713 2988 
L 2234 2988 
L 2234 3322 
L 3738 3322 
L 3738 2988 
L 3169 2988 
L 2181 2075 
L 3444 331 
L 3922 331 
L 3922 0 
L 2284 0 
L 2284 331 
L 2759 331 
L 1766 1697 
L 1313 1275 
L 1313 331 
L 1831 331 
L 1831 0 
z
" transform="scale(0.015625)"/>
      <path id="DejaVuSerif-79" d="M 1381 -609 
L 1600 -56 
L 359 2988 
L -19 2988 
L -19 3322 
L 1509 3322 
L 1509 2988 
L 978 2988 
L 1913 703 
L 2847 2988 
L 2350 2988 
L 2350 3322 
L 3597 3322 
L 3597 2988 
L 3225 2988 
L 1703 -750 
Q 1547 -1138 1356 -1280 
Q 1166 -1422 819 -1422 
Q 672 -1422 517 -1397 
Q 363 -1372 206 -1325 
L 206 -691 
L 500 -691 
Q 519 -903 608 -995 
Q 697 -1088 884 -1088 
Q 1056 -1088 1161 -992 
Q 1266 -897 1381 -609 
z
" transform="scale(0.015625)"/>
      <path id="DejaVuSerif-6f" d="M 1925 219 
Q 2388 219 2623 584 
Q 2859 950 2859 1663 
Q 2859 2375 2623 2739 
Q 2388 3103 1925 3103 
Q 1463 3103 1227 2739 
Q 991 2375 991 1663 
Q 991 950 1228 584 
Q 1466 219 1925 219 
z
M 1925 -91 
Q 1200 -91 759 389 
Q 319 869 319 1663 
Q 319 2456 758 2934 
Q 1197 3413 1925 3413 
Q 2653 3413 3092 2934 
Q 3531 2456 3531 1663 
Q 3531 869 3092 389 
Q 2653 -91 1925 -91 
z
" transform="scale(0.015625)"/>
     </defs>
     <use xlink:href="#DejaVuSerif-45"/>
     <use xlink:href="#DejaVuSerif-75" transform="translate(72.998047 0)"/>
     <use xlink:href="#DejaVuSerif-6b" transform="translate(137.402344 0)"/>
     <use xlink:href="#DejaVuSerif-61" transform="translate(197.998047 0)"/>
     <use xlink:href="#DejaVuSerif-72" transform="translate(257.617188 0)"/>
     <use xlink:href="#DejaVuSerif-79" transform="translate(305.419922 0)"/>
     <use xlink:href="#DejaVuSerif-6f" transform="translate(361.914062 0)"/>
     <use xlink:href="#DejaVuSerif-74" transform="translate(422.119141 0)"/>
     <use xlink:href="#DejaVuSerif-61" transform="translate(462.304688 0)"/>
    </g>
   </g>
   <g id="text_5">
    <!-- LUCA -->
    <g transform="translate(10.088728 111.383238) scale(0.06 -0.06)">
     <defs>
      <path id="DejaVuSerif-Bold-4c" d="M 300 0 
L 300 378 
L 897 378 
L 897 4288 
L 300 4288 
L 300 4666 
L 2700 4666 
L 2700 4288 
L 2100 4288 
L 2100 428 
L 3938 428 
L 3938 1166 
L 4359 1166 
L 4359 0 
L 300 0 
z
" transform="scale(0.015625)"/>
      <path id="DejaVuSerif-Bold-55" d="M 813 4288 
L 219 4288 
L 219 4666 
L 2619 4666 
L 2619 4288 
L 2022 4288 
L 2022 1953 
Q 2022 1081 2294 732 
Q 2566 384 3225 384 
Q 3869 384 4139 736 
Q 4409 1088 4409 1953 
L 4409 4288 
L 3816 4288 
L 3816 4666 
L 5441 4666 
L 5441 4288 
L 4844 4288 
L 4844 1888 
Q 4844 819 4381 364 
Q 3919 -91 2828 -91 
Q 1744 -91 1278 368 
Q 813 828 813 1894 
L 813 4288 
z
" transform="scale(0.015625)"/>
      <path id="DejaVuSerif-Bold-43" d="M 4769 1331 
Q 4584 609 4106 259 
Q 3628 -91 2822 -91 
Q 1641 -91 955 561 
Q 269 1213 269 2328 
Q 269 3447 955 4098 
Q 1641 4750 2822 4750 
Q 3238 4750 3688 4650 
Q 4138 4550 4641 4347 
L 4641 3200 
L 4244 3200 
Q 4122 3788 3800 4080 
Q 3478 4372 2950 4372 
Q 2269 4372 1937 3870 
Q 1606 3369 1606 2328 
Q 1606 1288 1937 788 
Q 2269 288 2956 288 
Q 3422 288 3717 547 
Q 4013 806 4147 1331 
L 4769 1331 
z
" transform="scale(0.015625)"/>
     </defs>
     <use xlink:href="#DejaVuSerif-Bold-4c"/>
     <use xlink:href="#DejaVuSerif-Bold-55" transform="translate(64.8125 0)"/>
     <use xlink:href="#DejaVuSerif-Bold-43" transform="translate(152.019531 0)"/>
     <use xlink:href="#DejaVuSerif-Bold-41" transform="translate(231.609375 0)"/>
    </g>
    <!-- ProRS -->
    <g transform="translate(7.645603 118.101925) scale(0.06 -0.06)">
     <defs>
      <path id="DejaVuSerif-Bold-50" d="M 300 0 
L 300 378 
L 897 378 
L 897 4288 
L 300 4288 
L 300 4666 
L 2956 4666 
Q 3734 4666 4193 4295 
Q 4653 3925 4653 3303 
Q 4653 2678 4192 2304 
Q 3731 1931 2956 1931 
L 2100 1931 
L 2100 378 
L 2853 378 
L 2853 0 
L 300 0 
z
M 2100 2309 
L 2450 2309 
Q 2856 2309 3098 2579 
Q 3341 2850 3341 3303 
Q 3341 3753 3100 4020 
Q 2859 4288 2450 4288 
L 2100 4288 
L 2100 2309 
z
" transform="scale(0.015625)"/>
      <path id="DejaVuSerif-Bold-72" d="M 3438 3359 
L 3438 2369 
L 3084 2369 
Q 3066 2634 2941 2764 
Q 2816 2894 2578 2894 
Q 2216 2894 2006 2575 
Q 1797 2256 1797 1691 
L 1797 378 
L 2400 378 
L 2400 0 
L 219 0 
L 219 378 
L 691 378 
L 691 2944 
L 184 2944 
L 184 3322 
L 1797 3322 
L 1797 2731 
Q 1959 3078 2226 3245 
Q 2494 3413 2881 3413 
Q 2978 3413 3117 3398 
Q 3256 3384 3438 3359 
z
" transform="scale(0.015625)"/>
      <path id="DejaVuSerif-Bold-6f" d="M 2138 263 
Q 2488 263 2630 563 
Q 2772 863 2772 1663 
Q 2772 2463 2631 2761 
Q 2491 3059 2138 3059 
Q 1784 3059 1640 2757 
Q 1497 2456 1497 1663 
Q 1497 869 1640 566 
Q 1784 263 2138 263 
z
M 2138 -91 
Q 1259 -91 761 376 
Q 263 844 263 1663 
Q 263 2484 761 2948 
Q 1259 3413 2138 3413 
Q 3019 3413 3516 2948 
Q 4013 2484 4013 1663 
Q 4013 844 3514 376 
Q 3016 -91 2138 -91 
z
" transform="scale(0.015625)"/>
      <path id="DejaVuSerif-Bold-52" d="M 3397 2278 
Q 3675 2238 3865 2094 
Q 4056 1950 4197 1678 
L 4878 378 
L 5356 378 
L 5356 0 
L 3822 0 
L 3078 1409 
Q 2863 1847 2711 1967 
Q 2559 2088 2291 2088 
L 2100 2088 
L 2100 378 
L 2700 378 
L 2700 0 
L 300 0 
L 300 378 
L 897 378 
L 897 4288 
L 300 4288 
L 300 4666 
L 2963 4666 
Q 3775 4666 4217 4339 
Q 4659 4013 4659 3413 
Q 4659 2925 4345 2642 
Q 4031 2359 3397 2278 
z
M 2100 2463 
L 2509 2463 
Q 2947 2463 3183 2700 
Q 3419 2938 3419 3378 
Q 3419 3819 3183 4053 
Q 2947 4288 2509 4288 
L 2100 4288 
L 2100 2463 
z
" transform="scale(0.015625)"/>
      <path id="DejaVuSerif-Bold-53" d="M 494 225 
L 494 1331 
L 891 1331 
Q 981 806 1318 547 
Q 1656 288 2253 288 
Q 2738 288 2991 472 
Q 3244 656 3244 1013 
Q 3244 1294 3072 1450 
Q 2900 1606 2363 1741 
L 1663 1913 
Q 978 2088 700 2398 
Q 422 2709 422 3284 
Q 422 3978 883 4364 
Q 1344 4750 2175 4750 
Q 2584 4750 3026 4681 
Q 3469 4613 3944 4475 
L 3944 3444 
L 3547 3444 
Q 3456 3925 3150 4148 
Q 2844 4372 2278 4372 
Q 1816 4372 1580 4211 
Q 1344 4050 1344 3731 
Q 1344 3441 1506 3289 
Q 1669 3138 2303 2975 
L 3003 2803 
Q 3653 2641 3945 2297 
Q 4238 1953 4238 1350 
Q 4238 644 3750 276 
Q 3263 -91 2316 -91 
Q 1859 -91 1409 -12 
Q 959 66 494 225 
z
" transform="scale(0.015625)"/>
     </defs>
     <use xlink:href="#DejaVuSerif-Bold-50"/>
     <use xlink:href="#DejaVuSerif-Bold-72" transform="translate(75.195312 0)"/>
     <use xlink:href="#DejaVuSerif-Bold-6f" transform="translate(127.880859 0)"/>
     <use xlink:href="#DejaVuSerif-Bold-52" transform="translate(194.580078 0)"/>
     <use xlink:href="#DejaVuSerif-Bold-53" transform="translate(277.685547 0)"/>
    </g>
   </g>
   <g id="text_6">
    <!-- Euk ancestor -->
    <g transform="translate(27.436585 168.024106) scale(0.06 -0.06)">
     <defs>
      <path id="DejaVuSerif-Bold-45" d="M 300 0 
L 300 378 
L 897 378 
L 897 4288 
L 300 4288 
L 300 4666 
L 4494 4666 
L 4494 3566 
L 4063 3566 
L 4063 4238 
L 2100 4238 
L 2100 2741 
L 3322 2741 
L 3322 3334 
L 3750 3334 
L 3750 1722 
L 3322 1722 
L 3322 2316 
L 2100 2316 
L 2100 428 
L 4122 428 
L 4122 1100 
L 4550 1100 
L 4550 0 
L 300 0 
z
" transform="scale(0.015625)"/>
      <path id="DejaVuSerif-Bold-75" d="M 3963 3322 
L 3963 378 
L 4434 378 
L 4434 0 
L 2853 0 
L 2853 469 
Q 2656 172 2400 40 
Q 2144 -91 1753 -91 
Q 1194 -91 908 239 
Q 622 569 622 1209 
L 622 2944 
L 147 2944 
L 147 3322 
L 1728 3322 
L 1728 1381 
Q 1728 763 1831 595 
Q 1934 428 2209 428 
Q 2544 428 2698 675 
Q 2853 922 2853 1459 
L 2853 2944 
L 2450 2944 
L 2450 3322 
L 3963 3322 
z
" transform="scale(0.015625)"/>
      <path id="DejaVuSerif-Bold-6b" d="M 2216 0 
L 219 0 
L 219 378 
L 691 378 
L 691 4488 
L 219 4488 
L 219 4863 
L 1797 4863 
L 1797 1741 
L 3138 2944 
L 2741 2944 
L 2741 3322 
L 4256 3322 
L 4256 2944 
L 3641 2944 
L 2784 2175 
L 4184 378 
L 4544 378 
L 4544 0 
L 2638 0 
L 2638 378 
L 3028 378 
L 2106 1563 
L 1797 1288 
L 1797 378 
L 2216 378 
L 2216 0 
z
" transform="scale(0.015625)"/>
      <path id="DejaVuSerif-Bold-20" transform="scale(0.015625)"/>
      <path id="DejaVuSerif-Bold-61" d="M 3525 2041 
L 3525 378 
L 4000 378 
L 4000 0 
L 2419 0 
L 2419 422 
Q 2200 159 1931 34 
Q 1663 -91 1319 -91 
Q 809 -91 536 182 
Q 263 456 263 966 
Q 263 1525 655 1803 
Q 1047 2081 1838 2081 
L 2419 2081 
L 2419 2278 
Q 2419 2681 2228 2873 
Q 2038 3066 1638 3066 
Q 1306 3066 1126 2930 
Q 947 2794 872 2484 
L 519 2484 
L 519 3200 
Q 816 3306 1134 3359 
Q 1453 3413 1806 3413 
Q 2697 3413 3111 3081 
Q 3525 2750 3525 2041 
z
M 2419 1044 
L 2419 1709 
L 2003 1709 
Q 1694 1709 1528 1540 
Q 1363 1372 1363 1056 
Q 1363 741 1483 584 
Q 1603 428 1850 428 
Q 2106 428 2262 597 
Q 2419 766 2419 1044 
z
" transform="scale(0.015625)"/>
      <path id="DejaVuSerif-Bold-6e" d="M 219 0 
L 219 378 
L 691 378 
L 691 2944 
L 219 2944 
L 219 3322 
L 1797 3322 
L 1797 2853 
Q 1997 3150 2253 3281 
Q 2509 3413 2900 3413 
Q 3459 3413 3745 3083 
Q 4031 2753 4031 2113 
L 4031 378 
L 4506 378 
L 4506 0 
L 2522 0 
L 2522 378 
L 2925 378 
L 2925 2144 
Q 2925 2566 2817 2730 
Q 2709 2894 2444 2894 
Q 2109 2894 1953 2648 
Q 1797 2403 1797 1869 
L 1797 378 
L 2203 378 
L 2203 0 
L 219 0 
z
" transform="scale(0.015625)"/>
      <path id="DejaVuSerif-Bold-63" d="M 3609 1038 
Q 3491 469 3123 189 
Q 2756 -91 2125 -91 
Q 1238 -91 750 368 
Q 263 828 263 1663 
Q 263 2488 744 2950 
Q 1225 3413 2081 3413 
Q 2428 3413 2781 3347 
Q 3134 3281 3500 3150 
L 3500 2228 
L 3150 2228 
Q 3100 2650 2903 2854 
Q 2706 3059 2350 3059 
Q 1888 3059 1692 2746 
Q 1497 2434 1497 1663 
Q 1497 909 1687 586 
Q 1878 263 2309 263 
Q 2644 263 2845 463 
Q 3047 663 3091 1038 
L 3609 1038 
z
" transform="scale(0.015625)"/>
      <path id="DejaVuSerif-Bold-65" d="M 2566 1875 
Q 2566 2531 2444 2795 
Q 2322 3059 2028 3059 
Q 1744 3059 1620 2800 
Q 1497 2541 1497 1931 
L 1497 1875 
L 2566 1875 
z
M 3781 1503 
L 1497 1503 
L 1497 1478 
Q 1497 834 1690 548 
Q 1884 263 2316 263 
Q 2675 263 2897 453 
Q 3119 644 3181 1006 
L 3700 1006 
Q 3566 441 3166 175 
Q 2766 -91 2047 -91 
Q 1184 -91 723 364 
Q 263 819 263 1663 
Q 263 2488 734 2950 
Q 1206 3413 2047 3413 
Q 2872 3413 3312 2927 
Q 3753 2441 3781 1503 
z
" transform="scale(0.015625)"/>
      <path id="DejaVuSerif-Bold-73" d="M 300 97 
L 300 1025 
L 653 1025 
Q 697 653 931 458 
Q 1166 263 1569 263 
Q 1906 263 2086 380 
Q 2266 497 2266 716 
Q 2266 916 2152 1025 
Q 2038 1134 1709 1216 
L 1253 1331 
Q 738 1459 506 1698 
Q 275 1938 275 2344 
Q 275 2884 650 3148 
Q 1025 3413 1806 3413 
Q 2100 3413 2433 3364 
Q 2766 3316 3169 3213 
L 3169 2375 
L 2816 2375 
Q 2788 2716 2573 2887 
Q 2359 3059 1959 3059 
Q 1622 3059 1448 2951 
Q 1275 2844 1275 2638 
Q 1275 2469 1375 2372 
Q 1475 2275 1734 2209 
L 2188 2094 
Q 2841 1928 3091 1684 
Q 3341 1441 3341 1006 
Q 3341 444 2939 176 
Q 2538 -91 1691 -91 
Q 1381 -91 1034 -44 
Q 688 3 300 97 
z
" transform="scale(0.015625)"/>
      <path id="DejaVuSerif-Bold-74" d="M 634 2944 
L 153 2944 
L 153 3322 
L 634 3322 
L 634 4353 
L 1741 4353 
L 1741 3322 
L 2663 3322 
L 2663 2944 
L 1741 2944 
L 1741 909 
Q 1741 475 1809 369 
Q 1878 263 2059 263 
Q 2259 263 2356 397 
Q 2453 531 2459 813 
L 2925 813 
Q 2897 313 2651 111 
Q 2406 -91 1806 -91 
Q 1122 -91 878 123 
Q 634 338 634 909 
L 634 2944 
z
" transform="scale(0.015625)"/>
     </defs>
     <use xlink:href="#DejaVuSerif-Bold-45"/>
     <use xlink:href="#DejaVuSerif-Bold-75" transform="translate(76.220703 0)"/>
     <use xlink:href="#DejaVuSerif-Bold-6b" transform="translate(148.925781 0)"/>
     <use xlink:href="#DejaVuSerif-Bold-20" transform="translate(218.212891 0)"/>
     <use xlink:href="#DejaVuSerif-Bold-61" transform="translate(253.027344 0)"/>
     <use xlink:href="#DejaVuSerif-Bold-6e" transform="translate(317.822266 0)"/>
     <use xlink:href="#DejaVuSerif-Bold-63" transform="translate(390.527344 0)"/>
     <use xlink:href="#DejaVuSerif-Bold-65" transform="translate(451.416016 0)"/>
     <use xlink:href="#DejaVuSerif-Bold-73" transform="translate(515.039062 0)"/>
     <use xlink:href="#DejaVuSerif-Bold-74" transform="translate(571.337891 0)"/>
     <use xlink:href="#DejaVuSerif-Bold-6f" transform="translate(617.529297 0)"/>
     <use xlink:href="#DejaVuSerif-Bold-72" transform="translate(684.228516 0)"/>
    </g>
   </g>
   <g id="text_7">
    <!-- 98 -->
    <g style="fill: #808080" transform="translate(41.182629 93.20087) scale(0.05 -0.05)">
     <defs>
      <path id="DejaVuSerif-Italic-39" d="M 2947 2091 
Q 2694 1856 2398 1740 
Q 2103 1625 1763 1625 
Q 1069 1625 748 2044 
Q 428 2463 569 3188 
Q 706 3897 1226 4323 
Q 1747 4750 2475 4750 
Q 3266 4750 3573 4161 
Q 3881 3572 3669 2478 
Q 3431 1253 2797 581 
Q 2163 -91 1250 -91 
Q 1003 -91 740 -44 
Q 478 3 213 97 
L 363 872 
L 713 872 
Q 694 556 864 387 
Q 1034 219 1375 219 
Q 1981 219 2367 676 
Q 2753 1134 2947 2091 
z
M 2388 4441 
Q 1944 4441 1645 4117 
Q 1347 3794 1230 3187 
Q 1113 2581 1284 2256 
Q 1456 1931 1900 1931 
Q 2344 1931 2641 2245 
Q 2938 2559 3053 3150 
Q 3175 3772 3001 4106 
Q 2828 4441 2388 4441 
z
" transform="scale(0.015625)"/>
      <path id="DejaVuSerif-Italic-38" d="M 2775 1275 
Q 2872 1775 2678 2051 
Q 2484 2328 2034 2328 
Q 1584 2328 1281 2051 
Q 978 1775 881 1275 
Q 784 772 979 495 
Q 1175 219 1625 219 
Q 2075 219 2376 495 
Q 2678 772 2775 1275 
z
M 3088 3541 
Q 3172 3966 3001 4203 
Q 2831 4441 2444 4441 
Q 2059 4441 1796 4203 
Q 1534 3966 1450 3541 
Q 1369 3113 1539 2875 
Q 1709 2638 2094 2638 
Q 2481 2638 2743 2875 
Q 3006 3113 3088 3541 
z
M 2547 2484 
Q 3063 2413 3297 2092 
Q 3531 1772 3434 1275 
Q 3309 619 2823 264 
Q 2338 -91 1563 -91 
Q 791 -91 444 264 
Q 97 619 222 1275 
Q 319 1772 678 2092 
Q 1038 2413 1588 2484 
Q 1131 2569 932 2842 
Q 734 3116 816 3541 
Q 925 4103 1376 4426 
Q 1828 4750 2506 4750 
Q 3184 4750 3507 4426 
Q 3831 4103 3722 3541 
Q 3641 3116 3336 2842 
Q 3031 2569 2547 2484 
z
" transform="scale(0.015625)"/>
     </defs>
     <use xlink:href="#DejaVuSerif-Italic-39"/>
     <use xlink:href="#DejaVuSerif-Italic-38" transform="translate(63.623047 0)"/>
    </g>
   </g>
   <g id="text_8">
    <!-- 95 -->
    <g style="fill: #808080" transform="translate(41.182629 132.973043) scale(0.05 -0.05)">
     <defs>
      <path id="DejaVuSerif-Italic-35" d="M 3681 4666 
L 3581 4153 
L 1444 4153 
L 1184 2816 
Q 1369 2928 1597 2984 
Q 1825 3041 2094 3041 
Q 2850 3041 3206 2622 
Q 3563 2203 3422 1478 
Q 3278 738 2754 323 
Q 2231 -91 1431 -91 
Q 1109 -91 787 -12 
Q 466 66 144 225 
L 319 1131 
L 672 1131 
Q 613 688 822 453 
Q 1031 219 1491 219 
Q 1984 219 2314 544 
Q 2644 869 2763 1478 
Q 2878 2084 2678 2407 
Q 2478 2731 1981 2731 
Q 1700 2731 1465 2631 
Q 1231 2531 1025 2322 
L 756 2322 
L 1213 4666 
L 3681 4666 
z
" transform="scale(0.015625)"/>
     </defs>
     <use xlink:href="#DejaVuSerif-Italic-39"/>
     <use xlink:href="#DejaVuSerif-Italic-35" transform="translate(63.623047 0)"/>
    </g>
   </g>
   <g id="text_9">
    <!-- 0.1 substitutions/site -->
    <g transform="translate(7.2 176.722435) scale(0.06 -0.06)">
     <defs>
      <path id="DejaVuSerif-30" d="M 2034 219 
Q 2513 219 2750 744 
Q 2988 1269 2988 2328 
Q 2988 3391 2750 3916 
Q 2513 4441 2034 4441 
Q 1556 4441 1318 3916 
Q 1081 3391 1081 2328 
Q 1081 1269 1318 744 
Q 1556 219 2034 219 
z
M 2034 -91 
Q 1275 -91 848 546 
Q 422 1184 422 2328 
Q 422 3475 848 4112 
Q 1275 4750 2034 4750 
Q 2797 4750 3222 4112 
Q 3647 3475 3647 2328 
Q 3647 1184 3222 546 
Q 2797 -91 2034 -91 
z
" transform="scale(0.015625)"/>
      <path id="DejaVuSerif-2e" d="M 603 325 
Q 603 500 722 622 
Q 841 744 1019 744 
Q 1191 744 1312 622 
Q 1434 500 1434 325 
Q 1434 153 1312 31 
Q 1191 -91 1019 -91 
Q 841 -91 722 29 
Q 603 150 603 325 
z
" transform="scale(0.015625)"/>
      <path id="DejaVuSerif-31" d="M 909 0 
L 909 331 
L 1722 331 
L 1722 4213 
L 781 3603 
L 781 4013 
L 1919 4750 
L 2350 4750 
L 2350 331 
L 3163 331 
L 3163 0 
L 909 0 
z
" transform="scale(0.015625)"/>
      <path id="DejaVuSerif-20" transform="scale(0.015625)"/>
      <path id="DejaVuSerif-73" d="M 359 184 
L 359 959 
L 691 959 
Q 703 588 923 403 
Q 1144 219 1575 219 
Q 1963 219 2166 364 
Q 2369 509 2369 788 
Q 2369 1006 2220 1140 
Q 2072 1275 1594 1428 
L 1178 1569 
Q 750 1706 558 1912 
Q 366 2119 366 2438 
Q 366 2894 700 3153 
Q 1034 3413 1625 3413 
Q 1888 3413 2178 3344 
Q 2469 3275 2778 3144 
L 2778 2419 
L 2447 2419 
Q 2434 2741 2221 2922 
Q 2009 3103 1644 3103 
Q 1281 3103 1095 2975 
Q 909 2847 909 2591 
Q 909 2381 1050 2254 
Q 1191 2128 1613 1997 
L 2069 1856 
Q 2541 1709 2748 1489 
Q 2956 1269 2956 922 
Q 2956 450 2595 179 
Q 2234 -91 1600 -91 
Q 1278 -91 972 -22 
Q 666 47 359 184 
z
" transform="scale(0.015625)"/>
      <path id="DejaVuSerif-62" d="M 738 331 
L 738 4531 
L 184 4531 
L 184 4863 
L 1313 4863 
L 1313 2803 
Q 1481 3116 1742 3264 
Q 2003 3413 2388 3413 
Q 3000 3413 3387 2928 
Q 3775 2444 3775 1663 
Q 3775 881 3387 395 
Q 3000 -91 2388 -91 
Q 2003 -91 1742 57 
Q 1481 206 1313 519 
L 1313 0 
L 184 0 
L 184 331 
L 738 331 
z
M 1313 1497 
Q 1313 897 1542 583 
Q 1772 269 2209 269 
Q 2650 269 2876 622 
Q 3103 975 3103 1663 
Q 3103 2353 2876 2703 
Q 2650 3053 2209 3053 
Q 1772 3053 1542 2737 
Q 1313 2422 1313 1825 
L 1313 1497 
z
" transform="scale(0.015625)"/>
      <path id="DejaVuSerif-6e" d="M 263 0 
L 263 331 
L 781 331 
L 781 2988 
L 231 2988 
L 231 3322 
L 1356 3322 
L 1356 2731 
Q 1516 3069 1770 3241 
Q 2025 3413 2363 3413 
Q 2913 3413 3172 3097 
Q 3431 2781 3431 2113 
L 3431 331 
L 3944 331 
L 3944 0 
L 2356 0 
L 2356 331 
L 2853 331 
L 2853 1931 
Q 2853 2541 2703 2767 
Q 2553 2994 2175 2994 
Q 1775 2994 1565 2701 
Q 1356 2409 1356 1850 
L 1356 331 
L 1856 331 
L 1856 0 
L 263 0 
z
" transform="scale(0.015625)"/>
      <path id="DejaVuSerif-2f" d="M 1656 4666 
L 2156 4666 
L 500 -594 
L 0 -594 
L 1656 4666 
z
" transform="scale(0.015625)"/>
     </defs>
     <use xlink:href="#DejaVuSerif-30"/>
     <use xlink:href="#DejaVuSerif-2e" transform="translate(63.623047 0)"/>
     <use xlink:href="#DejaVuSerif-31" transform="translate(95.410156 0)"/>
     <use xlink:href="#DejaVuSerif-20" transform="translate(159.033203 0)"/>
     <use xlink:href="#DejaVuSerif-73" transform="translate(190.820312 0)"/>
     <use xlink:href="#DejaVuSerif-75" transform="translate(242.138672 0)"/>
     <use xlink:href="#DejaVuSerif-62" transform="translate(306.542969 0)"/>
     <use xlink:href="#DejaVuSerif-73" transform="translate(370.556641 0)"/>
     <use xlink:href="#DejaVuSerif-74" transform="translate(421.875 0)"/>
     <use xlink:href="#DejaVuSerif-69" transform="translate(462.060547 0)"/>
     <use xlink:href="#DejaVuSerif-74" transform="translate(494.042969 0)"/>
     <use xlink:href="#DejaVuSerif-75" transform="translate(534.228516 0)"/>
     <use xlink:href="#DejaVuSerif-74" transform="translate(598.632812 0)"/>
     <use xlink:href="#DejaVuSerif-69" transform="translate(638.818359 0)"/>
     <use xlink:href="#DejaVuSerif-6f" transform="translate(670.800781 0)"/>
     <use xlink:href="#DejaVuSerif-6e" transform="translate(731.005859 0)"/>
     <use xlink:href="#DejaVuSerif-73" transform="translate(795.410156 0)"/>
     <use xlink:href="#DejaVuSerif-2f" transform="translate(846.728516 0)"/>
     <use xlink:href="#DejaVuSerif-73" transform="translate(880.419922 0)"/>
     <use xlink:href="#DejaVuSerif-69" transform="translate(931.738281 0)"/>
     <use xlink:href="#DejaVuSerif-74" transform="translate(963.720703 0)"/>
     <use xlink:href="#DejaVuSerif-65" transform="translate(1003.90625 0)"/>
    </g>
   </g>
   <g id="text_10">
    <!-- ProRS Phylogeny (93 species) -->
    <g transform="translate(42.245089 36.8) scale(0.09 -0.09)">
     <defs>
      <path id="DejaVuSerif-Bold-68" d="M 219 0 
L 219 378 
L 691 378 
L 691 4488 
L 197 4488 
L 197 4863 
L 1797 4863 
L 1797 2853 
Q 1997 3150 2253 3281 
Q 2509 3413 2900 3413 
Q 3459 3413 3745 3083 
Q 4031 2753 4031 2113 
L 4031 378 
L 4506 378 
L 4506 0 
L 2522 0 
L 2522 378 
L 2925 378 
L 2925 2144 
Q 2925 2566 2817 2730 
Q 2709 2894 2444 2894 
Q 2109 2894 1953 2648 
Q 1797 2403 1797 1869 
L 1797 378 
L 2203 378 
L 2203 0 
L 219 0 
z
" transform="scale(0.015625)"/>
      <path id="DejaVuSerif-Bold-79" d="M 1997 -750 
Q 1847 -1116 1634 -1269 
Q 1422 -1422 1063 -1422 
Q 909 -1422 721 -1387 
Q 534 -1353 313 -1288 
L 313 -594 
L 666 -597 
Q 675 -838 779 -953 
Q 884 -1069 1094 -1069 
Q 1297 -1069 1422 -958 
Q 1547 -847 1672 -538 
L 1722 -422 
L 275 2944 
L -84 2944 
L -84 3322 
L 1831 3322 
L 1831 2944 
L 1434 2944 
L 2278 978 
L 3066 2944 
L 2625 2944 
L 2625 3322 
L 3872 3322 
L 3872 2944 
L 3469 2944 
L 1997 -750 
z
" transform="scale(0.015625)"/>
      <path id="DejaVuSerif-Bold-6c" d="M 1797 378 
L 2272 378 
L 2272 0 
L 219 0 
L 219 378 
L 691 378 
L 691 4488 
L 219 4488 
L 219 4863 
L 1797 4863 
L 1797 378 
z
" transform="scale(0.015625)"/>
      <path id="DejaVuSerif-Bold-67" d="M 3853 2944 
L 3853 44 
Q 3853 -656 3354 -1039 
Q 2856 -1422 1947 -1422 
Q 1616 -1422 1275 -1370 
Q 934 -1319 575 -1216 
L 575 -422 
L 928 -422 
Q 975 -750 1192 -909 
Q 1409 -1069 1813 -1069 
Q 2325 -1069 2536 -823 
Q 2747 -578 2747 44 
L 2747 422 
Q 2606 163 2367 36 
Q 2128 -91 1778 -91 
Q 1072 -91 667 378 
Q 263 847 263 1663 
Q 263 2481 667 2947 
Q 1072 3413 1778 3413 
Q 2128 3413 2367 3286 
Q 2606 3159 2747 2900 
L 2747 3322 
L 4325 3322 
L 4325 2944 
L 3853 2944 
z
M 2747 1825 
Q 2747 2406 2597 2665 
Q 2447 2925 2119 2925 
Q 1775 2925 1636 2651 
Q 1497 2378 1497 1663 
Q 1497 947 1637 672 
Q 1778 397 2119 397 
Q 2447 397 2597 656 
Q 2747 916 2747 1497 
L 2747 1825 
z
" transform="scale(0.015625)"/>
      <path id="DejaVuSerif-Bold-28" d="M 2694 -997 
Q 1641 -606 1122 122 
Q 603 850 603 1931 
Q 603 3013 1115 3731 
Q 1628 4450 2694 4863 
L 2694 4488 
Q 2200 4188 1983 3598 
Q 1766 3009 1766 1931 
Q 1766 856 1983 267 
Q 2200 -322 2694 -622 
L 2694 -997 
z
" transform="scale(0.015625)"/>
      <path id="DejaVuSerif-Bold-39" d="M 2181 4384 
Q 1859 4384 1723 4111 
Q 1588 3838 1588 3163 
Q 1588 2488 1723 2214 
Q 1859 1941 2181 1941 
Q 2503 1941 2640 2214 
Q 2778 2488 2778 3163 
Q 2778 3838 2640 4111 
Q 2503 4384 2181 4384 
z
M 2878 1900 
Q 2672 1734 2420 1651 
Q 2169 1569 1875 1569 
Q 1163 1569 755 1986 
Q 347 2403 347 3138 
Q 347 3913 803 4331 
Q 1259 4750 2106 4750 
Q 3063 4750 3556 4172 
Q 4050 3594 4050 2478 
Q 4050 1206 3503 557 
Q 2956 -91 1881 -91 
Q 1600 -91 1278 -44 
Q 956 3 588 97 
L 588 922 
L 966 922 
Q 1044 603 1261 439 
Q 1478 275 1825 275 
Q 2375 275 2625 658 
Q 2875 1041 2878 1900 
z
" transform="scale(0.015625)"/>
      <path id="DejaVuSerif-Bold-33" d="M 550 4531 
Q 963 4641 1350 4695 
Q 1738 4750 2106 4750 
Q 2950 4750 3401 4448 
Q 3853 4147 3853 3584 
Q 3853 3163 3593 2900 
Q 3334 2638 2834 2547 
Q 3444 2450 3744 2131 
Q 4044 1813 4044 1259 
Q 4044 606 3526 257 
Q 3009 -91 2028 -91 
Q 1659 -91 1267 -28 
Q 875 34 447 159 
L 447 1184 
L 825 1184 
Q 859 741 1103 508 
Q 1347 275 1778 275 
Q 2253 275 2512 539 
Q 2772 803 2772 1288 
Q 2772 1794 2501 2069 
Q 2231 2344 1734 2344 
L 1528 2344 
L 1528 2719 
L 1691 2719 
Q 2150 2719 2381 2931 
Q 2613 3144 2613 3566 
Q 2613 3963 2395 4173 
Q 2178 4384 1772 4384 
Q 1403 4384 1187 4182 
Q 972 3981 928 3597 
L 550 3597 
L 550 4531 
z
" transform="scale(0.015625)"/>
      <path id="DejaVuSerif-Bold-70" d="M 1728 1825 
L 1728 1497 
Q 1728 916 1876 656 
Q 2025 397 2356 397 
Q 2697 397 2836 672 
Q 2975 947 2975 1663 
Q 2975 2378 2836 2651 
Q 2697 2925 2356 2925 
Q 2025 2925 1876 2665 
Q 1728 2406 1728 1825 
z
M 622 2944 
L 147 2944 
L 147 3322 
L 1728 3322 
L 1728 2900 
Q 1869 3159 2106 3286 
Q 2344 3413 2694 3413 
Q 3403 3413 3811 2945 
Q 4219 2478 4219 1663 
Q 4219 847 3811 378 
Q 3403 -91 2694 -91 
Q 2344 -91 2106 36 
Q 1869 163 1728 422 
L 1728 -953 
L 2241 -953 
L 2241 -1331 
L 147 -1331 
L 147 -953 
L 622 -953 
L 622 2944 
z
" transform="scale(0.015625)"/>
      <path id="DejaVuSerif-Bold-69" d="M 588 4263 
Q 588 4516 763 4689 
Q 938 4863 1191 4863 
Q 1438 4863 1611 4689 
Q 1784 4516 1784 4263 
Q 1784 4016 1611 3842 
Q 1438 3669 1191 3669 
Q 938 3669 763 3841 
Q 588 4013 588 4263 
z
M 1797 378 
L 2272 378 
L 2272 0 
L 219 0 
L 219 378 
L 691 378 
L 691 2944 
L 219 2944 
L 219 3322 
L 1797 3322 
L 1797 378 
z
" transform="scale(0.015625)"/>
      <path id="DejaVuSerif-Bold-29" d="M 325 -997 
L 325 -622 
Q 819 -322 1036 267 
Q 1253 856 1253 1931 
Q 1253 3009 1036 3598 
Q 819 4188 325 4488 
L 325 4863 
Q 1391 4450 1905 3731 
Q 2419 3013 2419 1931 
Q 2419 850 1898 122 
Q 1378 -606 325 -997 
z
" transform="scale(0.015625)"/>
     </defs>
     <use xlink:href="#DejaVuSerif-Bold-50"/>
     <use xlink:href="#DejaVuSerif-Bold-72" transform="translate(75.195312 0)"/>
     <use xlink:href="#DejaVuSerif-Bold-6f" transform="translate(127.880859 0)"/>
     <use xlink:href="#DejaVuSerif-Bold-52" transform="translate(194.580078 0)"/>
     <use xlink:href="#DejaVuSerif-Bold-53" transform="translate(277.685547 0)"/>
     <use xlink:href="#DejaVuSerif-Bold-20" transform="translate(349.902344 0)"/>
     <use xlink:href="#DejaVuSerif-Bold-50" transform="translate(384.716797 0)"/>
     <use xlink:href="#DejaVuSerif-Bold-68" transform="translate(459.912109 0)"/>
     <use xlink:href="#DejaVuSerif-Bold-79" transform="translate(532.617188 0)"/>
     <use xlink:href="#DejaVuSerif-Bold-6c" transform="translate(590.722656 0)"/>
     <use xlink:href="#DejaVuSerif-Bold-6f" transform="translate(628.710938 0)"/>
     <use xlink:href="#DejaVuSerif-Bold-67" transform="translate(695.410156 0)"/>
     <use xlink:href="#DejaVuSerif-Bold-65" transform="translate(765.332031 0)"/>
     <use xlink:href="#DejaVuSerif-Bold-6e" transform="translate(828.955078 0)"/>
     <use xlink:href="#DejaVuSerif-Bold-79" transform="translate(901.660156 0)"/>
     <use xlink:href="#DejaVuSerif-Bold-20" transform="translate(959.765625 0)"/>
     <use xlink:href="#DejaVuSerif-Bold-28" transform="translate(994.580078 0)"/>
     <use xlink:href="#DejaVuSerif-Bold-39" transform="translate(1041.894531 0)"/>
     <use xlink:href="#DejaVuSerif-Bold-33" transform="translate(1111.474609 0)"/>
     <use xlink:href="#DejaVuSerif-Bold-20" transform="translate(1181.054688 0)"/>
     <use xlink:href="#DejaVuSerif-Bold-73" transform="translate(1215.869141 0)"/>
     <use xlink:href="#DejaVuSerif-Bold-70" transform="translate(1272.167969 0)"/>
     <use xlink:href="#DejaVuSerif-Bold-65" transform="translate(1342.089844 0)"/>
     <use xlink:href="#DejaVuSerif-Bold-63" transform="translate(1405.712891 0)"/>
     <use xlink:href="#DejaVuSerif-Bold-69" transform="translate(1466.601562 0)"/>
     <use xlink:href="#DejaVuSerif-Bold-65" transform="translate(1504.589844 0)"/>
     <use xlink:href="#DejaVuSerif-Bold-73" transform="translate(1568.212891 0)"/>
     <use xlink:href="#DejaVuSerif-Bold-29" transform="translate(1624.511719 0)"/>
    </g>
   </g>
   <g id="line2d_7">
    <defs>
     <path id="m9e7f8c5755" d="M 0 4 
C 1.060812 4 2.078319 3.578535 2.828427 2.828427 
C 3.578535 2.078319 4 1.060812 4 0 
C 4 -1.060812 3.578535 -2.078319 2.828427 -2.828427 
C 2.078319 -3.578535 1.060812 -4 0 -4 
C -1.060812 -4 -2.078319 -3.578535 -2.828427 -2.828427 
C -3.578535 -2.078319 -4 -1.060812 -4 0 
C -4 1.060812 -3.578535 2.078319 -2.828427 2.828427 
C -2.078319 3.578535 -1.060812 4 0 4 
z
" style="stroke: #000000; stroke-width: 0.5"/>
    </defs>
    <g clip-path="url(#p66be8bfe4f)">
     <use xlink:href="#m9e7f8c5755" x="39.092344" y="113.086957" style="fill: #7e57c2; stroke: #000000; stroke-width: 0.5"/>
    </g>
   </g>
   <g id="line2d_8">
    <defs>
     <path id="m481ab79e6d" d="M 0 -3.5 
L -3.5 3.5 
L 3.5 3.5 
z
" style="stroke: #000000; stroke-width: 0.5; stroke-linejoin: miter"/>
    </defs>
    <g clip-path="url(#p66be8bfe4f)">
     <use xlink:href="#m481ab79e6d" x="49.543772" y="152.85913" style="fill: #5c9e5c; stroke: #000000; stroke-width: 0.5; stroke-linejoin: miter"/>
    </g>
   </g>
  </g>
  <g id="axes_2">
   <g id="patch_5">
    <path d="M 80.898058 252.289565 
L 164.509487 258.918261 
L 164.509487 232.403478 
z
" clip-path="url(#pbce980b523)" style="fill: #c85c5c; opacity: 0.3; stroke: #c85c5c; stroke-linejoin: miter"/>
   </g>
   <g id="patch_6">
    <path d="M 80.898058 292.061739 
L 164.509487 298.690435 
L 164.509487 272.175652 
z
" clip-path="url(#pbce980b523)" style="fill: #5c8ac8; opacity: 0.3; stroke: #5c8ac8; stroke-linejoin: miter"/>
   </g>
   <g id="patch_7">
    <path d="M 80.898058 331.833913 
L 164.509487 338.462609 
L 164.509487 311.947826 
z
" clip-path="url(#pbce980b523)" style="fill: #5c9e5c; opacity: 0.3; stroke: #5c9e5c; stroke-linejoin: miter"/>
   </g>
   <g id="line2d_9">
    <path d="M 18.189487 285.433043 
L 39.092344 285.433043 
" clip-path="url(#pbce980b523)" style="fill: none; stroke: #000000; stroke-width: 0.5; stroke-linecap: square"/>
   </g>
   <g id="line2d_10">
    <path d="M 39.092344 325.205217 
L 39.092344 245.66087 
" clip-path="url(#pbce980b523)" style="fill: none; stroke: #000000; stroke-width: 0.5; stroke-linecap: square"/>
   </g>
   <g id="line2d_11">
    <path d="M 39.092344 245.66087 
L 80.898058 245.66087 
" clip-path="url(#pbce980b523)" style="fill: none; stroke: #000000; stroke-width: 0.5; stroke-linecap: square"/>
   </g>
   <g id="line2d_12">
    <path d="M 39.092344 285.433043 
L 80.898058 285.433043 
" clip-path="url(#pbce980b523)" style="fill: none; stroke: #000000; stroke-width: 0.5; stroke-linecap: square"/>
   </g>
   <g id="line2d_13">
    <path d="M 39.092344 325.205217 
L 80.898058 325.205217 
" clip-path="url(#pbce980b523)" style="fill: none; stroke: #000000; stroke-width: 0.5; stroke-linecap: square"/>
   </g>
   <g id="line2d_14">
    <path d="M 28.640915 345.091304 
L 49.543772 345.091304 
" clip-path="url(#pbce980b523)" style="fill: none; stroke: #000000; stroke-linecap: square"/>
   </g>
   <g id="text_11">
    <!-- B -->
    <g transform="translate(12.127658 230.91569) scale(0.12 -0.12)">
     <defs>
      <path id="DejaVuSerif-Bold-42" d="M 300 0 
L 300 378 
L 897 378 
L 897 4288 
L 300 4288 
L 300 4666 
L 3066 4666 
Q 3919 4666 4347 4378 
Q 4775 4091 4775 3513 
Q 4775 3097 4479 2853 
Q 4184 2609 3603 2547 
Q 4306 2481 4681 2172 
Q 5056 1863 5056 1350 
Q 5056 656 4532 328 
Q 4009 0 2894 0 
L 300 0 
z
M 2100 2719 
L 2509 2719 
Q 3047 2719 3306 2914 
Q 3566 3109 3566 3513 
Q 3566 3919 3314 4103 
Q 3063 4288 2509 4288 
L 2100 4288 
L 2100 2719 
z
M 2100 378 
L 2547 378 
Q 3144 378 3431 615 
Q 3719 853 3719 1350 
Q 3719 1850 3428 2097 
Q 3138 2344 2547 2344 
L 2100 2344 
L 2100 378 
z
" transform="scale(0.015625)"/>
     </defs>
     <use xlink:href="#DejaVuSerif-Bold-42"/>
    </g>
   </g>
   <g id="text_12">
    <!-- Archaea -->
    <g transform="translate(174.960915 247.592432) scale(0.07 -0.07)">
     <use xlink:href="#DejaVuSerif-41"/>
     <use xlink:href="#DejaVuSerif-72" transform="translate(72.216797 0)"/>
     <use xlink:href="#DejaVuSerif-63" transform="translate(120.019531 0)"/>
     <use xlink:href="#DejaVuSerif-68" transform="translate(176.025391 0)"/>
     <use xlink:href="#DejaVuSerif-61" transform="translate(240.429688 0)"/>
     <use xlink:href="#DejaVuSerif-65" transform="translate(300.048828 0)"/>
     <use xlink:href="#DejaVuSerif-61" transform="translate(359.228516 0)"/>
    </g>
   </g>
   <g id="text_13">
    <!-- Bacteria -->
    <g transform="translate(174.960915 287.364606) scale(0.07 -0.07)">
     <use xlink:href="#DejaVuSerif-42"/>
     <use xlink:href="#DejaVuSerif-61" transform="translate(73.486328 0)"/>
     <use xlink:href="#DejaVuSerif-63" transform="translate(133.105469 0)"/>
     <use xlink:href="#DejaVuSerif-74" transform="translate(189.111328 0)"/>
     <use xlink:href="#DejaVuSerif-65" transform="translate(229.296875 0)"/>
     <use xlink:href="#DejaVuSerif-72" transform="translate(288.476562 0)"/>
     <use xlink:href="#DejaVuSerif-69" transform="translate(336.279297 0)"/>
     <use xlink:href="#DejaVuSerif-61" transform="translate(368.261719 0)"/>
    </g>
   </g>
   <g id="text_14">
    <!-- Eukaryota -->
    <g transform="translate(174.960915 327.087014) scale(0.07 -0.07)">
     <use xlink:href="#DejaVuSerif-45"/>
     <use xlink:href="#DejaVuSerif-75" transform="translate(72.998047 0)"/>
     <use xlink:href="#DejaVuSerif-6b" transform="translate(137.402344 0)"/>
     <use xlink:href="#DejaVuSerif-61" transform="translate(197.998047 0)"/>
     <use xlink:href="#DejaVuSerif-72" transform="translate(257.617188 0)"/>
     <use xlink:href="#DejaVuSerif-79" transform="translate(305.419922 0)"/>
     <use xlink:href="#DejaVuSerif-6f" transform="translate(361.914062 0)"/>
     <use xlink:href="#DejaVuSerif-74" transform="translate(422.119141 0)"/>
     <use xlink:href="#DejaVuSerif-61" transform="translate(462.304688 0)"/>
    </g>
   </g>
   <g id="text_15">
    <!-- LUCA -->
    <g transform="translate(10.088728 283.729325) scale(0.06 -0.06)">
     <use xlink:href="#DejaVuSerif-Bold-4c"/>
     <use xlink:href="#DejaVuSerif-Bold-55" transform="translate(64.8125 0)"/>
     <use xlink:href="#DejaVuSerif-Bold-43" transform="translate(152.019531 0)"/>
     <use xlink:href="#DejaVuSerif-Bold-41" transform="translate(231.609375 0)"/>
    </g>
    <!-- ThrRS -->
    <g transform="translate(7.332478 290.448012) scale(0.06 -0.06)">
     <defs>
      <path id="DejaVuSerif-Bold-54" d="M 1159 0 
L 1159 378 
L 1778 378 
L 1778 4238 
L 500 4238 
L 500 3500 
L 72 3500 
L 72 4666 
L 4697 4666 
L 4697 3500 
L 4275 3500 
L 4275 4238 
L 2988 4238 
L 2988 378 
L 3609 378 
L 3609 0 
L 1159 0 
z
" transform="scale(0.015625)"/>
     </defs>
     <use xlink:href="#DejaVuSerif-Bold-54"/>
     <use xlink:href="#DejaVuSerif-Bold-68" transform="translate(74.414062 0)"/>
     <use xlink:href="#DejaVuSerif-Bold-72" transform="translate(147.119141 0)"/>
     <use xlink:href="#DejaVuSerif-Bold-52" transform="translate(199.804688 0)"/>
     <use xlink:href="#DejaVuSerif-Bold-53" transform="translate(282.910156 0)"/>
    </g>
   </g>
   <g id="text_16">
    <!-- 96 -->
    <g style="fill: #808080" transform="translate(41.182629 265.546957) scale(0.05 -0.05)">
     <defs>
      <path id="DejaVuSerif-Italic-36" d="M 1070 553 
Q 1244 219 1684 219 
Q 2125 219 2425 542 
Q 2725 866 2842 1472 
Q 2959 2078 2786 2401 
Q 2613 2725 2172 2725 
Q 1725 2725 1429 2412 
Q 1134 2100 1019 1509 
Q 897 888 1070 553 
z
M 1122 2569 
Q 1378 2803 1670 2918 
Q 1963 3034 2300 3034 
Q 2997 3034 3320 2615 
Q 3644 2197 3503 1472 
Q 3366 763 2845 336 
Q 2325 -91 1597 -91 
Q 806 -91 497 498 
Q 188 1088 400 2181 
Q 638 3406 1272 4078 
Q 1906 4750 2822 4750 
Q 3069 4750 3331 4703 
Q 3594 4656 3859 4563 
L 3709 3794 
L 3356 3794 
Q 3381 4109 3209 4275 
Q 3038 4441 2694 4441 
Q 2088 4441 1702 3981 
Q 1316 3522 1122 2569 
z
" transform="scale(0.015625)"/>
     </defs>
     <use xlink:href="#DejaVuSerif-Italic-39"/>
     <use xlink:href="#DejaVuSerif-Italic-36" transform="translate(63.623047 0)"/>
    </g>
   </g>
   <g id="text_17">
    <!-- 92 -->
    <g style="fill: #808080" transform="translate(41.182629 305.31913) scale(0.05 -0.05)">
     <defs>
      <path id="DejaVuSerif-Italic-32" d="M 1050 3553 
L 700 3553 
L 863 4384 
Q 1231 4563 1589 4656 
Q 1947 4750 2272 4750 
Q 3000 4750 3353 4397 
Q 3706 4044 3588 3438 
Q 3456 2753 2313 1800 
Q 2225 1728 2178 1691 
L 772 513 
L 2719 513 
L 2831 1088 
L 3197 1088 
L 2984 0 
L -25 0 
L 41 341 
L 1731 1753 
Q 2291 2222 2567 2614 
Q 2844 3006 2928 3438 
Q 3019 3909 2825 4175 
Q 2631 4441 2200 4441 
Q 1753 4441 1467 4219 
Q 1181 3997 1050 3553 
z
" transform="scale(0.015625)"/>
     </defs>
     <use xlink:href="#DejaVuSerif-Italic-39"/>
     <use xlink:href="#DejaVuSerif-Italic-32" transform="translate(63.623047 0)"/>
    </g>
   </g>
   <g id="text_18">
    <!-- 0.1 substitutions/site -->
    <g transform="translate(7.2 349.068522) scale(0.06 -0.06)">
     <use xlink:href="#DejaVuSerif-30"/>
     <use xlink:href="#DejaVuSerif-2e" transform="translate(63.623047 0)"/>
     <use xlink:href="#DejaVuSerif-31" transform="translate(95.410156 0)"/>
     <use xlink:href="#DejaVuSerif-20" transform="translate(159.033203 0)"/>
     <use xlink:href="#DejaVuSerif-73" transform="translate(190.820312 0)"/>
     <use xlink:href="#DejaVuSerif-75" transform="translate(242.138672 0)"/>
     <use xlink:href="#DejaVuSerif-62" transform="translate(306.542969 0)"/>
     <use xlink:href="#DejaVuSerif-73" transform="translate(370.556641 0)"/>
     <use xlink:href="#DejaVuSerif-74" transform="translate(421.875 0)"/>
     <use xlink:href="#DejaVuSerif-69" transform="translate(462.060547 0)"/>
     <use xlink:href="#DejaVuSerif-74" transform="translate(494.042969 0)"/>
     <use xlink:href="#DejaVuSerif-75" transform="translate(534.228516 0)"/>
     <use xlink:href="#DejaVuSerif-74" transform="translate(598.632812 0)"/>
     <use xlink:href="#DejaVuSerif-69" transform="translate(638.818359 0)"/>
     <use xlink:href="#DejaVuSerif-6f" transform="translate(670.800781 0)"/>
     <use xlink:href="#DejaVuSerif-6e" transform="translate(731.005859 0)"/>
     <use xlink:href="#DejaVuSerif-73" transform="translate(795.410156 0)"/>
     <use xlink:href="#DejaVuSerif-2f" transform="translate(846.728516 0)"/>
     <use xlink:href="#DejaVuSerif-73" transform="translate(880.419922 0)"/>
     <use xlink:href="#DejaVuSerif-69" transform="translate(931.738281 0)"/>
     <use xlink:href="#DejaVuSerif-74" transform="translate(963.720703 0)"/>
     <use xlink:href="#DejaVuSerif-65" transform="translate(1003.90625 0)"/>
    </g>
   </g>
   <g id="text_19">
    <!-- ThrRS Phylogeny (64 species) -->
    <g transform="translate(42.010246 209.146087) scale(0.09 -0.09)">
     <defs>
      <path id="DejaVuSerif-Bold-36" d="M 1575 2766 
Q 1778 2928 2029 3009 
Q 2281 3091 2578 3091 
Q 3294 3091 3701 2672 
Q 4109 2253 4109 1522 
Q 4109 750 3650 329 
Q 3191 -91 2344 -91 
Q 1388 -91 895 486 
Q 403 1063 403 2181 
Q 403 3453 950 4101 
Q 1497 4750 2572 4750 
Q 2853 4750 3175 4703 
Q 3497 4656 3866 4563 
L 3866 3738 
L 3488 3738 
Q 3409 4056 3192 4220 
Q 2975 4384 2631 4384 
Q 2075 4384 1826 4003 
Q 1578 3622 1575 2766 
z
M 2272 275 
Q 2594 275 2731 548 
Q 2869 822 2869 1497 
Q 2869 2172 2731 2445 
Q 2594 2719 2272 2719 
Q 1950 2719 1814 2445 
Q 1678 2172 1678 1497 
Q 1678 822 1814 548 
Q 1950 275 2272 275 
z
" transform="scale(0.015625)"/>
      <path id="DejaVuSerif-Bold-34" d="M 4084 0 
L 1516 0 
L 1516 378 
L 2209 378 
L 2209 1228 
L 263 1228 
L 263 1588 
L 2216 4750 
L 3391 4750 
L 3391 1631 
L 4191 1631 
L 4191 1228 
L 3391 1228 
L 3391 378 
L 4084 378 
L 4084 0 
z
M 2209 1631 
L 2209 3897 
L 819 1631 
L 2209 1631 
z
" transform="scale(0.015625)"/>
     </defs>
     <use xlink:href="#DejaVuSerif-Bold-54"/>
     <use xlink:href="#DejaVuSerif-Bold-68" transform="translate(74.414062 0)"/>
     <use xlink:href="#DejaVuSerif-Bold-72" transform="translate(147.119141 0)"/>
     <use xlink:href="#DejaVuSerif-Bold-52" transform="translate(199.804688 0)"/>
     <use xlink:href="#DejaVuSerif-Bold-53" transform="translate(282.910156 0)"/>
     <use xlink:href="#DejaVuSerif-Bold-20" transform="translate(355.126953 0)"/>
     <use xlink:href="#DejaVuSerif-Bold-50" transform="translate(389.941406 0)"/>
     <use xlink:href="#DejaVuSerif-Bold-68" transform="translate(465.136719 0)"/>
     <use xlink:href="#DejaVuSerif-Bold-79" transform="translate(537.841797 0)"/>
     <use xlink:href="#DejaVuSerif-Bold-6c" transform="translate(595.947266 0)"/>
     <use xlink:href="#DejaVuSerif-Bold-6f" transform="translate(633.935547 0)"/>
     <use xlink:href="#DejaVuSerif-Bold-67" transform="translate(700.634766 0)"/>
     <use xlink:href="#DejaVuSerif-Bold-65" transform="translate(770.556641 0)"/>
     <use xlink:href="#DejaVuSerif-Bold-6e" transform="translate(834.179688 0)"/>
     <use xlink:href="#DejaVuSerif-Bold-79" transform="translate(906.884766 0)"/>
     <use xlink:href="#DejaVuSerif-Bold-20" transform="translate(964.990234 0)"/>
     <use xlink:href="#DejaVuSerif-Bold-28" transform="translate(999.804688 0)"/>
     <use xlink:href="#DejaVuSerif-Bold-36" transform="translate(1047.119141 0)"/>
     <use xlink:href="#DejaVuSerif-Bold-34" transform="translate(1116.699219 0)"/>
     <use xlink:href="#DejaVuSerif-Bold-20" transform="translate(1186.279297 0)"/>
     <use xlink:href="#DejaVuSerif-Bold-73" transform="translate(1221.09375 0)"/>
     <use xlink:href="#DejaVuSerif-Bold-70" transform="translate(1277.392578 0)"/>
     <use xlink:href="#DejaVuSerif-Bold-65" transform="translate(1347.314453 0)"/>
     <use xlink:href="#DejaVuSerif-Bold-63" transform="translate(1410.9375 0)"/>
     <use xlink:href="#DejaVuSerif-Bold-69" transform="translate(1471.826172 0)"/>
     <use xlink:href="#DejaVuSerif-Bold-65" transform="translate(1509.814453 0)"/>
     <use xlink:href="#DejaVuSerif-Bold-73" transform="translate(1573.4375 0)"/>
     <use xlink:href="#DejaVuSerif-Bold-29" transform="translate(1629.736328 0)"/>
    </g>
   </g>
   <g id="line2d_15">
    <g clip-path="url(#pbce980b523)">
     <use xlink:href="#m9e7f8c5755" x="39.092344" y="285.433043" style="fill: #7e57c2; stroke: #000000; stroke-width: 0.5"/>
    </g>
   </g>
  </g>
  <g id="axes_3">
   <g id="patch_8">
    <path d="M 304.036058 93.20087 
L 320.497058 93.20087 
L 320.497058 79.943478 
L 304.036058 79.943478 
z
" clip-path="url(#p80eae2673d)" style="fill: #f5f5f5; stroke: #000000; stroke-width: 0.5; stroke-linejoin: miter"/>
   </g>
   <g id="patch_9">
    <path d="M 322.691858 93.20087 
L 355.613858 93.20087 
L 355.613858 79.943478 
L 322.691858 79.943478 
z
" clip-path="url(#p80eae2673d)" style="fill: #1976d2; opacity: 0.6; stroke: #000000; stroke-width: 0.5; stroke-linejoin: miter"/>
   </g>
   <g id="patch_10">
    <path d="M 361.100858 93.20087 
L 383.048858 93.20087 
L 383.048858 79.943478 
L 361.100858 79.943478 
z
" clip-path="url(#p80eae2673d)" style="fill: #f57c00; opacity: 0.6; stroke: #000000; stroke-width: 0.5; stroke-linejoin: miter"/>
   </g>
   <g id="patch_11">
    <path d="M 385.243658 93.20087 
L 396.217658 93.20087 
L 396.217658 79.943478 
L 385.243658 79.943478 
z
" clip-path="url(#p80eae2673d)" style="fill: #f5f5f5; stroke: #000000; stroke-width: 0.5; stroke-linejoin: miter"/>
   </g>
   <g id="patch_12">
    <path d="M 304.036058 146.230435 
L 320.497058 146.230435 
L 320.497058 132.973043 
L 304.036058 132.973043 
z
" clip-path="url(#p80eae2673d)" style="fill: #f5f5f5; stroke: #000000; stroke-width: 0.5; stroke-linejoin: miter"/>
   </g>
   <g id="patch_13">
    <path d="M 322.691858 146.230435 
L 388.535858 146.230435 
L 388.535858 132.973043 
L 322.691858 132.973043 
z
" clip-path="url(#p80eae2673d)" style="fill: #1976d2; opacity: 0.6; stroke: #000000; stroke-width: 0.5; stroke-linejoin: miter"/>
   </g>
   <g id="patch_14">
    <path d="M 390.730658 146.230435 
L 396.217658 146.230435 
L 396.217658 132.973043 
L 390.730658 132.973043 
z
" clip-path="url(#p80eae2673d)" style="fill: #f5f5f5; stroke: #000000; stroke-width: 0.5; stroke-linejoin: miter"/>
   </g>
   <g id="text_20">
    <!-- C -->
    <g transform="translate(295.256858 58.569603) scale(0.12 -0.12)">
     <use xlink:href="#DejaVuSerif-Bold-43"/>
    </g>
   </g>
   <g id="text_21">
    <!-- N-term -->
    <g transform="translate(301.367652 88.227799) scale(0.06 -0.06)">
     <defs>
      <path id="DejaVuSerif-4e" d="M 313 0 
L 313 331 
L 941 331 
L 941 4331 
L 313 4331 
L 313 4666 
L 1509 4666 
L 4306 984 
L 4306 4331 
L 3681 4331 
L 3681 4666 
L 5319 4666 
L 5319 4331 
L 4691 4331 
L 4691 -91 
L 4313 -91 
L 1325 3841 
L 1325 331 
L 1953 331 
L 1953 0 
L 313 0 
z
" transform="scale(0.015625)"/>
      <path id="DejaVuSerif-2d" d="M 281 1959 
L 1881 1959 
L 1881 1472 
L 281 1472 
L 281 1959 
z
" transform="scale(0.015625)"/>
      <path id="DejaVuSerif-6d" d="M 3316 2675 
Q 3481 3041 3739 3227 
Q 3997 3413 4341 3413 
Q 4863 3413 5119 3089 
Q 5375 2766 5375 2113 
L 5375 331 
L 5894 331 
L 5894 0 
L 4300 0 
L 4300 331 
L 4800 331 
L 4800 2047 
Q 4800 2556 4650 2772 
Q 4500 2988 4153 2988 
Q 3769 2988 3567 2697 
Q 3366 2406 3366 1850 
L 3366 331 
L 3866 331 
L 3866 0 
L 2291 0 
L 2291 331 
L 2791 331 
L 2791 2069 
Q 2791 2566 2641 2777 
Q 2491 2988 2144 2988 
Q 1759 2988 1557 2697 
Q 1356 2406 1356 1850 
L 1356 331 
L 1856 331 
L 1856 0 
L 263 0 
L 263 331 
L 781 331 
L 781 2994 
L 231 2994 
L 231 3322 
L 1356 3322 
L 1356 2731 
Q 1516 3063 1762 3238 
Q 2009 3413 2322 3413 
Q 2709 3413 2968 3220 
Q 3228 3028 3316 2675 
z
" transform="scale(0.015625)"/>
     </defs>
     <use xlink:href="#DejaVuSerif-4e"/>
     <use xlink:href="#DejaVuSerif-2d" transform="translate(87.5 0)"/>
     <use xlink:href="#DejaVuSerif-74" transform="translate(121.289062 0)"/>
     <use xlink:href="#DejaVuSerif-65" transform="translate(161.474609 0)"/>
     <use xlink:href="#DejaVuSerif-72" transform="translate(220.654297 0)"/>
     <use xlink:href="#DejaVuSerif-6d" transform="translate(268.457031 0)"/>
    </g>
   </g>
   <g id="text_22">
    <!-- Catalytic -->
    <g style="fill: #ffffff" transform="translate(324.256921 88.185143) scale(0.06 -0.06)">
     <use xlink:href="#DejaVuSerif-Bold-43"/>
     <use xlink:href="#DejaVuSerif-Bold-61" transform="translate(79.589844 0)"/>
     <use xlink:href="#DejaVuSerif-Bold-74" transform="translate(144.384766 0)"/>
     <use xlink:href="#DejaVuSerif-Bold-61" transform="translate(190.576172 0)"/>
     <use xlink:href="#DejaVuSerif-Bold-6c" transform="translate(255.371094 0)"/>
     <use xlink:href="#DejaVuSerif-Bold-79" transform="translate(293.359375 0)"/>
     <use xlink:href="#DejaVuSerif-Bold-74" transform="translate(351.464844 0)"/>
     <use xlink:href="#DejaVuSerif-Bold-69" transform="translate(397.65625 0)"/>
     <use xlink:href="#DejaVuSerif-Bold-63" transform="translate(435.644531 0)"/>
    </g>
   </g>
   <g id="text_23">
    <!-- Editing -->
    <g style="fill: #ffffff" transform="translate(359.747202 88.185143) scale(0.06 -0.06)">
     <defs>
      <path id="DejaVuSerif-Bold-64" d="M 2747 1497 
L 2747 1825 
Q 2747 2406 2597 2665 
Q 2447 2925 2119 2925 
Q 1775 2925 1636 2651 
Q 1497 2378 1497 1663 
Q 1497 947 1637 672 
Q 1778 397 2119 397 
Q 2447 397 2597 656 
Q 2747 916 2747 1497 
z
M 3853 378 
L 4325 378 
L 4325 0 
L 2747 0 
L 2747 422 
Q 2606 163 2367 36 
Q 2128 -91 1778 -91 
Q 1072 -91 667 378 
Q 263 847 263 1663 
Q 263 2481 667 2947 
Q 1072 3413 1778 3413 
Q 2128 3413 2367 3286 
Q 2606 3159 2747 2900 
L 2747 4488 
L 2272 4488 
L 2272 4863 
L 3853 4863 
L 3853 378 
z
" transform="scale(0.015625)"/>
     </defs>
     <use xlink:href="#DejaVuSerif-Bold-45"/>
     <use xlink:href="#DejaVuSerif-Bold-64" transform="translate(76.220703 0)"/>
     <use xlink:href="#DejaVuSerif-Bold-69" transform="translate(146.142578 0)"/>
     <use xlink:href="#DejaVuSerif-Bold-74" transform="translate(184.130859 0)"/>
     <use xlink:href="#DejaVuSerif-Bold-69" transform="translate(230.322266 0)"/>
     <use xlink:href="#DejaVuSerif-Bold-6e" transform="translate(268.310547 0)"/>
     <use xlink:href="#DejaVuSerif-Bold-67" transform="translate(341.015625 0)"/>
    </g>
   </g>
   <g id="text_24">
    <!-- C -->
    <g transform="translate(388.435189 88.227799) scale(0.06 -0.06)">
     <defs>
      <path id="DejaVuSerif-43" d="M 4513 1234 
Q 4306 581 3820 245 
Q 3334 -91 2591 -91 
Q 2134 -91 1743 65 
Q 1353 222 1050 525 
Q 700 875 529 1320 
Q 359 1766 359 2328 
Q 359 3416 987 4083 
Q 1616 4750 2644 4750 
Q 3025 4750 3456 4650 
Q 3888 4550 4384 4347 
L 4384 3272 
L 4031 3272 
Q 3916 3859 3567 4137 
Q 3219 4416 2591 4416 
Q 1844 4416 1459 3886 
Q 1075 3356 1075 2328 
Q 1075 1303 1459 773 
Q 1844 244 2591 244 
Q 3113 244 3450 492 
Q 3788 741 3938 1234 
L 4513 1234 
z
" transform="scale(0.015625)"/>
     </defs>
     <use xlink:href="#DejaVuSerif-43"/>
    </g>
   </g>
   <g id="text_25">
    <!-- ProRS -->
    <g transform="translate(333.935183 66.686087) scale(0.08 -0.08)">
     <use xlink:href="#DejaVuSerif-Bold-50"/>
     <use xlink:href="#DejaVuSerif-Bold-72" transform="translate(75.195312 0)"/>
     <use xlink:href="#DejaVuSerif-Bold-6f" transform="translate(127.880859 0)"/>
     <use xlink:href="#DejaVuSerif-Bold-52" transform="translate(194.580078 0)"/>
     <use xlink:href="#DejaVuSerif-Bold-53" transform="translate(277.685547 0)"/>
    </g>
   </g>
   <g id="text_26">
    <!-- 1 -->
    <g transform="translate(304.036058 73.314783) scale(0.05 -0.05)">
     <use xlink:href="#DejaVuSerif-31"/>
    </g>
   </g>
   <g id="text_27">
    <!-- 2037 aa -->
    <g transform="translate(375.941096 73.314783) scale(0.05 -0.05)">
     <defs>
      <path id="DejaVuSerif-32" d="M 819 3553 
L 469 3553 
L 469 4384 
Q 803 4563 1142 4656 
Q 1481 4750 1806 4750 
Q 2534 4750 2956 4397 
Q 3378 4044 3378 3438 
Q 3378 2753 2422 1800 
Q 2347 1728 2309 1691 
L 1131 513 
L 3078 513 
L 3078 1088 
L 3444 1088 
L 3444 0 
L 434 0 
L 434 341 
L 1850 1753 
Q 2319 2222 2519 2614 
Q 2719 3006 2719 3438 
Q 2719 3909 2473 4175 
Q 2228 4441 1797 4441 
Q 1350 4441 1106 4219 
Q 863 3997 819 3553 
z
" transform="scale(0.015625)"/>
      <path id="DejaVuSerif-33" d="M 622 4469 
Q 988 4606 1323 4678 
Q 1659 4750 1953 4750 
Q 2638 4750 3022 4454 
Q 3406 4159 3406 3634 
Q 3406 3213 3140 2930 
Q 2875 2647 2388 2547 
Q 2963 2466 3280 2130 
Q 3597 1794 3597 1259 
Q 3597 606 3158 257 
Q 2719 -91 1894 -91 
Q 1528 -91 1179 -12 
Q 831 66 488 225 
L 488 1131 
L 838 1131 
Q 869 681 1141 450 
Q 1413 219 1906 219 
Q 2384 219 2661 495 
Q 2938 772 2938 1253 
Q 2938 1803 2653 2086 
Q 2369 2369 1819 2369 
L 1522 2369 
L 1522 2688 
L 1678 2688 
Q 2225 2688 2498 2914 
Q 2772 3141 2772 3597 
Q 2772 4006 2547 4223 
Q 2322 4441 1900 4441 
Q 1478 4441 1245 4241 
Q 1013 4041 972 3647 
L 622 3647 
L 622 4469 
z
" transform="scale(0.015625)"/>
      <path id="DejaVuSerif-37" d="M 3609 4347 
L 1784 0 
L 1319 0 
L 3059 4153 
L 903 4153 
L 903 3578 
L 538 3578 
L 538 4666 
L 3609 4666 
L 3609 4347 
z
" transform="scale(0.015625)"/>
     </defs>
     <use xlink:href="#DejaVuSerif-32"/>
     <use xlink:href="#DejaVuSerif-30" transform="translate(63.623047 0)"/>
     <use xlink:href="#DejaVuSerif-33" transform="translate(127.246094 0)"/>
     <use xlink:href="#DejaVuSerif-37" transform="translate(190.869141 0)"/>
     <use xlink:href="#DejaVuSerif-20" transform="translate(254.492188 0)"/>
     <use xlink:href="#DejaVuSerif-61" transform="translate(286.279297 0)"/>
     <use xlink:href="#DejaVuSerif-61" transform="translate(345.898438 0)"/>
    </g>
   </g>
   <g id="text_28">
    <!-- N-term -->
    <g transform="translate(301.367652 141.257364) scale(0.06 -0.06)">
     <use xlink:href="#DejaVuSerif-4e"/>
     <use xlink:href="#DejaVuSerif-2d" transform="translate(87.5 0)"/>
     <use xlink:href="#DejaVuSerif-74" transform="translate(121.289062 0)"/>
     <use xlink:href="#DejaVuSerif-65" transform="translate(161.474609 0)"/>
     <use xlink:href="#DejaVuSerif-72" transform="translate(220.654297 0)"/>
     <use xlink:href="#DejaVuSerif-6d" transform="translate(268.457031 0)"/>
    </g>
   </g>
   <g id="text_29">
    <!-- Catalytic -->
    <g style="fill: #ffffff" transform="translate(340.717921 141.214708) scale(0.06 -0.06)">
     <use xlink:href="#DejaVuSerif-Bold-43"/>
     <use xlink:href="#DejaVuSerif-Bold-61" transform="translate(79.589844 0)"/>
     <use xlink:href="#DejaVuSerif-Bold-74" transform="translate(144.384766 0)"/>
     <use xlink:href="#DejaVuSerif-Bold-61" transform="translate(190.576172 0)"/>
     <use xlink:href="#DejaVuSerif-Bold-6c" transform="translate(255.371094 0)"/>
     <use xlink:href="#DejaVuSerif-Bold-79" transform="translate(293.359375 0)"/>
     <use xlink:href="#DejaVuSerif-Bold-74" transform="translate(351.464844 0)"/>
     <use xlink:href="#DejaVuSerif-Bold-69" transform="translate(397.65625 0)"/>
     <use xlink:href="#DejaVuSerif-Bold-63" transform="translate(435.644531 0)"/>
    </g>
   </g>
   <g id="text_30">
    <!-- C -->
    <g transform="translate(391.178689 141.257364) scale(0.06 -0.06)">
     <use xlink:href="#DejaVuSerif-43"/>
    </g>
   </g>
   <g id="text_31">
    <!-- ThrRS -->
    <g transform="translate(333.726433 119.715652) scale(0.08 -0.08)">
     <use xlink:href="#DejaVuSerif-Bold-54"/>
     <use xlink:href="#DejaVuSerif-Bold-68" transform="translate(74.414062 0)"/>
     <use xlink:href="#DejaVuSerif-Bold-72" transform="translate(147.119141 0)"/>
     <use xlink:href="#DejaVuSerif-Bold-52" transform="translate(199.804688 0)"/>
     <use xlink:href="#DejaVuSerif-Bold-53" transform="translate(282.910156 0)"/>
    </g>
   </g>
   <g id="text_32">
    <!-- 1 -->
    <g transform="translate(304.036058 126.344348) scale(0.05 -0.05)">
     <use xlink:href="#DejaVuSerif-31"/>
    </g>
   </g>
   <g id="text_33">
    <!-- 1017 aa -->
    <g transform="translate(375.941096 126.344348) scale(0.05 -0.05)">
     <use xlink:href="#DejaVuSerif-31"/>
     <use xlink:href="#DejaVuSerif-30" transform="translate(63.623047 0)"/>
     <use xlink:href="#DejaVuSerif-31" transform="translate(127.246094 0)"/>
     <use xlink:href="#DejaVuSerif-37" transform="translate(190.869141 0)"/>
     <use xlink:href="#DejaVuSerif-20" transform="translate(254.492188 0)"/>
     <use xlink:href="#DejaVuSerif-61" transform="translate(286.279297 0)"/>
     <use xlink:href="#DejaVuSerif-61" transform="translate(345.898438 0)"/>
    </g>
   </g>
   <g id="patch_15">
    <path d="M 372.074858 95.197894 
Q 372.074858 99.828775 372.074858 103.900639 
" style="fill: none; stroke: #ff0000; stroke-width: 0.5; stroke-linecap: round"/>
    <path d="M 373.674858 100.700639 
L 372.074858 103.900639 
L 370.474858 100.700639 
" style="fill: none; stroke: #ff0000; stroke-width: 0.5; stroke-linecap: round"/>
   </g>
   <g id="text_34">
    <!-- No editing -->
    <g style="fill: #ff0000" transform="translate(354.337358 79.768174) scale(0.06 -0.06)">
     <defs>
      <path id="DejaVuSerif-Bold-4e" d="M 281 0 
L 281 378 
L 878 378 
L 878 4288 
L 281 4288 
L 281 4666 
L 1741 4666 
L 4556 1363 
L 4556 4288 
L 3963 4288 
L 3963 4666 
L 5594 4666 
L 5594 4288 
L 4997 4288 
L 4997 0 
L 4178 0 
L 1319 3372 
L 1319 378 
L 1913 378 
L 1913 0 
L 281 0 
z
" transform="scale(0.015625)"/>
     </defs>
     <use xlink:href="#DejaVuSerif-Bold-4e"/>
     <use xlink:href="#DejaVuSerif-Bold-6f" transform="translate(91.40625 0)"/>
     <use xlink:href="#DejaVuSerif-Bold-20" transform="translate(158.105469 0)"/>
     <use xlink:href="#DejaVuSerif-Bold-65" transform="translate(192.919922 0)"/>
     <use xlink:href="#DejaVuSerif-Bold-64" transform="translate(256.542969 0)"/>
     <use xlink:href="#DejaVuSerif-Bold-69" transform="translate(326.464844 0)"/>
     <use xlink:href="#DejaVuSerif-Bold-74" transform="translate(364.453125 0)"/>
     <use xlink:href="#DejaVuSerif-Bold-69" transform="translate(410.644531 0)"/>
     <use xlink:href="#DejaVuSerif-Bold-6e" transform="translate(448.632812 0)"/>
     <use xlink:href="#DejaVuSerif-Bold-67" transform="translate(521.337891 0)"/>
    </g>
    <!-- domain -->
    <g style="fill: #ff0000" transform="translate(359.537202 86.572174) scale(0.06 -0.06)">
     <defs>
      <path id="DejaVuSerif-Bold-6d" d="M 3884 2778 
Q 4116 3109 4384 3261 
Q 4653 3413 5013 3413 
Q 5584 3413 5867 3089 
Q 6150 2766 6150 2113 
L 6150 378 
L 6625 378 
L 6625 0 
L 4647 0 
L 4647 378 
L 5044 378 
L 5044 1947 
Q 5044 2569 4948 2731 
Q 4853 2894 4594 2894 
Q 4300 2894 4137 2667 
Q 3975 2441 3975 2022 
L 3975 378 
L 4372 378 
L 4372 0 
L 2472 0 
L 2472 378 
L 2869 378 
L 2869 1947 
Q 2869 2569 2772 2731 
Q 2675 2894 2419 2894 
Q 2122 2894 1959 2667 
Q 1797 2441 1797 2022 
L 1797 378 
L 2194 378 
L 2194 0 
L 219 0 
L 219 378 
L 691 378 
L 691 2944 
L 219 2944 
L 219 3322 
L 1797 3322 
L 1797 2853 
Q 1991 3144 2241 3278 
Q 2491 3413 2834 3413 
Q 3241 3413 3494 3258 
Q 3747 3103 3884 2778 
z
" transform="scale(0.015625)"/>
     </defs>
     <use xlink:href="#DejaVuSerif-Bold-64"/>
     <use xlink:href="#DejaVuSerif-Bold-6f" transform="translate(69.921875 0)"/>
     <use xlink:href="#DejaVuSerif-Bold-6d" transform="translate(136.621094 0)"/>
     <use xlink:href="#DejaVuSerif-Bold-61" transform="translate(242.431641 0)"/>
     <use xlink:href="#DejaVuSerif-Bold-69" transform="translate(307.226562 0)"/>
     <use xlink:href="#DejaVuSerif-Bold-6e" transform="translate(345.214844 0)"/>
    </g>
   </g>
   <g id="text_35">
    <!-- Domain Architecture -->
    <g transform="translate(294.953699 36.8) scale(0.09 -0.09)">
     <defs>
      <path id="DejaVuSerif-Bold-44" d="M 2100 378 
L 2534 378 
Q 3266 378 3605 847 
Q 3944 1316 3944 2338 
Q 3944 3353 3606 3820 
Q 3269 4288 2534 4288 
L 2100 4288 
L 2100 378 
z
M 300 0 
L 300 378 
L 897 378 
L 897 4288 
L 300 4288 
L 300 4666 
L 2694 4666 
Q 3950 4666 4615 4066 
Q 5281 3466 5281 2338 
Q 5281 1203 4614 601 
Q 3947 0 2694 0 
L 300 0 
z
" transform="scale(0.015625)"/>
     </defs>
     <use xlink:href="#DejaVuSerif-Bold-44"/>
     <use xlink:href="#DejaVuSerif-Bold-6f" transform="translate(86.71875 0)"/>
     <use xlink:href="#DejaVuSerif-Bold-6d" transform="translate(153.417969 0)"/>
     <use xlink:href="#DejaVuSerif-Bold-61" transform="translate(259.228516 0)"/>
     <use xlink:href="#DejaVuSerif-Bold-69" transform="translate(324.023438 0)"/>
     <use xlink:href="#DejaVuSerif-Bold-6e" transform="translate(362.011719 0)"/>
     <use xlink:href="#DejaVuSerif-Bold-20" transform="translate(434.716797 0)"/>
     <use xlink:href="#DejaVuSerif-Bold-41" transform="translate(469.53125 0)"/>
     <use xlink:href="#DejaVuSerif-Bold-72" transform="translate(547.119141 0)"/>
     <use xlink:href="#DejaVuSerif-Bold-63" transform="translate(599.804688 0)"/>
     <use xlink:href="#DejaVuSerif-Bold-68" transform="translate(660.693359 0)"/>
     <use xlink:href="#DejaVuSerif-Bold-69" transform="translate(733.398438 0)"/>
     <use xlink:href="#DejaVuSerif-Bold-74" transform="translate(771.386719 0)"/>
     <use xlink:href="#DejaVuSerif-Bold-65" transform="translate(817.578125 0)"/>
     <use xlink:href="#DejaVuSerif-Bold-63" transform="translate(881.201172 0)"/>
     <use xlink:href="#DejaVuSerif-Bold-74" transform="translate(942.089844 0)"/>
     <use xlink:href="#DejaVuSerif-Bold-75" transform="translate(988.28125 0)"/>
     <use xlink:href="#DejaVuSerif-Bold-72" transform="translate(1060.986328 0)"/>
     <use xlink:href="#DejaVuSerif-Bold-65" transform="translate(1113.671875 0)"/>
    </g>
   </g>
  </g>
  <g id="axes_4">
   <g id="text_36">
    <!-- D -->
    <g transform="translate(295.256858 230.91569) scale(0.12 -0.12)">
     <use xlink:href="#DejaVuSerif-Bold-44"/>
    </g>
   </g>
   <g id="legend_1">
    <g id="patch_16">
     <path d="M 306.651199 322.593747 
L 389.212917 322.593747 
Q 390.612917 322.593747 390.612917 321.193747 
L 390.612917 249.67234 
Q 390.612917 248.27234 389.212917 248.27234 
L 306.651199 248.27234 
Q 305.251199 248.27234 305.251199 249.67234 
L 305.251199 321.193747 
Q 305.251199 322.593747 306.651199 322.593747 
z
" style="fill: #ffffff; stroke: #808080; stroke-width: 0.5; stroke-linejoin: miter"/>
    </g>
    <g id="patch_17">
     <path d="M 308.051199 256.391247 
L 322.051199 256.391247 
L 322.051199 251.491247 
L 308.051199 251.491247 
z
" style="fill: #c85c5c; opacity: 0.3; stroke: #c85c5c; stroke-width: 0.5; stroke-linejoin: miter"/>
    </g>
    <g id="text_37">
     <!-- Archaea -->
     <g transform="translate(327.651199 256.391247) scale(0.07 -0.07)">
      <use xlink:href="#DejaVuSerif-41"/>
      <use xlink:href="#DejaVuSerif-72" transform="translate(72.216797 0)"/>
      <use xlink:href="#DejaVuSerif-63" transform="translate(120.019531 0)"/>
      <use xlink:href="#DejaVuSerif-68" transform="translate(176.025391 0)"/>
      <use xlink:href="#DejaVuSerif-61" transform="translate(240.429688 0)"/>
      <use xlink:href="#DejaVuSerif-65" transform="translate(300.048828 0)"/>
      <use xlink:href="#DejaVuSerif-61" transform="translate(359.228516 0)"/>
     </g>
    </g>
    <g id="patch_18">
     <path d="M 308.051199 266.665934 
L 322.051199 266.665934 
L 322.051199 261.765934 
L 308.051199 261.765934 
z
" style="fill: #5c8ac8; opacity: 0.3; stroke: #5c8ac8; stroke-width: 0.5; stroke-linejoin: miter"/>
    </g>
    <g id="text_38">
     <!-- Bacteria -->
     <g transform="translate(327.651199 266.665934) scale(0.07 -0.07)">
      <use xlink:href="#DejaVuSerif-42"/>
      <use xlink:href="#DejaVuSerif-61" transform="translate(73.486328 0)"/>
      <use xlink:href="#DejaVuSerif-63" transform="translate(133.105469 0)"/>
      <use xlink:href="#DejaVuSerif-74" transform="translate(189.111328 0)"/>
      <use xlink:href="#DejaVuSerif-65" transform="translate(229.296875 0)"/>
      <use xlink:href="#DejaVuSerif-72" transform="translate(288.476562 0)"/>
      <use xlink:href="#DejaVuSerif-69" transform="translate(336.279297 0)"/>
      <use xlink:href="#DejaVuSerif-61" transform="translate(368.261719 0)"/>
     </g>
    </g>
    <g id="patch_19">
     <path d="M 308.051199 276.940622 
L 322.051199 276.940622 
L 322.051199 272.040622 
L 308.051199 272.040622 
z
" style="fill: #5c9e5c; opacity: 0.3; stroke: #5c9e5c; stroke-width: 0.5; stroke-linejoin: miter"/>
    </g>
    <g id="text_39">
     <!-- Eukaryota -->
     <g transform="translate(327.651199 276.940622) scale(0.07 -0.07)">
      <use xlink:href="#DejaVuSerif-45"/>
      <use xlink:href="#DejaVuSerif-75" transform="translate(72.998047 0)"/>
      <use xlink:href="#DejaVuSerif-6b" transform="translate(137.402344 0)"/>
      <use xlink:href="#DejaVuSerif-61" transform="translate(197.998047 0)"/>
      <use xlink:href="#DejaVuSerif-72" transform="translate(257.617188 0)"/>
      <use xlink:href="#DejaVuSerif-79" transform="translate(305.419922 0)"/>
      <use xlink:href="#DejaVuSerif-6f" transform="translate(361.914062 0)"/>
      <use xlink:href="#DejaVuSerif-74" transform="translate(422.119141 0)"/>
      <use xlink:href="#DejaVuSerif-61" transform="translate(462.304688 0)"/>
     </g>
    </g>
    <g id="line2d_16">
     <path d="M 308.051199 284.86484 
L 315.051199 284.86484 
L 322.051199 284.86484 
" style="fill: none; stroke: #ffffff; stroke-linecap: square"/>
     <defs>
      <path id="mbbebd7e030" d="M 0 3 
C 0.795609 3 1.55874 2.683901 2.12132 2.12132 
C 2.683901 1.55874 3 0.795609 3 0 
C 3 -0.795609 2.683901 -1.55874 2.12132 -2.12132 
C 1.55874 -2.683901 0.795609 -3 0 -3 
C -0.795609 -3 -1.55874 -2.683901 -2.12132 -2.12132 
C -2.683901 -1.55874 -3 -0.795609 -3 0 
C -3 0.795609 -2.683901 1.55874 -2.12132 2.12132 
C -1.55874 2.683901 -0.795609 3 0 3 
z
" style="stroke: #000000; stroke-width: 0.5"/>
     </defs>
     <g>
      <use xlink:href="#mbbebd7e030" x="315.051199" y="284.86484" style="fill: #7e57c2; stroke: #000000; stroke-width: 0.5"/>
     </g>
    </g>
    <g id="text_40">
     <!-- LUCA node -->
     <g transform="translate(327.651199 287.31484) scale(0.07 -0.07)">
      <defs>
       <path id="DejaVuSerif-4c" d="M 353 0 
L 353 331 
L 947 331 
L 947 4331 
L 353 4331 
L 353 4666 
L 2175 4666 
L 2175 4331 
L 1581 4331 
L 1581 384 
L 3713 384 
L 3713 1166 
L 4097 1166 
L 4097 0 
L 353 0 
z
" transform="scale(0.015625)"/>
       <path id="DejaVuSerif-55" d="M 897 4331 
L 300 4331 
L 300 4666 
L 2125 4666 
L 2125 4331 
L 1528 4331 
L 1528 1919 
Q 1528 1025 1820 672 
Q 2113 319 2828 319 
Q 3544 319 3836 672 
Q 4128 1025 4128 1919 
L 4128 4331 
L 3531 4331 
L 3531 4666 
L 5106 4666 
L 5106 4331 
L 4513 4331 
L 4513 1856 
Q 4513 791 4103 350 
Q 3694 -91 2713 -91 
Q 1731 -91 1314 353 
Q 897 797 897 1856 
L 897 4331 
z
" transform="scale(0.015625)"/>
       <path id="DejaVuSerif-64" d="M 3359 331 
L 3909 331 
L 3909 0 
L 2784 0 
L 2784 519 
Q 2616 206 2355 57 
Q 2094 -91 1709 -91 
Q 1097 -91 708 395 
Q 319 881 319 1663 
Q 319 2444 706 2928 
Q 1094 3413 1709 3413 
Q 2094 3413 2355 3264 
Q 2616 3116 2784 2803 
L 2784 4531 
L 2241 4531 
L 2241 4863 
L 3359 4863 
L 3359 331 
z
M 2784 1497 
L 2784 1825 
Q 2784 2422 2554 2737 
Q 2325 3053 1888 3053 
Q 1444 3053 1217 2703 
Q 991 2353 991 1663 
Q 991 975 1217 622 
Q 1444 269 1888 269 
Q 2325 269 2554 583 
Q 2784 897 2784 1497 
z
" transform="scale(0.015625)"/>
      </defs>
      <use xlink:href="#DejaVuSerif-4c"/>
      <use xlink:href="#DejaVuSerif-55" transform="translate(60.90625 0)"/>
      <use xlink:href="#DejaVuSerif-43" transform="translate(145.183594 0)"/>
      <use xlink:href="#DejaVuSerif-41" transform="translate(221.697266 0)"/>
      <use xlink:href="#DejaVuSerif-20" transform="translate(293.914062 0)"/>
      <use xlink:href="#DejaVuSerif-6e" transform="translate(325.701172 0)"/>
      <use xlink:href="#DejaVuSerif-6f" transform="translate(390.105469 0)"/>
      <use xlink:href="#DejaVuSerif-64" transform="translate(450.310547 0)"/>
      <use xlink:href="#DejaVuSerif-65" transform="translate(514.324219 0)"/>
     </g>
    </g>
    <g id="line2d_17">
     <path d="M 308.051199 295.139528 
L 315.051199 295.139528 
L 322.051199 295.139528 
" style="fill: none; stroke: #ffffff; stroke-linecap: square"/>
     <defs>
      <path id="ma9d3dda2b4" d="M 0 -3 
L -3 3 
L 3 3 
z
" style="stroke: #000000; stroke-width: 0.5; stroke-linejoin: miter"/>
     </defs>
     <g>
      <use xlink:href="#ma9d3dda2b4" x="315.051199" y="295.139528" style="fill: #5c9e5c; stroke: #000000; stroke-width: 0.5; stroke-linejoin: miter"/>
     </g>
    </g>
    <g id="text_41">
     <!-- Euk ancestor -->
     <g transform="translate(327.651199 297.589528) scale(0.07 -0.07)">
      <use xlink:href="#DejaVuSerif-45"/>
      <use xlink:href="#DejaVuSerif-75" transform="translate(72.998047 0)"/>
      <use xlink:href="#DejaVuSerif-6b" transform="translate(137.402344 0)"/>
      <use xlink:href="#DejaVuSerif-20" transform="translate(197.998047 0)"/>
      <use xlink:href="#DejaVuSerif-61" transform="translate(229.785156 0)"/>
      <use xlink:href="#DejaVuSerif-6e" transform="translate(289.404297 0)"/>
      <use xlink:href="#DejaVuSerif-63" transform="translate(353.808594 0)"/>
      <use xlink:href="#DejaVuSerif-65" transform="translate(409.814453 0)"/>
      <use xlink:href="#DejaVuSerif-73" transform="translate(468.994141 0)"/>
      <use xlink:href="#DejaVuSerif-74" transform="translate(520.3125 0)"/>
      <use xlink:href="#DejaVuSerif-6f" transform="translate(560.498047 0)"/>
      <use xlink:href="#DejaVuSerif-72" transform="translate(620.703125 0)"/>
     </g>
    </g>
    <g id="patch_20">
     <path d="M 308.051199 307.864215 
L 322.051199 307.864215 
L 322.051199 302.964215 
L 308.051199 302.964215 
z
" style="fill: #1976d2; opacity: 0.6"/>
    </g>
    <g id="text_42">
     <!-- Catalytic domain -->
     <g transform="translate(327.651199 307.864215) scale(0.07 -0.07)">
      <defs>
       <path id="DejaVuSerif-6c" d="M 1313 331 
L 1856 331 
L 1856 0 
L 184 0 
L 184 331 
L 738 331 
L 738 4531 
L 184 4531 
L 184 4863 
L 1313 4863 
L 1313 331 
z
" transform="scale(0.015625)"/>
      </defs>
      <use xlink:href="#DejaVuSerif-43"/>
      <use xlink:href="#DejaVuSerif-61" transform="translate(76.513672 0)"/>
      <use xlink:href="#DejaVuSerif-74" transform="translate(136.132812 0)"/>
      <use xlink:href="#DejaVuSerif-61" transform="translate(176.318359 0)"/>
      <use xlink:href="#DejaVuSerif-6c" transform="translate(235.9375 0)"/>
      <use xlink:href="#DejaVuSerif-79" transform="translate(267.919922 0)"/>
      <use xlink:href="#DejaVuSerif-74" transform="translate(324.414062 0)"/>
      <use xlink:href="#DejaVuSerif-69" transform="translate(364.599609 0)"/>
      <use xlink:href="#DejaVuSerif-63" transform="translate(396.582031 0)"/>
      <use xlink:href="#DejaVuSerif-20" transform="translate(452.587891 0)"/>
      <use xlink:href="#DejaVuSerif-64" transform="translate(484.375 0)"/>
      <use xlink:href="#DejaVuSerif-6f" transform="translate(548.388672 0)"/>
      <use xlink:href="#DejaVuSerif-6d" transform="translate(608.59375 0)"/>
      <use xlink:href="#DejaVuSerif-61" transform="translate(703.417969 0)"/>
      <use xlink:href="#DejaVuSerif-69" transform="translate(763.037109 0)"/>
      <use xlink:href="#DejaVuSerif-6e" transform="translate(795.019531 0)"/>
     </g>
    </g>
    <g id="patch_21">
     <path d="M 308.051199 318.238434 
L 322.051199 318.238434 
L 322.051199 313.338434 
L 308.051199 313.338434 
z
" style="fill: #f57c00; opacity: 0.6"/>
    </g>
    <g id="text_43">
     <!-- Editing domain -->
     <g transform="translate(327.651199 318.238434) scale(0.07 -0.07)">
      <defs>
       <path id="DejaVuSerif-67" d="M 3359 2988 
L 3359 72 
Q 3359 -644 2965 -1033 
Q 2572 -1422 1844 -1422 
Q 1516 -1422 1216 -1362 
Q 916 -1303 641 -1184 
L 641 -488 
L 941 -488 
Q 997 -813 1206 -963 
Q 1416 -1113 1806 -1113 
Q 2313 -1113 2548 -827 
Q 2784 -541 2784 72 
L 2784 519 
Q 2616 206 2355 57 
Q 2094 -91 1709 -91 
Q 1097 -91 708 395 
Q 319 881 319 1663 
Q 319 2444 706 2928 
Q 1094 3413 1709 3413 
Q 2094 3413 2355 3264 
Q 2616 3116 2784 2803 
L 2784 3322 
L 3909 3322 
L 3909 2988 
L 3359 2988 
z
M 2784 1825 
Q 2784 2422 2554 2737 
Q 2325 3053 1888 3053 
Q 1444 3053 1217 2703 
Q 991 2353 991 1663 
Q 991 975 1217 622 
Q 1444 269 1888 269 
Q 2325 269 2554 583 
Q 2784 897 2784 1497 
L 2784 1825 
z
" transform="scale(0.015625)"/>
      </defs>
      <use xlink:href="#DejaVuSerif-45"/>
      <use xlink:href="#DejaVuSerif-64" transform="translate(72.998047 0)"/>
      <use xlink:href="#DejaVuSerif-69" transform="translate(137.011719 0)"/>
      <use xlink:href="#DejaVuSerif-74" transform="translate(168.994141 0)"/>
      <use xlink:href="#DejaVuSerif-69" transform="translate(209.179688 0)"/>
      <use xlink:href="#DejaVuSerif-6e" transform="translate(241.162109 0)"/>
      <use xlink:href="#DejaVuSerif-67" transform="translate(305.566406 0)"/>
      <use xlink:href="#DejaVuSerif-20" transform="translate(369.580078 0)"/>
      <use xlink:href="#DejaVuSerif-64" transform="translate(401.367188 0)"/>
      <use xlink:href="#DejaVuSerif-6f" transform="translate(465.380859 0)"/>
      <use xlink:href="#DejaVuSerif-6d" transform="translate(525.585938 0)"/>
      <use xlink:href="#DejaVuSerif-61" transform="translate(620.410156 0)"/>
      <use xlink:href="#DejaVuSerif-69" transform="translate(680.029297 0)"/>
      <use xlink:href="#DejaVuSerif-6e" transform="translate(712.011719 0)"/>
     </g>
    </g>
   </g>
  </g>
  <g id="text_44">
   <!-- Figure 1: Phylogenetic Overview and Domain Architecture -->
   <g transform="translate(35.589464 14.798437) scale(0.1 -0.1)">
    <defs>
     <path id="DejaVuSerif-Bold-46" d="M 300 0 
L 300 378 
L 897 378 
L 897 4288 
L 300 4288 
L 300 4666 
L 4459 4666 
L 4459 3566 
L 4031 3566 
L 4031 4238 
L 2106 4238 
L 2106 2741 
L 3291 2741 
L 3291 3334 
L 3719 3334 
L 3719 1722 
L 3291 1722 
L 3291 2316 
L 2106 2316 
L 2106 378 
L 2841 378 
L 2841 0 
L 300 0 
z
" transform="scale(0.015625)"/>
     <path id="DejaVuSerif-Bold-31" d="M 878 0 
L 878 378 
L 1753 378 
L 1753 4153 
L 781 3578 
L 781 4044 
L 1953 4750 
L 2938 4750 
L 2938 378 
L 3816 378 
L 3816 0 
L 878 0 
z
" transform="scale(0.015625)"/>
     <path id="DejaVuSerif-Bold-3a" d="M 588 2541 
Q 588 2788 761 2963 
Q 934 3138 1178 3138 
Q 1422 3138 1597 2961 
Q 1772 2784 1772 2541 
Q 1772 2297 1598 2125 
Q 1425 1953 1178 1953 
Q 931 1953 759 2125 
Q 588 2297 588 2541 
z
M 588 506 
Q 588 750 761 925 
Q 934 1100 1178 1100 
Q 1422 1100 1597 925 
Q 1772 750 1772 506 
Q 1772 259 1597 84 
Q 1422 -91 1178 -91 
Q 934 -91 761 84 
Q 588 259 588 506 
z
" transform="scale(0.015625)"/>
     <path id="DejaVuSerif-Bold-4f" d="M 2784 288 
Q 3381 288 3672 791 
Q 3963 1294 3963 2328 
Q 3963 3366 3672 3869 
Q 3381 4372 2784 4372 
Q 2191 4372 1898 3864 
Q 1606 3356 1606 2328 
Q 1606 1303 1898 795 
Q 2191 288 2784 288 
z
M 2784 -91 
Q 1606 -91 937 553 
Q 269 1197 269 2328 
Q 269 3459 939 4104 
Q 1609 4750 2784 4750 
Q 3963 4750 4631 4106 
Q 5300 3463 5300 2328 
Q 5300 1197 4629 553 
Q 3959 -91 2784 -91 
z
" transform="scale(0.015625)"/>
     <path id="DejaVuSerif-Bold-76" d="M 1428 0 
L 250 2944 
L -116 2944 
L -116 3322 
L 1791 3322 
L 1791 2944 
L 1388 2944 
L 2228 844 
L 3066 2944 
L 2631 2944 
L 2631 3322 
L 3878 3322 
L 3878 2944 
L 3494 2944 
L 2316 0 
L 1428 0 
z
" transform="scale(0.015625)"/>
     <path id="DejaVuSerif-Bold-77" d="M 3450 3322 
L 4206 1106 
L 4831 2944 
L 4397 2944 
L 4397 3322 
L 5638 3322 
L 5638 2944 
L 5247 2944 
L 4244 0 
L 3481 0 
L 2778 2081 
L 2069 0 
L 1313 0 
L 306 2944 
L -56 2944 
L -56 3322 
L 1825 3322 
L 1825 2944 
L 1434 2944 
L 2047 1147 
L 2791 3322 
L 3450 3322 
z
" transform="scale(0.015625)"/>
    </defs>
    <use xlink:href="#DejaVuSerif-Bold-46"/>
    <use xlink:href="#DejaVuSerif-Bold-69" transform="translate(70.996094 0)"/>
    <use xlink:href="#DejaVuSerif-Bold-67" transform="translate(108.984375 0)"/>
    <use xlink:href="#DejaVuSerif-Bold-75" transform="translate(178.90625 0)"/>
    <use xlink:href="#DejaVuSerif-Bold-72" transform="translate(251.611328 0)"/>
    <use xlink:href="#DejaVuSerif-Bold-65" transform="translate(304.296875 0)"/>
    <use xlink:href="#DejaVuSerif-Bold-20" transform="translate(367.919922 0)"/>
    <use xlink:href="#DejaVuSerif-Bold-31" transform="translate(402.734375 0)"/>
    <use xlink:href="#DejaVuSerif-Bold-3a" transform="translate(472.314453 0)"/>
    <use xlink:href="#DejaVuSerif-Bold-20" transform="translate(509.228516 0)"/>
    <use xlink:href="#DejaVuSerif-Bold-50" transform="translate(544.042969 0)"/>
    <use xlink:href="#DejaVuSerif-Bold-68" transform="translate(619.238281 0)"/>
    <use xlink:href="#DejaVuSerif-Bold-79" transform="translate(691.943359 0)"/>
    <use xlink:href="#DejaVuSerif-Bold-6c" transform="translate(750.048828 0)"/>
    <use xlink:href="#DejaVuSerif-Bold-6f" transform="translate(788.037109 0)"/>
    <use xlink:href="#DejaVuSerif-Bold-67" transform="translate(854.736328 0)"/>
    <use xlink:href="#DejaVuSerif-Bold-65" transform="translate(924.658203 0)"/>
    <use xlink:href="#DejaVuSerif-Bold-6e" transform="translate(988.28125 0)"/>
    <use xlink:href="#DejaVuSerif-Bold-65" transform="translate(1060.986328 0)"/>
    <use xlink:href="#DejaVuSerif-Bold-74" transform="translate(1124.609375 0)"/>
    <use xlink:href="#DejaVuSerif-Bold-69" transform="translate(1170.800781 0)"/>
    <use xlink:href="#DejaVuSerif-Bold-63" transform="translate(1208.789062 0)"/>
    <use xlink:href="#DejaVuSerif-Bold-20" transform="translate(1269.677734 0)"/>
    <use xlink:href="#DejaVuSerif-Bold-4f" transform="translate(1304.492188 0)"/>
    <use xlink:href="#DejaVuSerif-Bold-76" transform="translate(1391.601562 0)"/>
    <use xlink:href="#DejaVuSerif-Bold-65" transform="translate(1449.707031 0)"/>
    <use xlink:href="#DejaVuSerif-Bold-72" transform="translate(1513.330078 0)"/>
    <use xlink:href="#DejaVuSerif-Bold-76" transform="translate(1566.015625 0)"/>
    <use xlink:href="#DejaVuSerif-Bold-69" transform="translate(1624.121094 0)"/>
    <use xlink:href="#DejaVuSerif-Bold-65" transform="translate(1662.109375 0)"/>
    <use xlink:href="#DejaVuSerif-Bold-77" transform="translate(1725.732422 0)"/>
    <use xlink:href="#DejaVuSerif-Bold-20" transform="translate(1811.816406 0)"/>
    <use xlink:href="#DejaVuSerif-Bold-61" transform="translate(1846.630859 0)"/>
    <use xlink:href="#DejaVuSerif-Bold-6e" transform="translate(1911.425781 0)"/>
    <use xlink:href="#DejaVuSerif-Bold-64" transform="translate(1984.130859 0)"/>
    <use xlink:href="#DejaVuSerif-Bold-20" transform="translate(2054.052734 0)"/>
    <use xlink:href="#DejaVuSerif-Bold-44" transform="translate(2088.867188 0)"/>
    <use xlink:href="#DejaVuSerif-Bold-6f" transform="translate(2175.585938 0)"/>
    <use xlink:href="#DejaVuSerif-Bold-6d" transform="translate(2242.285156 0)"/>
    <use xlink:href="#DejaVuSerif-Bold-61" transform="translate(2348.095703 0)"/>
    <use xlink:href="#DejaVuSerif-Bold-69" transform="translate(2412.890625 0)"/>
    <use xlink:href="#DejaVuSerif-Bold-6e" transform="translate(2450.878906 0)"/>
    <use xlink:href="#DejaVuSerif-Bold-20" transform="translate(2523.583984 0)"/>
    <use xlink:href="#DejaVuSerif-Bold-41" transform="translate(2558.398438 0)"/>
    <use xlink:href="#DejaVuSerif-Bold-72" transform="translate(2635.986328 0)"/>
    <use xlink:href="#DejaVuSerif-Bold-63" transform="translate(2688.671875 0)"/>
    <use xlink:href="#DejaVuSerif-Bold-68" transform="translate(2749.560547 0)"/>
    <use xlink:href="#DejaVuSerif-Bold-69" transform="translate(2822.265625 0)"/>
    <use xlink:href="#DejaVuSerif-Bold-74" transform="translate(2860.253906 0)"/>
    <use xlink:href="#DejaVuSerif-Bold-65" transform="translate(2906.445312 0)"/>
    <use xlink:href="#DejaVuSerif-Bold-63" transform="translate(2970.068359 0)"/>
    <use xlink:href="#DejaVuSerif-Bold-74" transform="translate(3030.957031 0)"/>
    <use xlink:href="#DejaVuSerif-Bold-75" transform="translate(3077.148438 0)"/>
    <use xlink:href="#DejaVuSerif-Bold-72" transform="translate(3149.853516 0)"/>
    <use xlink:href="#DejaVuSerif-Bold-65" transform="translate(3202.539062 0)"/>
   </g>
  </g>
 </g>
 <defs>
  <clipPath id="p66be8bfe4f">
   <rect x="7.738058" y="46.8" width="219.48" height="132.573913"/>
  </clipPath>
  <clipPath id="pbce980b523">
   <rect x="7.738058" y="219.146087" width="219.48" height="132.573913"/>
  </clipPath>
  <clipPath id="p80eae2673d">
   <rect x="293.062058" y="46.8" width="109.74" height="132.573913"/>
  </clipPath>
 </defs>
</svg>
